<svg width="97" height="143" viewBox="0 0 97 143" fill="none" xmlns="http://www.w3.org/2000/svg">
<path d="M72.7536 47.676C79.1841 47.676 85.3513 45.1645 89.8984 40.694C94.4455 36.2235 97 30.1602 97 23.838C97 17.5158 94.4455 11.4525 89.8984 6.98199C85.3513 2.5115 79.1841 0 72.7536 0L24.2607 0C17.8339 0 11.6703 2.51002 7.12587 6.97789C2.58145 11.4458 0.0284148 17.5055 0.0284148 23.824C0.0284148 30.1425 2.58145 36.2023 7.12587 40.6702C11.6703 45.138 17.8339 47.648 24.2607 47.648C17.8301 47.648 11.6629 50.1595 7.11583 54.63C2.56874 59.1005 0.0142109 65.1638 0.0142109 71.486C0.0142109 77.8083 2.56874 83.8716 7.11583 88.342C11.6629 92.8125 17.8301 95.324 24.2607 95.324C19.4652 95.3213 14.7765 96.7166 10.7877 99.3337C6.7988 101.951 3.68885 105.672 1.8511 110.027C0.0133498 114.381 -0.469666 119.174 0.463133 123.799C1.39593 128.424 3.70265 132.672 7.09159 136.008C10.4805 139.344 14.7995 141.617 19.5023 142.539C24.2051 143.462 29.0805 142.992 33.512 141.191C37.9436 139.389 41.7322 136.336 44.3987 132.417C47.0653 128.499 48.4901 123.891 48.4929 119.176V47.676H72.7536ZM72.7536 47.676C67.9609 47.676 63.2758 49.0732 59.2908 51.691C55.3059 54.3089 52.2 58.0297 50.3659 62.3829C48.5318 66.7362 48.0519 71.5264 48.9869 76.1478C49.9219 80.7692 52.2298 85.0143 55.6188 88.3461C59.0077 91.678 63.3255 93.947 68.0261 94.8663C72.7267 95.7855 77.599 95.3137 82.0268 93.5105C86.4547 91.7073 90.2393 88.6538 92.9019 84.7359C95.5646 80.8181 96.9858 76.2119 96.9858 71.5C96.985 65.1817 94.4318 59.1224 89.8875 54.6547C85.3432 50.187 79.1801 47.6767 72.7536 47.676Z" fill="#8F99A1"/>
</svg>
