<svg width="102" height="118" viewBox="0 0 102 138" fill="none" xmlns="http://www.w3.org/2000/svg">
<path d="M33.0283 106.652C11.9133 112.528 45.8066 124.692 72.6616 113.485C70.0555 112.471 67.5408 111.237 65.145 109.795C55.8213 111.918 46.1904 112.334 36.7183 111.025C27.7666 110 33.0283 106.652 33.0283 106.652V106.652ZM69.45 95.1717C57.4236 97.7871 45.0464 98.3875 32.8233 96.9483C23.8716 95.9917 29.7483 91.6867 29.7483 91.6867C6.51495 99.34 42.6633 108.087 75.1216 98.52C73.0114 97.8267 71.0765 96.6844 69.45 95.1717V95.1717ZM81.8866 28.6833C81.8866 28.6833 34.9416 40.3684 57.355 66.1983C58.2294 67.2467 58.881 68.4622 59.27 69.7708C59.6589 71.0793 59.7771 72.4534 59.6172 73.8092C59.4573 75.1649 59.0228 76.4739 58.3401 77.6561C57.6574 78.8382 56.7409 79.8689 55.6466 80.685C55.6466 80.685 72.4566 72.0067 64.735 61.1417C57.0133 50.2767 52.025 45.9717 81.8866 28.6833Z" fill="#8F99A1"/>
<path d="M92.8883 117.79C92.8883 117.79 96.715 120.933 88.5833 123.393C73.0717 128.108 24.145 129.543 10.5467 123.393C5.62667 121.275 14.7833 118.337 17.38 117.722C18.9192 117.324 20.5057 117.14 22.095 117.175C16.6283 113.348 -13.0967 124.692 6.99334 127.972C62.0017 137.333 107.033 124.145 92.8883 117.79V117.79ZM74.0283 84.4433C76.0378 83.1725 78.1392 82.0533 80.315 81.095C80.315 81.095 69.9967 82.94 59.815 83.8283C48.8662 84.885 37.8468 84.9993 26.8783 84.17C10.615 82.0516 35.5567 75.8333 35.5567 75.8333C28.0509 75.7751 20.6425 77.5335 13.9633 80.9583C-0.113328 87.9966 48.745 91.0716 74.0283 84.4433V84.4433ZM80.2467 101.117C80.0974 101.349 79.913 101.556 79.7 101.732C113.867 92.7116 101.43 69.9566 85.03 75.6966C84.1253 76.0294 83.3403 76.6241 82.775 77.4049C82.775 77.4049 83.7317 77.0633 85.7133 76.5849C94.05 74.8766 105.667 87.7233 80.2467 101.117V101.117ZM51 75.8333C45.9433 64.4216 28.7233 54.3766 51 36.815C78.9483 14.88 64.6667 0.666626 64.6667 0.666626C70.4067 23.285 44.1667 30.1183 35.01 44.195C28.655 53.83 38.2217 64.1483 51 75.8333Z" fill="#8F99A1"/>
<path d="M81.135 132.687C60.4897 136.221 39.4222 136.544 18.6783 133.643C18.6783 133.643 21.8217 136.24 38.085 137.265C62.7533 138.837 100.61 136.445 101.567 124.76C101.567 124.76 99.79 129.133 81.135 132.687V132.687Z" fill="#8F99A1"/>
</svg>
