<svg width="439" height="326" viewBox="0 0 439 326" fill="none" xmlns="http://www.w3.org/2000/svg">
<path d="M422.36 279.51C421.137 279.506 419.938 279.182 418.88 278.57L407.15 271.8C406.817 271.61 406.541 271.336 406.348 271.005C406.156 270.674 406.055 270.298 406.055 269.915C406.055 269.532 406.156 269.156 406.348 268.825C406.541 268.494 406.817 268.22 407.15 268.03L418.88 261.26C419.944 260.646 421.151 260.322 422.38 260.322C423.608 260.322 424.816 260.646 425.88 261.26L437.58 268C437.912 268.19 438.189 268.464 438.381 268.795C438.573 269.126 438.675 269.502 438.675 269.885C438.675 270.268 438.573 270.644 438.381 270.975C438.189 271.306 437.912 271.58 437.58 271.77L425.85 278.54C424.792 279.164 423.588 279.499 422.36 279.51V279.51ZM422.36 262.19C421.464 262.187 420.584 262.421 419.81 262.87L408.08 269.64C408.03 269.668 407.989 269.708 407.96 269.758C407.932 269.807 407.918 269.863 407.92 269.92C407.92 269.975 407.935 270.029 407.963 270.077C407.991 270.124 408.031 270.163 408.08 270.19L419.81 277C420.587 277.448 421.468 277.683 422.365 277.683C423.261 277.683 424.143 277.448 424.92 277L436.65 270.23C436.698 270.203 436.738 270.164 436.766 270.117C436.794 270.069 436.809 270.015 436.81 269.96C436.811 269.903 436.797 269.847 436.769 269.798C436.741 269.748 436.699 269.708 436.65 269.68L424.92 262.91C424.146 262.446 423.262 262.198 422.36 262.19V262.19Z" fill="url(#paint0_linear)"/>
<path d="M388.799 241.05C386.813 241.053 384.861 240.532 383.139 239.54L362.939 227.88C362.475 227.609 362.089 227.221 361.821 226.754C361.553 226.287 361.412 225.758 361.412 225.22C361.412 224.682 361.553 224.153 361.821 223.686C362.089 223.22 362.475 222.831 362.939 222.56L383.139 210.9C384.86 209.912 386.81 209.393 388.794 209.393C390.779 209.393 392.728 209.912 394.449 210.9L414.649 222.56C415.117 222.829 415.505 223.217 415.775 223.684C416.045 224.151 416.187 224.681 416.187 225.22C416.187 225.759 416.045 226.289 415.775 226.756C415.505 227.223 415.117 227.611 414.649 227.88L394.449 239.54C392.732 240.532 390.783 241.053 388.799 241.05ZM384.069 237.93C385.507 238.756 387.136 239.19 388.794 239.19C390.452 239.19 392.082 238.756 393.519 237.93L413.719 226.27C413.898 226.17 414.048 226.026 414.153 225.85C414.258 225.675 414.316 225.475 414.319 225.27C414.317 225.065 414.26 224.865 414.154 224.689C414.049 224.514 413.899 224.369 413.719 224.27L393.519 212.6C392.082 211.775 390.452 211.34 388.794 211.34C387.136 211.34 385.507 211.775 384.069 212.6L363.869 224.27C363.691 224.371 363.542 224.516 363.437 224.691C363.332 224.866 363.274 225.066 363.269 225.27C363.276 225.474 363.335 225.673 363.44 225.848C363.545 226.023 363.693 226.168 363.869 226.27L384.069 237.93Z" fill="url(#paint1_linear)"/>
<path d="M27.57 259.41C25.5872 259.408 23.6393 258.888 21.92 257.9L1.72002 246.23C1.25505 245.96 0.869124 245.573 0.600861 245.107C0.332597 244.641 0.191406 244.113 0.191406 243.575C0.191406 243.037 0.332597 242.509 0.600861 242.043C0.869124 241.577 1.25505 241.19 1.72002 240.92L21.92 229.26C23.6394 228.267 25.5897 227.745 27.575 227.745C29.5603 227.745 31.5107 228.267 33.23 229.26L53.43 240.92C53.895 241.19 54.2809 241.577 54.5492 242.043C54.8174 242.509 54.9586 243.037 54.9586 243.575C54.9586 244.113 54.8174 244.641 54.5492 245.107C54.2809 245.573 53.895 245.96 53.43 246.23L33.23 257.9C31.5076 258.889 29.5562 259.41 27.57 259.41ZM27.57 229.61C25.9135 229.609 24.2859 230.044 22.85 230.87L2.65002 242.53C2.46386 242.634 2.30958 242.786 2.20383 242.971C2.09809 243.156 2.04491 243.367 2.05002 243.58C2.05283 243.785 2.10983 243.985 2.21522 244.161C2.3206 244.336 2.47062 244.481 2.65002 244.58L22.85 256.24C24.2863 257.07 25.916 257.507 27.575 257.507C29.234 257.507 30.8638 257.07 32.3 256.24L52.5 244.58C52.6781 244.479 52.827 244.334 52.9322 244.159C53.0374 243.984 53.0952 243.784 53.1 243.58C53.103 243.367 53.0489 243.158 52.9433 242.973C52.8378 242.788 52.6847 242.635 52.5 242.53L32.3 230.87C30.861 230.043 29.2299 229.608 27.57 229.61Z" fill="url(#paint2_linear)"/>
<path opacity="0.6" d="M232.12 310.28L87.6903 226.89C85.5803 225.68 85.8503 223.56 88.2803 222.15L181 168.63C183.43 167.23 187.1 167.08 189.21 168.29L333.64 251.68C335.74 252.9 335.48 255.02 333.05 256.42L240.35 309.94C237.9 311.34 234.23 311.5 232.12 310.28Z" fill="#252C48"/>
<path d="M235.43 325.34C233.847 325.376 232.281 325.008 230.88 324.27L66.05 229.1C65.4639 228.812 64.9652 228.372 64.6049 227.828C64.2446 227.283 64.0359 226.652 64 226C64 224.55 65 223.14 66.76 222.13L179.12 156.3C182.21 154.52 186.73 154.3 189.43 155.9L354.23 251C354.832 251.289 355.343 251.735 355.712 252.291C356.08 252.848 356.29 253.493 356.32 254.16C356.32 255.6 355.32 257.01 353.56 258.03L241.19 323.88C239.426 324.849 237.443 325.352 235.43 325.34ZM184.87 156.66C183.179 156.64 181.51 157.049 180.02 157.85L67.66 223.69C66.5 224.35 65.82 225.19 65.82 225.94C65.8663 226.275 65.9971 226.594 66.2 226.865C66.4028 227.136 66.6712 227.351 66.98 227.49L231.81 322.66C233.91 323.88 237.81 323.66 240.25 322.27L352.61 256.44C353.76 255.77 354.45 254.93 354.45 254.18C354.404 253.844 354.273 253.526 354.07 253.255C353.867 252.984 353.599 252.769 353.29 252.63L188.46 157.47C187.353 156.896 186.116 156.618 184.87 156.66Z" fill="url(#paint3_linear)"/>
<path d="M372 111.88L228.13 28.82C227.695 28.5518 227.209 28.3761 226.703 28.3039C226.198 28.2316 225.682 28.2643 225.19 28.4L222.52 29.32L223.46 29.55C223.056 30.0297 222.756 30.5882 222.58 31.19L190 136.83C189.618 138.141 189.668 139.541 190.144 140.822C190.619 142.102 191.494 143.195 192.64 143.94L336.54 227C336.871 227.192 337.228 227.336 337.6 227.43L337.24 228.21L339.78 227.31C340.346 227.069 340.848 226.701 341.249 226.235C341.65 225.768 341.937 225.216 342.09 224.62L374.63 119C375.01 117.688 374.96 116.289 374.486 115.007C374.013 113.726 373.141 112.63 372 111.88Z" fill="url(#paint4_radial)"/>
<path d="M331.39 230.94L331.44 231L189.34 149C187.25 147.8 183.6 147.95 181.19 149.34L89.3803 202.34L86.3203 201.17L87.1703 205.46C87.2576 205.831 87.4269 206.178 87.6656 206.476C87.9044 206.774 88.2066 207.014 88.5503 207.18L232 290C234.09 291.21 237.74 291.05 240.15 289.66L332.2 236.52C332.665 236.298 333.079 235.981 333.414 235.59C333.75 235.199 334.001 234.743 334.15 234.25L335 230L331.39 230.94Z" fill="url(#paint5_radial)"/>
<path d="M232.12 286.17L87.6903 202.78C85.5803 201.57 85.8503 199.44 88.2803 198.04L181 144.52C183.43 143.12 187.1 142.97 189.21 144.18L333.64 227.57C335.74 228.79 335.48 230.91 333.05 232.31L240.35 285.83C237.9 287.23 234.23 287.39 232.12 286.17Z" fill="url(#paint6_radial)"/>
<path d="M333 231.19L240.3 284.71C237.87 286.11 234.2 286.26 232.09 285.05L87.6898 201.66C87.0767 201.347 86.6076 200.81 86.3798 200.16C86.2494 200.681 86.3098 201.232 86.55 201.713C86.7903 202.193 87.1946 202.572 87.6898 202.78L232.12 286.17C234.23 287.39 237.9 287.23 240.33 285.83L333 232.31C334.6 231.39 335.24 230.15 334.9 229.07C334.562 229.995 333.882 230.754 333 231.19Z" fill="white"/>
<g opacity="0.4">
<path opacity="0.4" d="M156.581 189.25L151.711 186.44C151.311 186.21 151.361 185.81 151.811 185.55L157.571 182.23C157.803 182.1 158.063 182.027 158.328 182.017C158.594 182.006 158.859 182.059 159.101 182.17L164.001 185C164.401 185.23 164.351 185.62 163.891 185.88L158.141 189.21C157.903 189.342 157.637 189.414 157.366 189.421C157.094 189.428 156.825 189.369 156.581 189.25Z" fill="#06033E"/>
<path opacity="0.4" d="M164.111 193.6L159.241 190.78C158.841 190.56 158.891 190.16 159.351 189.9L165.101 186.58C165.333 186.45 165.593 186.377 165.859 186.367C166.125 186.356 166.389 186.409 166.631 186.52L171.501 189.33C171.901 189.56 171.851 189.95 171.391 190.21L165.641 193.54C165.408 193.667 165.148 193.739 164.883 193.75C164.618 193.76 164.353 193.709 164.111 193.6Z" fill="#06033E"/>
<path opacity="0.4" d="M171.64 198L166.77 195.18C166.37 194.96 166.42 194.56 166.88 194.3L172.63 190.98C172.863 190.852 173.122 190.779 173.387 190.766C173.652 190.754 173.917 190.803 174.16 190.91L179.03 193.73C179.43 193.95 179.38 194.35 178.92 194.61L173.17 197.93C172.938 198.058 172.679 198.131 172.413 198.144C172.148 198.156 171.884 198.107 171.64 198Z" fill="#06033E"/>
<path opacity="0.4" d="M182.061 194.36L177.181 191.54C176.791 191.31 176.841 190.92 177.291 190.66L182.121 187.87C182.353 187.74 182.613 187.667 182.879 187.657C183.145 187.646 183.409 187.699 183.651 187.81L188.531 190.62C188.921 190.85 188.871 191.24 188.421 191.5L183.581 194.29C183.35 194.418 183.093 194.491 182.829 194.503C182.565 194.516 182.302 194.466 182.061 194.36Z" fill="#06033E"/>
<path opacity="0.4" d="M189.591 198.7L184.711 195.89C184.321 195.66 184.371 195.27 184.821 195.01L189.651 192.22C189.884 192.092 190.143 192.019 190.408 192.006C190.673 191.994 190.938 192.043 191.181 192.15L196.061 194.97C196.451 195.19 196.401 195.59 195.951 195.85L191.111 198.64C190.881 198.77 190.623 198.843 190.358 198.853C190.094 198.864 189.831 198.811 189.591 198.7Z" fill="#06033E"/>
<path opacity="0.4" d="M197.12 203.05L192.24 200.24C191.85 200.01 191.9 199.61 192.35 199.35L197.18 196.56C197.413 196.433 197.673 196.361 197.938 196.35C198.204 196.34 198.468 196.391 198.71 196.5L203.59 199.32C203.98 199.54 203.93 199.94 203.48 200.2L198.64 203C198.409 203.128 198.151 203.199 197.886 203.208C197.622 203.217 197.36 203.163 197.12 203.05Z" fill="#06033E"/>
<path opacity="0.4" d="M204.651 207.4L199.771 204.58C199.381 204.36 199.431 203.96 199.881 203.7L204.711 200.91C204.943 200.78 205.203 200.707 205.468 200.697C205.734 200.686 205.999 200.739 206.241 200.85L211.121 203.66C211.511 203.89 211.461 204.28 211.011 204.55L206.171 207.34C205.939 207.467 205.682 207.539 205.418 207.55C205.154 207.56 204.891 207.509 204.651 207.4Z" fill="#06033E"/>
<path opacity="0.4" d="M212.181 211.75L207.301 208.93C206.911 208.71 206.961 208.31 207.411 208.05L212.241 205.26C212.473 205.13 212.733 205.057 212.999 205.047C213.265 205.037 213.529 205.089 213.771 205.2L218.651 208.01C219.041 208.24 218.991 208.63 218.541 208.89L213.711 211.68C213.478 211.808 213.219 211.882 212.954 211.894C212.689 211.906 212.424 211.857 212.181 211.75Z" fill="#06033E"/>
<path opacity="0.4" d="M219.71 216.09L214.83 213.28C214.44 213.05 214.49 212.66 214.94 212.4L219.77 209.61C220.003 209.482 220.262 209.409 220.527 209.397C220.792 209.384 221.057 209.434 221.3 209.54L226.18 212.36C226.57 212.59 226.52 212.98 226.07 213.24L221.24 216C221.01 216.135 220.752 216.213 220.486 216.229C220.22 216.244 219.954 216.197 219.71 216.09Z" fill="#06033E"/>
<path opacity="0.4" d="M227.241 220.44L222.361 217.63C221.971 217.4 222.021 217.01 222.471 216.74L227.301 214C227.534 213.873 227.793 213.802 228.059 213.792C228.324 213.781 228.588 213.832 228.831 213.94L233.711 216.76C234.101 216.98 234.051 217.38 233.601 217.64L228.771 220.43C228.534 220.552 228.273 220.616 228.007 220.618C227.741 220.62 227.478 220.559 227.241 220.44Z" fill="#06033E"/>
<path opacity="0.4" d="M234.771 224.79L229.891 222C229.501 221.78 229.551 221.38 230.001 221.12L234.831 218.33C235.063 218.2 235.323 218.127 235.589 218.117C235.854 218.106 236.119 218.159 236.361 218.27L241.241 221.08C241.631 221.31 241.581 221.71 241.131 221.97L236.301 224.76C236.066 224.885 235.805 224.953 235.539 224.958C235.274 224.963 235.01 224.906 234.771 224.79Z" fill="#06033E"/>
<path opacity="0.4" d="M242.301 229.14L237.421 226.32C237.031 226.1 237.081 225.7 237.531 225.44L242.361 222.65C242.593 222.52 242.853 222.447 243.119 222.437C243.385 222.426 243.649 222.479 243.891 222.59L248.771 225.4C249.161 225.63 249.111 226.02 248.661 226.28L243.831 229.07C243.598 229.198 243.34 229.271 243.074 229.284C242.809 229.296 242.544 229.247 242.301 229.14Z" fill="#06033E"/>
<path opacity="0.4" d="M249.831 233.48L245.001 230.67C244.611 230.44 244.661 230.05 245.111 229.79L249.941 227C250.174 226.872 250.433 226.799 250.698 226.786C250.963 226.774 251.228 226.823 251.471 226.93L256.351 229.75C256.741 229.98 256.691 230.37 256.241 230.63L251.411 233.42C251.173 233.558 250.904 233.636 250.629 233.646C250.353 233.657 250.079 233.6 249.831 233.48Z" fill="#06033E"/>
<path opacity="0.4" d="M193.151 192.3L188.281 189.48C187.881 189.26 187.931 188.86 188.391 188.6L193.221 185.81C193.452 185.68 193.71 185.607 193.974 185.597C194.238 185.587 194.501 185.639 194.741 185.75L199.621 188.56C200.011 188.79 199.961 189.18 199.511 189.44L194.681 192.23C194.449 192.361 194.19 192.435 193.924 192.447C193.659 192.459 193.394 192.409 193.151 192.3Z" fill="#06033E"/>
<path opacity="0.4" d="M185.511 187.89L180.631 185.07C180.241 184.84 180.291 184.45 180.741 184.19L185.571 181.4C185.803 181.27 186.063 181.197 186.329 181.187C186.595 181.176 186.859 181.229 187.101 181.34L191.981 184.15C192.371 184.38 192.321 184.77 191.871 185.03L187.001 187.82C186.774 187.942 186.522 188.012 186.264 188.024C186.006 188.036 185.749 187.99 185.511 187.89Z" fill="#06033E"/>
<path opacity="0.4" d="M177.851 183.47L167.351 177.4C166.961 177.18 167.011 176.78 167.461 176.52L172.291 173.73C172.523 173.6 172.783 173.527 173.049 173.517C173.314 173.506 173.579 173.559 173.821 173.67L184.321 179.73C184.711 179.96 184.671 180.35 184.211 180.61L179.381 183.4C179.148 183.528 178.889 183.602 178.624 183.614C178.359 183.626 178.094 183.577 177.851 183.47Z" fill="#06033E"/>
<path opacity="0.4" d="M183.211 178.09L174.681 173.17C174.291 172.94 174.341 172.55 174.791 172.29L179.621 169.5C179.853 169.37 180.113 169.297 180.379 169.287C180.645 169.277 180.909 169.329 181.151 169.44L189.671 174.36C190.071 174.58 190.021 174.98 189.561 175.24L184.731 178C184.503 178.135 184.246 178.213 183.982 178.228C183.717 178.244 183.453 178.197 183.211 178.09Z" fill="#06033E"/>
<path opacity="0.4" d="M200.68 196.65L195.81 193.83C195.41 193.6 195.46 193.21 195.92 192.95L200.75 190.16C200.981 190.031 201.239 189.958 201.503 189.947C201.767 189.937 202.03 189.989 202.27 190.1L207.15 192.91C207.54 193.14 207.49 193.53 207.04 193.79L202.21 196.58C201.978 196.709 201.719 196.782 201.453 196.794C201.188 196.806 200.924 196.757 200.68 196.65Z" fill="#06033E"/>
<path opacity="0.4" d="M208.211 201L203.341 198.19C202.941 197.96 202.991 197.57 203.451 197.31L208.281 194.52C208.511 194.392 208.769 194.319 209.032 194.307C209.296 194.295 209.559 194.344 209.801 194.45L214.681 197.27C215.071 197.49 215.021 197.89 214.571 198.15L209.741 200.94C209.508 201.07 209.249 201.143 208.983 201.153C208.717 201.164 208.452 201.111 208.211 201Z" fill="#06033E"/>
<path opacity="0.4" d="M215.741 205.34L210.871 202.53C210.481 202.3 210.521 201.9 210.981 201.64L215.811 198.85C216.043 198.72 216.303 198.647 216.569 198.637C216.834 198.626 217.099 198.679 217.341 198.79L222.211 201.61C222.601 201.83 222.551 202.23 222.101 202.49L217.271 205.28C217.038 205.41 216.779 205.483 216.513 205.493C216.247 205.504 215.982 205.451 215.741 205.34Z" fill="#06033E"/>
<path opacity="0.4" d="M223.271 209.69L218.401 206.87C218.011 206.65 218.051 206.25 218.511 205.99L223.341 203.2C223.573 203.07 223.833 202.997 224.099 202.987C224.365 202.976 224.629 203.029 224.871 203.14L229.741 205.95C230.131 206.18 230.081 206.57 229.631 206.84L224.801 209.62C224.569 209.751 224.31 209.825 224.044 209.837C223.779 209.849 223.514 209.799 223.271 209.69Z" fill="#06033E"/>
<path opacity="0.4" d="M230.8 214L225.93 211.18C225.54 210.95 225.58 210.56 226.04 210.3L230.87 207.51C231.103 207.38 231.362 207.307 231.628 207.297C231.894 207.287 232.159 207.339 232.4 207.45L237.27 210.26C237.66 210.49 237.61 210.88 237.16 211.14L232.33 214C232.092 214.117 231.831 214.178 231.565 214.178C231.3 214.178 231.038 214.117 230.8 214Z" fill="#06033E"/>
<path opacity="0.4" d="M238.331 218.38L233.461 215.57C233.071 215.34 233.111 214.95 233.571 214.69L238.401 211.9C238.633 211.772 238.892 211.699 239.157 211.687C239.423 211.674 239.687 211.724 239.931 211.83L244.801 214.65C245.191 214.87 245.141 215.27 244.691 215.53L239.861 218.32C239.628 218.45 239.369 218.523 239.103 218.533C238.837 218.544 238.572 218.491 238.331 218.38Z" fill="#06033E"/>
<path opacity="0.4" d="M245.861 222.73L241.001 219.92C240.611 219.69 240.661 219.29 241.111 219.03L245.941 216.24C246.173 216.11 246.433 216.037 246.699 216.027C246.965 216.017 247.229 216.069 247.471 216.18L252.341 219C252.731 219.22 252.681 219.62 252.231 219.88L247.401 222.67C247.168 222.802 246.906 222.875 246.638 222.886C246.371 222.896 246.104 222.843 245.861 222.73Z" fill="#06033E"/>
<path opacity="0.4" d="M253.391 227.08L248.521 224.26C248.131 224.04 248.181 223.64 248.631 223.38L253.461 220.59C253.693 220.46 253.953 220.387 254.218 220.377C254.484 220.366 254.749 220.419 254.991 220.53L259.861 223.34C260.251 223.57 260.211 223.96 259.751 224.23L254.921 227C254.689 227.131 254.431 227.206 254.165 227.22C253.9 227.234 253.635 227.186 253.391 227.08Z" fill="#06033E"/>
<path opacity="0.4" d="M260.921 231.43L256.051 228.61C255.661 228.38 255.711 227.99 256.161 227.73L260.991 224.94C261.223 224.81 261.483 224.737 261.749 224.727C262.015 224.716 262.279 224.769 262.521 224.88L267.391 227.69C267.781 227.92 267.741 228.31 267.281 228.57L262.451 231.36C262.218 231.488 261.959 231.562 261.694 231.574C261.429 231.586 261.164 231.537 260.921 231.43Z" fill="#06033E"/>
<path opacity="0.4" d="M274.311 239.16L263.671 233C263.281 232.78 263.331 232.38 263.781 232.12L268.611 229.33C268.843 229.2 269.103 229.127 269.369 229.117C269.635 229.106 269.899 229.159 270.141 229.27L280.781 235.41C281.171 235.64 281.121 236.03 280.671 236.29L275.841 239.08C275.609 239.21 275.351 239.285 275.085 239.299C274.82 239.312 274.555 239.265 274.311 239.16Z" fill="#06033E"/>
<path opacity="0.4" d="M289.001 230.69L280.001 225.51C279.611 225.28 279.661 224.89 280.111 224.62L284.941 221.83C285.174 221.703 285.434 221.632 285.699 221.622C285.964 221.611 286.229 221.662 286.471 221.77L295.471 226.96C295.861 227.18 295.811 227.58 295.361 227.84L290.531 230.63C290.299 230.76 290.039 230.833 289.773 230.843C289.507 230.854 289.243 230.801 289.001 230.69Z" fill="#06033E"/>
<path opacity="0.4" d="M213.871 195.79L209.001 193C208.611 192.77 208.661 192.38 209.111 192.12L213.941 189.33C214.174 189.202 214.433 189.129 214.698 189.117C214.963 189.104 215.228 189.154 215.471 189.26L220.351 192.08C220.741 192.31 220.691 192.7 220.241 192.96L215.411 195.75C215.176 195.878 214.914 195.949 214.646 195.956C214.378 195.963 214.113 195.906 213.871 195.79Z" fill="#06033E"/>
<path opacity="0.4" d="M206.151 191.34L201.281 188.52C200.881 188.3 200.931 187.9 201.391 187.64L206.221 184.85C206.452 184.721 206.71 184.647 206.974 184.637C207.238 184.627 207.501 184.679 207.741 184.79L212.621 187.6C213.011 187.83 212.961 188.23 212.511 188.49L207.681 191.28C207.448 191.408 207.189 191.479 206.923 191.49C206.658 191.5 206.393 191.449 206.151 191.34Z" fill="#06033E"/>
<path opacity="0.4" d="M198.431 186.88L193.561 184.07C193.171 183.84 193.221 183.45 193.671 183.19L198.501 180.4C198.733 180.272 198.992 180.199 199.258 180.187C199.523 180.174 199.787 180.224 200.031 180.33L204.901 183.15C205.291 183.37 205.251 183.77 204.791 184.03L200.001 186.82C199.763 186.957 199.497 187.033 199.223 187.044C198.95 187.054 198.678 186.998 198.431 186.88Z" fill="#06033E"/>
<path opacity="0.4" d="M190.721 182.43L185.841 179.61C185.451 179.39 185.501 178.99 185.951 178.73L190.781 175.94C191.013 175.81 191.273 175.737 191.539 175.727C191.805 175.716 192.069 175.769 192.311 175.88L197.191 178.69C197.581 178.92 197.531 179.31 197.081 179.57L192.241 182.36C192.01 182.488 191.753 182.561 191.489 182.573C191.225 182.586 190.963 182.537 190.721 182.43Z" fill="#06033E"/>
<path opacity="0.4" d="M221.401 200.14L216.521 197.33C216.131 197.1 216.181 196.71 216.631 196.45L221.461 193.66C221.692 193.529 221.952 193.455 222.217 193.443C222.483 193.431 222.748 193.481 222.991 193.59L227.871 196.41C228.261 196.63 228.211 197.03 227.761 197.29L222.931 200.08C222.698 200.21 222.439 200.283 222.173 200.293C221.907 200.304 221.642 200.251 221.401 200.14Z" fill="#06033E"/>
<path opacity="0.4" d="M228.931 204.49L224.051 201.67C223.661 201.45 223.711 201.05 224.161 200.79L229.001 198C229.233 197.87 229.493 197.797 229.759 197.787C230.025 197.777 230.289 197.829 230.531 197.94L235.411 200.76C235.801 200.98 235.751 201.38 235.301 201.64L230.471 204.43C230.237 204.562 229.976 204.635 229.708 204.646C229.44 204.656 229.174 204.603 228.931 204.49Z" fill="#06033E"/>
<path opacity="0.4" d="M236.46 208.84L231.58 206C231.19 205.78 231.24 205.38 231.69 205.12L236.53 202.33C236.761 202.2 237.019 202.127 237.283 202.117C237.547 202.107 237.81 202.159 238.05 202.27L242.93 205.08C243.32 205.31 243.27 205.7 242.82 205.96L238 208.77C237.767 208.902 237.506 208.978 237.239 208.99C236.971 209.002 236.704 208.951 236.46 208.84Z" fill="#06033E"/>
<path opacity="0.4" d="M244 213.19L239.12 210.37C238.73 210.14 238.78 209.75 239.23 209.49L244.07 206.7C244.301 206.57 244.559 206.497 244.823 206.487C245.087 206.476 245.35 206.529 245.59 206.64L250.47 209.45C250.86 209.68 250.81 210.07 250.36 210.33L245.53 213.12C245.298 213.248 245.039 213.321 244.773 213.334C244.508 213.346 244.244 213.297 244 213.19Z" fill="#06033E"/>
<path opacity="0.4" d="M251.521 217.53L246.641 214.72C246.251 214.49 246.301 214.1 246.751 213.84L251.591 211.05C251.82 210.919 252.078 210.844 252.342 210.832C252.607 210.82 252.87 210.87 253.111 210.98L258.001 213.8C258.391 214.02 258.341 214.42 257.891 214.68L253.061 217.47C252.827 217.601 252.566 217.675 252.298 217.686C252.03 217.696 251.764 217.643 251.521 217.53Z" fill="#06033E"/>
<path opacity="0.4" d="M259.051 221.88L254.171 219.06C253.781 218.84 253.831 218.44 254.281 218.18L259.121 215.39C259.352 215.261 259.61 215.188 259.874 215.177C260.138 215.167 260.401 215.219 260.641 215.33L265.521 218.15C265.911 218.37 265.861 218.77 265.411 219.03L260.581 221.82C260.349 221.95 260.089 222.023 259.823 222.033C259.557 222.044 259.293 221.991 259.051 221.88Z" fill="#06033E"/>
<path opacity="0.4" d="M266.58 226.23L261.7 223.41C261.31 223.19 261.36 222.79 261.81 222.53L266.65 219.74C266.881 219.61 267.139 219.537 267.403 219.527C267.667 219.517 267.93 219.569 268.17 219.68L273.05 222.49C273.44 222.72 273.39 223.11 272.94 223.38L268.11 226.16C267.879 226.291 267.619 226.365 267.354 226.377C267.088 226.389 266.823 226.339 266.58 226.23Z" fill="#06033E"/>
<path opacity="0.4" d="M274.111 230.58L269.241 227.76C268.841 227.53 268.891 227.14 269.341 226.88L274.181 224.09C274.411 223.96 274.669 223.887 274.934 223.877C275.198 223.867 275.461 223.919 275.701 224.03L280.581 226.84C280.971 227.07 280.921 227.46 280.471 227.72L275.641 230.51C275.408 230.638 275.149 230.712 274.884 230.724C274.619 230.736 274.354 230.687 274.111 230.58Z" fill="#06033E"/>
<path opacity="0.4" d="M281.64 234.92L276.77 232.11C276.37 231.88 276.42 231.49 276.88 231.23L281.71 228.44C281.941 228.312 282.198 228.239 282.462 228.227C282.726 228.215 282.989 228.264 283.23 228.37L288.11 231.19C288.5 231.41 288.45 231.81 288 232.07L283.17 234.86C282.938 234.99 282.678 235.063 282.412 235.073C282.147 235.084 281.882 235.031 281.64 234.92Z" fill="#06033E"/>
<path opacity="0.4" d="M209.901 185L205.001 182.23C204.611 182 204.661 181.6 205.111 181.34L209.941 178.55C210.174 178.423 210.434 178.351 210.699 178.34C210.965 178.33 211.229 178.381 211.471 178.49L216.341 181.31C216.731 181.53 216.691 181.93 216.231 182.19L211.431 185C211.194 185.12 210.932 185.183 210.666 185.183C210.4 185.183 210.138 185.12 209.901 185Z" fill="#06033E"/>
<path opacity="0.4" d="M202.411 180.72L197.541 177.9C197.141 177.67 197.191 177.28 197.641 177.02L202.481 174.23C202.711 174.1 202.969 174.027 203.234 174.017C203.498 174.006 203.761 174.059 204.001 174.17L208.881 176.98C209.271 177.21 209.221 177.6 208.771 177.86L203.941 180.65C203.708 180.778 203.449 180.851 203.184 180.864C202.919 180.876 202.654 180.827 202.411 180.72Z" fill="#06033E"/>
<path opacity="0.4" d="M194.921 176.39L190.001 173.57C189.611 173.35 189.661 172.95 190.111 172.69L195.001 169.9C195.233 169.77 195.493 169.697 195.759 169.687C196.025 169.676 196.289 169.729 196.531 169.84L201.411 172.65C201.801 172.88 201.751 173.28 201.301 173.54L196.471 176.33C196.236 176.463 195.973 176.538 195.703 176.548C195.434 176.559 195.166 176.505 194.921 176.39Z" fill="#06033E"/>
<path opacity="0.4" d="M187.431 172.06L182.551 169.25C182.161 169.02 182.211 168.63 182.661 168.37L187.491 165.58C187.723 165.452 187.982 165.379 188.248 165.367C188.513 165.354 188.778 165.404 189.021 165.51L193.891 168.33C194.291 168.55 194.241 168.95 193.781 169.21L189.001 172C188.764 172.138 188.497 172.216 188.223 172.226C187.95 172.237 187.677 172.18 187.431 172.06Z" fill="#06033E"/>
<path opacity="0.4" d="M195.131 167.61L190.251 164.8C189.861 164.57 189.911 164.18 190.361 163.92L192.001 163C192.233 162.87 192.492 162.795 192.758 162.783C193.024 162.771 193.288 162.821 193.531 162.93L198.401 165.75C198.801 165.97 198.751 166.37 198.301 166.63L196.701 167.55C196.464 167.686 196.197 167.763 195.924 167.774C195.65 167.784 195.378 167.728 195.131 167.61Z" fill="#06033E"/>
<path opacity="0.4" d="M204.911 173.26L200.001 170.44C199.611 170.22 199.661 169.82 200.111 169.56L201.711 168.64C201.943 168.51 202.203 168.437 202.469 168.427C202.735 168.416 202.999 168.469 203.241 168.58L208.111 171.39C208.501 171.62 208.461 172.01 208.001 172.27L206.411 173.2C206.183 173.325 205.928 173.395 205.668 173.406C205.408 173.416 205.149 173.366 204.911 173.26Z" fill="#06033E"/>
<path opacity="0.4" d="M212.37 177.57L207.49 174.75C207.1 174.53 207.15 174.13 207.6 173.87L209.2 172.95C209.433 172.82 209.692 172.747 209.958 172.737C210.224 172.726 210.489 172.779 210.73 172.89L215.6 175.7C216 175.93 215.95 176.32 215.5 176.58L213.9 177.5C213.669 177.631 213.409 177.705 213.144 177.717C212.878 177.729 212.613 177.679 212.37 177.57Z" fill="#06033E"/>
<path opacity="0.4" d="M219.831 181.88L215.001 179.06C214.601 178.83 214.651 178.44 215.111 178.18L216.701 177.26C216.933 177.132 217.192 177.059 217.458 177.046C217.723 177.034 217.987 177.083 218.231 177.19L223.111 180.01C223.501 180.23 223.451 180.63 223.001 180.89L221.401 181.81C221.163 181.945 220.897 182.021 220.624 182.034C220.351 182.046 220.079 181.993 219.831 181.88Z" fill="#06033E"/>
<path opacity="0.4" d="M227.291 186.18L222.421 183.37C222.031 183.14 222.071 182.75 222.531 182.49L224.121 181.56C224.354 181.433 224.613 181.362 224.879 181.352C225.144 181.341 225.408 181.392 225.651 181.5L230.531 184.32C230.921 184.54 230.871 184.94 230.421 185.2L228.821 186.12C228.588 186.25 228.329 186.323 228.063 186.333C227.797 186.344 227.532 186.291 227.291 186.18Z" fill="#06033E"/>
<path opacity="0.4" d="M269 210.23L264.12 207.42C263.73 207.19 263.78 206.8 264.23 206.54L265.83 205.62C266.062 205.49 266.321 205.415 266.587 205.403C266.853 205.391 267.118 205.441 267.36 205.55L272.23 208.37C272.63 208.59 272.58 208.99 272.12 209.25L270.53 210.17C270.298 210.3 270.038 210.373 269.772 210.383C269.507 210.394 269.242 210.341 269 210.23Z" fill="#06033E"/>
<path opacity="0.4" d="M276.411 214.54L271.541 211.73C271.141 211.5 271.191 211.11 271.651 210.85L273.241 209.92C273.473 209.79 273.733 209.717 273.999 209.707C274.264 209.696 274.529 209.749 274.771 209.86L279.651 212.68C280.041 212.9 279.991 213.3 279.541 213.56L277.941 214.48C277.708 214.61 277.449 214.683 277.183 214.693C276.917 214.704 276.653 214.651 276.411 214.54Z" fill="#06033E"/>
<path opacity="0.4" d="M283.871 218.85L279.001 216C278.611 215.77 278.651 215.37 279.111 215.11L280.701 214.19C280.933 214.06 281.193 213.987 281.458 213.977C281.724 213.966 281.989 214.019 282.231 214.13L287.111 216.94C287.501 217.17 287.451 217.56 287.001 217.82L285.401 218.75C285.172 218.886 284.914 218.966 284.648 218.984C284.382 219.001 284.115 218.955 283.871 218.85Z" fill="#06033E"/>
<path opacity="0.4" d="M291.341 223.16L286.461 220.34C286.071 220.12 286.121 219.72 286.571 219.46L288.171 218.54C288.402 218.41 288.66 218.337 288.924 218.327C289.188 218.317 289.451 218.369 289.691 218.48L294.571 221.29C294.961 221.52 294.911 221.91 294.461 222.17L292.861 223.1C292.63 223.227 292.372 223.299 292.108 223.31C291.844 223.32 291.582 223.269 291.341 223.16Z" fill="#06033E"/>
<path opacity="0.4" d="M217.431 189.39L212.561 186.57C212.171 186.35 212.221 185.95 212.671 185.69L217.501 182.9C217.733 182.77 217.993 182.697 218.259 182.687C218.524 182.676 218.789 182.729 219.031 182.84L223.901 185.65C224.291 185.88 224.251 186.27 223.791 186.54L219.001 189.33C218.763 189.464 218.496 189.539 218.223 189.55C217.95 189.56 217.678 189.505 217.431 189.39Z" fill="#06033E"/>
<path opacity="0.4" d="M225.001 193.74L220.131 190.92C219.741 190.69 219.791 190.3 220.241 190.04L225.071 187.25C225.303 187.12 225.563 187.047 225.829 187.037C226.095 187.027 226.359 187.079 226.601 187.19L231.471 190C231.861 190.23 231.821 190.62 231.361 190.88L226.531 193.67C226.298 193.798 226.04 193.872 225.774 193.884C225.509 193.896 225.244 193.847 225.001 193.74Z" fill="#06033E"/>
<path opacity="0.4" d="M232.49 198.08L227.62 195.27C227.23 195.04 227.28 194.65 227.73 194.39L232.56 191.6C232.793 191.472 233.052 191.399 233.317 191.387C233.582 191.374 233.847 191.424 234.09 191.53L238.96 194.35C239.36 194.58 239.31 194.97 238.85 195.23L234 198C233.772 198.13 233.517 198.205 233.255 198.218C232.993 198.232 232.731 198.185 232.49 198.08Z" fill="#06033E"/>
<path opacity="0.4" d="M240 202.43L235.12 199.62C234.73 199.39 234.78 199 235.23 198.73L240.06 195.94C240.293 195.812 240.553 195.741 240.818 195.73C241.084 195.72 241.348 195.771 241.59 195.88L246.46 198.7C246.86 198.92 246.81 199.32 246.35 199.58L241.52 202.37C241.29 202.5 241.032 202.573 240.768 202.583C240.503 202.594 240.24 202.541 240 202.43Z" fill="#06033E"/>
<path opacity="0.4" d="M247.561 206.78L242.681 204C242.291 203.78 242.341 203.38 242.791 203.12L247.621 200.33C247.853 200.2 248.113 200.127 248.379 200.117C248.644 200.106 248.909 200.159 249.151 200.27L254.001 203C254.401 203.23 254.351 203.63 253.891 203.89L249.061 206.68C248.836 206.813 248.583 206.891 248.323 206.908C248.062 206.926 247.801 206.882 247.561 206.78Z" fill="#06033E"/>
<path opacity="0.4" d="M255.091 211.13L250.211 208.31C249.821 208.09 249.871 207.69 250.321 207.43L255.151 204.64C255.383 204.51 255.643 204.437 255.909 204.427C256.175 204.416 256.439 204.469 256.681 204.58L261.551 207.39C261.951 207.62 261.901 208.01 261.441 208.27L256.611 211.06C256.38 211.188 256.123 211.261 255.859 211.273C255.596 211.286 255.333 211.237 255.091 211.13Z" fill="#06033E"/>
<path opacity="0.4" d="M262.62 215.47L257.74 212.66C257.35 212.43 257.4 212.04 257.85 211.78L262.68 208.99C262.913 208.862 263.172 208.789 263.437 208.776C263.703 208.764 263.967 208.813 264.21 208.92L269.08 211.74C269.48 211.97 269.43 212.36 268.97 212.62L264.14 215.41C263.91 215.54 263.652 215.613 263.388 215.623C263.123 215.634 262.86 215.581 262.62 215.47Z" fill="#06033E"/>
<path opacity="0.4" d="M270.151 219.82L265.271 217C264.881 216.77 264.931 216.38 265.381 216.11L270.211 213.33C270.442 213.2 270.702 213.125 270.967 213.113C271.233 213.101 271.498 213.151 271.741 213.26L276.611 216.08C277.011 216.3 276.961 216.7 276.511 216.96L271.671 219.75C271.441 219.881 271.183 219.956 270.919 219.968C270.655 219.981 270.391 219.93 270.151 219.82Z" fill="#06033E"/>
<path opacity="0.4" d="M277.681 224.17L272.801 221.35C272.411 221.13 272.461 220.73 272.911 220.47L277.741 217.68C277.973 217.55 278.233 217.477 278.499 217.467C278.765 217.456 279.029 217.509 279.271 217.62L284.151 220.43C284.541 220.66 284.491 221.06 284.041 221.32L279.201 224.11C278.97 224.24 278.712 224.313 278.448 224.323C278.184 224.334 277.921 224.281 277.681 224.17Z" fill="#06033E"/>
<path opacity="0.4" d="M174.381 189.93L160.001 181.63C159.611 181.41 159.661 181.01 160.111 180.75L165.001 178C165.233 177.87 165.493 177.797 165.759 177.787C166.025 177.777 166.289 177.829 166.531 177.94L180.891 186.23C181.281 186.46 181.231 186.85 180.781 187.11L175.951 189.9C175.71 190.029 175.443 190.098 175.17 190.104C174.897 190.109 174.627 190.049 174.381 189.93Z" fill="#06033E"/>
<path opacity="0.4" d="M266.89 243.34L252.53 235.05C252.14 234.82 252.19 234.42 252.64 234.16L257.47 231.37C257.703 231.24 257.962 231.167 258.228 231.157C258.494 231.146 258.759 231.199 259 231.31L273.36 239.6C273.75 239.83 273.7 240.22 273.25 240.48L268.42 243.27C268.188 243.398 267.929 243.471 267.664 243.484C267.398 243.496 267.134 243.447 266.89 243.34Z" fill="#06033E"/>
<path opacity="0.4" d="M236.781 235.55L231.901 232.74C231.511 232.51 231.561 232.12 232.011 231.86L237.771 228.53C238.003 228.4 238.262 228.327 238.528 228.317C238.794 228.306 239.059 228.359 239.301 228.47L244.171 231.29C244.561 231.51 244.511 231.91 244.061 232.17L238.311 235.49C238.078 235.62 237.819 235.693 237.553 235.703C237.287 235.714 237.022 235.661 236.781 235.55Z" fill="#06033E"/>
<path opacity="0.4" d="M182.091 204L174.301 199.5C173.901 199.27 173.951 198.88 174.411 198.62L180.161 195.29C180.393 195.16 180.653 195.087 180.918 195.077C181.184 195.067 181.449 195.119 181.691 195.23L189.491 199.73C189.881 199.96 189.831 200.35 189.381 200.61L183.621 203.94C183.388 204.07 183.129 204.143 182.863 204.153C182.597 204.164 182.332 204.111 182.091 204Z" fill="#06033E"/>
<path opacity="0.4" d="M229.52 231.36L221.73 226.86C221.33 226.64 221.38 226.24 221.84 225.98L227.59 222.66C227.823 222.532 228.082 222.459 228.347 222.447C228.612 222.434 228.877 222.484 229.12 222.59L236.92 227.1C237.31 227.32 237.26 227.72 236.81 227.98L231.05 231.3C230.818 231.43 230.558 231.503 230.292 231.513C230.027 231.524 229.762 231.471 229.52 231.36Z" fill="#06033E"/>
<path opacity="0.4" d="M193 210.25L185.2 205.75C184.81 205.53 184.86 205.13 185.31 204.87L191.07 201.55C191.301 201.422 191.558 201.349 191.822 201.337C192.086 201.325 192.349 201.374 192.59 201.48L200.39 205.99C200.78 206.21 200.73 206.61 200.28 206.87L194.53 210.19C194.298 210.32 194.038 210.393 193.773 210.403C193.507 210.414 193.242 210.361 193 210.25Z" fill="#06033E"/>
<path opacity="0.4" d="M192.611 201.51L226.511 221.09C226.605 221.119 226.688 221.177 226.746 221.256C226.805 221.335 226.837 221.431 226.837 221.53C226.837 221.629 226.805 221.725 226.746 221.804C226.688 221.883 226.605 221.941 226.511 221.97L220.641 225.36C220.405 225.479 220.145 225.541 219.881 225.541C219.617 225.541 219.357 225.479 219.121 225.36L185.211 205.78L192.611 201.51Z" fill="#06033E"/>
<path opacity="0.4" d="M257.831 243.44L263.261 246.57C263.581 246.76 263.541 247.08 263.171 247.29L260.811 248.65C260.622 248.757 260.41 248.818 260.193 248.829C259.976 248.839 259.76 248.799 259.561 248.71L254.131 245.57C253.811 245.39 253.851 245.06 254.221 244.85L256.571 243.49C256.762 243.382 256.976 243.32 257.195 243.312C257.414 243.303 257.632 243.347 257.831 243.44Z" fill="#06033E"/>
<path opacity="0.4" d="M250.23 239.05L255.66 242.19C255.98 242.37 255.94 242.7 255.57 242.91L253.22 244.27C253.031 244.376 252.818 244.436 252.601 244.445C252.384 244.453 252.168 244.411 251.97 244.32L246.54 241.19C246.22 241 246.26 240.68 246.63 240.46L249 239.1C249.188 239 249.397 238.943 249.61 238.935C249.822 238.926 250.035 238.965 250.23 239.05Z" fill="#06033E"/>
<path opacity="0.4" d="M242.7 234.7L248.13 237.84C248.45 238.03 248.41 238.35 248.04 238.56L245.69 239.92C245.502 240.029 245.289 240.09 245.072 240.099C244.854 240.107 244.637 240.063 244.44 239.97L239 236.84C238.67 236.65 238.72 236.33 239.09 236.12L241.44 234.76C241.631 234.651 241.844 234.589 242.063 234.579C242.282 234.569 242.501 234.61 242.7 234.7Z" fill="#06033E"/>
<path opacity="0.4" d="M254.391 236.65L259.821 239.79C260.141 239.97 260.101 240.3 259.731 240.51L257.381 241.87C257.191 241.976 256.979 242.036 256.762 242.045C256.544 242.053 256.328 242.011 256.131 241.92L250.691 238.79C250.371 238.6 250.411 238.28 250.781 238.06L253.141 236.7C253.331 236.597 253.543 236.539 253.76 236.53C253.977 236.521 254.192 236.562 254.391 236.65Z" fill="#06033E"/>
</g>
<g opacity="0.4">
<path opacity="0.4" d="M156.581 189.25L151.711 186.44C151.311 186.21 151.361 185.81 151.811 185.55L157.571 182.23C157.803 182.1 158.063 182.027 158.328 182.017C158.594 182.006 158.859 182.059 159.101 182.17L164.001 185C164.401 185.23 164.351 185.62 163.891 185.88L158.141 189.21C157.903 189.342 157.637 189.414 157.366 189.421C157.094 189.428 156.825 189.369 156.581 189.25Z" fill="#06033E"/>
<path opacity="0.4" d="M164.111 193.6L159.241 190.78C158.841 190.56 158.891 190.16 159.351 189.9L165.101 186.58C165.333 186.45 165.593 186.377 165.859 186.367C166.125 186.356 166.389 186.409 166.631 186.52L171.501 189.33C171.901 189.56 171.851 189.95 171.391 190.21L165.641 193.54C165.408 193.667 165.148 193.739 164.883 193.75C164.618 193.76 164.353 193.709 164.111 193.6Z" fill="#06033E"/>
<path opacity="0.4" d="M171.64 198L166.77 195.18C166.37 194.96 166.42 194.56 166.88 194.3L172.63 190.98C172.863 190.852 173.122 190.779 173.387 190.766C173.652 190.754 173.917 190.803 174.16 190.91L179.03 193.73C179.43 193.95 179.38 194.35 178.92 194.61L173.17 197.93C172.938 198.058 172.679 198.131 172.413 198.144C172.148 198.156 171.884 198.107 171.64 198Z" fill="#06033E"/>
<path opacity="0.4" d="M182.061 194.36L177.181 191.54C176.791 191.31 176.841 190.92 177.291 190.66L182.121 187.87C182.353 187.74 182.613 187.667 182.879 187.657C183.145 187.646 183.409 187.699 183.651 187.81L188.531 190.62C188.921 190.85 188.871 191.24 188.421 191.5L183.581 194.29C183.35 194.418 183.093 194.491 182.829 194.503C182.565 194.516 182.302 194.466 182.061 194.36Z" fill="#06033E"/>
<path opacity="0.4" d="M189.591 198.7L184.711 195.89C184.321 195.66 184.371 195.27 184.821 195.01L189.651 192.22C189.884 192.092 190.143 192.019 190.408 192.006C190.673 191.994 190.938 192.043 191.181 192.15L196.061 194.97C196.451 195.19 196.401 195.59 195.951 195.85L191.111 198.64C190.881 198.77 190.623 198.843 190.358 198.853C190.094 198.864 189.831 198.811 189.591 198.7Z" fill="#06033E"/>
<path opacity="0.4" d="M197.12 203.05L192.24 200.24C191.85 200.01 191.9 199.61 192.35 199.35L197.18 196.56C197.413 196.433 197.673 196.361 197.938 196.35C198.204 196.34 198.468 196.391 198.71 196.5L203.59 199.32C203.98 199.54 203.93 199.94 203.48 200.2L198.64 203C198.409 203.128 198.151 203.199 197.886 203.208C197.622 203.217 197.36 203.163 197.12 203.05Z" fill="#06033E"/>
<path opacity="0.4" d="M204.651 207.4L199.771 204.58C199.381 204.36 199.431 203.96 199.881 203.7L204.711 200.91C204.943 200.78 205.203 200.707 205.468 200.697C205.734 200.686 205.999 200.739 206.241 200.85L211.121 203.66C211.511 203.89 211.461 204.28 211.011 204.55L206.171 207.34C205.939 207.467 205.682 207.539 205.418 207.55C205.154 207.56 204.891 207.509 204.651 207.4Z" fill="#06033E"/>
<path opacity="0.4" d="M212.181 211.75L207.301 208.93C206.911 208.71 206.961 208.31 207.411 208.05L212.241 205.26C212.473 205.13 212.733 205.057 212.999 205.047C213.265 205.037 213.529 205.089 213.771 205.2L218.651 208.01C219.041 208.24 218.991 208.63 218.541 208.89L213.711 211.68C213.478 211.808 213.219 211.882 212.954 211.894C212.689 211.906 212.424 211.857 212.181 211.75Z" fill="#06033E"/>
<path opacity="0.4" d="M219.71 216.09L214.83 213.28C214.44 213.05 214.49 212.66 214.94 212.4L219.77 209.61C220.003 209.482 220.262 209.409 220.527 209.397C220.792 209.384 221.057 209.434 221.3 209.54L226.18 212.36C226.57 212.59 226.52 212.98 226.07 213.24L221.24 216C221.01 216.135 220.752 216.213 220.486 216.229C220.22 216.244 219.954 216.197 219.71 216.09Z" fill="#06033E"/>
<path opacity="0.4" d="M227.241 220.44L222.361 217.63C221.971 217.4 222.021 217.01 222.471 216.74L227.301 214C227.534 213.873 227.793 213.802 228.059 213.792C228.324 213.781 228.588 213.832 228.831 213.94L233.711 216.76C234.101 216.98 234.051 217.38 233.601 217.64L228.771 220.43C228.534 220.552 228.273 220.616 228.007 220.618C227.741 220.62 227.478 220.559 227.241 220.44Z" fill="#06033E"/>
<path opacity="0.4" d="M234.771 224.79L229.891 222C229.501 221.78 229.551 221.38 230.001 221.12L234.831 218.33C235.063 218.2 235.323 218.127 235.589 218.117C235.854 218.106 236.119 218.159 236.361 218.27L241.241 221.08C241.631 221.31 241.581 221.71 241.131 221.97L236.301 224.76C236.066 224.885 235.805 224.953 235.539 224.958C235.274 224.963 235.01 224.906 234.771 224.79Z" fill="#06033E"/>
<path opacity="0.4" d="M242.301 229.14L237.421 226.32C237.031 226.1 237.081 225.7 237.531 225.44L242.361 222.65C242.593 222.52 242.853 222.447 243.119 222.437C243.385 222.426 243.649 222.479 243.891 222.59L248.771 225.4C249.161 225.63 249.111 226.02 248.661 226.28L243.831 229.07C243.598 229.198 243.34 229.271 243.074 229.284C242.809 229.296 242.544 229.247 242.301 229.14Z" fill="#06033E"/>
<path opacity="0.4" d="M249.831 233.48L245.001 230.67C244.611 230.44 244.661 230.05 245.111 229.79L249.941 227C250.174 226.872 250.433 226.799 250.698 226.786C250.963 226.774 251.228 226.823 251.471 226.93L256.351 229.75C256.741 229.98 256.691 230.37 256.241 230.63L251.411 233.42C251.173 233.558 250.904 233.636 250.629 233.646C250.353 233.657 250.079 233.6 249.831 233.48Z" fill="#06033E"/>
<path opacity="0.4" d="M193.151 192.3L188.281 189.48C187.881 189.26 187.931 188.86 188.391 188.6L193.221 185.81C193.452 185.68 193.71 185.607 193.974 185.597C194.238 185.587 194.501 185.639 194.741 185.75L199.621 188.56C200.011 188.79 199.961 189.18 199.511 189.44L194.681 192.23C194.449 192.361 194.19 192.435 193.924 192.447C193.659 192.459 193.394 192.409 193.151 192.3Z" fill="#06033E"/>
<path opacity="0.4" d="M185.511 187.89L180.631 185.07C180.241 184.84 180.291 184.45 180.741 184.19L185.571 181.4C185.803 181.27 186.063 181.197 186.329 181.187C186.595 181.176 186.859 181.229 187.101 181.34L191.981 184.15C192.371 184.38 192.321 184.77 191.871 185.03L187.001 187.82C186.774 187.942 186.522 188.012 186.264 188.024C186.006 188.036 185.749 187.99 185.511 187.89Z" fill="#06033E"/>
<path opacity="0.4" d="M177.851 183.47L167.351 177.4C166.961 177.18 167.011 176.78 167.461 176.52L172.291 173.73C172.523 173.6 172.783 173.527 173.049 173.517C173.314 173.506 173.579 173.559 173.821 173.67L184.321 179.73C184.711 179.96 184.671 180.35 184.211 180.61L179.381 183.4C179.148 183.528 178.889 183.602 178.624 183.614C178.359 183.626 178.094 183.577 177.851 183.47Z" fill="#06033E"/>
<path opacity="0.4" d="M183.211 178.09L174.681 173.17C174.291 172.94 174.341 172.55 174.791 172.29L179.621 169.5C179.853 169.37 180.113 169.297 180.379 169.287C180.645 169.277 180.909 169.329 181.151 169.44L189.671 174.36C190.071 174.58 190.021 174.98 189.561 175.24L184.731 178C184.503 178.135 184.246 178.213 183.982 178.228C183.717 178.244 183.453 178.197 183.211 178.09Z" fill="#06033E"/>
<path opacity="0.4" d="M200.68 196.65L195.81 193.83C195.41 193.6 195.46 193.21 195.92 192.95L200.75 190.16C200.981 190.031 201.239 189.958 201.503 189.947C201.767 189.937 202.03 189.989 202.27 190.1L207.15 192.91C207.54 193.14 207.49 193.53 207.04 193.79L202.21 196.58C201.978 196.709 201.719 196.782 201.453 196.794C201.188 196.806 200.924 196.757 200.68 196.65Z" fill="#06033E"/>
<path opacity="0.4" d="M208.211 201L203.341 198.19C202.941 197.96 202.991 197.57 203.451 197.31L208.281 194.52C208.511 194.392 208.769 194.319 209.032 194.307C209.296 194.295 209.559 194.344 209.801 194.45L214.681 197.27C215.071 197.49 215.021 197.89 214.571 198.15L209.741 200.94C209.508 201.07 209.249 201.143 208.983 201.153C208.717 201.164 208.452 201.111 208.211 201Z" fill="#06033E"/>
<path opacity="0.4" d="M215.741 205.34L210.871 202.53C210.481 202.3 210.521 201.9 210.981 201.64L215.811 198.85C216.043 198.72 216.303 198.647 216.569 198.637C216.834 198.626 217.099 198.679 217.341 198.79L222.211 201.61C222.601 201.83 222.551 202.23 222.101 202.49L217.271 205.28C217.038 205.41 216.779 205.483 216.513 205.493C216.247 205.504 215.982 205.451 215.741 205.34Z" fill="#06033E"/>
<path opacity="0.4" d="M223.271 209.69L218.401 206.87C218.011 206.65 218.051 206.25 218.511 205.99L223.341 203.2C223.573 203.07 223.833 202.997 224.099 202.987C224.365 202.976 224.629 203.029 224.871 203.14L229.741 205.95C230.131 206.18 230.081 206.57 229.631 206.84L224.801 209.62C224.569 209.751 224.31 209.825 224.044 209.837C223.779 209.849 223.514 209.799 223.271 209.69Z" fill="#06033E"/>
<path opacity="0.4" d="M230.8 214L225.93 211.18C225.54 210.95 225.58 210.56 226.04 210.3L230.87 207.51C231.103 207.38 231.362 207.307 231.628 207.297C231.894 207.287 232.159 207.339 232.4 207.45L237.27 210.26C237.66 210.49 237.61 210.88 237.16 211.14L232.33 214C232.092 214.117 231.831 214.178 231.565 214.178C231.3 214.178 231.038 214.117 230.8 214Z" fill="#06033E"/>
<path opacity="0.4" d="M238.331 218.38L233.461 215.57C233.071 215.34 233.111 214.95 233.571 214.69L238.401 211.9C238.633 211.772 238.892 211.699 239.157 211.687C239.423 211.674 239.687 211.724 239.931 211.83L244.801 214.65C245.191 214.87 245.141 215.27 244.691 215.53L239.861 218.32C239.628 218.45 239.369 218.523 239.103 218.533C238.837 218.544 238.572 218.491 238.331 218.38Z" fill="#06033E"/>
<path opacity="0.4" d="M245.861 222.73L241.001 219.92C240.611 219.69 240.661 219.29 241.111 219.03L245.941 216.24C246.173 216.11 246.433 216.037 246.699 216.027C246.965 216.017 247.229 216.069 247.471 216.18L252.341 219C252.731 219.22 252.681 219.62 252.231 219.88L247.401 222.67C247.168 222.802 246.906 222.875 246.638 222.886C246.371 222.896 246.104 222.843 245.861 222.73Z" fill="#06033E"/>
<path opacity="0.4" d="M253.391 227.08L248.521 224.26C248.131 224.04 248.181 223.64 248.631 223.38L253.461 220.59C253.693 220.46 253.953 220.387 254.218 220.377C254.484 220.366 254.749 220.419 254.991 220.53L259.861 223.34C260.251 223.57 260.211 223.96 259.751 224.23L254.921 227C254.689 227.131 254.431 227.206 254.165 227.22C253.9 227.234 253.635 227.186 253.391 227.08Z" fill="#06033E"/>
<path opacity="0.4" d="M260.921 231.43L256.051 228.61C255.661 228.38 255.711 227.99 256.161 227.73L260.991 224.94C261.223 224.81 261.483 224.737 261.749 224.727C262.015 224.716 262.279 224.769 262.521 224.88L267.391 227.69C267.781 227.92 267.741 228.31 267.281 228.57L262.451 231.36C262.218 231.488 261.959 231.562 261.694 231.574C261.429 231.586 261.164 231.537 260.921 231.43Z" fill="#06033E"/>
<path opacity="0.4" d="M274.311 239.16L263.671 233C263.281 232.78 263.331 232.38 263.781 232.12L268.611 229.33C268.843 229.2 269.103 229.127 269.369 229.117C269.635 229.106 269.899 229.159 270.141 229.27L280.781 235.41C281.171 235.64 281.121 236.03 280.671 236.29L275.841 239.08C275.609 239.21 275.351 239.285 275.085 239.299C274.82 239.312 274.555 239.265 274.311 239.16Z" fill="#06033E"/>
<path opacity="0.4" d="M289.001 230.69L280.001 225.51C279.611 225.28 279.661 224.89 280.111 224.62L284.941 221.83C285.174 221.703 285.434 221.632 285.699 221.622C285.964 221.611 286.229 221.662 286.471 221.77L295.471 226.96C295.861 227.18 295.811 227.58 295.361 227.84L290.531 230.63C290.299 230.76 290.039 230.833 289.773 230.843C289.507 230.854 289.243 230.801 289.001 230.69Z" fill="#06033E"/>
<path opacity="0.4" d="M213.871 195.79L209.001 193C208.611 192.77 208.661 192.38 209.111 192.12L213.941 189.33C214.174 189.202 214.433 189.129 214.698 189.117C214.963 189.104 215.228 189.154 215.471 189.26L220.351 192.08C220.741 192.31 220.691 192.7 220.241 192.96L215.411 195.75C215.176 195.878 214.914 195.949 214.646 195.956C214.378 195.963 214.113 195.906 213.871 195.79Z" fill="#06033E"/>
<path opacity="0.4" d="M206.151 191.34L201.281 188.52C200.881 188.3 200.931 187.9 201.391 187.64L206.221 184.85C206.452 184.721 206.71 184.647 206.974 184.637C207.238 184.627 207.501 184.679 207.741 184.79L212.621 187.6C213.011 187.83 212.961 188.23 212.511 188.49L207.681 191.28C207.448 191.408 207.189 191.479 206.923 191.49C206.658 191.5 206.393 191.449 206.151 191.34Z" fill="#06033E"/>
<path opacity="0.4" d="M198.431 186.88L193.561 184.07C193.171 183.84 193.221 183.45 193.671 183.19L198.501 180.4C198.733 180.272 198.992 180.199 199.258 180.187C199.523 180.174 199.787 180.224 200.031 180.33L204.901 183.15C205.291 183.37 205.251 183.77 204.791 184.03L200.001 186.82C199.763 186.957 199.497 187.033 199.223 187.044C198.95 187.054 198.678 186.998 198.431 186.88Z" fill="#06033E"/>
<path opacity="0.4" d="M190.721 182.43L185.841 179.61C185.451 179.39 185.501 178.99 185.951 178.73L190.781 175.94C191.013 175.81 191.273 175.737 191.539 175.727C191.805 175.716 192.069 175.769 192.311 175.88L197.191 178.69C197.581 178.92 197.531 179.31 197.081 179.57L192.241 182.36C192.01 182.488 191.753 182.561 191.489 182.573C191.225 182.586 190.963 182.537 190.721 182.43Z" fill="#06033E"/>
<path opacity="0.4" d="M221.401 200.14L216.521 197.33C216.131 197.1 216.181 196.71 216.631 196.45L221.461 193.66C221.692 193.529 221.952 193.455 222.217 193.443C222.483 193.431 222.748 193.481 222.991 193.59L227.871 196.41C228.261 196.63 228.211 197.03 227.761 197.29L222.931 200.08C222.698 200.21 222.439 200.283 222.173 200.293C221.907 200.304 221.642 200.251 221.401 200.14Z" fill="#06033E"/>
<path opacity="0.4" d="M228.931 204.49L224.051 201.67C223.661 201.45 223.711 201.05 224.161 200.79L229.001 198C229.233 197.87 229.493 197.797 229.759 197.787C230.025 197.777 230.289 197.829 230.531 197.94L235.411 200.76C235.801 200.98 235.751 201.38 235.301 201.64L230.471 204.43C230.237 204.562 229.976 204.635 229.708 204.646C229.44 204.656 229.174 204.603 228.931 204.49Z" fill="#06033E"/>
<path opacity="0.4" d="M236.46 208.84L231.58 206C231.19 205.78 231.24 205.38 231.69 205.12L236.53 202.33C236.761 202.2 237.019 202.127 237.283 202.117C237.547 202.107 237.81 202.159 238.05 202.27L242.93 205.08C243.32 205.31 243.27 205.7 242.82 205.96L238 208.77C237.767 208.902 237.506 208.978 237.239 208.99C236.971 209.002 236.704 208.951 236.46 208.84Z" fill="#06033E"/>
<path opacity="0.4" d="M244 213.19L239.12 210.37C238.73 210.14 238.78 209.75 239.23 209.49L244.07 206.7C244.301 206.57 244.559 206.497 244.823 206.487C245.087 206.476 245.35 206.529 245.59 206.64L250.47 209.45C250.86 209.68 250.81 210.07 250.36 210.33L245.53 213.12C245.298 213.248 245.039 213.321 244.773 213.334C244.508 213.346 244.244 213.297 244 213.19Z" fill="#06033E"/>
<path opacity="0.4" d="M251.521 217.53L246.641 214.72C246.251 214.49 246.301 214.1 246.751 213.84L251.591 211.05C251.82 210.919 252.078 210.844 252.342 210.832C252.607 210.82 252.87 210.87 253.111 210.98L258.001 213.8C258.391 214.02 258.341 214.42 257.891 214.68L253.061 217.47C252.827 217.601 252.566 217.675 252.298 217.686C252.03 217.696 251.764 217.643 251.521 217.53Z" fill="#06033E"/>
<path opacity="0.4" d="M259.051 221.88L254.171 219.06C253.781 218.84 253.831 218.44 254.281 218.18L259.121 215.39C259.352 215.261 259.61 215.188 259.874 215.177C260.138 215.167 260.401 215.219 260.641 215.33L265.521 218.15C265.911 218.37 265.861 218.77 265.411 219.03L260.581 221.82C260.349 221.95 260.089 222.023 259.823 222.033C259.557 222.044 259.293 221.991 259.051 221.88Z" fill="#06033E"/>
<path opacity="0.4" d="M266.58 226.23L261.7 223.41C261.31 223.19 261.36 222.79 261.81 222.53L266.65 219.74C266.881 219.61 267.139 219.537 267.403 219.527C267.667 219.517 267.93 219.569 268.17 219.68L273.05 222.49C273.44 222.72 273.39 223.11 272.94 223.38L268.11 226.16C267.879 226.291 267.619 226.365 267.354 226.377C267.088 226.389 266.823 226.339 266.58 226.23Z" fill="#06033E"/>
<path opacity="0.4" d="M274.111 230.58L269.241 227.76C268.841 227.53 268.891 227.14 269.341 226.88L274.181 224.09C274.411 223.96 274.669 223.887 274.934 223.877C275.198 223.867 275.461 223.919 275.701 224.03L280.581 226.84C280.971 227.07 280.921 227.46 280.471 227.72L275.641 230.51C275.408 230.638 275.149 230.712 274.884 230.724C274.619 230.736 274.354 230.687 274.111 230.58Z" fill="#06033E"/>
<path opacity="0.4" d="M281.64 234.92L276.77 232.11C276.37 231.88 276.42 231.49 276.88 231.23L281.71 228.44C281.941 228.312 282.198 228.239 282.462 228.227C282.726 228.215 282.989 228.264 283.23 228.37L288.11 231.19C288.5 231.41 288.45 231.81 288 232.07L283.17 234.86C282.938 234.99 282.678 235.063 282.412 235.073C282.147 235.084 281.882 235.031 281.64 234.92Z" fill="#06033E"/>
<path opacity="0.4" d="M209.901 185L205.001 182.23C204.611 182 204.661 181.6 205.111 181.34L209.941 178.55C210.174 178.423 210.434 178.351 210.699 178.34C210.965 178.33 211.229 178.381 211.471 178.49L216.341 181.31C216.731 181.53 216.691 181.93 216.231 182.19L211.431 185C211.194 185.12 210.932 185.183 210.666 185.183C210.4 185.183 210.138 185.12 209.901 185Z" fill="#06033E"/>
<path opacity="0.4" d="M202.411 180.72L197.541 177.9C197.141 177.67 197.191 177.28 197.641 177.02L202.481 174.23C202.711 174.1 202.969 174.027 203.234 174.017C203.498 174.006 203.761 174.059 204.001 174.17L208.881 176.98C209.271 177.21 209.221 177.6 208.771 177.86L203.941 180.65C203.708 180.778 203.449 180.851 203.184 180.864C202.919 180.876 202.654 180.827 202.411 180.72Z" fill="#06033E"/>
<path opacity="0.4" d="M194.921 176.39L190.001 173.57C189.611 173.35 189.661 172.95 190.111 172.69L195.001 169.9C195.233 169.77 195.493 169.697 195.759 169.687C196.025 169.676 196.289 169.729 196.531 169.84L201.411 172.65C201.801 172.88 201.751 173.28 201.301 173.54L196.471 176.33C196.236 176.463 195.973 176.538 195.703 176.548C195.434 176.559 195.166 176.505 194.921 176.39Z" fill="#06033E"/>
<path opacity="0.4" d="M187.431 172.06L182.551 169.25C182.161 169.02 182.211 168.63 182.661 168.37L187.491 165.58C187.723 165.452 187.982 165.379 188.248 165.367C188.513 165.354 188.778 165.404 189.021 165.51L193.891 168.33C194.291 168.55 194.241 168.95 193.781 169.21L189.001 172C188.764 172.138 188.497 172.216 188.223 172.226C187.95 172.237 187.677 172.18 187.431 172.06Z" fill="#06033E"/>
<path opacity="0.4" d="M195.131 167.61L190.251 164.8C189.861 164.57 189.911 164.18 190.361 163.92L192.001 163C192.233 162.87 192.492 162.795 192.758 162.783C193.024 162.771 193.288 162.821 193.531 162.93L198.401 165.75C198.801 165.97 198.751 166.37 198.301 166.63L196.701 167.55C196.464 167.686 196.197 167.763 195.924 167.774C195.65 167.784 195.378 167.728 195.131 167.61Z" fill="#06033E"/>
<path opacity="0.4" d="M204.911 173.26L200.001 170.44C199.611 170.22 199.661 169.82 200.111 169.56L201.711 168.64C201.943 168.51 202.203 168.437 202.469 168.427C202.735 168.416 202.999 168.469 203.241 168.58L208.111 171.39C208.501 171.62 208.461 172.01 208.001 172.27L206.411 173.2C206.183 173.325 205.928 173.395 205.668 173.406C205.408 173.416 205.149 173.366 204.911 173.26Z" fill="#06033E"/>
<path opacity="0.4" d="M212.37 177.57L207.49 174.75C207.1 174.53 207.15 174.13 207.6 173.87L209.2 172.95C209.433 172.82 209.692 172.747 209.958 172.737C210.224 172.726 210.489 172.779 210.73 172.89L215.6 175.7C216 175.93 215.95 176.32 215.5 176.58L213.9 177.5C213.669 177.631 213.409 177.705 213.144 177.717C212.878 177.729 212.613 177.679 212.37 177.57Z" fill="#06033E"/>
<path opacity="0.4" d="M219.831 181.88L215.001 179.06C214.601 178.83 214.651 178.44 215.111 178.18L216.701 177.26C216.933 177.132 217.192 177.059 217.458 177.046C217.723 177.034 217.987 177.083 218.231 177.19L223.111 180.01C223.501 180.23 223.451 180.63 223.001 180.89L221.401 181.81C221.163 181.945 220.897 182.021 220.624 182.034C220.351 182.046 220.079 181.993 219.831 181.88Z" fill="#06033E"/>
<path opacity="0.4" d="M227.291 186.18L222.421 183.37C222.031 183.14 222.071 182.75 222.531 182.49L224.121 181.56C224.354 181.433 224.613 181.362 224.879 181.352C225.144 181.341 225.408 181.392 225.651 181.5L230.531 184.32C230.921 184.54 230.871 184.94 230.421 185.2L228.821 186.12C228.588 186.25 228.329 186.323 228.063 186.333C227.797 186.344 227.532 186.291 227.291 186.18Z" fill="#06033E"/>
<path opacity="0.4" d="M269 210.23L264.12 207.42C263.73 207.19 263.78 206.8 264.23 206.54L265.83 205.62C266.062 205.49 266.321 205.415 266.587 205.403C266.853 205.391 267.118 205.441 267.36 205.55L272.23 208.37C272.63 208.59 272.58 208.99 272.12 209.25L270.53 210.17C270.298 210.3 270.038 210.373 269.772 210.383C269.507 210.394 269.242 210.341 269 210.23Z" fill="#06033E"/>
<path opacity="0.4" d="M276.411 214.54L271.541 211.73C271.141 211.5 271.191 211.11 271.651 210.85L273.241 209.92C273.473 209.79 273.733 209.717 273.999 209.707C274.264 209.696 274.529 209.749 274.771 209.86L279.651 212.68C280.041 212.9 279.991 213.3 279.541 213.56L277.941 214.48C277.708 214.61 277.449 214.683 277.183 214.693C276.917 214.704 276.653 214.651 276.411 214.54Z" fill="#06033E"/>
<path opacity="0.4" d="M283.871 218.85L279.001 216C278.611 215.77 278.651 215.37 279.111 215.11L280.701 214.19C280.933 214.06 281.193 213.987 281.458 213.977C281.724 213.966 281.989 214.019 282.231 214.13L287.111 216.94C287.501 217.17 287.451 217.56 287.001 217.82L285.401 218.75C285.172 218.886 284.914 218.966 284.648 218.984C284.382 219.001 284.115 218.955 283.871 218.85Z" fill="#06033E"/>
<path opacity="0.4" d="M291.341 223.16L286.461 220.34C286.071 220.12 286.121 219.72 286.571 219.46L288.171 218.54C288.402 218.41 288.66 218.337 288.924 218.327C289.188 218.317 289.451 218.369 289.691 218.48L294.571 221.29C294.961 221.52 294.911 221.91 294.461 222.17L292.861 223.1C292.63 223.227 292.372 223.299 292.108 223.31C291.844 223.32 291.582 223.269 291.341 223.16Z" fill="#06033E"/>
<path opacity="0.4" d="M217.431 189.39L212.561 186.57C212.171 186.35 212.221 185.95 212.671 185.69L217.501 182.9C217.733 182.77 217.993 182.697 218.259 182.687C218.524 182.676 218.789 182.729 219.031 182.84L223.901 185.65C224.291 185.88 224.251 186.27 223.791 186.54L219.001 189.33C218.763 189.464 218.496 189.539 218.223 189.55C217.95 189.56 217.678 189.505 217.431 189.39Z" fill="#06033E"/>
<path opacity="0.4" d="M225.001 193.74L220.131 190.92C219.741 190.69 219.791 190.3 220.241 190.04L225.071 187.25C225.303 187.12 225.563 187.047 225.829 187.037C226.095 187.027 226.359 187.079 226.601 187.19L231.471 190C231.861 190.23 231.821 190.62 231.361 190.88L226.531 193.67C226.298 193.798 226.04 193.872 225.774 193.884C225.509 193.896 225.244 193.847 225.001 193.74Z" fill="#06033E"/>
<path opacity="0.4" d="M232.49 198.08L227.62 195.27C227.23 195.04 227.28 194.65 227.73 194.39L232.56 191.6C232.793 191.472 233.052 191.399 233.317 191.387C233.582 191.374 233.847 191.424 234.09 191.53L238.96 194.35C239.36 194.58 239.31 194.97 238.85 195.23L234 198C233.772 198.13 233.517 198.205 233.255 198.218C232.993 198.232 232.731 198.185 232.49 198.08Z" fill="#06033E"/>
<path opacity="0.4" d="M240 202.43L235.12 199.62C234.73 199.39 234.78 199 235.23 198.73L240.06 195.94C240.293 195.812 240.553 195.741 240.818 195.73C241.084 195.72 241.348 195.771 241.59 195.88L246.46 198.7C246.86 198.92 246.81 199.32 246.35 199.58L241.52 202.37C241.29 202.5 241.032 202.573 240.768 202.583C240.503 202.594 240.24 202.541 240 202.43Z" fill="#06033E"/>
<path opacity="0.4" d="M247.561 206.78L242.681 204C242.291 203.78 242.341 203.38 242.791 203.12L247.621 200.33C247.853 200.2 248.113 200.127 248.379 200.117C248.644 200.106 248.909 200.159 249.151 200.27L254.001 203C254.401 203.23 254.351 203.63 253.891 203.89L249.061 206.68C248.836 206.813 248.583 206.891 248.323 206.908C248.062 206.926 247.801 206.882 247.561 206.78Z" fill="#06033E"/>
<path opacity="0.4" d="M255.091 211.13L250.211 208.31C249.821 208.09 249.871 207.69 250.321 207.43L255.151 204.64C255.383 204.51 255.643 204.437 255.909 204.427C256.175 204.416 256.439 204.469 256.681 204.58L261.551 207.39C261.951 207.62 261.901 208.01 261.441 208.27L256.611 211.06C256.38 211.188 256.123 211.261 255.859 211.273C255.596 211.286 255.333 211.237 255.091 211.13Z" fill="#06033E"/>
<path opacity="0.4" d="M262.62 215.47L257.74 212.66C257.35 212.43 257.4 212.04 257.85 211.78L262.68 208.99C262.913 208.862 263.172 208.789 263.437 208.776C263.703 208.764 263.967 208.813 264.21 208.92L269.08 211.74C269.48 211.97 269.43 212.36 268.97 212.62L264.14 215.41C263.91 215.54 263.652 215.613 263.388 215.623C263.123 215.634 262.86 215.581 262.62 215.47Z" fill="#06033E"/>
<path opacity="0.4" d="M270.151 219.82L265.271 217C264.881 216.77 264.931 216.38 265.381 216.11L270.211 213.33C270.442 213.2 270.702 213.125 270.967 213.113C271.233 213.101 271.498 213.151 271.741 213.26L276.611 216.08C277.011 216.3 276.961 216.7 276.511 216.96L271.671 219.75C271.441 219.881 271.183 219.956 270.919 219.968C270.655 219.981 270.391 219.93 270.151 219.82Z" fill="#06033E"/>
<path opacity="0.4" d="M277.681 224.17L272.801 221.35C272.411 221.13 272.461 220.73 272.911 220.47L277.741 217.68C277.973 217.55 278.233 217.477 278.499 217.467C278.765 217.456 279.029 217.509 279.271 217.62L284.151 220.43C284.541 220.66 284.491 221.06 284.041 221.32L279.201 224.11C278.97 224.24 278.712 224.313 278.448 224.323C278.184 224.334 277.921 224.281 277.681 224.17Z" fill="#06033E"/>
<path opacity="0.4" d="M174.381 189.93L160.001 181.63C159.611 181.41 159.661 181.01 160.111 180.75L165.001 178C165.233 177.87 165.493 177.797 165.759 177.787C166.025 177.777 166.289 177.829 166.531 177.94L180.891 186.23C181.281 186.46 181.231 186.85 180.781 187.11L175.951 189.9C175.71 190.029 175.443 190.098 175.17 190.104C174.897 190.109 174.627 190.049 174.381 189.93Z" fill="#06033E"/>
<path opacity="0.4" d="M266.89 243.34L252.53 235.05C252.14 234.82 252.19 234.42 252.64 234.16L257.47 231.37C257.703 231.24 257.962 231.167 258.228 231.157C258.494 231.146 258.759 231.199 259 231.31L273.36 239.6C273.75 239.83 273.7 240.22 273.25 240.48L268.42 243.27C268.188 243.398 267.929 243.471 267.664 243.484C267.398 243.496 267.134 243.447 266.89 243.34Z" fill="#06033E"/>
<path opacity="0.4" d="M236.781 235.55L231.901 232.74C231.511 232.51 231.561 232.12 232.011 231.86L237.771 228.53C238.003 228.4 238.262 228.327 238.528 228.317C238.794 228.306 239.059 228.359 239.301 228.47L244.171 231.29C244.561 231.51 244.511 231.91 244.061 232.17L238.311 235.49C238.078 235.62 237.819 235.693 237.553 235.703C237.287 235.714 237.022 235.661 236.781 235.55Z" fill="#06033E"/>
<path opacity="0.4" d="M182.091 204L174.301 199.5C173.901 199.27 173.951 198.88 174.411 198.62L180.161 195.29C180.393 195.16 180.653 195.087 180.918 195.077C181.184 195.067 181.449 195.119 181.691 195.23L189.491 199.73C189.881 199.96 189.831 200.35 189.381 200.61L183.621 203.94C183.388 204.07 183.129 204.143 182.863 204.153C182.597 204.164 182.332 204.111 182.091 204Z" fill="#06033E"/>
<path opacity="0.4" d="M229.52 231.36L221.73 226.86C221.33 226.64 221.38 226.24 221.84 225.98L227.59 222.66C227.823 222.532 228.082 222.459 228.347 222.447C228.612 222.434 228.877 222.484 229.12 222.59L236.92 227.1C237.31 227.32 237.26 227.72 236.81 227.98L231.05 231.3C230.818 231.43 230.558 231.503 230.292 231.513C230.027 231.524 229.762 231.471 229.52 231.36Z" fill="#06033E"/>
<path opacity="0.4" d="M193 210.25L185.2 205.75C184.81 205.53 184.86 205.13 185.31 204.87L191.07 201.55C191.301 201.422 191.558 201.349 191.822 201.337C192.086 201.325 192.349 201.374 192.59 201.48L200.39 205.99C200.78 206.21 200.73 206.61 200.28 206.87L194.53 210.19C194.298 210.32 194.038 210.393 193.773 210.403C193.507 210.414 193.242 210.361 193 210.25Z" fill="#06033E"/>
<path opacity="0.4" d="M192.611 201.51L226.511 221.09C226.605 221.119 226.688 221.177 226.746 221.256C226.805 221.335 226.837 221.431 226.837 221.53C226.837 221.629 226.805 221.725 226.746 221.804C226.688 221.883 226.605 221.941 226.511 221.97L220.641 225.36C220.405 225.479 220.145 225.541 219.881 225.541C219.617 225.541 219.357 225.479 219.121 225.36L185.211 205.78L192.611 201.51Z" fill="#06033E"/>
<path opacity="0.4" d="M257.831 243.44L263.261 246.57C263.581 246.76 263.541 247.08 263.171 247.29L260.811 248.65C260.622 248.757 260.41 248.818 260.193 248.829C259.976 248.839 259.76 248.799 259.561 248.71L254.131 245.57C253.811 245.39 253.851 245.06 254.221 244.85L256.571 243.49C256.762 243.382 256.976 243.32 257.195 243.312C257.414 243.303 257.632 243.347 257.831 243.44Z" fill="#06033E"/>
<path opacity="0.4" d="M250.23 239.05L255.66 242.19C255.98 242.37 255.94 242.7 255.57 242.91L253.22 244.27C253.031 244.376 252.818 244.436 252.601 244.445C252.384 244.453 252.168 244.411 251.97 244.32L246.54 241.19C246.22 241 246.26 240.68 246.63 240.46L249 239.1C249.188 239 249.397 238.943 249.61 238.935C249.822 238.926 250.035 238.965 250.23 239.05Z" fill="#06033E"/>
<path opacity="0.4" d="M242.7 234.7L248.13 237.84C248.45 238.03 248.41 238.35 248.04 238.56L245.69 239.92C245.502 240.029 245.289 240.09 245.072 240.099C244.854 240.107 244.637 240.063 244.44 239.97L239 236.84C238.67 236.65 238.72 236.33 239.09 236.12L241.44 234.76C241.631 234.651 241.844 234.589 242.063 234.579C242.282 234.569 242.501 234.61 242.7 234.7Z" fill="#06033E"/>
<path opacity="0.4" d="M254.391 236.65L259.821 239.79C260.141 239.97 260.101 240.3 259.731 240.51L257.381 241.87C257.191 241.976 256.979 242.036 256.762 242.045C256.544 242.053 256.328 242.011 256.131 241.92L250.691 238.79C250.371 238.6 250.411 238.28 250.781 238.06L253.141 236.7C253.331 236.597 253.543 236.539 253.76 236.53C253.977 236.521 254.192 236.562 254.391 236.65Z" fill="#06033E"/>
</g>
<path d="M334.089 227.86L190.219 144.8C189.077 144.053 188.205 142.959 187.732 141.679C187.258 140.399 187.208 139 187.589 137.69L220.119 32.06C220.929 29.44 223.409 28.37 225.679 29.68L369.539 112.74C370.683 113.486 371.556 114.58 372.029 115.86C372.503 117.141 372.552 118.54 372.169 119.85L339.639 225.48C338.839 228.1 336.349 229.16 334.089 227.86Z" fill="url(#paint7_radial)"/>
<path d="M332.73 224.16L193.19 143.53C192.099 142.814 191.266 141.768 190.812 140.544C190.359 139.321 190.309 137.984 190.67 136.73L221.77 35.73C221.889 35.1758 222.14 34.6583 222.5 34.2209C222.861 33.7836 223.321 33.4392 223.842 33.2168C224.364 32.9943 224.931 32.9003 225.496 32.9426C226.061 32.985 226.608 33.1624 227.09 33.46L366.63 114.1C367.723 114.815 368.557 115.861 369.011 117.085C369.464 118.309 369.513 119.646 369.15 120.9L338.05 221.9C337.27 224.39 334.89 225.41 332.73 224.16Z" fill="url(#paint8_linear)"/>
<path opacity="0.4" d="M332.73 224.16L193.19 143.53C192.099 142.814 191.266 141.768 190.812 140.544C190.359 139.321 190.309 137.984 190.67 136.73L221.77 35.73C221.889 35.1758 222.14 34.6583 222.5 34.2209C222.861 33.7836 223.321 33.4392 223.842 33.2168C224.364 32.9943 224.931 32.9003 225.496 32.9426C226.061 32.985 226.608 33.1624 227.09 33.46L366.63 114.1C367.723 114.815 368.557 115.861 369.011 117.085C369.464 118.309 369.513 119.646 369.15 120.9L338.05 221.9C337.27 224.39 334.89 225.41 332.73 224.16Z" fill="#06033E"/>
<path opacity="0.4" d="M332.73 224.16L193.19 143.53C192.099 142.814 191.266 141.768 190.812 140.544C190.359 139.321 190.309 137.984 190.67 136.73L221.77 35.73C221.889 35.1758 222.14 34.6583 222.5 34.2209C222.861 33.7836 223.321 33.4392 223.842 33.2168C224.364 32.9943 224.931 32.9003 225.496 32.9426C226.061 32.985 226.608 33.1624 227.09 33.46L366.63 114.1C367.723 114.815 368.557 115.861 369.011 117.085C369.464 118.309 369.513 119.646 369.15 120.9L338.05 221.9C337.27 224.39 334.89 225.41 332.73 224.16Z" fill="#06033E"/>
<path opacity="0.5" d="M325.23 193.3L230.77 138.76C230.02 138.269 229.447 137.551 229.136 136.71C228.825 135.869 228.791 134.951 229.04 134.09L250.4 64.7401C250.482 64.3602 250.654 64.0054 250.901 63.7053C251.148 63.4053 251.464 63.1686 251.821 63.015C252.178 62.8614 252.566 62.7953 252.954 62.8223C253.342 62.8493 253.718 62.9685 254.05 63.1701L348.51 117.71C349.261 118.2 349.835 118.918 350.146 119.759C350.458 120.6 350.491 121.519 350.24 122.38L328.88 191.74C328.799 192.12 328.627 192.476 328.38 192.776C328.132 193.076 327.817 193.312 327.459 193.465C327.101 193.618 326.712 193.683 326.324 193.654C325.937 193.625 325.561 193.504 325.23 193.3Z" fill="#06033E"/>
<path d="M312.469 195L217.999 140.43C217.249 139.942 216.676 139.225 216.364 138.386C216.053 137.547 216.019 136.63 216.269 135.77L237.629 66.4101C237.709 66.0286 237.879 65.6718 238.126 65.3703C238.373 65.0687 238.689 64.8313 239.048 64.6781C239.406 64.525 239.796 64.4606 240.185 64.4906C240.573 64.5205 240.949 64.6438 241.279 64.8501L335.739 119.38C336.489 119.871 337.062 120.59 337.374 121.43C337.685 122.271 337.719 123.189 337.469 124.05L316.109 193.41C316.033 193.793 315.866 194.151 315.621 194.455C315.377 194.759 315.062 194.999 314.705 195.156C314.347 195.312 313.957 195.379 313.568 195.352C313.179 195.325 312.802 195.204 312.469 195Z" fill="url(#paint9_radial)"/>
<g opacity="0.5">
<path opacity="0.5" d="M312.469 195L217.999 140.43C217.249 139.942 216.676 139.225 216.364 138.386C216.053 137.547 216.019 136.63 216.269 135.77L237.629 66.4101C237.709 66.0286 237.879 65.6718 238.126 65.3703C238.373 65.0687 238.689 64.8313 239.048 64.6781C239.406 64.525 239.796 64.4606 240.185 64.4906C240.573 64.5205 240.949 64.6438 241.279 64.8501L335.739 119.38C336.489 119.871 337.062 120.59 337.374 121.43C337.685 122.271 337.719 123.189 337.469 124.05L316.109 193.41C316.033 193.793 315.866 194.151 315.621 194.455C315.377 194.759 315.062 194.999 314.705 195.156C314.347 195.312 313.957 195.379 313.568 195.352C313.179 195.325 312.802 195.204 312.469 195Z" fill="#06033E"/>
</g>
<path d="M335.75 119.38L241.29 64.85C240.889 64.5957 240.421 64.4682 239.946 64.4843C239.471 64.5003 239.013 64.6592 238.63 64.94C239.107 64.9276 239.578 65.0489 239.99 65.29L334.45 119.82C335.2 120.311 335.774 121.029 336.087 121.869C336.4 122.709 336.436 123.628 336.19 124.49L314.82 193.85C314.654 194.435 314.303 194.951 313.82 195.32C314.356 195.288 314.867 195.086 315.279 194.742C315.691 194.398 315.983 193.931 316.11 193.41L337.47 124.05C337.72 123.19 337.688 122.272 337.378 121.432C337.069 120.592 336.498 119.872 335.75 119.38Z" fill="white"/>
<path opacity="0.4" d="M193.329 251.61C192.112 251.64 190.907 251.358 189.829 250.79L151.999 228.94C151.554 228.727 151.175 228.399 150.9 227.989C150.626 227.579 150.467 227.103 150.439 226.61C150.504 225.987 150.731 225.393 151.098 224.885C151.465 224.378 151.958 223.976 152.529 223.72L171.999 212.47C173.211 211.782 174.57 211.395 175.962 211.341C177.354 211.288 178.738 211.568 179.999 212.16L217.799 234C218.246 234.211 218.627 234.539 218.901 234.95C219.176 235.36 219.334 235.837 219.359 236.33C219.295 236.953 219.068 237.548 218.701 238.055C218.334 238.562 217.841 238.964 217.269 239.22L197.789 250.47C196.426 251.227 194.889 251.62 193.329 251.61ZM176.479 212.45C175.106 212.449 173.755 212.793 172.549 213.45L153.069 224.7C152.069 225.27 151.529 225.98 151.529 226.65C151.56 226.948 151.668 227.232 151.844 227.474C152.02 227.717 152.256 227.908 152.529 228.03L190.369 249.88C191.46 250.358 192.645 250.58 193.834 250.528C195.024 250.476 196.185 250.152 197.229 249.58L216.719 238.33C217.719 237.76 218.259 237.05 218.259 236.33C218.227 236.033 218.118 235.75 217.942 235.508C217.767 235.266 217.532 235.073 217.259 234.95L179.409 213.1C178.505 212.636 177.496 212.412 176.479 212.45Z" fill="#06033E"/>
<path d="M264.3 101.24L258.46 97.86C258.185 97.6881 257.972 97.4314 257.855 97.1284C257.738 96.8255 257.722 96.4927 257.81 96.18C257.84 96.0437 257.902 95.9165 257.991 95.8095C258.08 95.7025 258.194 95.6188 258.323 95.5656C258.452 95.5125 258.592 95.4915 258.731 95.5045C258.87 95.5174 259.003 95.5639 259.12 95.64L265 99C265.272 99.1753 265.482 99.4323 265.599 99.7342C265.715 100.036 265.734 100.367 265.65 100.68C265.624 100.823 265.563 100.957 265.471 101.07C265.38 101.183 265.262 101.272 265.128 101.328C264.993 101.383 264.847 101.404 264.703 101.389C264.558 101.374 264.42 101.323 264.3 101.24Z" fill="white"/>
<path d="M278.21 109.27L269.6 104.27C269.326 104.097 269.114 103.84 268.997 103.537C268.88 103.235 268.864 102.903 268.95 102.59C268.978 102.453 269.039 102.324 269.128 102.216C269.217 102.108 269.331 102.023 269.46 101.969C269.589 101.915 269.729 101.893 269.869 101.905C270.008 101.918 270.143 101.964 270.26 102.04L278.87 107.04C279.142 107.215 279.352 107.472 279.469 107.774C279.585 108.076 279.603 108.407 279.52 108.72C279.492 108.857 279.431 108.985 279.342 109.094C279.253 109.202 279.14 109.287 279.01 109.341C278.881 109.395 278.741 109.417 278.602 109.405C278.462 109.392 278.328 109.346 278.21 109.27Z" fill="white"/>
<path d="M252.52 127.24L246.68 123.86C246.408 123.685 246.198 123.428 246.082 123.126C245.965 122.824 245.947 122.493 246.03 122.18C246.059 122.044 246.121 121.917 246.211 121.81C246.3 121.702 246.414 121.619 246.543 121.566C246.672 121.512 246.812 121.491 246.951 121.504C247.09 121.517 247.223 121.564 247.34 121.64L253.18 125.01C253.452 125.185 253.662 125.442 253.778 125.744C253.895 126.046 253.913 126.377 253.83 126.69C253.8 126.826 253.738 126.953 253.648 127.059C253.559 127.166 253.446 127.25 253.317 127.304C253.189 127.358 253.05 127.38 252.911 127.369C252.772 127.358 252.638 127.314 252.52 127.24Z" fill="white"/>
<path d="M264.92 134.39L256.31 129.39C256.036 129.217 255.824 128.96 255.707 128.658C255.59 128.355 255.574 128.023 255.66 127.71C255.689 127.574 255.751 127.447 255.841 127.34C255.93 127.232 256.044 127.149 256.173 127.096C256.302 127.043 256.442 127.022 256.581 127.034C256.72 127.047 256.853 127.094 256.97 127.17L265.58 132.17C265.852 132.345 266.062 132.602 266.179 132.904C266.295 133.206 266.313 133.537 266.23 133.85C266.201 133.986 266.139 134.114 266.049 134.221C265.96 134.328 265.846 134.411 265.717 134.464C265.588 134.518 265.448 134.539 265.309 134.526C265.171 134.513 265.037 134.466 264.92 134.39Z" fill="white"/>
<path d="M246.8 96.6L243.15 94.5C242.879 94.3237 242.671 94.0665 242.554 93.765C242.437 93.4635 242.418 93.1329 242.5 92.82C242.53 92.6826 242.592 92.5544 242.682 92.4463C242.772 92.3382 242.886 92.2535 243.016 92.1995C243.146 92.1454 243.287 92.1236 243.427 92.1359C243.567 92.1482 243.702 92.1942 243.82 92.27L247.47 94.38C247.743 94.5545 247.952 94.8119 248.067 95.1144C248.183 95.4169 248.198 95.7484 248.11 96.06C248.081 96.1964 248.019 96.3235 247.93 96.4305C247.84 96.5376 247.726 96.6213 247.597 96.6744C247.468 96.7276 247.328 96.7485 247.19 96.7356C247.051 96.7226 246.917 96.6761 246.8 96.6Z" fill="white"/>
<path d="M257.78 108.41L246.63 102C246.358 101.825 246.149 101.568 246.032 101.266C245.915 100.964 245.897 100.633 245.98 100.32C246.011 100.184 246.074 100.056 246.165 99.9495C246.255 99.8426 246.37 99.7591 246.5 99.7061C246.629 99.6531 246.77 99.6322 246.909 99.645C247.048 99.6579 247.183 99.7042 247.3 99.7801L258.44 106.21C258.714 106.384 258.924 106.641 259.041 106.943C259.158 107.246 259.175 107.577 259.09 107.89C259.056 108.023 258.991 108.147 258.901 108.25C258.81 108.353 258.696 108.434 258.568 108.485C258.44 108.535 258.302 108.555 258.165 108.542C258.028 108.529 257.896 108.484 257.78 108.41Z" fill="white"/>
<path d="M247.5 113.4L243.85 111.3C243.579 111.124 243.371 110.866 243.254 110.565C243.137 110.263 243.119 109.933 243.2 109.62C243.228 109.483 243.289 109.354 243.378 109.246C243.467 109.138 243.581 109.053 243.71 108.999C243.839 108.945 243.98 108.923 244.119 108.935C244.259 108.948 244.393 108.994 244.51 109.07L248.16 111.18C248.433 111.355 248.642 111.612 248.759 111.914C248.876 112.216 248.894 112.547 248.81 112.86C248.781 112.996 248.719 113.123 248.63 113.23C248.54 113.338 248.426 113.421 248.297 113.474C248.168 113.527 248.029 113.548 247.89 113.536C247.751 113.523 247.617 113.476 247.5 113.4Z" fill="white"/>
<path d="M266.26 146.1L256.52 140.48C256.248 140.305 256.038 140.048 255.921 139.746C255.805 139.444 255.787 139.113 255.87 138.8C255.898 138.663 255.959 138.534 256.048 138.426C256.137 138.318 256.251 138.233 256.38 138.179C256.509 138.125 256.649 138.103 256.789 138.115C256.928 138.128 257.062 138.174 257.18 138.25L266.93 143.88C267.202 144.055 267.412 144.312 267.528 144.614C267.645 144.916 267.663 145.247 267.58 145.56C267.549 145.696 267.486 145.824 267.395 145.93C267.305 146.037 267.19 146.121 267.061 146.174C266.931 146.227 266.791 146.248 266.651 146.235C266.512 146.222 266.378 146.176 266.26 146.1Z" fill="white"/>
<path d="M243.41 122L241.07 120.64C240.799 120.466 240.589 120.211 240.473 119.911C240.356 119.611 240.337 119.281 240.42 118.97C240.448 118.833 240.509 118.705 240.598 118.596C240.687 118.488 240.801 118.403 240.93 118.349C241.059 118.295 241.199 118.273 241.339 118.285C241.478 118.298 241.612 118.344 241.73 118.42L244.07 119.77C244.346 119.942 244.558 120.199 244.675 120.502C244.792 120.805 244.808 121.137 244.72 121.45C244.69 121.586 244.628 121.713 244.538 121.82C244.449 121.926 244.336 122.01 244.207 122.064C244.079 122.118 243.94 122.14 243.801 122.129C243.662 122.118 243.528 122.074 243.41 122Z" fill="white"/>
<path d="M241.19 131.63L238.29 129.95C238.015 129.778 237.802 129.521 237.685 129.219C237.568 128.916 237.552 128.583 237.64 128.27C237.67 128.134 237.732 128.007 237.821 127.9C237.91 127.793 238.024 127.709 238.153 127.656C238.282 127.603 238.422 127.582 238.561 127.595C238.7 127.607 238.833 127.654 238.95 127.73L241.86 129.4C242.131 129.576 242.34 129.834 242.457 130.135C242.573 130.437 242.592 130.767 242.51 131.08C242.481 131.218 242.418 131.346 242.329 131.454C242.239 131.562 242.124 131.647 241.994 131.701C241.865 131.755 241.724 131.777 241.584 131.764C241.444 131.752 241.309 131.706 241.19 131.63Z" fill="white"/>
<path d="M252.511 138.16L244.841 133.74C244.57 133.564 244.361 133.307 244.244 133.005C244.128 132.704 244.109 132.373 244.191 132.06C244.219 131.923 244.28 131.795 244.369 131.686C244.457 131.578 244.571 131.493 244.7 131.439C244.829 131.385 244.97 131.363 245.109 131.375C245.249 131.388 245.383 131.434 245.501 131.51L253.171 135.94C253.443 136.115 253.652 136.372 253.769 136.674C253.886 136.976 253.904 137.307 253.821 137.62C253.791 137.756 253.729 137.884 253.64 137.991C253.551 138.098 253.436 138.181 253.308 138.235C253.179 138.288 253.039 138.309 252.9 138.296C252.761 138.283 252.627 138.236 252.511 138.16Z" fill="white"/>
<path d="M242.41 137.8L236.89 134.61C236.618 134.437 236.409 134.182 236.294 133.881C236.178 133.58 236.163 133.25 236.25 132.94C236.278 132.803 236.339 132.675 236.428 132.566C236.516 132.458 236.63 132.373 236.76 132.319C236.889 132.265 237.029 132.243 237.168 132.255C237.308 132.268 237.442 132.314 237.56 132.39L243.07 135.57C243.342 135.745 243.551 136.002 243.668 136.304C243.785 136.606 243.803 136.937 243.72 137.25C243.692 137.387 243.631 137.515 243.542 137.624C243.453 137.732 243.339 137.817 243.21 137.871C243.081 137.925 242.941 137.947 242.801 137.935C242.662 137.922 242.527 137.876 242.41 137.8Z" fill="white"/>
<path d="M274.62 151L271.08 149C270.808 148.825 270.599 148.568 270.482 148.266C270.365 147.964 270.347 147.633 270.43 147.32C270.462 147.184 270.525 147.057 270.616 146.951C270.706 146.844 270.82 146.76 270.949 146.706C271.078 146.653 271.218 146.63 271.358 146.641C271.497 146.653 271.632 146.697 271.75 146.77L275.29 148.77C275.563 148.945 275.772 149.202 275.889 149.504C276.006 149.806 276.024 150.137 275.94 150.45C275.911 150.588 275.849 150.716 275.759 150.824C275.669 150.932 275.554 151.017 275.424 151.071C275.295 151.125 275.154 151.147 275.014 151.134C274.874 151.122 274.739 151.076 274.62 151Z" fill="white"/>
<path d="M261.069 121.24L251.329 115.61C251.054 115.438 250.841 115.181 250.724 114.878C250.607 114.575 250.591 114.243 250.679 113.93C250.709 113.794 250.771 113.667 250.86 113.56C250.949 113.452 251.064 113.369 251.192 113.316C251.321 113.262 251.461 113.241 251.6 113.254C251.739 113.267 251.873 113.314 251.989 113.39L261.729 119.01C262.003 119.184 262.213 119.441 262.33 119.743C262.447 120.046 262.464 120.377 262.379 120.69C262.351 120.827 262.29 120.955 262.201 121.064C262.113 121.172 261.999 121.257 261.87 121.311C261.741 121.365 261.6 121.387 261.461 121.375C261.321 121.362 261.187 121.316 261.069 121.24Z" fill="white"/>
<path d="M262.22 116.44L245.22 106.63C244.949 106.456 244.74 106.201 244.623 105.901C244.506 105.601 244.488 105.271 244.57 104.96C244.6 104.823 244.662 104.694 244.752 104.586C244.842 104.478 244.957 104.393 245.086 104.339C245.216 104.285 245.357 104.264 245.497 104.276C245.637 104.288 245.772 104.334 245.89 104.41L262.89 114.21C263.161 114.386 263.37 114.643 263.487 114.945C263.603 115.247 263.622 115.577 263.54 115.89C263.511 116.027 263.448 116.156 263.359 116.264C263.269 116.372 263.154 116.456 263.024 116.51C262.895 116.565 262.754 116.586 262.614 116.574C262.474 116.562 262.339 116.516 262.22 116.44Z" fill="#3CB9FC"/>
<path d="M252.199 121.59L242.459 116C242.187 115.825 241.978 115.568 241.861 115.266C241.744 114.964 241.726 114.633 241.809 114.32C241.839 114.184 241.901 114.056 241.99 113.949C242.079 113.842 242.193 113.759 242.322 113.706C242.451 113.652 242.591 113.631 242.73 113.644C242.869 113.657 243.002 113.704 243.119 113.78L252.869 119.4C253.141 119.575 253.351 119.832 253.468 120.134C253.585 120.436 253.603 120.767 253.519 121.08C253.483 121.213 253.416 121.335 253.324 121.437C253.231 121.539 253.116 121.618 252.988 121.668C252.86 121.717 252.721 121.736 252.584 121.723C252.447 121.709 252.316 121.664 252.199 121.59Z" fill="#3CB9FC"/>
<path d="M268.46 125.51L264.92 123.51C264.648 123.335 264.439 123.078 264.322 122.776C264.205 122.474 264.187 122.143 264.27 121.83C264.3 121.694 264.362 121.567 264.451 121.46C264.54 121.353 264.654 121.269 264.783 121.216C264.912 121.163 265.052 121.142 265.191 121.155C265.33 121.168 265.463 121.214 265.58 121.29L269.12 123.29C269.396 123.462 269.608 123.719 269.726 124.022C269.843 124.325 269.858 124.658 269.77 124.97C269.739 125.105 269.676 125.231 269.586 125.336C269.496 125.442 269.383 125.525 269.254 125.578C269.126 125.63 268.987 125.652 268.849 125.64C268.711 125.628 268.578 125.584 268.46 125.51Z" fill="#3CB9FC"/>
<path d="M304.47 124.43L283.47 112.33C283.196 112.157 282.984 111.9 282.867 111.598C282.75 111.295 282.734 110.963 282.82 110.65C282.848 110.513 282.909 110.385 282.998 110.276C283.087 110.168 283.201 110.083 283.33 110.029C283.459 109.975 283.6 109.953 283.739 109.965C283.878 109.978 284.013 110.024 284.13 110.1L305.13 122.2C305.405 122.373 305.616 122.63 305.733 122.932C305.85 123.235 305.867 123.567 305.78 123.88C305.752 124.017 305.691 124.145 305.602 124.254C305.514 124.362 305.4 124.447 305.271 124.501C305.141 124.555 305.001 124.577 304.862 124.565C304.722 124.552 304.588 124.506 304.47 124.43Z" fill="#3CB9FC"/>
<path d="M251.39 132.05L239.68 125.29C239.406 125.116 239.196 124.859 239.079 124.557C238.962 124.254 238.945 123.923 239.03 123.61C239.058 123.473 239.119 123.344 239.208 123.236C239.296 123.128 239.41 123.043 239.539 122.989C239.668 122.935 239.809 122.913 239.948 122.925C240.088 122.938 240.222 122.984 240.34 123.06L252.05 129.82C252.324 129.993 252.536 130.25 252.653 130.552C252.77 130.855 252.786 131.187 252.7 131.5C252.672 131.637 252.611 131.765 252.522 131.874C252.433 131.982 252.319 132.067 252.19 132.121C252.061 132.175 251.92 132.197 251.781 132.185C251.642 132.172 251.507 132.126 251.39 132.05Z" fill="#F8359E"/>
<path d="M253.16 94.7999L244.54 89.7999C244.267 89.6255 244.058 89.368 243.943 89.0656C243.827 88.7631 243.812 88.4316 243.9 88.1199C243.929 87.9836 243.991 87.8565 244.081 87.7494C244.17 87.6424 244.284 87.5587 244.413 87.5056C244.542 87.4524 244.682 87.4314 244.821 87.4444C244.959 87.4574 245.093 87.5039 245.21 87.5799L253.82 92.5799C254.092 92.7552 254.302 93.0123 254.418 93.3142C254.535 93.616 254.553 93.9472 254.47 94.2599C254.441 94.3963 254.379 94.5234 254.289 94.6305C254.2 94.7375 254.086 94.8212 253.957 94.8743C253.828 94.9275 253.688 94.9484 253.549 94.9355C253.41 94.9225 253.277 94.876 253.16 94.7999Z" fill="#F8359E"/>
<path d="M240.61 142.22L230.61 136.47C230.339 136.294 230.131 136.036 230.014 135.735C229.897 135.433 229.878 135.103 229.96 134.79C229.99 134.653 230.052 134.524 230.142 134.416C230.232 134.308 230.346 134.224 230.476 134.169C230.606 134.115 230.747 134.094 230.887 134.106C231.027 134.118 231.162 134.164 231.28 134.24L241.28 140C241.552 140.175 241.762 140.432 241.879 140.734C241.995 141.036 242.013 141.367 241.93 141.68C241.902 141.818 241.839 141.947 241.749 142.055C241.659 142.163 241.544 142.248 241.414 142.301C241.283 142.354 241.142 142.375 241.002 142.361C240.862 142.347 240.727 142.298 240.61 142.22Z" fill="#3CB9FC"/>
<path d="M306.82 113.65L302.56 111.18C302.36 111.055 302.205 110.869 302.118 110.649C302.032 110.43 302.018 110.188 302.08 109.96C302.098 109.853 302.143 109.753 302.211 109.669C302.279 109.584 302.367 109.519 302.467 109.479C302.568 109.438 302.677 109.425 302.784 109.439C302.892 109.453 302.993 109.495 303.08 109.56L307.35 112.02C307.548 112.149 307.7 112.338 307.785 112.559C307.869 112.78 307.882 113.022 307.82 113.25C307.802 113.357 307.757 113.457 307.689 113.541C307.621 113.626 307.533 113.691 307.433 113.731C307.332 113.772 307.223 113.785 307.116 113.771C307.008 113.757 306.907 113.715 306.82 113.65Z" fill="white"/>
<path d="M315 118.35L310.73 115.89C310.53 115.762 310.376 115.574 310.29 115.353C310.203 115.132 310.189 114.889 310.25 114.66C310.268 114.553 310.313 114.453 310.381 114.369C310.449 114.284 310.537 114.219 310.637 114.179C310.738 114.138 310.847 114.125 310.954 114.139C311.062 114.153 311.164 114.195 311.25 114.26L315.52 116.72C315.72 116.848 315.874 117.036 315.961 117.257C316.047 117.478 316.061 117.721 316 117.95C315.982 118.057 315.937 118.157 315.869 118.241C315.802 118.326 315.713 118.391 315.613 118.431C315.512 118.472 315.403 118.485 315.296 118.471C315.188 118.457 315.087 118.415 315 118.35Z" fill="white"/>
<path d="M323.11 123.05L318.84 120.59C318.639 120.463 318.485 120.275 318.401 120.053C318.316 119.831 318.305 119.588 318.37 119.36C318.389 119.26 318.433 119.166 318.497 119.087C318.561 119.008 318.644 118.946 318.738 118.906C318.832 118.867 318.934 118.851 319.036 118.86C319.137 118.87 319.235 118.904 319.32 118.96L323.59 121.42C323.79 121.548 323.944 121.736 324.03 121.957C324.117 122.178 324.131 122.421 324.07 122.65C324.049 122.75 324.004 122.844 323.939 122.923C323.874 123.002 323.79 123.064 323.695 123.103C323.601 123.143 323.498 123.158 323.396 123.149C323.294 123.14 323.196 123.106 323.11 123.05Z" fill="white"/>
<path d="M327.109 125.36L326.979 125.29C326.781 125.161 326.629 124.972 326.544 124.751C326.46 124.531 326.448 124.288 326.509 124.06C326.527 123.953 326.572 123.853 326.64 123.769C326.708 123.684 326.796 123.619 326.897 123.579C326.997 123.539 327.106 123.525 327.214 123.539C327.321 123.553 327.423 123.595 327.509 123.66L327.639 123.74C327.836 123.869 327.986 124.056 328.071 124.274C328.155 124.493 328.169 124.733 328.109 124.96C328.092 125.067 328.047 125.167 327.979 125.252C327.911 125.336 327.822 125.401 327.722 125.441C327.621 125.482 327.512 125.495 327.405 125.481C327.298 125.467 327.196 125.425 327.109 125.36Z" fill="#F8359E"/>
<path d="M106.799 175.32C104.055 175.32 101.358 174.6 98.9793 173.23L70.3893 156.72C69.797 156.365 69.3068 155.862 68.9665 155.261C68.6261 154.66 68.4473 153.981 68.4473 153.29C68.4473 152.599 68.6261 151.92 68.9665 151.319C69.3068 150.718 69.797 150.215 70.3893 149.86L98.9993 133.36C101.376 131.989 104.071 131.268 106.814 131.268C109.558 131.268 112.253 131.989 114.629 133.36L143.219 149.87C143.824 150.214 144.327 150.712 144.677 151.314C145.027 151.915 145.212 152.599 145.212 153.295C145.212 153.991 145.027 154.675 144.677 155.276C144.327 155.878 143.824 156.376 143.219 156.72L114.629 173.23C112.248 174.603 109.548 175.324 106.799 175.32ZM99.9093 171.62C102.004 172.824 104.378 173.457 106.794 173.457C109.21 173.457 111.584 172.824 113.679 171.62L142.269 155.11C142.589 154.927 142.855 154.663 143.041 154.344C143.226 154.026 143.323 153.664 143.323 153.295C143.323 152.926 143.226 152.564 143.041 152.246C142.855 151.927 142.589 151.663 142.269 151.48L113.679 135C111.585 133.793 109.211 133.158 106.794 133.158C104.378 133.158 102.003 133.793 99.9093 135L71.3193 151.51C70.9993 151.693 70.7332 151.957 70.5481 152.276C70.3631 152.594 70.2656 152.956 70.2656 153.325C70.2656 153.694 70.3631 154.056 70.5481 154.374C70.7332 154.693 70.9993 154.957 71.3193 155.14L99.9093 171.62Z" fill="url(#paint10_linear)"/>
<path opacity="0.6" d="M106.65 165.02C117.497 165.02 126.29 159.943 126.29 153.68C126.29 147.417 117.497 142.34 106.65 142.34C95.8029 142.34 87.0098 147.417 87.0098 153.68C87.0098 159.943 95.8029 165.02 106.65 165.02Z" fill="#252C48"/>
<path d="M135.77 72.8599H79.7695L84.9995 133.43C84.9995 136.8 87.2195 140.16 91.6695 142.73C100.56 147.86 114.97 147.86 123.87 142.73C128.31 140.16 130.53 136.8 130.53 133.43L135.77 72.8599Z" fill="url(#paint11_radial)"/>
<path opacity="0.4" d="M135.77 72.8599H79.7695L80.6295 82.8599C82.0968 84.683 83.8495 86.2567 85.8195 87.5199C96.5095 94.6099 114.14 95.9799 126.18 90.8699L124.32 135.17C124.258 137.106 123.554 138.967 122.32 140.46C120.51 142.59 117.02 145.1 110.32 146.52C115.06 146.295 119.691 145.01 123.87 142.76C128.31 140.19 130.53 136.83 130.53 133.46L134.71 84.8899L135.77 72.8599Z" fill="#06033E"/>
<path opacity="0.4" d="M107.8 89.01C123.247 89.01 135.77 81.7794 135.77 72.86C135.77 63.9406 123.247 56.71 107.8 56.71C92.3527 56.71 79.8301 63.9406 79.8301 72.86C79.8301 81.7794 92.3527 89.01 107.8 89.01Z" fill="#06033E"/>
<path opacity="0.4" d="M107.8 81.08C121.104 81.08 131.89 74.8523 131.89 67.17C131.89 59.4877 121.104 53.26 107.8 53.26C94.4954 53.26 83.71 59.4877 83.71 67.17C83.71 74.8523 94.4954 81.08 107.8 81.08Z" fill="#06033E"/>
<path d="M137.42 72.1001C137.424 72.0702 137.424 72.0399 137.42 72.0101L136.89 66.5901V66.6501C136.65 62.5501 133.83 58.4801 128.4 55.3501C117.04 48.7901 98.6295 48.7901 87.2695 55.3501C81.7095 58.5601 78.8795 62.7501 78.7695 66.9601L78.2595 71.7901C78.2595 71.9101 78.2595 72.0401 78.2595 72.1601V72.2401C77.9595 76.8401 80.8395 81.5001 86.9195 85.0101C98.5095 91.7001 117.29 91.7001 128.92 85.0101C134.89 81.4301 137.77 76.7301 137.42 72.1001Z" fill="url(#paint12_linear)"/>
<path d="M107.8 81.08C121.104 81.08 131.89 74.8523 131.89 67.17C131.89 59.4877 121.104 53.26 107.8 53.26C94.4954 53.26 83.71 59.4877 83.71 67.17C83.71 74.8523 94.4954 81.08 107.8 81.08Z" fill="url(#paint13_linear)"/>
<path d="M106.651 81.08C119.955 81.08 130.741 74.8523 130.741 67.17C130.741 59.4877 119.955 53.26 106.651 53.26C93.346 53.26 82.5605 59.4877 82.5605 67.17C82.5605 74.8523 93.346 81.08 106.651 81.08Z" fill="url(#paint14_linear)"/>
<path opacity="0.4" d="M93.62 59.41C103.03 53.98 118.28 53.98 127.69 59.41L128.03 59.62C127.046 58.7499 125.974 57.9857 124.83 57.34C115.42 51.9 100.17 51.9 90.76 57.34C81.35 62.78 81.37 71.34 90.42 76.79C84.38 71.4 85.44 64.13 93.62 59.41Z" fill="#06033E"/>
<path d="M90.7599 59.7501C100.17 54.3201 115.42 54.3201 124.83 59.7501C129 62.1601 131.32 65.23 131.83 68.38C132.43 64.43 130.11 60.38 124.83 57.38C115.42 51.94 100.17 51.94 90.7599 57.38C85.5199 60.38 83.2099 64.47 83.7599 68.38C84.2699 65.23 86.5899 62.1601 90.7599 59.7501Z" fill="url(#paint15_linear)"/>
<path d="M128.54 55.4399C117.2 48.7599 98.7199 48.5899 87.2599 55.0699C75.7999 61.5499 75.7099 72.2199 87.0499 78.8999C98.3899 85.5799 116.87 85.7499 128.33 79.2699C139.79 72.7899 139.88 62.1199 128.54 55.4399ZM124.83 76.9999C121.419 78.8745 117.689 80.0986 113.83 80.6099L113.39 79.1699C113.308 78.8829 113.135 78.6303 112.897 78.4499C112.659 78.2696 112.368 78.1714 112.07 78.1699H103.42C103.121 78.1714 102.831 78.2696 102.593 78.4499C102.355 78.6303 102.182 78.8829 102.1 79.1699L101.66 80.6099C97.8023 80.0938 94.0731 78.87 90.6599 76.9999C81.2499 71.5599 81.2499 62.7599 90.6599 57.3299C100.07 51.8999 115.32 51.8899 124.73 57.3299C134.14 62.7699 134.24 71.5699 124.83 76.9999Z" fill="url(#paint16_radial)"/>
<path d="M124.83 56.31C115.42 50.87 100.17 50.87 90.7602 56.31C85.8302 59.15 83.4902 62.93 83.7602 66.66C83.9702 63.27 86.3102 59.92 90.7602 57.34C100.17 51.9 115.42 51.9 124.83 57.34C129.31 59.92 131.65 63.27 131.83 66.66C132.1 62.93 129.76 59.15 124.83 56.31Z" fill="white"/>
<path d="M128.33 78.24C116.87 84.72 98.3902 84.56 87.0502 77.87C81.6602 74.7 78.8502 70.61 78.6302 66.51C78.4102 70.95 81.2002 75.46 87.0502 78.9C98.3902 85.59 116.87 85.75 128.33 79.27C134.33 75.87 137.21 71.27 136.96 66.8C136.75 71 133.88 75.1 128.33 78.24Z" fill="white"/>
<path d="M110.391 79.97H105.211C104.852 79.97 104.561 80.261 104.561 80.62V80.72C104.561 81.079 104.852 81.37 105.211 81.37H110.391C110.75 81.37 111.041 81.079 111.041 80.72V80.62C111.041 80.261 110.75 79.97 110.391 79.97Z" fill="#0C0A78"/>
<path d="M110.38 80H105.21C105.038 80 104.873 80.0685 104.751 80.1904C104.629 80.3123 104.56 80.4776 104.56 80.65V80.74C104.555 80.7999 104.555 80.8601 104.56 80.92C104.596 80.7826 104.676 80.6608 104.788 80.5739C104.9 80.487 105.038 80.4399 105.18 80.44H110.35C110.492 80.4399 110.63 80.487 110.742 80.5739C110.855 80.6608 110.935 80.7826 110.97 80.92C110.98 80.8604 110.98 80.7996 110.97 80.74V80.65C110.971 80.4875 110.911 80.3307 110.802 80.2104C110.692 80.09 110.542 80.015 110.38 80Z" fill="url(#paint17_linear)"/>
<path opacity="0.5" d="M109.63 80.67C109.63 80.67 125.27 75.43 118.94 57.45C112.61 39.47 100.27 34 105.24 19.63C105.24 19.63 97.46 31.27 104.73 47.01C112 62.75 113.6 60.95 113.51 68.48C113.533 70.9907 112.861 73.4588 111.567 75.6106C110.273 77.7623 108.409 79.5136 106.18 80.67H109.63Z" fill="white"/>
<path opacity="0.5" d="M111 22.1301C111 22.1301 109.38 11.38 119.46 0.550049C119.46 0.550049 110.54 20.4601 113.46 30.3001C113.49 30.3001 111.13 24.0501 111 22.1301Z" fill="white"/>
<defs>
<linearGradient id="paint0_linear" x1="406.055" y1="265.407" x2="432.98" y2="284.036" gradientUnits="userSpaceOnUse">
<stop offset="0.197917" stop-color="#8A2BE2"/>
<stop offset="1" stop-color="#3CB9FC"/>
</linearGradient>
<linearGradient id="paint1_linear" x1="361.412" y1="217.782" x2="406.106" y2="249.254" gradientUnits="userSpaceOnUse">
<stop offset="0.197917" stop-color="#8A2BE2"/>
<stop offset="1" stop-color="#3CB9FC"/>
</linearGradient>
<linearGradient id="paint2_linear" x1="0.191406" y1="236.136" x2="44.8908" y2="267.6" gradientUnits="userSpaceOnUse">
<stop offset="0.197917" stop-color="#8A2BE2"/>
<stop offset="1" stop-color="#3CB9FC"/>
</linearGradient>
<linearGradient id="paint3_linear" x1="64" y1="200.01" x2="303.982" y2="367.439" gradientUnits="userSpaceOnUse">
<stop offset="0.197917" stop-color="#8A2BE2"/>
<stop offset="1" stop-color="#3CB9FC"/>
</linearGradient>
<radialGradient id="paint4_radial" cx="0" cy="0" r="1" gradientUnits="userSpaceOnUse" gradientTransform="translate(225.45 23.61) scale(223.3)">
<stop stop-color="#0D0C6F"/>
<stop offset="0.182292" stop-color="#6507FA"/>
<stop offset="0.34375" stop-color="#891CFB"/>
<stop offset="0.53125" stop-color="#A92FFB"/>
<stop offset="1" stop-color="#3CB9FC"/>
</radialGradient>
<radialGradient id="paint5_radial" cx="0" cy="0" r="1" gradientUnits="userSpaceOnUse" gradientTransform="translate(88.8703 202.93) scale(244.17)">
<stop stop-color="#891CFB"/>
<stop offset="0.0001" stop-color="#6507FA"/>
<stop offset="0.0002" stop-color="#A92FFB"/>
<stop offset="0.5" stop-color="#0D0C6F"/>
<stop offset="1" stop-color="#3CB9FC"/>
</radialGradient>
<radialGradient id="paint6_radial" cx="0" cy="0" r="1" gradientUnits="userSpaceOnUse" gradientTransform="translate(111.33 153.92) scale(218.96)">
<stop stop-color="#B537F2"/>
<stop offset="0.0001" stop-color="#6507FA"/>
<stop offset="0.0002" stop-color="#891CFB"/>
<stop offset="0.578125" stop-color="#A92FFB"/>
<stop offset="1" stop-color="#3CB9FC"/>
</radialGradient>
<radialGradient id="paint7_radial" cx="0" cy="0" r="1" gradientUnits="userSpaceOnUse" gradientTransform="translate(44771.5 21389.5) scale(41337.7 44510.4)">
<stop stop-color="#E39A65"/>
<stop offset="0.47" stop-color="#A92FFB"/>
<stop offset="0.59" stop-color="#891CFB"/>
<stop offset="0.73" stop-color="#6507FA"/>
<stop offset="1" stop-color="#3919BB"/>
</radialGradient>
<linearGradient id="paint8_linear" x1="190.43" y1="128.81" x2="369.39" y2="128.81" gradientUnits="userSpaceOnUse">
<stop stop-color="#3919BB"/>
<stop offset="1" stop-color="#6507FA"/>
</linearGradient>
<radialGradient id="paint9_radial" cx="0" cy="0" r="1" gradientUnits="userSpaceOnUse" gradientTransform="translate(19582.1 7850.21) scale(42274.6 45524.7)">
<stop stop-color="#E39A65"/>
<stop offset="0.47" stop-color="#A92FFB"/>
<stop offset="0.59" stop-color="#891CFB"/>
<stop offset="0.73" stop-color="#6507FA"/>
<stop offset="1" stop-color="#3919BB"/>
</radialGradient>
<linearGradient id="paint10_linear" x1="68.4473" y1="142.941" x2="130.789" y2="187.153" gradientUnits="userSpaceOnUse">
<stop offset="0.197917" stop-color="#8A2BE2"/>
<stop offset="1" stop-color="#3CB9FC"/>
</linearGradient>
<radialGradient id="paint11_radial" cx="0" cy="0" r="1" gradientUnits="userSpaceOnUse" gradientTransform="translate(75.2195 90.6699) scale(165.35)">
<stop stop-color="#E92EFB"/>
<stop offset="0.15" stop-color="#A92FFB"/>
<stop offset="0.41" stop-color="#3919BB"/>
<stop offset="0.93" stop-color="#3919BB"/>
</radialGradient>
<linearGradient id="paint12_linear" x1="78.1395" y1="70.1801" x2="137.45" y2="70.1801" gradientUnits="userSpaceOnUse">
<stop stop-color="#3919BB"/>
<stop offset="0.484375" stop-color="#A92FFB"/>
<stop offset="1" stop-color="#3CB9FC"/>
</linearGradient>
<linearGradient id="paint13_linear" x1="83.7" y1="67.17" x2="131.89" y2="67.17" gradientUnits="userSpaceOnUse">
<stop stop-color="#4F1FEC"/>
<stop offset="1" stop-color="#A92FFB"/>
</linearGradient>
<linearGradient id="paint14_linear" x1="7673.8" y1="2951.27" x2="9995.12" y2="2951.27" gradientUnits="userSpaceOnUse">
<stop stop-color="#4F1FEC"/>
<stop offset="1" stop-color="#A92FFB"/>
</linearGradient>
<linearGradient id="paint15_linear" x1="83.7099" y1="60.82" x2="144.46" y2="60.82" gradientUnits="userSpaceOnUse">
<stop stop-color="#131060"/>
<stop offset="0.19" stop-color="#141062"/>
<stop offset="0.28" stop-color="#19106A"/>
<stop offset="0.36" stop-color="#221078"/>
<stop offset="0.42" stop-color="#2E0F8B"/>
<stop offset="0.48" stop-color="#3E0FA3"/>
<stop offset="0.54" stop-color="#510EC2"/>
<stop offset="0.58" stop-color="#680DE5"/>
<stop offset="0.61" stop-color="#740DF8"/>
<stop offset="0.62" stop-color="#7A14F0"/>
<stop offset="0.68" stop-color="#9B3CC3"/>
<stop offset="0.75" stop-color="#B75D9D"/>
<stop offset="0.81" stop-color="#CC7680"/>
<stop offset="0.88" stop-color="#DC886C"/>
<stop offset="0.94" stop-color="#E5935F"/>
<stop offset="1" stop-color="#E8975B"/>
</linearGradient>
<radialGradient id="paint16_radial" cx="0" cy="0" r="1" gradientUnits="userSpaceOnUse" gradientTransform="translate(70.7399 53.3999) scale(108.16)">
<stop stop-color="#E39A65"/>
<stop offset="0.25" stop-color="#A92FFB"/>
<stop offset="0.74" stop-color="#3919BB"/>
</radialGradient>
<linearGradient id="paint17_linear" x1="1253.74" y1="188.035" x2="1307.74" y2="188.035" gradientUnits="userSpaceOnUse">
<stop stop-color="#131060"/>
<stop offset="0.19" stop-color="#141062"/>
<stop offset="0.28" stop-color="#19106A"/>
<stop offset="0.36" stop-color="#221078"/>
<stop offset="0.42" stop-color="#2E0F8B"/>
<stop offset="0.48" stop-color="#3E0FA3"/>
<stop offset="0.54" stop-color="#510EC2"/>
<stop offset="0.58" stop-color="#680DE5"/>
<stop offset="0.61" stop-color="#740DF8"/>
<stop offset="0.62" stop-color="#7A14F0"/>
<stop offset="0.68" stop-color="#9B3CC3"/>
<stop offset="0.75" stop-color="#B75D9D"/>
<stop offset="0.81" stop-color="#CC7680"/>
<stop offset="0.88" stop-color="#DC886C"/>
<stop offset="0.94" stop-color="#E5935F"/>
<stop offset="1" stop-color="#E8975B"/>
</linearGradient>
</defs>
</svg>
