<svg width="439" height="325" viewBox="0 0 439 325" fill="none" xmlns="http://www.w3.org/2000/svg">
<path d="M422.168 278.96C420.946 278.956 419.746 278.632 418.688 278.02L406.958 271.25C406.626 271.06 406.349 270.786 406.157 270.455C405.965 270.124 405.863 269.748 405.863 269.365C405.863 268.982 405.965 268.606 406.157 268.275C406.349 267.944 406.626 267.67 406.958 267.48L418.688 260.71C419.752 260.096 420.96 259.772 422.188 259.772C423.417 259.772 424.624 260.096 425.688 260.71L437.388 267.45C437.721 267.64 437.997 267.914 438.19 268.245C438.382 268.576 438.483 268.952 438.483 269.335C438.483 269.718 438.382 270.094 438.19 270.425C437.997 270.756 437.721 271.03 437.388 271.22L425.658 277.99C424.6 278.614 423.397 278.949 422.168 278.96ZM422.168 261.64C421.273 261.637 420.393 261.871 419.618 262.32L407.888 269.09C407.838 269.118 407.797 269.158 407.769 269.208C407.741 269.257 407.727 269.313 407.728 269.37C407.729 269.425 407.743 269.479 407.772 269.527C407.8 269.574 407.84 269.613 407.888 269.64L419.618 276.45C420.395 276.898 421.276 277.133 422.173 277.133C423.07 277.133 423.951 276.898 424.728 276.45L436.458 269.68C436.507 269.653 436.547 269.614 436.575 269.567C436.603 269.519 436.618 269.465 436.618 269.41C436.62 269.353 436.606 269.297 436.578 269.248C436.549 269.198 436.508 269.158 436.458 269.13L424.728 262.36C423.954 261.896 423.071 261.648 422.168 261.64Z" fill="url(#paint0_linear)"/>
<path d="M388.608 240.5C386.621 240.503 384.669 239.982 382.948 238.99L362.748 227.33C362.283 227.059 361.898 226.67 361.63 226.204C361.362 225.737 361.221 225.208 361.221 224.67C361.221 224.132 361.362 223.603 361.63 223.136C361.898 222.67 362.283 222.281 362.748 222.01L382.948 210.35C384.669 209.362 386.619 208.842 388.603 208.842C390.587 208.842 392.537 209.362 394.258 210.35L414.458 222.01C414.925 222.279 415.313 222.667 415.583 223.134C415.853 223.601 415.995 224.131 415.995 224.67C415.995 225.209 415.853 225.739 415.583 226.206C415.313 226.673 414.925 227.061 414.458 227.33L394.258 238.99C392.541 239.982 390.591 240.503 388.608 240.5ZM383.878 237.38C385.316 238.205 386.945 238.64 388.603 238.64C390.261 238.64 391.89 238.205 393.328 237.38L413.528 225.72C413.707 225.62 413.856 225.476 413.961 225.3C414.067 225.125 414.124 224.925 414.128 224.72C414.125 224.515 414.068 224.315 413.963 224.139C413.857 223.963 413.707 223.819 413.528 223.72L393.328 212.05C391.89 211.224 390.261 210.79 388.603 210.79C386.945 210.79 385.316 211.224 383.878 212.05L363.678 223.72C363.5 223.82 363.351 223.965 363.246 224.141C363.141 224.316 363.083 224.516 363.078 224.72C363.085 224.924 363.143 225.123 363.248 225.298C363.353 225.473 363.501 225.618 363.678 225.72L383.878 237.38Z" fill="url(#paint1_linear)"/>
<path d="M27.3786 258.86C25.3958 258.858 23.4479 258.338 21.7286 257.35L1.52861 245.68C1.06364 245.41 0.677718 245.023 0.409454 244.557C0.141191 244.091 0 243.563 0 243.025C0 242.487 0.141191 241.959 0.409454 241.493C0.677718 241.027 1.06364 240.64 1.52861 240.37L21.7286 228.71C23.4479 227.717 25.3983 227.195 27.3836 227.195C29.3689 227.195 31.3193 227.717 33.0386 228.71L53.2386 240.37C53.7036 240.64 54.0895 241.027 54.3578 241.493C54.626 241.959 54.7672 242.487 54.7672 243.025C54.7672 243.563 54.626 244.091 54.3578 244.557C54.0895 245.023 53.7036 245.41 53.2386 245.68L33.0386 257.35C31.3162 258.339 29.3648 258.86 27.3786 258.86ZM27.3786 229.06C25.7221 229.059 24.0945 229.494 22.6586 230.32L2.45861 241.98C2.27245 242.084 2.11817 242.236 2.01243 242.421C1.90669 242.606 1.8535 242.817 1.85861 243.03C1.86143 243.235 1.91842 243.435 2.02381 243.611C2.1292 243.786 2.27921 243.931 2.45861 244.03L22.6586 255.69C24.0949 256.52 25.7246 256.958 27.3836 256.958C29.0426 256.958 30.6724 256.52 32.1086 255.69L52.3086 244.03C52.4867 243.93 52.6356 243.785 52.7408 243.609C52.846 243.434 52.9038 243.234 52.9086 243.03C52.9116 242.817 52.8575 242.608 52.7519 242.423C52.6464 242.238 52.4933 242.085 52.3086 241.98L32.1086 230.32C30.6696 229.493 29.0385 229.058 27.3786 229.06Z" fill="url(#paint2_linear)"/>
<path opacity="0.6" d="M231.929 309.73L87.4989 226.34C85.3889 225.13 85.6589 223.01 88.0889 221.6L180.809 168.08C183.239 166.68 186.909 166.53 189.019 167.74L333.449 251.13C335.549 252.35 335.289 254.47 332.859 255.87L240.159 309.39C237.709 310.79 234.039 310.95 231.929 309.73Z" fill="#171B2C"/>
<path d="M235.239 324.79C233.656 324.826 232.089 324.458 230.689 323.72L65.8586 228.55C65.2725 228.262 64.7738 227.823 64.4135 227.278C64.0532 226.733 63.8445 226.102 63.8086 225.45C63.8086 224 64.8086 222.59 66.5686 221.58L178.929 155.75C182.019 153.97 186.539 153.75 189.239 155.35L354.039 250.45C354.64 250.739 355.152 251.185 355.52 251.741C355.888 252.298 356.098 252.944 356.129 253.61C356.129 255.05 355.129 256.46 353.369 257.48L240.999 323.33C239.234 324.299 237.252 324.802 235.239 324.79ZM184.679 156.11C182.987 156.09 181.319 156.5 179.829 157.3L67.4686 223.14C66.3086 223.8 65.6286 224.64 65.6286 225.39C65.6749 225.725 65.8057 226.044 66.0085 226.315C66.2114 226.586 66.4798 226.801 66.7886 226.94L231.619 322.11C233.719 323.33 237.619 323.11 240.059 321.72L352.419 255.89C353.569 255.22 354.259 254.38 354.259 253.63C354.212 253.295 354.082 252.976 353.879 252.705C353.676 252.434 353.407 252.219 353.099 252.08L188.269 156.92C187.161 156.347 185.925 156.068 184.679 156.11Z" fill="url(#paint3_linear)"/>
<path d="M371.808 111.33L227.938 28.2699C227.503 28.0018 227.018 27.8261 226.512 27.7538C226.006 27.6816 225.491 27.7143 224.998 27.8499L222.328 28.7699L223.268 28.9999C222.864 29.4796 222.565 30.0381 222.388 30.6399L189.808 136.28C189.426 137.591 189.477 138.991 189.952 140.272C190.428 141.552 191.303 142.645 192.448 143.39L336.348 226.45C336.68 226.642 337.037 226.786 337.408 226.88L337.048 227.66L339.588 226.76C340.154 226.519 340.657 226.151 341.058 225.685C341.458 225.218 341.746 224.666 341.898 224.07L374.438 118.45C374.818 117.138 374.768 115.739 374.295 114.457C373.822 113.176 372.95 112.08 371.808 111.33Z" fill="url(#paint4_radial)"/>
<path d="M331.199 230.39L331.249 230.45L189.149 148.45C187.059 147.25 183.409 147.4 180.999 148.79L89.1889 201.79L86.1289 200.62L86.9789 204.91C87.0662 205.281 87.2354 205.629 87.4742 205.926C87.713 206.224 88.0152 206.464 88.3589 206.63L231.809 289.45C233.899 290.66 237.549 290.5 239.959 289.11L332.009 235.97C332.474 235.748 332.887 235.431 333.223 235.04C333.559 234.649 333.809 234.193 333.959 233.7L334.809 229.45L331.199 230.39Z" fill="url(#paint5_radial)"/>
<path d="M231.929 285.62L87.4989 202.23C85.3889 201.02 85.6589 198.89 88.0889 197.49L180.809 143.97C183.239 142.57 186.909 142.42 189.019 143.63L333.449 227.02C335.549 228.24 335.289 230.36 332.859 231.76L240.159 285.28C237.709 286.68 234.039 286.84 231.929 285.62Z" fill="url(#paint6_radial)"/>
<path d="M332.808 230.64L240.108 284.16C237.678 285.56 234.008 285.71 231.898 284.5L87.4984 201.11C86.8853 200.797 86.4162 200.26 86.1884 199.61C86.058 200.131 86.1184 200.682 86.3586 201.162C86.5989 201.643 87.0032 202.022 87.4984 202.23L231.928 285.62C234.038 286.84 237.708 286.68 240.138 285.28L332.808 231.76C334.408 230.84 335.048 229.6 334.708 228.52C334.371 229.445 333.691 230.204 332.808 230.64Z" fill="white"/>
<g opacity="0.4">
<path opacity="0.4" d="M156.389 188.7L151.519 185.89C151.119 185.66 151.169 185.26 151.619 185L157.379 181.68C157.612 181.55 157.871 181.477 158.137 181.467C158.403 181.456 158.668 181.509 158.909 181.62L163.809 184.45C164.209 184.68 164.159 185.07 163.699 185.33L157.949 188.66C157.712 188.792 157.446 188.864 157.174 188.871C156.903 188.878 156.633 188.819 156.389 188.7Z" fill="#06033E"/>
<path opacity="0.4" d="M163.92 193.05L159.05 190.23C158.65 190.01 158.7 189.61 159.16 189.35L164.91 186.03C165.142 185.9 165.402 185.827 165.667 185.817C165.933 185.806 166.198 185.859 166.44 185.97L171.31 188.78C171.71 189.01 171.66 189.4 171.2 189.66L165.45 192.99C165.217 193.117 164.957 193.189 164.692 193.2C164.426 193.21 164.162 193.159 163.92 193.05Z" fill="#06033E"/>
<path opacity="0.4" d="M171.449 197.45L166.579 194.63C166.179 194.41 166.229 194.01 166.689 193.75L172.439 190.43C172.671 190.302 172.93 190.229 173.196 190.216C173.461 190.204 173.726 190.253 173.969 190.36L178.839 193.18C179.239 193.4 179.189 193.8 178.729 194.06L172.979 197.38C172.746 197.508 172.487 197.581 172.222 197.593C171.957 197.606 171.692 197.557 171.449 197.45Z" fill="#06033E"/>
<path opacity="0.4" d="M181.869 193.81L176.989 190.99C176.599 190.76 176.649 190.37 177.099 190.11L181.929 187.32C182.162 187.19 182.421 187.117 182.687 187.107C182.953 187.096 183.218 187.149 183.459 187.26L188.339 190.07C188.729 190.3 188.679 190.69 188.229 190.95L183.389 193.74C183.159 193.868 182.901 193.941 182.638 193.953C182.374 193.966 182.111 193.916 181.869 193.81Z" fill="#06033E"/>
<path opacity="0.4" d="M189.4 198.15L184.52 195.34C184.13 195.11 184.18 194.72 184.63 194.46L189.46 191.67C189.692 191.542 189.951 191.469 190.217 191.456C190.482 191.444 190.746 191.493 190.99 191.6L195.87 194.42C196.26 194.64 196.21 195.04 195.76 195.3L190.92 198.09C190.689 198.22 190.431 198.293 190.167 198.303C189.903 198.313 189.64 198.261 189.4 198.15Z" fill="#06033E"/>
<path opacity="0.4" d="M196.929 202.5L192.049 199.69C191.659 199.46 191.709 199.06 192.159 198.8L196.989 196.01C197.222 195.882 197.481 195.811 197.747 195.8C198.012 195.79 198.277 195.841 198.519 195.95L203.399 198.77C203.789 198.99 203.739 199.39 203.289 199.65L198.449 202.45C198.218 202.578 197.959 202.649 197.695 202.658C197.431 202.667 197.168 202.613 196.929 202.5Z" fill="#06033E"/>
<path opacity="0.4" d="M204.459 206.85L199.579 204.03C199.189 203.81 199.239 203.41 199.689 203.15L204.519 200.36C204.752 200.23 205.011 200.157 205.277 200.147C205.543 200.136 205.808 200.189 206.049 200.3L210.929 203.11C211.319 203.34 211.269 203.73 210.819 204L205.979 206.79C205.748 206.917 205.49 206.989 205.226 206.999C204.963 207.01 204.7 206.959 204.459 206.85Z" fill="#06033E"/>
<path opacity="0.4" d="M211.99 211.2L207.11 208.38C206.72 208.16 206.77 207.76 207.22 207.5L212.05 204.71C212.282 204.58 212.541 204.507 212.807 204.497C213.073 204.486 213.338 204.539 213.58 204.65L218.46 207.46C218.85 207.69 218.8 208.08 218.35 208.34L213.52 211.13C213.287 211.258 213.028 211.331 212.763 211.343C212.497 211.356 212.233 211.306 211.99 211.2Z" fill="#06033E"/>
<path opacity="0.4" d="M219.519 215.54L214.639 212.73C214.249 212.5 214.299 212.11 214.749 211.85L219.579 209.06C219.811 208.932 220.07 208.859 220.336 208.846C220.601 208.834 220.866 208.883 221.109 208.99L225.989 211.81C226.379 212.04 226.329 212.43 225.879 212.69L221.049 215.45C220.819 215.584 220.561 215.663 220.295 215.678C220.029 215.694 219.763 215.647 219.519 215.54Z" fill="#06033E"/>
<path opacity="0.4" d="M227.049 219.89L222.169 217.08C221.779 216.85 221.829 216.46 222.279 216.19L227.109 213.45C227.342 213.323 227.602 213.252 227.867 213.241C228.132 213.231 228.397 213.282 228.639 213.39L233.519 216.21C233.909 216.43 233.859 216.83 233.409 217.09L228.579 219.88C228.343 220.002 228.081 220.066 227.815 220.068C227.549 220.07 227.287 220.009 227.049 219.89Z" fill="#06033E"/>
<path opacity="0.4" d="M234.579 224.24L229.699 221.45C229.309 221.23 229.359 220.83 229.809 220.57L234.639 217.78C234.872 217.65 235.131 217.577 235.397 217.567C235.663 217.556 235.928 217.609 236.169 217.72L241.049 220.53C241.439 220.76 241.389 221.16 240.939 221.42L236.109 224.21C235.875 224.335 235.614 224.403 235.348 224.408C235.082 224.413 234.819 224.356 234.579 224.24Z" fill="#06033E"/>
<path opacity="0.4" d="M242.11 228.59L237.23 225.77C236.84 225.55 236.89 225.15 237.34 224.89L242.17 222.1C242.402 221.97 242.662 221.897 242.927 221.887C243.193 221.876 243.458 221.929 243.7 222.04L248.58 224.85C248.97 225.08 248.92 225.47 248.47 225.73L243.64 228.52C243.407 228.648 243.148 228.721 242.883 228.733C242.617 228.746 242.353 228.696 242.11 228.59Z" fill="#06033E"/>
<path opacity="0.4" d="M249.64 232.93L244.81 230.12C244.42 229.89 244.47 229.5 244.92 229.24L249.75 226.45C249.982 226.322 250.241 226.249 250.507 226.236C250.772 226.224 251.036 226.273 251.28 226.38L256.16 229.2C256.55 229.43 256.5 229.82 256.05 230.08L251.22 232.87C250.981 233.008 250.713 233.086 250.437 233.096C250.162 233.107 249.888 233.05 249.64 232.93Z" fill="#06033E"/>
<path opacity="0.4" d="M192.96 191.75L188.09 188.93C187.69 188.71 187.74 188.31 188.2 188.05L193.03 185.26C193.26 185.13 193.518 185.057 193.782 185.047C194.047 185.036 194.31 185.089 194.55 185.2L199.43 188.01C199.82 188.24 199.77 188.63 199.32 188.89L194.49 191.68C194.258 191.811 193.999 191.885 193.733 191.897C193.467 191.909 193.202 191.859 192.96 191.75Z" fill="#06033E"/>
<path opacity="0.4" d="M185.32 187.34L180.44 184.52C180.05 184.29 180.1 183.9 180.55 183.64L185.38 180.85C185.612 180.72 185.872 180.647 186.137 180.637C186.403 180.626 186.668 180.679 186.91 180.79L191.79 183.6C192.18 183.83 192.13 184.22 191.68 184.48L186.81 187.27C186.582 187.392 186.33 187.462 186.073 187.474C185.815 187.486 185.557 187.44 185.32 187.34Z" fill="#06033E"/>
<path opacity="0.4" d="M177.659 182.92L167.159 176.85C166.769 176.63 166.819 176.23 167.269 175.97L172.099 173.18C172.332 173.05 172.591 172.977 172.857 172.967C173.123 172.956 173.388 173.009 173.629 173.12L184.129 179.18C184.519 179.41 184.479 179.8 184.019 180.06L179.189 182.85C178.957 182.978 178.698 183.051 178.432 183.064C178.167 183.076 177.903 183.027 177.659 182.92Z" fill="#06033E"/>
<path opacity="0.4" d="M183.019 177.54L174.489 172.62C174.099 172.39 174.149 172 174.599 171.74L179.429 168.95C179.662 168.82 179.921 168.747 180.187 168.737C180.453 168.726 180.718 168.779 180.959 168.89L189.479 173.81C189.879 174.03 189.829 174.43 189.369 174.69L184.539 177.45C184.311 177.584 184.055 177.663 183.79 177.678C183.526 177.694 183.262 177.646 183.019 177.54Z" fill="#06033E"/>
<path opacity="0.4" d="M200.489 196.1L195.619 193.28C195.219 193.05 195.269 192.66 195.729 192.4L200.559 189.61C200.789 189.48 201.047 189.407 201.312 189.397C201.576 189.386 201.839 189.439 202.079 189.55L206.959 192.36C207.349 192.59 207.299 192.98 206.849 193.24L202.019 196.03C201.786 196.158 201.527 196.231 201.262 196.243C200.997 196.256 200.732 196.206 200.489 196.1Z" fill="#06033E"/>
<path opacity="0.4" d="M208.019 200.45L203.149 197.64C202.749 197.41 202.799 197.02 203.259 196.76L208.089 193.97C208.32 193.842 208.577 193.769 208.841 193.757C209.105 193.744 209.368 193.793 209.609 193.9L214.489 196.72C214.879 196.94 214.829 197.34 214.379 197.6L209.549 200.39C209.317 200.52 209.057 200.593 208.791 200.603C208.526 200.614 208.261 200.561 208.019 200.45Z" fill="#06033E"/>
<path opacity="0.4" d="M215.549 204.79L210.679 201.98C210.289 201.75 210.329 201.35 210.789 201.09L215.619 198.3C215.852 198.17 216.111 198.097 216.377 198.087C216.643 198.076 216.908 198.129 217.149 198.24L222.019 201.06C222.409 201.28 222.359 201.68 221.909 201.94L217.079 204.73C216.847 204.86 216.587 204.933 216.321 204.943C216.056 204.954 215.791 204.901 215.549 204.79Z" fill="#06033E"/>
<path opacity="0.4" d="M223.08 209.14L218.21 206.32C217.82 206.1 217.86 205.7 218.32 205.44L223.15 202.65C223.382 202.52 223.642 202.447 223.907 202.437C224.173 202.426 224.438 202.479 224.68 202.59L229.55 205.4C229.94 205.63 229.89 206.02 229.44 206.29L224.61 209.07C224.378 209.2 224.119 209.275 223.853 209.287C223.587 209.299 223.322 209.249 223.08 209.14Z" fill="#06033E"/>
<path opacity="0.4" d="M230.609 213.45L225.739 210.63C225.349 210.4 225.389 210.01 225.849 209.75L230.679 206.96C230.911 206.83 231.171 206.757 231.437 206.747C231.703 206.736 231.967 206.789 232.209 206.9L237.079 209.71C237.469 209.94 237.419 210.33 236.969 210.59L232.139 213.45C231.901 213.567 231.639 213.628 231.374 213.628C231.109 213.628 230.847 213.567 230.609 213.45Z" fill="#06033E"/>
<path opacity="0.4" d="M238.139 217.83L233.269 215.02C232.879 214.79 232.919 214.4 233.379 214.14L238.209 211.35C238.442 211.222 238.701 211.148 238.966 211.136C239.231 211.124 239.496 211.173 239.739 211.28L244.609 214.1C244.999 214.32 244.949 214.72 244.499 214.98L239.669 217.77C239.437 217.9 239.177 217.973 238.911 217.983C238.645 217.994 238.381 217.941 238.139 217.83Z" fill="#06033E"/>
<path opacity="0.4" d="M245.67 222.18L240.81 219.37C240.42 219.14 240.47 218.74 240.92 218.48L245.75 215.69C245.982 215.56 246.242 215.487 246.508 215.477C246.773 215.466 247.038 215.519 247.28 215.63L252.15 218.45C252.54 218.67 252.49 219.07 252.04 219.33L247.21 222.12C246.976 222.251 246.715 222.325 246.447 222.336C246.179 222.346 245.913 222.293 245.67 222.18Z" fill="#06033E"/>
<path opacity="0.4" d="M253.199 226.53L248.329 223.71C247.939 223.49 247.989 223.09 248.439 222.83L253.269 220.04C253.502 219.91 253.761 219.837 254.027 219.827C254.293 219.816 254.558 219.869 254.799 219.98L259.669 222.79C260.059 223.02 260.019 223.41 259.559 223.68L254.729 226.45C254.498 226.581 254.239 226.656 253.974 226.67C253.708 226.684 253.443 226.636 253.199 226.53Z" fill="#06033E"/>
<path opacity="0.4" d="M260.73 230.88L255.86 228.06C255.47 227.83 255.52 227.44 255.97 227.18L260.8 224.39C261.032 224.26 261.291 224.187 261.557 224.177C261.823 224.166 262.088 224.219 262.33 224.33L267.2 227.14C267.59 227.37 267.55 227.76 267.09 228.02L262.26 230.81C262.027 230.938 261.768 231.011 261.503 231.023C261.237 231.036 260.973 230.986 260.73 230.88Z" fill="#06033E"/>
<path opacity="0.4" d="M274.12 238.61L263.48 232.45C263.09 232.23 263.14 231.83 263.59 231.57L268.42 228.78C268.652 228.65 268.912 228.577 269.177 228.567C269.443 228.556 269.708 228.609 269.95 228.72L280.59 234.86C280.98 235.09 280.93 235.48 280.48 235.74L275.65 238.53C275.418 238.66 275.159 238.735 274.894 238.749C274.629 238.762 274.364 238.715 274.12 238.61Z" fill="#06033E"/>
<path opacity="0.4" d="M288.81 230.14L279.81 224.96C279.42 224.73 279.47 224.34 279.92 224.07L284.75 221.28C284.983 221.153 285.242 221.082 285.508 221.071C285.773 221.061 286.037 221.112 286.28 221.22L295.28 226.41C295.67 226.63 295.62 227.03 295.17 227.29L290.34 230.08C290.107 230.21 289.848 230.283 289.582 230.293C289.316 230.304 289.051 230.251 288.81 230.14Z" fill="#06033E"/>
<path opacity="0.4" d="M213.68 195.24L208.81 192.45C208.42 192.22 208.47 191.83 208.92 191.57L213.75 188.78C213.982 188.652 214.241 188.579 214.507 188.566C214.772 188.554 215.036 188.603 215.28 188.71L220.16 191.53C220.55 191.76 220.5 192.15 220.05 192.41L215.22 195.2C214.985 195.328 214.722 195.399 214.455 195.406C214.187 195.413 213.921 195.356 213.68 195.24Z" fill="#06033E"/>
<path opacity="0.4" d="M205.96 190.79L201.09 187.97C200.69 187.75 200.74 187.35 201.2 187.09L206.03 184.3C206.26 184.17 206.518 184.097 206.782 184.087C207.047 184.076 207.31 184.129 207.55 184.24L212.43 187.05C212.82 187.28 212.77 187.68 212.32 187.94L207.49 190.73C207.257 190.857 206.997 190.929 206.732 190.94C206.466 190.95 206.202 190.899 205.96 190.79Z" fill="#06033E"/>
<path opacity="0.4" d="M198.239 186.33L193.369 183.52C192.979 183.29 193.029 182.9 193.479 182.64L198.309 179.85C198.542 179.722 198.801 179.648 199.066 179.636C199.331 179.624 199.596 179.673 199.839 179.78L204.709 182.6C205.099 182.82 205.059 183.22 204.599 183.48L199.809 186.27C199.572 186.406 199.305 186.483 199.032 186.493C198.758 186.504 198.486 186.448 198.239 186.33Z" fill="#06033E"/>
<path opacity="0.4" d="M190.53 181.88L185.65 179.06C185.26 178.84 185.31 178.44 185.76 178.18L190.59 175.39C190.822 175.26 191.082 175.187 191.347 175.177C191.613 175.166 191.878 175.219 192.12 175.33L197 178.14C197.39 178.37 197.34 178.76 196.89 179.02L192.05 181.81C191.819 181.938 191.561 182.011 191.298 182.023C191.034 182.035 190.771 181.986 190.53 181.88Z" fill="#06033E"/>
<path opacity="0.4" d="M221.209 199.59L216.329 196.78C215.939 196.55 215.989 196.16 216.439 195.9L221.269 193.11C221.501 192.979 221.76 192.905 222.026 192.893C222.292 192.881 222.557 192.931 222.799 193.04L227.679 195.86C228.069 196.08 228.019 196.48 227.569 196.74L222.739 199.53C222.507 199.66 222.247 199.733 221.981 199.743C221.716 199.754 221.451 199.701 221.209 199.59Z" fill="#06033E"/>
<path opacity="0.4" d="M228.74 203.94L223.86 201.12C223.47 200.9 223.52 200.5 223.97 200.24L228.81 197.45C229.042 197.32 229.301 197.247 229.567 197.237C229.833 197.226 230.098 197.279 230.34 197.39L235.22 200.21C235.61 200.43 235.56 200.83 235.11 201.09L230.28 203.88C230.046 204.011 229.785 204.085 229.517 204.096C229.249 204.106 228.983 204.053 228.74 203.94Z" fill="#06033E"/>
<path opacity="0.4" d="M236.269 208.29L231.389 205.45C230.999 205.23 231.049 204.83 231.499 204.57L236.339 201.78C236.569 201.65 236.827 201.577 237.092 201.567C237.356 201.556 237.619 201.609 237.859 201.72L242.739 204.53C243.129 204.76 243.079 205.15 242.629 205.41L237.809 208.22C237.576 208.352 237.315 208.427 237.047 208.44C236.78 208.452 236.513 208.4 236.269 208.29Z" fill="#06033E"/>
<path opacity="0.4" d="M243.809 212.64L238.929 209.82C238.539 209.59 238.589 209.2 239.039 208.94L243.879 206.15C244.109 206.02 244.367 205.947 244.632 205.937C244.896 205.926 245.159 205.979 245.399 206.09L250.279 208.9C250.669 209.13 250.619 209.52 250.169 209.78L245.339 212.57C245.106 212.698 244.847 212.771 244.582 212.784C244.317 212.796 244.052 212.747 243.809 212.64Z" fill="#06033E"/>
<path opacity="0.4" d="M251.329 216.98L246.449 214.17C246.059 213.94 246.109 213.55 246.559 213.29L251.399 210.5C251.629 210.369 251.887 210.294 252.151 210.282C252.415 210.27 252.679 210.32 252.919 210.43L257.809 213.25C258.199 213.47 258.149 213.87 257.699 214.13L252.869 216.92C252.636 217.051 252.374 217.125 252.107 217.136C251.839 217.146 251.572 217.093 251.329 216.98Z" fill="#06033E"/>
<path opacity="0.4" d="M258.86 221.33L253.98 218.51C253.59 218.29 253.64 217.89 254.09 217.63L258.93 214.84C259.16 214.71 259.418 214.637 259.682 214.627C259.947 214.616 260.21 214.669 260.45 214.78L265.33 217.6C265.72 217.82 265.67 218.22 265.22 218.48L260.39 221.27C260.157 221.4 259.898 221.473 259.632 221.483C259.366 221.494 259.101 221.441 258.86 221.33Z" fill="#06033E"/>
<path opacity="0.4" d="M266.389 225.68L261.509 222.86C261.119 222.64 261.169 222.24 261.619 221.98L266.459 219.19C266.689 219.06 266.947 218.987 267.212 218.977C267.476 218.966 267.739 219.019 267.979 219.13L272.859 221.94C273.249 222.17 273.199 222.56 272.749 222.83L267.919 225.61C267.687 225.74 267.428 225.815 267.162 225.827C266.897 225.839 266.632 225.789 266.389 225.68Z" fill="#06033E"/>
<path opacity="0.4" d="M273.92 230.03L269.05 227.21C268.65 226.98 268.7 226.59 269.15 226.33L273.99 223.54C274.22 223.41 274.478 223.337 274.742 223.327C275.007 223.316 275.27 223.369 275.51 223.48L280.39 226.29C280.78 226.52 280.73 226.91 280.28 227.17L275.45 229.96C275.217 230.088 274.958 230.161 274.693 230.173C274.427 230.186 274.163 230.136 273.92 230.03Z" fill="#06033E"/>
<path opacity="0.4" d="M281.449 234.37L276.579 231.56C276.179 231.33 276.229 230.94 276.689 230.68L281.519 227.89C281.75 227.762 282.007 227.689 282.271 227.677C282.534 227.664 282.797 227.714 283.039 227.82L287.919 230.64C288.309 230.86 288.259 231.26 287.809 231.52L282.979 234.31C282.747 234.44 282.487 234.513 282.221 234.523C281.955 234.534 281.691 234.481 281.449 234.37Z" fill="#06033E"/>
<path opacity="0.4" d="M209.71 184.45L204.81 181.68C204.42 181.45 204.47 181.05 204.92 180.79L209.75 178C209.983 177.872 210.242 177.801 210.508 177.79C210.773 177.78 211.037 177.831 211.28 177.94L216.15 180.76C216.54 180.98 216.5 181.38 216.04 181.64L211.24 184.45C211.003 184.57 210.741 184.633 210.475 184.633C210.209 184.633 209.947 184.57 209.71 184.45Z" fill="#06033E"/>
<path opacity="0.4" d="M202.219 180.17L197.349 177.35C196.949 177.12 196.999 176.73 197.449 176.47L202.289 173.68C202.52 173.55 202.778 173.477 203.042 173.467C203.306 173.456 203.569 173.509 203.809 173.62L208.689 176.43C209.079 176.66 209.029 177.05 208.579 177.31L203.749 180.1C203.517 180.228 203.258 180.301 202.993 180.314C202.727 180.326 202.463 180.277 202.219 180.17Z" fill="#06033E"/>
<path opacity="0.4" d="M194.73 175.84L189.81 173.02C189.42 172.8 189.47 172.4 189.92 172.14L194.81 169.35C195.042 169.22 195.302 169.147 195.568 169.137C195.833 169.126 196.098 169.179 196.34 169.29L201.22 172.1C201.61 172.33 201.56 172.73 201.11 172.99L196.28 175.78C196.045 175.913 195.782 175.988 195.512 175.998C195.242 176.009 194.974 175.954 194.73 175.84Z" fill="#06033E"/>
<path opacity="0.4" d="M187.24 171.51L182.36 168.7C181.97 168.47 182.02 168.08 182.47 167.82L187.3 165.03C187.532 164.902 187.791 164.829 188.056 164.816C188.322 164.804 188.586 164.853 188.83 164.96L193.7 167.78C194.1 168 194.05 168.4 193.59 168.66L188.81 171.45C188.573 171.588 188.306 171.666 188.032 171.676C187.758 171.687 187.486 171.629 187.24 171.51Z" fill="#06033E"/>
<path opacity="0.4" d="M194.94 167.06L190.06 164.25C189.67 164.02 189.72 163.63 190.17 163.37L191.81 162.45C192.042 162.319 192.301 162.245 192.566 162.233C192.832 162.221 193.097 162.271 193.34 162.38L198.21 165.2C198.61 165.42 198.56 165.82 198.11 166.08L196.51 167C196.272 167.136 196.006 167.213 195.732 167.223C195.459 167.234 195.187 167.178 194.94 167.06Z" fill="#06033E"/>
<path opacity="0.4" d="M204.72 172.71L199.81 169.89C199.42 169.67 199.47 169.27 199.92 169.01L201.52 168.09C201.752 167.96 202.012 167.887 202.278 167.877C202.543 167.866 202.808 167.919 203.05 168.03L207.92 170.84C208.31 171.07 208.27 171.46 207.81 171.72L206.22 172.65C205.991 172.775 205.737 172.845 205.477 172.856C205.217 172.866 204.957 172.816 204.72 172.71Z" fill="#06033E"/>
<path opacity="0.4" d="M212.179 177.02L207.299 174.2C206.909 173.98 206.959 173.58 207.409 173.32L209.009 172.4C209.241 172.27 209.501 172.197 209.767 172.187C210.033 172.176 210.297 172.229 210.539 172.34L215.409 175.15C215.809 175.38 215.759 175.77 215.309 176.03L213.709 176.95C213.477 177.08 213.218 177.155 212.952 177.167C212.687 177.179 212.422 177.129 212.179 177.02Z" fill="#06033E"/>
<path opacity="0.4" d="M219.639 181.33L214.809 178.51C214.409 178.28 214.459 177.89 214.919 177.63L216.509 176.71C216.742 176.582 217.001 176.509 217.266 176.496C217.531 176.484 217.796 176.533 218.039 176.64L222.919 179.46C223.309 179.68 223.259 180.08 222.809 180.34L221.209 181.26C220.972 181.395 220.706 181.471 220.433 181.484C220.16 181.496 219.888 181.443 219.639 181.33Z" fill="#06033E"/>
<path opacity="0.4" d="M227.099 185.63L222.229 182.82C221.839 182.59 221.879 182.2 222.339 181.94L223.929 181.01C224.162 180.883 224.422 180.812 224.687 180.801C224.952 180.791 225.217 180.842 225.459 180.95L230.339 183.77C230.729 183.99 230.679 184.39 230.229 184.65L228.629 185.57C228.397 185.7 228.137 185.773 227.871 185.783C227.605 185.794 227.341 185.741 227.099 185.63Z" fill="#06033E"/>
<path opacity="0.4" d="M268.809 209.68L263.929 206.87C263.539 206.64 263.589 206.25 264.039 205.99L265.639 205.07C265.871 204.939 266.13 204.865 266.396 204.853C266.661 204.841 266.926 204.891 267.169 205L272.039 207.82C272.439 208.04 272.389 208.44 271.929 208.7L270.339 209.62C270.107 209.75 269.847 209.823 269.581 209.833C269.315 209.844 269.051 209.791 268.809 209.68Z" fill="#06033E"/>
<path opacity="0.4" d="M276.219 213.99L271.349 211.18C270.949 210.95 270.999 210.56 271.459 210.3L273.049 209.37C273.282 209.24 273.541 209.167 273.807 209.157C274.073 209.146 274.338 209.199 274.579 209.31L279.459 212.13C279.849 212.35 279.799 212.75 279.349 213.01L277.749 213.93C277.517 214.06 277.257 214.133 276.992 214.143C276.726 214.154 276.461 214.101 276.219 213.99Z" fill="#06033E"/>
<path opacity="0.4" d="M283.679 218.3L278.809 215.45C278.419 215.22 278.459 214.82 278.919 214.56L280.509 213.64C280.742 213.51 281.001 213.437 281.267 213.427C281.533 213.416 281.797 213.469 282.039 213.58L286.919 216.39C287.309 216.62 287.259 217.01 286.809 217.27L285.209 218.2C284.98 218.336 284.722 218.416 284.456 218.433C284.19 218.451 283.924 218.405 283.679 218.3Z" fill="#06033E"/>
<path opacity="0.4" d="M291.15 222.61L286.27 219.79C285.88 219.57 285.93 219.17 286.38 218.91L287.98 217.99C288.21 217.86 288.468 217.787 288.732 217.777C288.997 217.766 289.26 217.819 289.5 217.93L294.38 220.74C294.77 220.97 294.72 221.36 294.27 221.62L292.67 222.55C292.438 222.677 292.181 222.749 291.917 222.759C291.653 222.77 291.39 222.719 291.15 222.61Z" fill="#06033E"/>
<path opacity="0.4" d="M217.239 188.84L212.369 186.02C211.979 185.8 212.029 185.4 212.479 185.14L217.309 182.35C217.542 182.22 217.801 182.147 218.067 182.137C218.333 182.126 218.598 182.179 218.839 182.29L223.709 185.1C224.099 185.33 224.059 185.72 223.599 185.99L218.809 188.78C218.571 188.914 218.305 188.989 218.032 189C217.759 189.01 217.487 188.955 217.239 188.84Z" fill="#06033E"/>
<path opacity="0.4" d="M224.81 193.19L219.94 190.37C219.55 190.14 219.6 189.75 220.05 189.49L224.88 186.7C225.112 186.57 225.372 186.497 225.637 186.487C225.903 186.476 226.168 186.529 226.41 186.64L231.28 189.45C231.67 189.68 231.63 190.07 231.17 190.33L226.34 193.12C226.107 193.248 225.848 193.321 225.583 193.333C225.317 193.346 225.053 193.296 224.81 193.19Z" fill="#06033E"/>
<path opacity="0.4" d="M232.299 197.53L227.429 194.72C227.039 194.49 227.089 194.1 227.539 193.84L232.369 191.05C232.601 190.922 232.86 190.849 233.126 190.836C233.391 190.824 233.656 190.873 233.899 190.98L238.769 193.8C239.169 194.03 239.119 194.42 238.659 194.68L233.809 197.45C233.581 197.58 233.325 197.654 233.063 197.668C232.801 197.682 232.539 197.635 232.299 197.53Z" fill="#06033E"/>
<path opacity="0.4" d="M239.809 201.88L234.929 199.07C234.539 198.84 234.589 198.45 235.039 198.18L239.869 195.39C240.102 195.262 240.361 195.191 240.627 195.18C240.892 195.17 241.157 195.221 241.399 195.33L246.269 198.15C246.669 198.37 246.619 198.77 246.159 199.03L241.329 201.82C241.098 201.95 240.84 202.023 240.576 202.033C240.312 202.043 240.049 201.991 239.809 201.88Z" fill="#06033E"/>
<path opacity="0.4" d="M247.369 206.23L242.489 203.45C242.099 203.23 242.149 202.83 242.599 202.57L247.429 199.78C247.662 199.65 247.921 199.577 248.187 199.567C248.453 199.556 248.718 199.609 248.959 199.72L253.809 202.45C254.209 202.68 254.159 203.08 253.699 203.34L248.869 206.13C248.645 206.263 248.392 206.341 248.131 206.358C247.871 206.376 247.61 206.332 247.369 206.23Z" fill="#06033E"/>
<path opacity="0.4" d="M254.9 210.58L250.02 207.76C249.63 207.54 249.68 207.14 250.13 206.88L254.96 204.09C255.192 203.96 255.452 203.887 255.717 203.877C255.983 203.866 256.248 203.919 256.49 204.03L261.36 206.84C261.76 207.07 261.71 207.46 261.25 207.72L256.42 210.51C256.189 210.638 255.932 210.711 255.668 210.723C255.404 210.735 255.141 210.686 254.9 210.58Z" fill="#06033E"/>
<path opacity="0.4" d="M262.429 214.92L257.549 212.11C257.159 211.88 257.209 211.49 257.659 211.23L262.489 208.44C262.722 208.312 262.98 208.239 263.246 208.226C263.511 208.214 263.776 208.263 264.019 208.37L268.889 211.19C269.289 211.42 269.239 211.81 268.779 212.07L263.949 214.86C263.718 214.99 263.46 215.063 263.196 215.073C262.932 215.084 262.669 215.031 262.429 214.92Z" fill="#06033E"/>
<path opacity="0.4" d="M269.959 219.27L265.079 216.45C264.689 216.22 264.739 215.83 265.189 215.56L270.019 212.78C270.251 212.649 270.51 212.575 270.776 212.563C271.042 212.551 271.307 212.601 271.549 212.71L276.419 215.53C276.819 215.75 276.769 216.15 276.319 216.41L271.479 219.2C271.25 219.331 270.992 219.406 270.728 219.418C270.463 219.43 270.2 219.379 269.959 219.27Z" fill="#06033E"/>
<path opacity="0.4" d="M277.49 223.62L272.61 220.8C272.22 220.58 272.27 220.18 272.72 219.92L277.55 217.13C277.782 217 278.041 216.927 278.307 216.917C278.573 216.906 278.838 216.959 279.08 217.07L283.96 219.88C284.35 220.11 284.3 220.51 283.85 220.77L279.01 223.56C278.779 223.69 278.521 223.763 278.257 223.773C277.993 223.783 277.73 223.731 277.49 223.62Z" fill="#06033E"/>
<path opacity="0.4" d="M174.19 189.38L159.81 181.08C159.42 180.86 159.47 180.46 159.92 180.2L164.81 177.45C165.042 177.32 165.302 177.247 165.568 177.237C165.833 177.226 166.098 177.279 166.34 177.39L180.7 185.68C181.09 185.91 181.04 186.3 180.59 186.56L175.76 189.35C175.519 189.478 175.251 189.548 174.978 189.553C174.705 189.558 174.435 189.499 174.19 189.38Z" fill="#06033E"/>
<path opacity="0.4" d="M266.699 242.79L252.339 234.5C251.949 234.27 251.999 233.87 252.449 233.61L257.279 230.82C257.511 230.69 257.771 230.617 258.037 230.607C258.303 230.596 258.567 230.649 258.809 230.76L273.169 239.05C273.559 239.28 273.509 239.67 273.059 239.93L268.229 242.72C267.996 242.848 267.738 242.921 267.472 242.934C267.207 242.946 266.942 242.897 266.699 242.79Z" fill="#06033E"/>
<path opacity="0.4" d="M236.589 235L231.709 232.19C231.319 231.96 231.369 231.57 231.819 231.31L237.579 227.98C237.811 227.85 238.071 227.777 238.337 227.767C238.603 227.756 238.867 227.809 239.109 227.92L243.979 230.74C244.369 230.96 244.319 231.36 243.869 231.62L238.119 234.94C237.887 235.07 237.627 235.143 237.361 235.153C237.095 235.164 236.831 235.111 236.589 235Z" fill="#06033E"/>
<path opacity="0.4" d="M181.899 203.45L174.109 198.95C173.709 198.72 173.759 198.33 174.219 198.07L179.969 194.74C180.201 194.61 180.461 194.537 180.727 194.527C180.993 194.516 181.257 194.569 181.499 194.68L189.299 199.18C189.689 199.41 189.639 199.8 189.189 200.06L183.429 203.39C183.197 203.52 182.937 203.593 182.671 203.603C182.405 203.614 182.141 203.561 181.899 203.45Z" fill="#06033E"/>
<path opacity="0.4" d="M229.329 230.81L221.539 226.31C221.139 226.09 221.189 225.69 221.649 225.43L227.399 222.11C227.631 221.982 227.89 221.908 228.156 221.896C228.421 221.884 228.686 221.933 228.929 222.04L236.729 226.55C237.119 226.77 237.069 227.17 236.619 227.43L230.859 230.75C230.627 230.88 230.367 230.953 230.101 230.963C229.835 230.974 229.571 230.921 229.329 230.81Z" fill="#06033E"/>
<path opacity="0.4" d="M192.809 209.7L185.009 205.2C184.619 204.98 184.669 204.58 185.119 204.32L190.879 201C191.11 200.872 191.367 200.799 191.631 200.786C191.894 200.774 192.157 200.823 192.399 200.93L200.199 205.44C200.589 205.66 200.539 206.06 200.089 206.32L194.339 209.64C194.107 209.77 193.847 209.843 193.581 209.853C193.315 209.863 193.051 209.811 192.809 209.7Z" fill="#06033E"/>
<path opacity="0.4" d="M192.42 200.96L226.32 220.54C226.414 220.569 226.496 220.627 226.555 220.706C226.614 220.785 226.645 220.881 226.645 220.98C226.645 221.079 226.614 221.174 226.555 221.254C226.496 221.333 226.414 221.391 226.32 221.42L220.45 224.81C220.214 224.929 219.953 224.99 219.69 224.99C219.426 224.99 219.165 224.929 218.93 224.81L185.02 205.23L192.42 200.96Z" fill="#06033E"/>
<path opacity="0.4" d="M257.64 242.89L263.07 246.02C263.39 246.21 263.35 246.53 262.98 246.74L260.62 248.1C260.431 248.207 260.219 248.268 260.002 248.279C259.785 248.289 259.568 248.248 259.37 248.16L253.94 245.02C253.62 244.84 253.66 244.51 254.03 244.3L256.38 242.94C256.57 242.831 256.784 242.77 257.004 242.761C257.223 242.753 257.441 242.797 257.64 242.89Z" fill="#06033E"/>
<path opacity="0.4" d="M250.039 238.5L255.469 241.64C255.789 241.82 255.749 242.15 255.379 242.36L253.029 243.72C252.839 243.826 252.627 243.886 252.41 243.895C252.193 243.903 251.976 243.861 251.779 243.77L246.349 240.64C246.029 240.45 246.069 240.13 246.439 239.91L248.809 238.55C248.997 238.45 249.205 238.393 249.418 238.385C249.631 238.376 249.843 238.415 250.039 238.5Z" fill="#06033E"/>
<path opacity="0.4" d="M242.509 234.15L247.939 237.29C248.259 237.48 248.219 237.8 247.849 238.01L245.499 239.37C245.31 239.478 245.098 239.54 244.88 239.548C244.662 239.557 244.446 239.513 244.249 239.42L238.809 236.29C238.479 236.1 238.529 235.78 238.899 235.57L241.249 234.21C241.439 234.101 241.653 234.039 241.872 234.029C242.091 234.018 242.309 234.06 242.509 234.15Z" fill="#06033E"/>
<path opacity="0.4" d="M254.199 236.1L259.629 239.24C259.949 239.42 259.909 239.75 259.539 239.96L257.189 241.32C257 241.426 256.787 241.486 256.57 241.495C256.353 241.503 256.137 241.461 255.939 241.37L250.499 238.24C250.179 238.05 250.219 237.73 250.589 237.51L252.949 236.15C253.14 236.047 253.352 235.989 253.568 235.98C253.785 235.971 254.001 236.012 254.199 236.1Z" fill="#06033E"/>
</g>
<g opacity="0.4">
<path opacity="0.4" d="M156.389 188.7L151.519 185.89C151.119 185.66 151.169 185.26 151.619 185L157.379 181.68C157.612 181.55 157.871 181.477 158.137 181.467C158.403 181.456 158.668 181.509 158.909 181.62L163.809 184.45C164.209 184.68 164.159 185.07 163.699 185.33L157.949 188.66C157.712 188.792 157.446 188.864 157.174 188.871C156.903 188.878 156.633 188.819 156.389 188.7Z" fill="#06033E"/>
<path opacity="0.4" d="M163.92 193.05L159.05 190.23C158.65 190.01 158.7 189.61 159.16 189.35L164.91 186.03C165.142 185.9 165.402 185.827 165.667 185.817C165.933 185.806 166.198 185.859 166.44 185.97L171.31 188.78C171.71 189.01 171.66 189.4 171.2 189.66L165.45 192.99C165.217 193.117 164.957 193.189 164.692 193.2C164.426 193.21 164.162 193.159 163.92 193.05Z" fill="#06033E"/>
<path opacity="0.4" d="M171.449 197.45L166.579 194.63C166.179 194.41 166.229 194.01 166.689 193.75L172.439 190.43C172.671 190.302 172.93 190.229 173.196 190.216C173.461 190.204 173.726 190.253 173.969 190.36L178.839 193.18C179.239 193.4 179.189 193.8 178.729 194.06L172.979 197.38C172.746 197.508 172.487 197.581 172.222 197.593C171.957 197.606 171.692 197.557 171.449 197.45Z" fill="#06033E"/>
<path opacity="0.4" d="M181.869 193.81L176.989 190.99C176.599 190.76 176.649 190.37 177.099 190.11L181.929 187.32C182.162 187.19 182.421 187.117 182.687 187.107C182.953 187.096 183.218 187.149 183.459 187.26L188.339 190.07C188.729 190.3 188.679 190.69 188.229 190.95L183.389 193.74C183.159 193.868 182.901 193.941 182.638 193.953C182.374 193.966 182.111 193.916 181.869 193.81Z" fill="#06033E"/>
<path opacity="0.4" d="M189.4 198.15L184.52 195.34C184.13 195.11 184.18 194.72 184.63 194.46L189.46 191.67C189.692 191.542 189.951 191.469 190.217 191.456C190.482 191.444 190.746 191.493 190.99 191.6L195.87 194.42C196.26 194.64 196.21 195.04 195.76 195.3L190.92 198.09C190.689 198.22 190.431 198.293 190.167 198.303C189.903 198.313 189.64 198.261 189.4 198.15Z" fill="#06033E"/>
<path opacity="0.4" d="M196.929 202.5L192.049 199.69C191.659 199.46 191.709 199.06 192.159 198.8L196.989 196.01C197.222 195.882 197.481 195.811 197.747 195.8C198.012 195.79 198.277 195.841 198.519 195.95L203.399 198.77C203.789 198.99 203.739 199.39 203.289 199.65L198.449 202.45C198.218 202.578 197.959 202.649 197.695 202.658C197.431 202.667 197.168 202.613 196.929 202.5Z" fill="#06033E"/>
<path opacity="0.4" d="M204.459 206.85L199.579 204.03C199.189 203.81 199.239 203.41 199.689 203.15L204.519 200.36C204.752 200.23 205.011 200.157 205.277 200.147C205.543 200.136 205.808 200.189 206.049 200.3L210.929 203.11C211.319 203.34 211.269 203.73 210.819 204L205.979 206.79C205.748 206.917 205.49 206.989 205.226 206.999C204.963 207.01 204.7 206.959 204.459 206.85Z" fill="#06033E"/>
<path opacity="0.4" d="M211.99 211.2L207.11 208.38C206.72 208.16 206.77 207.76 207.22 207.5L212.05 204.71C212.282 204.58 212.541 204.507 212.807 204.497C213.073 204.486 213.338 204.539 213.58 204.65L218.46 207.46C218.85 207.69 218.8 208.08 218.35 208.34L213.52 211.13C213.287 211.258 213.028 211.331 212.763 211.343C212.497 211.356 212.233 211.306 211.99 211.2Z" fill="#06033E"/>
<path opacity="0.4" d="M219.519 215.54L214.639 212.73C214.249 212.5 214.299 212.11 214.749 211.85L219.579 209.06C219.811 208.932 220.07 208.859 220.336 208.846C220.601 208.834 220.866 208.883 221.109 208.99L225.989 211.81C226.379 212.04 226.329 212.43 225.879 212.69L221.049 215.45C220.819 215.584 220.561 215.663 220.295 215.678C220.029 215.694 219.763 215.647 219.519 215.54Z" fill="#06033E"/>
<path opacity="0.4" d="M227.049 219.89L222.169 217.08C221.779 216.85 221.829 216.46 222.279 216.19L227.109 213.45C227.342 213.323 227.602 213.252 227.867 213.241C228.132 213.231 228.397 213.282 228.639 213.39L233.519 216.21C233.909 216.43 233.859 216.83 233.409 217.09L228.579 219.88C228.343 220.002 228.081 220.066 227.815 220.068C227.549 220.07 227.287 220.009 227.049 219.89Z" fill="#06033E"/>
<path opacity="0.4" d="M234.579 224.24L229.699 221.45C229.309 221.23 229.359 220.83 229.809 220.57L234.639 217.78C234.872 217.65 235.131 217.577 235.397 217.567C235.663 217.556 235.928 217.609 236.169 217.72L241.049 220.53C241.439 220.76 241.389 221.16 240.939 221.42L236.109 224.21C235.875 224.335 235.614 224.403 235.348 224.408C235.082 224.413 234.819 224.356 234.579 224.24Z" fill="#06033E"/>
<path opacity="0.4" d="M242.11 228.59L237.23 225.77C236.84 225.55 236.89 225.15 237.34 224.89L242.17 222.1C242.402 221.97 242.662 221.897 242.927 221.887C243.193 221.876 243.458 221.929 243.7 222.04L248.58 224.85C248.97 225.08 248.92 225.47 248.47 225.73L243.64 228.52C243.407 228.648 243.148 228.721 242.883 228.733C242.617 228.746 242.353 228.696 242.11 228.59Z" fill="#06033E"/>
<path opacity="0.4" d="M249.64 232.93L244.81 230.12C244.42 229.89 244.47 229.5 244.92 229.24L249.75 226.45C249.982 226.322 250.241 226.249 250.507 226.236C250.772 226.224 251.036 226.273 251.28 226.38L256.16 229.2C256.55 229.43 256.5 229.82 256.05 230.08L251.22 232.87C250.981 233.008 250.713 233.086 250.437 233.096C250.162 233.107 249.888 233.05 249.64 232.93Z" fill="#06033E"/>
<path opacity="0.4" d="M192.96 191.75L188.09 188.93C187.69 188.71 187.74 188.31 188.2 188.05L193.03 185.26C193.26 185.13 193.518 185.057 193.782 185.047C194.047 185.036 194.31 185.089 194.55 185.2L199.43 188.01C199.82 188.24 199.77 188.63 199.32 188.89L194.49 191.68C194.258 191.811 193.999 191.885 193.733 191.897C193.467 191.909 193.202 191.859 192.96 191.75Z" fill="#06033E"/>
<path opacity="0.4" d="M185.32 187.34L180.44 184.52C180.05 184.29 180.1 183.9 180.55 183.64L185.38 180.85C185.612 180.72 185.872 180.647 186.137 180.637C186.403 180.626 186.668 180.679 186.91 180.79L191.79 183.6C192.18 183.83 192.13 184.22 191.68 184.48L186.81 187.27C186.582 187.392 186.33 187.462 186.073 187.474C185.815 187.486 185.557 187.44 185.32 187.34Z" fill="#06033E"/>
<path opacity="0.4" d="M177.659 182.92L167.159 176.85C166.769 176.63 166.819 176.23 167.269 175.97L172.099 173.18C172.332 173.05 172.591 172.977 172.857 172.967C173.123 172.956 173.388 173.009 173.629 173.12L184.129 179.18C184.519 179.41 184.479 179.8 184.019 180.06L179.189 182.85C178.957 182.978 178.698 183.051 178.432 183.064C178.167 183.076 177.903 183.027 177.659 182.92Z" fill="#06033E"/>
<path opacity="0.4" d="M183.019 177.54L174.489 172.62C174.099 172.39 174.149 172 174.599 171.74L179.429 168.95C179.662 168.82 179.921 168.747 180.187 168.737C180.453 168.726 180.718 168.779 180.959 168.89L189.479 173.81C189.879 174.03 189.829 174.43 189.369 174.69L184.539 177.45C184.311 177.584 184.055 177.663 183.79 177.678C183.526 177.694 183.262 177.646 183.019 177.54Z" fill="#06033E"/>
<path opacity="0.4" d="M200.489 196.1L195.619 193.28C195.219 193.05 195.269 192.66 195.729 192.4L200.559 189.61C200.789 189.48 201.047 189.407 201.312 189.397C201.576 189.386 201.839 189.439 202.079 189.55L206.959 192.36C207.349 192.59 207.299 192.98 206.849 193.24L202.019 196.03C201.786 196.158 201.527 196.231 201.262 196.243C200.997 196.256 200.732 196.206 200.489 196.1Z" fill="#06033E"/>
<path opacity="0.4" d="M208.019 200.45L203.149 197.64C202.749 197.41 202.799 197.02 203.259 196.76L208.089 193.97C208.32 193.842 208.577 193.769 208.841 193.757C209.105 193.744 209.368 193.793 209.609 193.9L214.489 196.72C214.879 196.94 214.829 197.34 214.379 197.6L209.549 200.39C209.317 200.52 209.057 200.593 208.791 200.603C208.526 200.614 208.261 200.561 208.019 200.45Z" fill="#06033E"/>
<path opacity="0.4" d="M215.549 204.79L210.679 201.98C210.289 201.75 210.329 201.35 210.789 201.09L215.619 198.3C215.852 198.17 216.111 198.097 216.377 198.087C216.643 198.076 216.908 198.129 217.149 198.24L222.019 201.06C222.409 201.28 222.359 201.68 221.909 201.94L217.079 204.73C216.847 204.86 216.587 204.933 216.321 204.943C216.056 204.954 215.791 204.901 215.549 204.79Z" fill="#06033E"/>
<path opacity="0.4" d="M223.08 209.14L218.21 206.32C217.82 206.1 217.86 205.7 218.32 205.44L223.15 202.65C223.382 202.52 223.642 202.447 223.907 202.437C224.173 202.426 224.438 202.479 224.68 202.59L229.55 205.4C229.94 205.63 229.89 206.02 229.44 206.29L224.61 209.07C224.378 209.2 224.119 209.275 223.853 209.287C223.587 209.299 223.322 209.249 223.08 209.14Z" fill="#06033E"/>
<path opacity="0.4" d="M230.609 213.45L225.739 210.63C225.349 210.4 225.389 210.01 225.849 209.75L230.679 206.96C230.911 206.83 231.171 206.757 231.437 206.747C231.703 206.736 231.967 206.789 232.209 206.9L237.079 209.71C237.469 209.94 237.419 210.33 236.969 210.59L232.139 213.45C231.901 213.567 231.639 213.628 231.374 213.628C231.109 213.628 230.847 213.567 230.609 213.45Z" fill="#06033E"/>
<path opacity="0.4" d="M238.139 217.83L233.269 215.02C232.879 214.79 232.919 214.4 233.379 214.14L238.209 211.35C238.442 211.222 238.701 211.148 238.966 211.136C239.231 211.124 239.496 211.173 239.739 211.28L244.609 214.1C244.999 214.32 244.949 214.72 244.499 214.98L239.669 217.77C239.437 217.9 239.177 217.973 238.911 217.983C238.645 217.994 238.381 217.941 238.139 217.83Z" fill="#06033E"/>
<path opacity="0.4" d="M245.67 222.18L240.81 219.37C240.42 219.14 240.47 218.74 240.92 218.48L245.75 215.69C245.982 215.56 246.242 215.487 246.508 215.477C246.773 215.466 247.038 215.519 247.28 215.63L252.15 218.45C252.54 218.67 252.49 219.07 252.04 219.33L247.21 222.12C246.976 222.251 246.715 222.325 246.447 222.336C246.179 222.346 245.913 222.293 245.67 222.18Z" fill="#06033E"/>
<path opacity="0.4" d="M253.199 226.53L248.329 223.71C247.939 223.49 247.989 223.09 248.439 222.83L253.269 220.04C253.502 219.91 253.761 219.837 254.027 219.827C254.293 219.816 254.558 219.869 254.799 219.98L259.669 222.79C260.059 223.02 260.019 223.41 259.559 223.68L254.729 226.45C254.498 226.581 254.239 226.656 253.974 226.67C253.708 226.684 253.443 226.636 253.199 226.53Z" fill="#06033E"/>
<path opacity="0.4" d="M260.73 230.88L255.86 228.06C255.47 227.83 255.52 227.44 255.97 227.18L260.8 224.39C261.032 224.26 261.291 224.187 261.557 224.177C261.823 224.166 262.088 224.219 262.33 224.33L267.2 227.14C267.59 227.37 267.55 227.76 267.09 228.02L262.26 230.81C262.027 230.938 261.768 231.011 261.503 231.023C261.237 231.036 260.973 230.986 260.73 230.88Z" fill="#06033E"/>
<path opacity="0.4" d="M274.12 238.61L263.48 232.45C263.09 232.23 263.14 231.83 263.59 231.57L268.42 228.78C268.652 228.65 268.912 228.577 269.177 228.567C269.443 228.556 269.708 228.609 269.95 228.72L280.59 234.86C280.98 235.09 280.93 235.48 280.48 235.74L275.65 238.53C275.418 238.66 275.159 238.735 274.894 238.749C274.629 238.762 274.364 238.715 274.12 238.61Z" fill="#06033E"/>
<path opacity="0.4" d="M288.81 230.14L279.81 224.96C279.42 224.73 279.47 224.34 279.92 224.07L284.75 221.28C284.983 221.153 285.242 221.082 285.508 221.071C285.773 221.061 286.037 221.112 286.28 221.22L295.28 226.41C295.67 226.63 295.62 227.03 295.17 227.29L290.34 230.08C290.107 230.21 289.848 230.283 289.582 230.293C289.316 230.304 289.051 230.251 288.81 230.14Z" fill="#06033E"/>
<path opacity="0.4" d="M213.68 195.24L208.81 192.45C208.42 192.22 208.47 191.83 208.92 191.57L213.75 188.78C213.982 188.652 214.241 188.579 214.507 188.566C214.772 188.554 215.036 188.603 215.28 188.71L220.16 191.53C220.55 191.76 220.5 192.15 220.05 192.41L215.22 195.2C214.985 195.328 214.722 195.399 214.455 195.406C214.187 195.413 213.921 195.356 213.68 195.24Z" fill="#06033E"/>
<path opacity="0.4" d="M205.96 190.79L201.09 187.97C200.69 187.75 200.74 187.35 201.2 187.09L206.03 184.3C206.26 184.17 206.518 184.097 206.782 184.087C207.047 184.076 207.31 184.129 207.55 184.24L212.43 187.05C212.82 187.28 212.77 187.68 212.32 187.94L207.49 190.73C207.257 190.857 206.997 190.929 206.732 190.94C206.466 190.95 206.202 190.899 205.96 190.79Z" fill="#06033E"/>
<path opacity="0.4" d="M198.239 186.33L193.369 183.52C192.979 183.29 193.029 182.9 193.479 182.64L198.309 179.85C198.542 179.722 198.801 179.648 199.066 179.636C199.331 179.624 199.596 179.673 199.839 179.78L204.709 182.6C205.099 182.82 205.059 183.22 204.599 183.48L199.809 186.27C199.572 186.406 199.305 186.483 199.032 186.493C198.758 186.504 198.486 186.448 198.239 186.33Z" fill="#06033E"/>
<path opacity="0.4" d="M190.53 181.88L185.65 179.06C185.26 178.84 185.31 178.44 185.76 178.18L190.59 175.39C190.822 175.26 191.082 175.187 191.347 175.177C191.613 175.166 191.878 175.219 192.12 175.33L197 178.14C197.39 178.37 197.34 178.76 196.89 179.02L192.05 181.81C191.819 181.938 191.561 182.011 191.298 182.023C191.034 182.035 190.771 181.986 190.53 181.88Z" fill="#06033E"/>
<path opacity="0.4" d="M221.209 199.59L216.329 196.78C215.939 196.55 215.989 196.16 216.439 195.9L221.269 193.11C221.501 192.979 221.76 192.905 222.026 192.893C222.292 192.881 222.557 192.931 222.799 193.04L227.679 195.86C228.069 196.08 228.019 196.48 227.569 196.74L222.739 199.53C222.507 199.66 222.247 199.733 221.981 199.743C221.716 199.754 221.451 199.701 221.209 199.59Z" fill="#06033E"/>
<path opacity="0.4" d="M228.74 203.94L223.86 201.12C223.47 200.9 223.52 200.5 223.97 200.24L228.81 197.45C229.042 197.32 229.301 197.247 229.567 197.237C229.833 197.226 230.098 197.279 230.34 197.39L235.22 200.21C235.61 200.43 235.56 200.83 235.11 201.09L230.28 203.88C230.046 204.011 229.785 204.085 229.517 204.096C229.249 204.106 228.983 204.053 228.74 203.94Z" fill="#06033E"/>
<path opacity="0.4" d="M236.269 208.29L231.389 205.45C230.999 205.23 231.049 204.83 231.499 204.57L236.339 201.78C236.569 201.65 236.827 201.577 237.092 201.567C237.356 201.556 237.619 201.609 237.859 201.72L242.739 204.53C243.129 204.76 243.079 205.15 242.629 205.41L237.809 208.22C237.576 208.352 237.315 208.427 237.047 208.44C236.78 208.452 236.513 208.4 236.269 208.29Z" fill="#06033E"/>
<path opacity="0.4" d="M243.809 212.64L238.929 209.82C238.539 209.59 238.589 209.2 239.039 208.94L243.879 206.15C244.109 206.02 244.367 205.947 244.632 205.937C244.896 205.926 245.159 205.979 245.399 206.09L250.279 208.9C250.669 209.13 250.619 209.52 250.169 209.78L245.339 212.57C245.106 212.698 244.847 212.771 244.582 212.784C244.317 212.796 244.052 212.747 243.809 212.64Z" fill="#06033E"/>
<path opacity="0.4" d="M251.329 216.98L246.449 214.17C246.059 213.94 246.109 213.55 246.559 213.29L251.399 210.5C251.629 210.369 251.887 210.294 252.151 210.282C252.415 210.27 252.679 210.32 252.919 210.43L257.809 213.25C258.199 213.47 258.149 213.87 257.699 214.13L252.869 216.92C252.636 217.051 252.374 217.125 252.107 217.136C251.839 217.146 251.572 217.093 251.329 216.98Z" fill="#06033E"/>
<path opacity="0.4" d="M258.86 221.33L253.98 218.51C253.59 218.29 253.64 217.89 254.09 217.63L258.93 214.84C259.16 214.71 259.418 214.637 259.682 214.627C259.947 214.616 260.21 214.669 260.45 214.78L265.33 217.6C265.72 217.82 265.67 218.22 265.22 218.48L260.39 221.27C260.157 221.4 259.898 221.473 259.632 221.483C259.366 221.494 259.101 221.441 258.86 221.33Z" fill="#06033E"/>
<path opacity="0.4" d="M266.389 225.68L261.509 222.86C261.119 222.64 261.169 222.24 261.619 221.98L266.459 219.19C266.689 219.06 266.947 218.987 267.212 218.977C267.476 218.966 267.739 219.019 267.979 219.13L272.859 221.94C273.249 222.17 273.199 222.56 272.749 222.83L267.919 225.61C267.687 225.74 267.428 225.815 267.162 225.827C266.897 225.839 266.632 225.789 266.389 225.68Z" fill="#06033E"/>
<path opacity="0.4" d="M273.92 230.03L269.05 227.21C268.65 226.98 268.7 226.59 269.15 226.33L273.99 223.54C274.22 223.41 274.478 223.337 274.742 223.327C275.007 223.316 275.27 223.369 275.51 223.48L280.39 226.29C280.78 226.52 280.73 226.91 280.28 227.17L275.45 229.96C275.217 230.088 274.958 230.161 274.693 230.173C274.427 230.186 274.163 230.136 273.92 230.03Z" fill="#06033E"/>
<path opacity="0.4" d="M281.449 234.37L276.579 231.56C276.179 231.33 276.229 230.94 276.689 230.68L281.519 227.89C281.75 227.762 282.007 227.689 282.271 227.677C282.534 227.664 282.797 227.714 283.039 227.82L287.919 230.64C288.309 230.86 288.259 231.26 287.809 231.52L282.979 234.31C282.747 234.44 282.487 234.513 282.221 234.523C281.955 234.534 281.691 234.481 281.449 234.37Z" fill="#06033E"/>
<path opacity="0.4" d="M209.71 184.45L204.81 181.68C204.42 181.45 204.47 181.05 204.92 180.79L209.75 178C209.983 177.872 210.242 177.801 210.508 177.79C210.773 177.78 211.037 177.831 211.28 177.94L216.15 180.76C216.54 180.98 216.5 181.38 216.04 181.64L211.24 184.45C211.003 184.57 210.741 184.633 210.475 184.633C210.209 184.633 209.947 184.57 209.71 184.45Z" fill="#06033E"/>
<path opacity="0.4" d="M202.219 180.17L197.349 177.35C196.949 177.12 196.999 176.73 197.449 176.47L202.289 173.68C202.52 173.55 202.778 173.477 203.042 173.467C203.306 173.456 203.569 173.509 203.809 173.62L208.689 176.43C209.079 176.66 209.029 177.05 208.579 177.31L203.749 180.1C203.517 180.228 203.258 180.301 202.993 180.314C202.727 180.326 202.463 180.277 202.219 180.17Z" fill="#06033E"/>
<path opacity="0.4" d="M194.73 175.84L189.81 173.02C189.42 172.8 189.47 172.4 189.92 172.14L194.81 169.35C195.042 169.22 195.302 169.147 195.568 169.137C195.833 169.126 196.098 169.179 196.34 169.29L201.22 172.1C201.61 172.33 201.56 172.73 201.11 172.99L196.28 175.78C196.045 175.913 195.782 175.988 195.512 175.998C195.242 176.009 194.974 175.954 194.73 175.84Z" fill="#06033E"/>
<path opacity="0.4" d="M187.24 171.51L182.36 168.7C181.97 168.47 182.02 168.08 182.47 167.82L187.3 165.03C187.532 164.902 187.791 164.829 188.056 164.816C188.322 164.804 188.586 164.853 188.83 164.96L193.7 167.78C194.1 168 194.05 168.4 193.59 168.66L188.81 171.45C188.573 171.588 188.306 171.666 188.032 171.676C187.758 171.687 187.486 171.629 187.24 171.51Z" fill="#06033E"/>
<path opacity="0.4" d="M194.94 167.06L190.06 164.25C189.67 164.02 189.72 163.63 190.17 163.37L191.81 162.45C192.042 162.319 192.301 162.245 192.566 162.233C192.832 162.221 193.097 162.271 193.34 162.38L198.21 165.2C198.61 165.42 198.56 165.82 198.11 166.08L196.51 167C196.272 167.136 196.006 167.213 195.732 167.223C195.459 167.234 195.187 167.178 194.94 167.06Z" fill="#06033E"/>
<path opacity="0.4" d="M204.72 172.71L199.81 169.89C199.42 169.67 199.47 169.27 199.92 169.01L201.52 168.09C201.752 167.96 202.012 167.887 202.278 167.877C202.543 167.866 202.808 167.919 203.05 168.03L207.92 170.84C208.31 171.07 208.27 171.46 207.81 171.72L206.22 172.65C205.991 172.775 205.737 172.845 205.477 172.856C205.217 172.866 204.957 172.816 204.72 172.71Z" fill="#06033E"/>
<path opacity="0.4" d="M212.179 177.02L207.299 174.2C206.909 173.98 206.959 173.58 207.409 173.32L209.009 172.4C209.241 172.27 209.501 172.197 209.767 172.187C210.033 172.176 210.297 172.229 210.539 172.34L215.409 175.15C215.809 175.38 215.759 175.77 215.309 176.03L213.709 176.95C213.477 177.08 213.218 177.155 212.952 177.167C212.687 177.179 212.422 177.129 212.179 177.02Z" fill="#06033E"/>
<path opacity="0.4" d="M219.639 181.33L214.809 178.51C214.409 178.28 214.459 177.89 214.919 177.63L216.509 176.71C216.742 176.582 217.001 176.509 217.266 176.496C217.531 176.484 217.796 176.533 218.039 176.64L222.919 179.46C223.309 179.68 223.259 180.08 222.809 180.34L221.209 181.26C220.972 181.395 220.706 181.471 220.433 181.484C220.16 181.496 219.888 181.443 219.639 181.33Z" fill="#06033E"/>
<path opacity="0.4" d="M227.099 185.63L222.229 182.82C221.839 182.59 221.879 182.2 222.339 181.94L223.929 181.01C224.162 180.883 224.422 180.812 224.687 180.801C224.952 180.791 225.217 180.842 225.459 180.95L230.339 183.77C230.729 183.99 230.679 184.39 230.229 184.65L228.629 185.57C228.397 185.7 228.137 185.773 227.871 185.783C227.605 185.794 227.341 185.741 227.099 185.63Z" fill="#06033E"/>
<path opacity="0.4" d="M268.809 209.68L263.929 206.87C263.539 206.64 263.589 206.25 264.039 205.99L265.639 205.07C265.871 204.939 266.13 204.865 266.396 204.853C266.661 204.841 266.926 204.891 267.169 205L272.039 207.82C272.439 208.04 272.389 208.44 271.929 208.7L270.339 209.62C270.107 209.75 269.847 209.823 269.581 209.833C269.315 209.844 269.051 209.791 268.809 209.68Z" fill="#06033E"/>
<path opacity="0.4" d="M276.219 213.99L271.349 211.18C270.949 210.95 270.999 210.56 271.459 210.3L273.049 209.37C273.282 209.24 273.541 209.167 273.807 209.157C274.073 209.146 274.338 209.199 274.579 209.31L279.459 212.13C279.849 212.35 279.799 212.75 279.349 213.01L277.749 213.93C277.517 214.06 277.257 214.133 276.992 214.143C276.726 214.154 276.461 214.101 276.219 213.99Z" fill="#06033E"/>
<path opacity="0.4" d="M283.679 218.3L278.809 215.45C278.419 215.22 278.459 214.82 278.919 214.56L280.509 213.64C280.742 213.51 281.001 213.437 281.267 213.427C281.533 213.416 281.797 213.469 282.039 213.58L286.919 216.39C287.309 216.62 287.259 217.01 286.809 217.27L285.209 218.2C284.98 218.336 284.722 218.416 284.456 218.433C284.19 218.451 283.924 218.405 283.679 218.3Z" fill="#06033E"/>
<path opacity="0.4" d="M291.15 222.61L286.27 219.79C285.88 219.57 285.93 219.17 286.38 218.91L287.98 217.99C288.21 217.86 288.468 217.787 288.732 217.777C288.997 217.766 289.26 217.819 289.5 217.93L294.38 220.74C294.77 220.97 294.72 221.36 294.27 221.62L292.67 222.55C292.438 222.677 292.181 222.749 291.917 222.759C291.653 222.77 291.39 222.719 291.15 222.61Z" fill="#06033E"/>
<path opacity="0.4" d="M217.239 188.84L212.369 186.02C211.979 185.8 212.029 185.4 212.479 185.14L217.309 182.35C217.542 182.22 217.801 182.147 218.067 182.137C218.333 182.126 218.598 182.179 218.839 182.29L223.709 185.1C224.099 185.33 224.059 185.72 223.599 185.99L218.809 188.78C218.571 188.914 218.305 188.989 218.032 189C217.759 189.01 217.487 188.955 217.239 188.84Z" fill="#06033E"/>
<path opacity="0.4" d="M224.81 193.19L219.94 190.37C219.55 190.14 219.6 189.75 220.05 189.49L224.88 186.7C225.112 186.57 225.372 186.497 225.637 186.487C225.903 186.476 226.168 186.529 226.41 186.64L231.28 189.45C231.67 189.68 231.63 190.07 231.17 190.33L226.34 193.12C226.107 193.248 225.848 193.321 225.583 193.333C225.317 193.346 225.053 193.296 224.81 193.19Z" fill="#06033E"/>
<path opacity="0.4" d="M232.299 197.53L227.429 194.72C227.039 194.49 227.089 194.1 227.539 193.84L232.369 191.05C232.601 190.922 232.86 190.849 233.126 190.836C233.391 190.824 233.656 190.873 233.899 190.98L238.769 193.8C239.169 194.03 239.119 194.42 238.659 194.68L233.809 197.45C233.581 197.58 233.325 197.654 233.063 197.668C232.801 197.682 232.539 197.635 232.299 197.53Z" fill="#06033E"/>
<path opacity="0.4" d="M239.809 201.88L234.929 199.07C234.539 198.84 234.589 198.45 235.039 198.18L239.869 195.39C240.102 195.262 240.361 195.191 240.627 195.18C240.892 195.17 241.157 195.221 241.399 195.33L246.269 198.15C246.669 198.37 246.619 198.77 246.159 199.03L241.329 201.82C241.098 201.95 240.84 202.023 240.576 202.033C240.312 202.043 240.049 201.991 239.809 201.88Z" fill="#06033E"/>
<path opacity="0.4" d="M247.369 206.23L242.489 203.45C242.099 203.23 242.149 202.83 242.599 202.57L247.429 199.78C247.662 199.65 247.921 199.577 248.187 199.567C248.453 199.556 248.718 199.609 248.959 199.72L253.809 202.45C254.209 202.68 254.159 203.08 253.699 203.34L248.869 206.13C248.645 206.263 248.392 206.341 248.131 206.358C247.871 206.376 247.61 206.332 247.369 206.23Z" fill="#06033E"/>
<path opacity="0.4" d="M254.9 210.58L250.02 207.76C249.63 207.54 249.68 207.14 250.13 206.88L254.96 204.09C255.192 203.96 255.452 203.887 255.717 203.877C255.983 203.866 256.248 203.919 256.49 204.03L261.36 206.84C261.76 207.07 261.71 207.46 261.25 207.72L256.42 210.51C256.189 210.638 255.932 210.711 255.668 210.723C255.404 210.735 255.141 210.686 254.9 210.58Z" fill="#06033E"/>
<path opacity="0.4" d="M262.429 214.92L257.549 212.11C257.159 211.88 257.209 211.49 257.659 211.23L262.489 208.44C262.722 208.312 262.98 208.239 263.246 208.226C263.511 208.214 263.776 208.263 264.019 208.37L268.889 211.19C269.289 211.42 269.239 211.81 268.779 212.07L263.949 214.86C263.718 214.99 263.46 215.063 263.196 215.073C262.932 215.084 262.669 215.031 262.429 214.92Z" fill="#06033E"/>
<path opacity="0.4" d="M269.959 219.27L265.079 216.45C264.689 216.22 264.739 215.83 265.189 215.56L270.019 212.78C270.251 212.649 270.51 212.575 270.776 212.563C271.042 212.551 271.307 212.601 271.549 212.71L276.419 215.53C276.819 215.75 276.769 216.15 276.319 216.41L271.479 219.2C271.25 219.331 270.992 219.406 270.728 219.418C270.463 219.43 270.2 219.379 269.959 219.27Z" fill="#06033E"/>
<path opacity="0.4" d="M277.49 223.62L272.61 220.8C272.22 220.58 272.27 220.18 272.72 219.92L277.55 217.13C277.782 217 278.041 216.927 278.307 216.917C278.573 216.906 278.838 216.959 279.08 217.07L283.96 219.88C284.35 220.11 284.3 220.51 283.85 220.77L279.01 223.56C278.779 223.69 278.521 223.763 278.257 223.773C277.993 223.783 277.73 223.731 277.49 223.62Z" fill="#06033E"/>
<path opacity="0.4" d="M174.19 189.38L159.81 181.08C159.42 180.86 159.47 180.46 159.92 180.2L164.81 177.45C165.042 177.32 165.302 177.247 165.568 177.237C165.833 177.226 166.098 177.279 166.34 177.39L180.7 185.68C181.09 185.91 181.04 186.3 180.59 186.56L175.76 189.35C175.519 189.478 175.251 189.548 174.978 189.553C174.705 189.558 174.435 189.499 174.19 189.38Z" fill="#06033E"/>
<path opacity="0.4" d="M266.699 242.79L252.339 234.5C251.949 234.27 251.999 233.87 252.449 233.61L257.279 230.82C257.511 230.69 257.771 230.617 258.037 230.607C258.303 230.596 258.567 230.649 258.809 230.76L273.169 239.05C273.559 239.28 273.509 239.67 273.059 239.93L268.229 242.72C267.996 242.848 267.738 242.921 267.472 242.934C267.207 242.946 266.942 242.897 266.699 242.79Z" fill="#06033E"/>
<path opacity="0.4" d="M236.589 235L231.709 232.19C231.319 231.96 231.369 231.57 231.819 231.31L237.579 227.98C237.811 227.85 238.071 227.777 238.337 227.767C238.603 227.756 238.867 227.809 239.109 227.92L243.979 230.74C244.369 230.96 244.319 231.36 243.869 231.62L238.119 234.94C237.887 235.07 237.627 235.143 237.361 235.153C237.095 235.164 236.831 235.111 236.589 235Z" fill="#06033E"/>
<path opacity="0.4" d="M181.899 203.45L174.109 198.95C173.709 198.72 173.759 198.33 174.219 198.07L179.969 194.74C180.201 194.61 180.461 194.537 180.727 194.527C180.993 194.516 181.257 194.569 181.499 194.68L189.299 199.18C189.689 199.41 189.639 199.8 189.189 200.06L183.429 203.39C183.197 203.52 182.937 203.593 182.671 203.603C182.405 203.614 182.141 203.561 181.899 203.45Z" fill="#06033E"/>
<path opacity="0.4" d="M229.329 230.81L221.539 226.31C221.139 226.09 221.189 225.69 221.649 225.43L227.399 222.11C227.631 221.982 227.89 221.908 228.156 221.896C228.421 221.884 228.686 221.933 228.929 222.04L236.729 226.55C237.119 226.77 237.069 227.17 236.619 227.43L230.859 230.75C230.627 230.88 230.367 230.953 230.101 230.963C229.835 230.974 229.571 230.921 229.329 230.81Z" fill="#06033E"/>
<path opacity="0.4" d="M192.809 209.7L185.009 205.2C184.619 204.98 184.669 204.58 185.119 204.32L190.879 201C191.11 200.872 191.367 200.799 191.631 200.786C191.894 200.774 192.157 200.823 192.399 200.93L200.199 205.44C200.589 205.66 200.539 206.06 200.089 206.32L194.339 209.64C194.107 209.77 193.847 209.843 193.581 209.853C193.315 209.863 193.051 209.811 192.809 209.7Z" fill="#06033E"/>
<path opacity="0.4" d="M192.42 200.96L226.32 220.54C226.414 220.569 226.496 220.627 226.555 220.706C226.614 220.785 226.645 220.881 226.645 220.98C226.645 221.079 226.614 221.174 226.555 221.254C226.496 221.333 226.414 221.391 226.32 221.42L220.45 224.81C220.214 224.929 219.953 224.99 219.69 224.99C219.426 224.99 219.165 224.929 218.93 224.81L185.02 205.23L192.42 200.96Z" fill="#06033E"/>
<path opacity="0.4" d="M257.64 242.89L263.07 246.02C263.39 246.21 263.35 246.53 262.98 246.74L260.62 248.1C260.431 248.207 260.219 248.268 260.002 248.279C259.785 248.289 259.568 248.248 259.37 248.16L253.94 245.02C253.62 244.84 253.66 244.51 254.03 244.3L256.38 242.94C256.57 242.831 256.784 242.77 257.004 242.761C257.223 242.753 257.441 242.797 257.64 242.89Z" fill="#06033E"/>
<path opacity="0.4" d="M250.039 238.5L255.469 241.64C255.789 241.82 255.749 242.15 255.379 242.36L253.029 243.72C252.839 243.826 252.627 243.886 252.41 243.895C252.193 243.903 251.976 243.861 251.779 243.77L246.349 240.64C246.029 240.45 246.069 240.13 246.439 239.91L248.809 238.55C248.997 238.45 249.205 238.393 249.418 238.385C249.631 238.376 249.843 238.415 250.039 238.5Z" fill="#06033E"/>
<path opacity="0.4" d="M242.509 234.15L247.939 237.29C248.259 237.48 248.219 237.8 247.849 238.01L245.499 239.37C245.31 239.478 245.098 239.54 244.88 239.548C244.662 239.557 244.446 239.513 244.249 239.42L238.809 236.29C238.479 236.1 238.529 235.78 238.899 235.57L241.249 234.21C241.439 234.101 241.653 234.039 241.872 234.029C242.091 234.018 242.309 234.06 242.509 234.15Z" fill="#06033E"/>
<path opacity="0.4" d="M254.199 236.1L259.629 239.24C259.949 239.42 259.909 239.75 259.539 239.96L257.189 241.32C257 241.426 256.787 241.486 256.57 241.495C256.353 241.503 256.137 241.461 255.939 241.37L250.499 238.24C250.179 238.05 250.219 237.73 250.589 237.51L252.949 236.15C253.14 236.047 253.352 235.989 253.568 235.98C253.785 235.971 254.001 236.012 254.199 236.1Z" fill="#06033E"/>
</g>
<path d="M333.898 227.31L190.028 144.25C188.886 143.503 188.014 142.409 187.54 141.129C187.067 139.849 187.017 138.45 187.398 137.14L219.928 31.5099C220.738 28.8899 223.218 27.8199 225.488 29.1299L369.348 112.19C370.491 112.936 371.364 114.03 371.838 115.31C372.312 116.591 372.361 117.989 371.978 119.3L339.448 224.93C338.648 227.55 336.158 228.61 333.898 227.31Z" fill="url(#paint7_radial)"/>
<path d="M332.539 223.61L192.999 142.98C191.908 142.264 191.074 141.218 190.621 139.994C190.168 138.771 190.118 137.434 190.479 136.18L221.579 35.18C221.698 34.6258 221.948 34.1082 222.309 33.6709C222.669 33.2335 223.13 32.8892 223.651 32.6667C224.172 32.4443 224.739 32.3502 225.305 32.3926C225.87 32.4349 226.417 32.6123 226.899 32.91L366.439 113.55C367.531 114.265 368.366 115.311 368.819 116.535C369.273 117.759 369.322 119.096 368.959 120.35L337.859 221.35C337.079 223.84 334.699 224.86 332.539 223.61Z" fill="url(#paint8_linear)"/>
<path opacity="0.4" d="M332.539 223.61L192.999 142.98C191.908 142.264 191.074 141.218 190.621 139.994C190.168 138.771 190.118 137.434 190.479 136.18L221.579 35.18C221.698 34.6258 221.948 34.1082 222.309 33.6709C222.669 33.2335 223.13 32.8892 223.651 32.6667C224.172 32.4443 224.739 32.3502 225.305 32.3926C225.87 32.4349 226.417 32.6123 226.899 32.91L366.439 113.55C367.531 114.265 368.366 115.311 368.819 116.535C369.273 117.759 369.322 119.096 368.959 120.35L337.859 221.35C337.079 223.84 334.699 224.86 332.539 223.61Z" fill="#06033E"/>
<path opacity="0.4" d="M332.539 223.61L192.999 142.98C191.908 142.264 191.074 141.218 190.621 139.994C190.168 138.771 190.118 137.434 190.479 136.18L221.579 35.18C221.698 34.6258 221.948 34.1082 222.309 33.6709C222.669 33.2335 223.13 32.8892 223.651 32.6667C224.172 32.4443 224.739 32.3502 225.305 32.3926C225.87 32.4349 226.417 32.6123 226.899 32.91L366.439 113.55C367.531 114.265 368.366 115.311 368.819 116.535C369.273 117.759 369.322 119.096 368.959 120.35L337.859 221.35C337.079 223.84 334.699 224.86 332.539 223.61Z" fill="#06033E"/>
<path opacity="0.5" d="M325.039 192.75L230.579 138.21C229.829 137.719 229.256 137 228.945 136.16C228.633 135.319 228.6 134.401 228.849 133.54L250.209 64.1899C250.291 63.81 250.463 63.4552 250.71 63.1552C250.957 62.8551 251.272 62.6184 251.629 62.4648C251.986 62.3112 252.375 62.2451 252.763 62.2721C253.151 62.2991 253.526 62.4183 253.859 62.6199L348.319 117.16C349.07 117.65 349.644 118.368 349.955 119.209C350.267 120.05 350.299 120.969 350.049 121.83L328.689 191.19C328.607 191.57 328.436 191.925 328.188 192.226C327.941 192.526 327.625 192.762 327.268 192.915C326.91 193.068 326.521 193.133 326.133 193.104C325.745 193.075 325.37 192.954 325.039 192.75Z" fill="#06033E"/>
<path d="M312.278 194.45L217.808 139.88C217.058 139.392 216.484 138.675 216.173 137.836C215.861 136.997 215.828 136.08 216.078 135.22L237.438 65.86C237.517 65.4784 237.688 65.1217 237.935 64.8201C238.182 64.5186 238.498 64.2811 238.856 64.128C239.215 63.9748 239.605 63.9104 239.993 63.9404C240.382 63.9703 240.757 64.0937 241.088 64.2999L335.548 118.83C336.298 119.321 336.871 120.039 337.182 120.88C337.494 121.721 337.527 122.639 337.278 123.5L315.918 192.86C315.842 193.243 315.674 193.601 315.43 193.905C315.185 194.209 314.871 194.449 314.513 194.605C314.156 194.762 313.766 194.829 313.377 194.802C312.987 194.775 312.61 194.654 312.278 194.45Z" fill="url(#paint9_radial)"/>
<g opacity="0.5">
<path opacity="0.5" d="M312.278 194.45L217.808 139.88C217.058 139.392 216.484 138.675 216.173 137.836C215.861 136.997 215.828 136.08 216.078 135.22L237.438 65.86C237.517 65.4784 237.688 65.1217 237.935 64.8201C238.182 64.5186 238.498 64.2811 238.856 64.128C239.215 63.9748 239.605 63.9104 239.993 63.9404C240.382 63.9703 240.757 64.0937 241.088 64.2999L335.548 118.83C336.298 119.321 336.871 120.039 337.182 120.88C337.494 121.721 337.527 122.639 337.278 123.5L315.918 192.86C315.842 193.243 315.674 193.601 315.43 193.905C315.185 194.209 314.871 194.449 314.513 194.605C314.156 194.762 313.766 194.829 313.377 194.802C312.987 194.775 312.61 194.654 312.278 194.45Z" fill="#06033E"/>
</g>
<path d="M335.558 118.83L241.098 64.3C240.698 64.0456 240.229 63.9182 239.755 63.9342C239.28 63.9503 238.821 64.1091 238.438 64.39C238.916 64.3776 239.387 64.4988 239.798 64.74L334.258 119.27C335.009 119.761 335.583 120.479 335.896 121.319C336.209 122.159 336.245 123.078 335.998 123.94L314.628 193.3C314.462 193.885 314.112 194.401 313.628 194.77C314.164 194.738 314.676 194.536 315.088 194.192C315.5 193.848 315.791 193.381 315.918 192.86L337.278 123.5C337.529 122.64 337.496 121.722 337.187 120.882C336.877 120.041 336.307 119.322 335.558 118.83Z" fill="white"/>
<path opacity="0.4" d="M193.138 251.06C191.92 251.09 190.716 250.808 189.638 250.24L151.808 228.39C151.363 228.177 150.983 227.849 150.709 227.439C150.434 227.029 150.275 226.553 150.248 226.06C150.312 225.437 150.539 224.843 150.906 224.335C151.273 223.828 151.767 223.426 152.338 223.17L171.808 211.92C173.02 211.232 174.378 210.845 175.77 210.791C177.162 210.737 178.547 211.018 179.808 211.61L217.608 233.45C218.054 233.661 218.435 233.989 218.71 234.399C218.985 234.81 219.143 235.287 219.168 235.78C219.104 236.403 218.877 236.997 218.51 237.505C218.143 238.012 217.649 238.414 217.078 238.67L197.598 249.92C196.234 250.677 194.698 251.07 193.138 251.06ZM176.288 211.9C174.915 211.899 173.564 212.242 172.358 212.9L152.878 224.15C151.878 224.72 151.338 225.43 151.338 226.1C151.369 226.398 151.477 226.682 151.653 226.924C151.828 227.167 152.065 227.358 152.338 227.48L190.178 249.33C191.268 249.808 192.454 250.03 193.643 249.978C194.832 249.926 195.994 249.601 197.038 249.03L216.528 237.78C217.528 237.21 218.068 236.5 218.068 235.78C218.036 235.483 217.926 235.199 217.751 234.957C217.576 234.715 217.34 234.523 217.068 234.4L179.218 212.55C178.313 212.086 177.304 211.862 176.288 211.9Z" fill="#06033E"/>
<path d="M264.109 100.69L258.269 97.31C257.993 97.1381 257.781 96.8814 257.664 96.5784C257.546 96.2754 257.531 95.9426 257.619 95.63C257.648 95.4936 257.71 95.3665 257.8 95.2595C257.889 95.1524 258.003 95.0687 258.132 95.0156C258.261 94.9625 258.401 94.9414 258.54 94.9544C258.678 94.9674 258.812 95.0139 258.929 95.09L264.809 98.45C265.081 98.6252 265.29 98.8823 265.407 99.1842C265.524 99.486 265.542 99.8172 265.459 100.13C265.433 100.273 265.371 100.407 265.28 100.52C265.189 100.633 265.071 100.722 264.936 100.777C264.802 100.833 264.656 100.854 264.511 100.839C264.367 100.824 264.228 100.773 264.109 100.69Z" fill="white"/>
<path d="M278.019 108.72L269.409 103.72C269.134 103.547 268.923 103.29 268.806 102.987C268.689 102.685 268.672 102.353 268.759 102.04C268.787 101.903 268.848 101.774 268.937 101.666C269.025 101.558 269.139 101.473 269.268 101.419C269.398 101.365 269.538 101.343 269.677 101.355C269.817 101.368 269.951 101.414 270.069 101.49L278.679 106.49C278.951 106.665 279.16 106.922 279.277 107.224C279.394 107.526 279.412 107.857 279.329 108.17C279.301 108.307 279.24 108.435 279.151 108.544C279.062 108.652 278.948 108.737 278.819 108.791C278.69 108.845 278.55 108.867 278.41 108.855C278.271 108.842 278.136 108.796 278.019 108.72Z" fill="white"/>
<path d="M252.329 126.69L246.489 123.31C246.217 123.135 246.007 122.878 245.89 122.576C245.773 122.274 245.755 121.943 245.839 121.63C245.868 121.494 245.93 121.366 246.019 121.259C246.109 121.152 246.223 121.069 246.352 121.016C246.481 120.962 246.621 120.941 246.759 120.954C246.898 120.967 247.032 121.014 247.149 121.09L252.989 124.46C253.261 124.635 253.47 124.892 253.587 125.194C253.704 125.496 253.722 125.827 253.639 126.14C253.609 126.276 253.546 126.403 253.457 126.509C253.368 126.616 253.254 126.7 253.126 126.754C252.998 126.808 252.858 126.83 252.72 126.819C252.581 126.808 252.447 126.764 252.329 126.69Z" fill="white"/>
<path d="M264.729 133.84L256.119 128.84C255.844 128.667 255.633 128.41 255.516 128.108C255.399 127.805 255.382 127.473 255.469 127.16C255.498 127.024 255.56 126.897 255.649 126.789C255.739 126.682 255.853 126.599 255.982 126.546C256.111 126.492 256.251 126.471 256.389 126.484C256.528 126.497 256.662 126.544 256.779 126.62L265.389 131.62C265.661 131.795 265.87 132.052 265.987 132.354C266.104 132.656 266.122 132.987 266.039 133.3C266.009 133.436 265.947 133.563 265.858 133.67C265.769 133.778 265.655 133.861 265.526 133.914C265.397 133.967 265.257 133.988 265.118 133.976C264.979 133.963 264.846 133.916 264.729 133.84Z" fill="white"/>
<path d="M246.609 96.05L242.959 93.95C242.688 93.7736 242.479 93.5165 242.363 93.2149C242.246 92.9134 242.227 92.5828 242.309 92.27C242.338 92.1326 242.401 92.0043 242.49 91.8963C242.58 91.7882 242.695 91.7035 242.825 91.6494C242.955 91.5954 243.095 91.5736 243.235 91.5859C243.376 91.5981 243.51 91.6442 243.629 91.72L247.279 93.83C247.551 94.0044 247.761 94.2619 247.876 94.5644C247.991 94.8668 248.006 95.1983 247.919 95.51C247.889 95.6463 247.827 95.7735 247.738 95.8805C247.649 95.9875 247.535 96.0712 247.406 96.1244C247.277 96.1775 247.137 96.1985 246.998 96.1855C246.859 96.1726 246.726 96.1261 246.609 96.05Z" fill="white"/>
<path d="M257.589 107.86L246.439 101.45C246.167 101.275 245.957 101.018 245.84 100.716C245.724 100.414 245.706 100.083 245.789 99.77C245.82 99.6335 245.883 99.5063 245.973 99.3995C246.064 99.2926 246.179 99.2091 246.308 99.1561C246.438 99.1031 246.578 99.0821 246.718 99.095C246.857 99.1079 246.991 99.1542 247.109 99.23L258.249 105.66C258.522 105.834 258.733 106.091 258.85 106.393C258.966 106.696 258.984 107.027 258.899 107.34C258.865 107.473 258.8 107.597 258.709 107.7C258.618 107.803 258.504 107.884 258.377 107.934C258.249 107.985 258.111 108.005 257.974 107.992C257.837 107.979 257.705 107.934 257.589 107.86Z" fill="white"/>
<path d="M247.309 112.85L243.659 110.75C243.388 110.574 243.179 110.316 243.063 110.015C242.946 109.713 242.927 109.383 243.009 109.07C243.037 108.933 243.098 108.804 243.187 108.696C243.276 108.588 243.39 108.503 243.519 108.449C243.648 108.395 243.788 108.373 243.928 108.385C244.067 108.398 244.201 108.444 244.319 108.52L247.969 110.63C248.241 110.805 248.451 111.062 248.567 111.364C248.684 111.666 248.702 111.997 248.619 112.31C248.59 112.446 248.528 112.573 248.438 112.68C248.349 112.787 248.235 112.871 248.106 112.924C247.977 112.977 247.837 112.998 247.698 112.985C247.559 112.973 247.426 112.926 247.309 112.85Z" fill="white"/>
<path d="M266.068 145.55L256.328 139.93C256.056 139.755 255.847 139.498 255.73 139.196C255.613 138.894 255.595 138.563 255.678 138.25C255.706 138.113 255.768 137.984 255.856 137.876C255.945 137.768 256.059 137.683 256.188 137.629C256.317 137.575 256.458 137.553 256.597 137.565C256.737 137.578 256.871 137.624 256.988 137.7L266.738 143.33C267.011 143.505 267.22 143.762 267.337 144.064C267.454 144.366 267.472 144.697 267.388 145.01C267.358 145.147 267.294 145.274 267.204 145.381C267.114 145.487 266.999 145.571 266.869 145.624C266.74 145.677 266.599 145.698 266.46 145.685C266.32 145.672 266.186 145.626 266.068 145.55Z" fill="white"/>
<path d="M243.219 121.45L240.879 120.09C240.607 119.916 240.398 119.661 240.281 119.361C240.164 119.061 240.146 118.731 240.229 118.42C240.257 118.283 240.318 118.155 240.406 118.046C240.495 117.938 240.609 117.853 240.738 117.799C240.867 117.745 241.008 117.723 241.147 117.735C241.287 117.748 241.421 117.794 241.539 117.87L243.879 119.22C244.154 119.392 244.367 119.649 244.484 119.952C244.601 120.255 244.617 120.587 244.529 120.9C244.498 121.036 244.436 121.163 244.347 121.269C244.258 121.376 244.144 121.46 244.016 121.514C243.888 121.568 243.748 121.59 243.609 121.579C243.471 121.568 243.337 121.524 243.219 121.45Z" fill="white"/>
<path d="M240.999 131.08L238.099 129.4C237.823 129.228 237.611 128.971 237.494 128.668C237.376 128.365 237.361 128.033 237.449 127.72C237.478 127.584 237.54 127.456 237.63 127.349C237.719 127.242 237.833 127.159 237.962 127.106C238.091 127.052 238.231 127.031 238.37 127.044C238.508 127.057 238.642 127.104 238.759 127.18L241.669 128.85C241.94 129.026 242.149 129.283 242.265 129.585C242.382 129.887 242.401 130.217 242.319 130.53C242.289 130.667 242.227 130.796 242.137 130.904C242.047 131.012 241.933 131.096 241.803 131.15C241.673 131.205 241.532 131.226 241.392 131.214C241.252 131.202 241.117 131.156 240.999 131.08Z" fill="white"/>
<path d="M252.319 137.61L244.649 133.19C244.378 133.014 244.17 132.756 244.053 132.455C243.936 132.153 243.918 131.823 243.999 131.51C244.027 131.373 244.088 131.245 244.177 131.136C244.266 131.028 244.38 130.943 244.509 130.889C244.638 130.835 244.778 130.813 244.918 130.825C245.057 130.838 245.192 130.884 245.309 130.96L252.979 135.39C253.251 135.565 253.461 135.822 253.578 136.124C253.694 136.426 253.713 136.757 253.629 137.07C253.6 137.206 253.538 137.333 253.449 137.44C253.359 137.548 253.245 137.631 253.116 137.684C252.987 137.737 252.847 137.758 252.709 137.746C252.57 137.733 252.436 137.686 252.319 137.61Z" fill="white"/>
<path d="M242.218 137.25L236.698 134.06C236.427 133.887 236.218 133.632 236.102 133.331C235.987 133.03 235.972 132.7 236.058 132.39C236.086 132.253 236.147 132.125 236.236 132.016C236.325 131.908 236.439 131.823 236.568 131.769C236.697 131.715 236.838 131.693 236.977 131.705C237.117 131.718 237.251 131.764 237.368 131.84L242.878 135.02C243.151 135.195 243.36 135.452 243.477 135.754C243.594 136.056 243.612 136.387 243.528 136.7C243.5 136.837 243.439 136.965 243.35 137.074C243.262 137.182 243.148 137.267 243.019 137.321C242.89 137.375 242.749 137.397 242.61 137.385C242.47 137.372 242.336 137.326 242.218 137.25Z" fill="white"/>
<path d="M274.429 150.45L270.889 148.45C270.617 148.275 270.407 148.018 270.291 147.716C270.174 147.414 270.156 147.083 270.239 146.77C270.271 146.634 270.334 146.507 270.424 146.4C270.515 146.294 270.629 146.21 270.758 146.156C270.887 146.102 271.027 146.08 271.166 146.091C271.305 146.102 271.44 146.146 271.559 146.22L275.099 148.22C275.371 148.395 275.581 148.652 275.697 148.954C275.814 149.256 275.832 149.587 275.749 149.9C275.72 150.037 275.657 150.166 275.567 150.274C275.477 150.382 275.363 150.466 275.233 150.521C275.103 150.575 274.962 150.596 274.822 150.584C274.682 150.572 274.547 150.526 274.429 150.45Z" fill="white"/>
<path d="M260.878 120.69L251.138 115.06C250.862 114.888 250.65 114.631 250.533 114.328C250.415 114.025 250.4 113.693 250.488 113.38C250.517 113.244 250.579 113.116 250.669 113.009C250.758 112.902 250.872 112.819 251.001 112.766C251.13 112.712 251.27 112.691 251.409 112.704C251.548 112.717 251.681 112.764 251.798 112.84L261.538 118.46C261.811 118.634 262.022 118.891 262.139 119.193C262.256 119.496 262.273 119.827 262.188 120.14C262.16 120.277 262.099 120.405 262.01 120.514C261.921 120.622 261.807 120.707 261.678 120.761C261.549 120.815 261.409 120.837 261.269 120.825C261.13 120.812 260.996 120.766 260.878 120.69Z" fill="white"/>
<path d="M262.029 115.89L245.029 106.08C244.758 105.906 244.548 105.651 244.432 105.351C244.315 105.051 244.296 104.721 244.379 104.41C244.408 104.273 244.471 104.144 244.561 104.036C244.65 103.928 244.765 103.844 244.895 103.789C245.025 103.735 245.166 103.714 245.306 103.726C245.446 103.738 245.581 103.784 245.699 103.86L262.699 113.66C262.97 113.836 263.179 114.094 263.295 114.395C263.412 114.697 263.431 115.027 263.349 115.34C263.319 115.477 263.257 115.606 263.167 115.714C263.077 115.822 262.963 115.906 262.833 115.961C262.703 116.015 262.562 116.036 262.422 116.024C262.282 116.012 262.147 115.966 262.029 115.89Z" fill="#3CB9FC"/>
<path d="M252.008 121.04L242.268 115.45C241.996 115.275 241.786 115.018 241.669 114.716C241.553 114.414 241.535 114.083 241.618 113.77C241.647 113.634 241.709 113.506 241.799 113.399C241.888 113.292 242.002 113.209 242.131 113.156C242.26 113.102 242.4 113.081 242.539 113.094C242.677 113.107 242.811 113.154 242.928 113.23L252.678 118.85C252.95 119.025 253.16 119.282 253.276 119.584C253.393 119.886 253.411 120.217 253.328 120.53C253.291 120.663 253.224 120.785 253.132 120.887C253.04 120.989 252.925 121.068 252.797 121.118C252.668 121.167 252.53 121.186 252.393 121.173C252.256 121.159 252.124 121.114 252.008 121.04Z" fill="#3CB9FC"/>
<path d="M268.269 124.96L264.729 122.96C264.457 122.785 264.247 122.528 264.13 122.226C264.014 121.924 263.996 121.593 264.079 121.28C264.108 121.144 264.17 121.016 264.26 120.909C264.349 120.802 264.463 120.719 264.592 120.666C264.721 120.612 264.861 120.591 265 120.604C265.138 120.617 265.272 120.664 265.389 120.74L268.929 122.74C269.205 122.912 269.417 123.169 269.534 123.472C269.651 123.775 269.667 124.107 269.579 124.42C269.547 124.555 269.484 124.681 269.395 124.786C269.305 124.892 269.191 124.975 269.063 125.027C268.935 125.08 268.796 125.102 268.658 125.09C268.52 125.078 268.386 125.034 268.269 124.96Z" fill="#3CB9FC"/>
<path d="M304.279 123.88L283.279 111.78C283.004 111.607 282.793 111.35 282.676 111.047C282.559 110.745 282.542 110.413 282.629 110.1C282.657 109.963 282.718 109.834 282.807 109.726C282.896 109.618 283.01 109.533 283.139 109.479C283.268 109.425 283.408 109.403 283.548 109.415C283.687 109.428 283.821 109.474 283.939 109.55L304.939 121.65C305.213 121.823 305.425 122.08 305.542 122.382C305.659 122.685 305.675 123.017 305.589 123.33C305.561 123.467 305.5 123.595 305.411 123.704C305.322 123.812 305.208 123.897 305.079 123.951C304.95 124.005 304.81 124.027 304.67 124.015C304.531 124.002 304.396 123.956 304.279 123.88Z" fill="#3CB9FC"/>
<path d="M251.198 131.5L239.488 124.74C239.215 124.566 239.004 124.309 238.888 124.007C238.771 123.704 238.753 123.373 238.838 123.06C238.866 122.923 238.927 122.794 239.016 122.686C239.105 122.578 239.219 122.493 239.348 122.439C239.477 122.385 239.617 122.363 239.757 122.375C239.896 122.388 240.031 122.434 240.148 122.51L251.858 129.27C252.133 129.443 252.344 129.7 252.461 130.002C252.578 130.305 252.595 130.637 252.508 130.95C252.48 131.087 252.419 131.215 252.33 131.324C252.242 131.432 252.128 131.517 251.999 131.571C251.869 131.625 251.729 131.647 251.59 131.635C251.45 131.622 251.316 131.576 251.198 131.5Z" fill="#F8359E"/>
<path d="M252.969 94.2499L244.349 89.2499C244.076 89.0754 243.867 88.818 243.751 88.5155C243.636 88.213 243.621 87.8815 243.709 87.5699C243.738 87.4336 243.8 87.3064 243.889 87.1994C243.979 87.0924 244.093 87.0087 244.222 86.9555C244.35 86.9024 244.49 86.8814 244.629 86.8943C244.768 86.9073 244.902 86.9538 245.019 87.0299L253.629 92.0299C253.901 92.2052 254.11 92.4622 254.227 92.7641C254.344 93.066 254.362 93.3971 254.279 93.7099C254.249 93.8462 254.187 93.9734 254.098 94.0804C254.008 94.1874 253.894 94.2711 253.765 94.3243C253.637 94.3774 253.497 94.3984 253.358 94.3854C253.219 94.3725 253.085 94.326 252.969 94.2499Z" fill="#F8359E"/>
<path d="M240.419 141.67L230.419 135.92C230.148 135.744 229.939 135.486 229.823 135.185C229.706 134.883 229.687 134.553 229.769 134.24C229.798 134.103 229.861 133.974 229.95 133.866C230.04 133.758 230.155 133.673 230.285 133.619C230.415 133.565 230.555 133.544 230.695 133.556C230.835 133.568 230.97 133.614 231.089 133.69L241.089 139.45C241.361 139.625 241.57 139.882 241.687 140.184C241.804 140.486 241.822 140.817 241.739 141.13C241.71 141.268 241.648 141.397 241.558 141.505C241.468 141.613 241.353 141.698 241.222 141.751C241.092 141.804 240.951 141.825 240.81 141.811C240.67 141.797 240.536 141.748 240.419 141.67Z" fill="#3CB9FC"/>
<path d="M306.629 113.1L302.369 110.63C302.168 110.505 302.013 110.319 301.927 110.099C301.841 109.88 301.827 109.638 301.889 109.41C301.906 109.303 301.951 109.203 302.019 109.119C302.087 109.034 302.176 108.969 302.276 108.929C302.377 108.888 302.486 108.875 302.593 108.889C302.7 108.903 302.802 108.945 302.889 109.01L307.159 111.47C307.357 111.599 307.509 111.788 307.593 112.009C307.678 112.23 307.69 112.472 307.629 112.7C307.611 112.807 307.566 112.907 307.498 112.991C307.43 113.076 307.342 113.141 307.241 113.181C307.141 113.222 307.031 113.235 306.924 113.221C306.817 113.207 306.715 113.165 306.629 113.1Z" fill="white"/>
<path d="M314.809 117.8L310.539 115.34C310.339 115.212 310.184 115.024 310.098 114.803C310.012 114.582 309.998 114.339 310.059 114.11C310.076 114.003 310.121 113.903 310.189 113.818C310.257 113.734 310.346 113.669 310.446 113.629C310.547 113.588 310.656 113.575 310.763 113.589C310.87 113.603 310.972 113.645 311.059 113.71L315.329 116.17C315.529 116.298 315.683 116.486 315.769 116.707C315.855 116.928 315.869 117.17 315.809 117.4C315.791 117.507 315.746 117.607 315.678 117.691C315.61 117.776 315.522 117.841 315.421 117.881C315.321 117.921 315.212 117.935 315.104 117.921C314.997 117.907 314.895 117.865 314.809 117.8Z" fill="white"/>
<path d="M322.919 122.5L318.649 120.04C318.448 119.913 318.294 119.725 318.209 119.503C318.124 119.281 318.114 119.038 318.179 118.81C318.198 118.71 318.242 118.616 318.306 118.537C318.37 118.458 318.453 118.396 318.547 118.356C318.641 118.317 318.743 118.301 318.844 118.31C318.946 118.32 319.043 118.354 319.129 118.41L323.399 120.87C323.599 120.998 323.753 121.186 323.839 121.407C323.925 121.628 323.939 121.871 323.879 122.1C323.858 122.2 323.813 122.294 323.747 122.373C323.682 122.452 323.599 122.514 323.504 122.553C323.41 122.593 323.307 122.608 323.205 122.599C323.103 122.59 323.004 122.556 322.919 122.5Z" fill="white"/>
<path d="M326.918 124.81L326.788 124.74C326.59 124.611 326.438 124.422 326.353 124.201C326.269 123.98 326.256 123.738 326.318 123.51C326.336 123.403 326.381 123.303 326.449 123.219C326.516 123.134 326.605 123.069 326.705 123.029C326.806 122.988 326.915 122.975 327.022 122.989C327.13 123.003 327.231 123.045 327.318 123.11L327.448 123.19C327.644 123.318 327.795 123.505 327.879 123.724C327.964 123.943 327.977 124.183 327.918 124.41C327.9 124.517 327.855 124.617 327.787 124.701C327.719 124.786 327.631 124.851 327.53 124.891C327.43 124.932 327.321 124.945 327.214 124.931C327.106 124.917 327.004 124.875 326.918 124.81Z" fill="#F8359E"/>
<path d="M106.608 174.77C103.863 174.77 101.167 174.05 98.7879 172.68L70.1979 156.17C69.6056 155.815 69.1154 155.312 68.7751 154.711C68.4347 154.11 68.2559 153.431 68.2559 152.74C68.2559 152.049 68.4347 151.37 68.7751 150.769C69.1154 150.168 69.6056 149.665 70.1979 149.31L98.8079 132.81C101.184 131.439 103.879 130.718 106.623 130.718C109.366 130.718 112.062 131.439 114.438 132.81L143.028 149.32C143.633 149.664 144.136 150.162 144.486 150.764C144.836 151.365 145.02 152.049 145.02 152.745C145.02 153.441 144.836 154.125 144.486 154.726C144.136 155.328 143.633 155.826 143.028 156.17L114.438 172.68C112.057 174.053 109.356 174.774 106.608 174.77ZM99.7179 171.07C101.813 172.274 104.187 172.907 106.603 172.907C109.019 172.907 111.393 172.274 113.488 171.07L142.078 154.56C142.398 154.377 142.664 154.113 142.849 153.794C143.034 153.476 143.132 153.114 143.132 152.745C143.132 152.376 143.034 152.014 142.849 151.696C142.664 151.377 142.398 151.113 142.078 150.93L113.488 134.45C111.394 133.243 109.02 132.608 106.603 132.608C104.186 132.608 101.812 133.243 99.7179 134.45L71.1279 150.96C70.8078 151.143 70.5418 151.407 70.3567 151.726C70.1717 152.044 70.0742 152.406 70.0742 152.775C70.0742 153.144 70.1717 153.506 70.3567 153.824C70.5418 154.143 70.8078 154.407 71.1279 154.59L99.7179 171.07Z" fill="url(#paint10_linear)"/>
<path opacity="0.6" d="M106.458 164.47C117.305 164.47 126.098 159.393 126.098 153.13C126.098 146.867 117.305 141.79 106.458 141.79C95.6115 141.79 86.8184 146.867 86.8184 153.13C86.8184 159.393 95.6115 164.47 106.458 164.47Z" fill="#171B2C"/>
<path d="M135.578 72.3099H79.5781L84.8081 132.88C84.8081 136.25 87.0281 139.61 91.4781 142.18C100.368 147.31 114.778 147.31 123.678 142.18C128.118 139.61 130.338 136.25 130.338 132.88L135.578 72.3099Z" fill="url(#paint11_radial)"/>
<path opacity="0.4" d="M79 72H135L134.14 82.0462C132.673 83.8777 130.92 85.4587 128.95 86.7277C118.26 93.8504 100.63 95.2267 88.59 90.0931L90.45 134.598C90.512 136.543 91.2155 138.412 92.45 139.912C94.26 142.052 97.75 144.573 104.45 146C99.7091 145.774 95.0789 144.483 90.9 142.223C86.46 139.641 84.24 136.265 84.24 132.88L80.06 84.0855L79 72Z" fill="#06033E"/>
<path opacity="0.4" d="M107.609 88.4599C123.056 88.4599 135.579 81.2293 135.579 72.3099C135.579 63.3905 123.056 56.1599 107.609 56.1599C92.1613 56.1599 79.6387 63.3905 79.6387 72.3099C79.6387 81.2293 92.1613 88.4599 107.609 88.4599Z" fill="#06033E"/>
<path opacity="0.4" d="M107.609 80.53C120.913 80.53 131.699 74.3022 131.699 66.62C131.699 58.9377 120.913 52.71 107.609 52.71C94.304 52.71 83.5186 58.9377 83.5186 66.62C83.5186 74.3022 94.304 80.53 107.609 80.53Z" fill="#06033E"/>
<path d="M137.228 71.55C137.233 71.5202 137.233 71.4898 137.228 71.46L136.698 66.04V66.1C136.458 62 133.638 57.93 128.208 54.8C116.848 48.24 98.4381 48.24 87.0781 54.8C81.5181 58.01 78.6881 62.2 78.5781 66.41L78.0681 71.24C78.0681 71.36 78.0681 71.49 78.0681 71.61V71.69C77.7681 76.29 80.6481 80.95 86.7281 84.46C98.3181 91.15 117.098 91.15 128.728 84.46C134.698 80.88 137.578 76.18 137.228 71.55Z" fill="url(#paint12_linear)"/>
<path d="M107.609 80.53C120.913 80.53 131.699 74.3022 131.699 66.62C131.699 58.9377 120.913 52.71 107.609 52.71C94.304 52.71 83.5186 58.9377 83.5186 66.62C83.5186 74.3022 94.304 80.53 107.609 80.53Z" fill="url(#paint13_linear)"/>
<path d="M106.459 80.53C119.764 80.53 130.549 74.3022 130.549 66.62C130.549 58.9377 119.764 52.71 106.459 52.71C93.1546 52.71 82.3691 58.9377 82.3691 66.62C82.3691 74.3022 93.1546 80.53 106.459 80.53Z" fill="url(#paint14_linear)"/>
<path opacity="0.4" d="M93.4286 58.86C102.839 53.43 118.089 53.43 127.499 58.86L127.839 59.07C126.855 58.1998 125.782 57.4356 124.639 56.79C115.229 51.35 99.9786 51.35 90.5686 56.79C81.1586 62.23 81.1786 70.79 90.2286 76.24C84.1886 70.85 85.2486 63.58 93.4286 58.86Z" fill="#06033E"/>
<path d="M90.5685 59.2C99.9785 53.77 115.229 53.77 124.639 59.2C128.809 61.61 131.129 64.68 131.639 67.83C132.239 63.88 129.919 59.83 124.639 56.83C115.229 51.39 99.9785 51.39 90.5685 56.83C85.3285 59.83 83.0185 63.92 83.5685 67.83C84.0785 64.68 86.3985 61.61 90.5685 59.2Z" fill="url(#paint15_linear)"/>
<path d="M128.348 54.8899C117.008 48.2099 98.5285 48.0399 87.0685 54.5199C75.6085 60.9999 75.5185 71.6699 86.8585 78.3499C98.1985 85.0299 116.678 85.1999 128.138 78.7199C139.598 72.2399 139.688 61.5699 128.348 54.8899ZM124.638 76.4499C121.227 78.3244 117.497 79.5485 113.638 80.0599L113.198 78.6199C113.116 78.3328 112.943 78.0802 112.705 77.8999C112.467 77.7196 112.177 77.6213 111.878 77.6199H103.228C102.93 77.6213 102.64 77.7196 102.402 77.8999C102.164 78.0802 101.991 78.3328 101.908 78.6199L101.468 80.0599C97.6109 79.5438 93.8817 78.3199 90.4685 76.4499C81.0585 71.0099 81.0585 62.2099 90.4685 56.7799C99.8785 51.3499 115.128 51.3399 124.538 56.7799C133.948 62.2199 134.048 71.0199 124.638 76.4499Z" fill="url(#paint16_radial)"/>
<path d="M124.639 55.7599C115.229 50.3199 99.9788 50.3199 90.5688 55.7599C85.6388 58.5999 83.2988 62.3799 83.5688 66.1099C83.7788 62.7199 86.1188 59.3699 90.5688 56.7899C99.9788 51.3499 115.229 51.3499 124.639 56.7899C129.119 59.3699 131.459 62.7199 131.639 66.1099C131.909 62.3799 129.569 58.5999 124.639 55.7599Z" fill="white"/>
<path d="M128.139 77.69C116.679 84.17 98.1988 84.01 86.8588 77.32C81.4688 74.15 78.6588 70.06 78.4388 65.96C78.2188 70.4 81.0088 74.91 86.8588 78.35C98.1988 85.04 116.679 85.2 128.139 78.72C134.139 75.32 137.019 70.72 136.769 66.25C136.559 70.45 133.689 74.55 128.139 77.69Z" fill="white"/>
<path d="M110.199 79.4199H105.019C104.66 79.4199 104.369 79.7109 104.369 80.0699V80.1699C104.369 80.5289 104.66 80.8199 105.019 80.8199H110.199C110.558 80.8199 110.849 80.5289 110.849 80.1699V80.0699C110.849 79.7109 110.558 79.4199 110.199 79.4199Z" fill="#0C0A78"/>
<path d="M110.189 79.45H105.019C104.846 79.45 104.681 79.5184 104.559 79.6403C104.437 79.7622 104.369 79.9276 104.369 80.1V80.1899C104.364 80.2499 104.364 80.31 104.369 80.3699C104.404 80.2325 104.484 80.1108 104.597 80.0239C104.709 79.937 104.847 79.8899 104.989 79.89H110.159C110.301 79.8899 110.439 79.937 110.551 80.0239C110.663 80.1108 110.743 80.2325 110.779 80.3699C110.788 80.3103 110.788 80.2496 110.779 80.1899V80.1C110.78 79.9375 110.719 79.7806 110.61 79.6603C110.501 79.54 110.351 79.4649 110.189 79.45Z" fill="url(#paint17_linear)"/>
<path opacity="0.5" d="M109.439 80.12C109.439 80.12 125.079 74.88 118.749 56.9C112.419 38.92 100.079 33.45 105.049 19.08C105.049 19.08 97.2686 30.72 104.539 46.46C111.809 62.2 113.409 60.4 113.319 67.93C113.342 70.4407 112.67 72.9088 111.376 75.0605C110.082 77.2123 108.217 78.9635 105.989 80.12H109.439Z" fill="white"/>
<path opacity="0.5" d="M110.809 21.58C110.809 21.58 109.189 10.83 119.269 0C119.269 0 110.349 19.91 113.269 29.75C113.299 29.75 110.939 23.5 110.809 21.58Z" fill="white"/>
<defs>
<linearGradient id="paint0_linear" x1="405.863" y1="264.857" x2="432.789" y2="283.486" gradientUnits="userSpaceOnUse">
<stop offset="0.197917" stop-color="#8A2BE2"/>
<stop offset="1" stop-color="#3CB9FC"/>
</linearGradient>
<linearGradient id="paint1_linear" x1="361.221" y1="217.232" x2="405.915" y2="248.704" gradientUnits="userSpaceOnUse">
<stop offset="0.197917" stop-color="#8A2BE2"/>
<stop offset="1" stop-color="#3CB9FC"/>
</linearGradient>
<linearGradient id="paint2_linear" x1="-3.61647e-08" y1="235.586" x2="44.6994" y2="267.05" gradientUnits="userSpaceOnUse">
<stop offset="0.197917" stop-color="#8A2BE2"/>
<stop offset="1" stop-color="#3CB9FC"/>
</linearGradient>
<linearGradient id="paint3_linear" x1="63.8086" y1="199.46" x2="303.791" y2="366.889" gradientUnits="userSpaceOnUse">
<stop offset="0.197917" stop-color="#8A2BE2"/>
<stop offset="1" stop-color="#3CB9FC"/>
</linearGradient>
<radialGradient id="paint4_radial" cx="0" cy="0" r="1" gradientUnits="userSpaceOnUse" gradientTransform="translate(225.258 23.0599) scale(223.3)">
<stop stop-color="#6507FA"/>
<stop offset="0.166667" stop-color="#891CFB"/>
<stop offset="0.598958" stop-color="#A92FFB"/>
<stop offset="0.760417" stop-color="#3CB9FC"/>
</radialGradient>
<radialGradient id="paint5_radial" cx="0" cy="0" r="1" gradientUnits="userSpaceOnUse" gradientTransform="translate(88.6789 202.38) scale(244.17)">
<stop stop-color="#6507FA"/>
<stop offset="0.421875" stop-color="#891CFB"/>
<stop offset="0.551983" stop-color="#B537F2"/>
<stop offset="0.552083" stop-color="#A92FFB"/>
<stop offset="0.989583" stop-color="#3CB9FC"/>
</radialGradient>
<radialGradient id="paint6_radial" cx="0" cy="0" r="1" gradientUnits="userSpaceOnUse" gradientTransform="translate(111.139 153.37) scale(218.96)">
<stop stop-color="#3919BB"/>
<stop offset="0.640625" stop-color="#A92FFB"/>
<stop offset="1" stop-color="#3CB9FC"/>
</radialGradient>
<radialGradient id="paint7_radial" cx="0" cy="0" r="1" gradientUnits="userSpaceOnUse" gradientTransform="translate(44771.3 21389) scale(41337.7 44510.4)">
<stop stop-color="#E39A65"/>
<stop offset="0.47" stop-color="#A92FFB"/>
<stop offset="0.59" stop-color="#891CFB"/>
<stop offset="0.73" stop-color="#6507FA"/>
<stop offset="1" stop-color="#3919BB"/>
</radialGradient>
<linearGradient id="paint8_linear" x1="190.239" y1="128.26" x2="369.199" y2="128.26" gradientUnits="userSpaceOnUse">
<stop stop-color="#3919BB"/>
<stop offset="1" stop-color="#6507FA"/>
</linearGradient>
<radialGradient id="paint9_radial" cx="0" cy="0" r="1" gradientUnits="userSpaceOnUse" gradientTransform="translate(19581.9 7849.66) scale(42274.6 45524.7)">
<stop stop-color="#E39A65"/>
<stop offset="0.47" stop-color="#A92FFB"/>
<stop offset="0.59" stop-color="#891CFB"/>
<stop offset="0.73" stop-color="#6507FA"/>
<stop offset="1" stop-color="#3919BB"/>
</radialGradient>
<linearGradient id="paint10_linear" x1="68.2559" y1="142.391" x2="130.597" y2="186.603" gradientUnits="userSpaceOnUse">
<stop offset="0.197917" stop-color="#8A2BE2"/>
<stop offset="1" stop-color="#3CB9FC"/>
</linearGradient>
<radialGradient id="paint11_radial" cx="0" cy="0" r="1" gradientUnits="userSpaceOnUse" gradientTransform="translate(75.0281 90.1199) scale(165.35)">
<stop stop-color="#3919BB"/>
<stop offset="0.155741" stop-color="#3919BB"/>
<stop offset="0.375" stop-color="#A92FFB"/>
<stop offset="0.446287" stop-color="#529DFC"/>
<stop offset="0.918424" stop-color="#3CB9FC"/>
</radialGradient>
<linearGradient id="paint12_linear" x1="77.9481" y1="69.63" x2="137.258" y2="69.63" gradientUnits="userSpaceOnUse">
<stop offset="0.1875" stop-color="#3919BB"/>
<stop offset="0.619792" stop-color="#A92FFB"/>
<stop offset="1" stop-color="#3CB9FC"/>
</linearGradient>
<linearGradient id="paint13_linear" x1="83.5086" y1="66.62" x2="131.699" y2="66.62" gradientUnits="userSpaceOnUse">
<stop stop-color="#4F1FEC"/>
<stop offset="1" stop-color="#A92FFB"/>
</linearGradient>
<linearGradient id="paint14_linear" x1="7673.61" y1="2950.72" x2="9994.92" y2="2950.72" gradientUnits="userSpaceOnUse">
<stop stop-color="#4F1FEC"/>
<stop offset="1" stop-color="#A92FFB"/>
</linearGradient>
<linearGradient id="paint15_linear" x1="83.5185" y1="60.27" x2="144.269" y2="60.27" gradientUnits="userSpaceOnUse">
<stop stop-color="#131060"/>
<stop offset="0.19" stop-color="#141062"/>
<stop offset="0.28" stop-color="#19106A"/>
<stop offset="0.36" stop-color="#221078"/>
<stop offset="0.42" stop-color="#2E0F8B"/>
<stop offset="0.48" stop-color="#3E0FA3"/>
<stop offset="0.54" stop-color="#510EC2"/>
<stop offset="0.58" stop-color="#680DE5"/>
<stop offset="0.61" stop-color="#740DF8"/>
<stop offset="0.62" stop-color="#7A14F0"/>
<stop offset="0.68" stop-color="#9B3CC3"/>
<stop offset="0.75" stop-color="#B75D9D"/>
<stop offset="0.81" stop-color="#CC7680"/>
<stop offset="0.88" stop-color="#DC886C"/>
<stop offset="0.94" stop-color="#E5935F"/>
<stop offset="1" stop-color="#E8975B"/>
</linearGradient>
<radialGradient id="paint16_radial" cx="0" cy="0" r="1" gradientUnits="userSpaceOnUse" gradientTransform="translate(70.5485 52.8499) scale(108.16)">
<stop stop-color="#3919BB"/>
<stop offset="0.515625" stop-color="#A92FFB"/>
<stop offset="0.666667" stop-color="#3CB9FC"/>
</radialGradient>
<linearGradient id="paint17_linear" x1="1253.55" y1="187.485" x2="1307.55" y2="187.485" gradientUnits="userSpaceOnUse">
<stop stop-color="#131060"/>
<stop offset="0.19" stop-color="#141062"/>
<stop offset="0.28" stop-color="#19106A"/>
<stop offset="0.36" stop-color="#221078"/>
<stop offset="0.42" stop-color="#2E0F8B"/>
<stop offset="0.48" stop-color="#3E0FA3"/>
<stop offset="0.54" stop-color="#510EC2"/>
<stop offset="0.58" stop-color="#680DE5"/>
<stop offset="0.61" stop-color="#740DF8"/>
<stop offset="0.62" stop-color="#7A14F0"/>
<stop offset="0.68" stop-color="#9B3CC3"/>
<stop offset="0.75" stop-color="#B75D9D"/>
<stop offset="0.81" stop-color="#CC7680"/>
<stop offset="0.88" stop-color="#DC886C"/>
<stop offset="0.94" stop-color="#E5935F"/>
<stop offset="1" stop-color="#E8975B"/>
</linearGradient>
</defs>
</svg>
