<svg width="439" height="298" viewBox="0 0 439 298" fill="none" xmlns="http://www.w3.org/2000/svg">
<path d="M422.168 251.96C420.946 251.956 419.746 251.632 418.688 251.02L406.958 244.25C406.626 244.06 406.349 243.786 406.157 243.455C405.965 243.124 405.863 242.748 405.863 242.365C405.863 241.982 405.965 241.606 406.157 241.275C406.349 240.944 406.626 240.67 406.958 240.48L418.688 233.71C419.752 233.096 420.96 232.772 422.188 232.772C423.417 232.772 424.624 233.096 425.688 233.71L437.388 240.45C437.721 240.64 437.997 240.914 438.19 241.245C438.382 241.576 438.483 241.952 438.483 242.335C438.483 242.718 438.382 243.094 438.19 243.425C437.997 243.756 437.721 244.03 437.388 244.22L425.658 250.99C424.6 251.614 423.397 251.949 422.168 251.96ZM422.168 234.64C421.273 234.637 420.393 234.871 419.618 235.32L407.888 242.09C407.838 242.118 407.797 242.158 407.769 242.208C407.741 242.257 407.727 242.313 407.728 242.37C407.729 242.425 407.743 242.479 407.772 242.527C407.8 242.574 407.84 242.613 407.888 242.64L419.618 249.45C420.395 249.898 421.276 250.133 422.173 250.133C423.07 250.133 423.951 249.898 424.728 249.45L436.458 242.68C436.507 242.653 436.547 242.614 436.575 242.567C436.603 242.519 436.618 242.465 436.618 242.41C436.62 242.353 436.606 242.297 436.578 242.248C436.549 242.198 436.508 242.158 436.458 242.13L424.728 235.36C423.954 234.896 423.071 234.648 422.168 234.64Z" fill="url(#paint0_linear)"/>
<path d="M388.608 213.5C386.621 213.503 384.669 212.982 382.948 211.99L362.748 200.33C362.283 200.059 361.898 199.67 361.63 199.204C361.362 198.737 361.221 198.208 361.221 197.67C361.221 197.132 361.362 196.603 361.63 196.136C361.898 195.67 362.283 195.281 362.748 195.01L382.948 183.35C384.669 182.362 386.619 181.842 388.603 181.842C390.587 181.842 392.537 182.362 394.258 183.35L414.458 195.01C414.925 195.279 415.313 195.667 415.583 196.134C415.853 196.601 415.995 197.131 415.995 197.67C415.995 198.209 415.853 198.739 415.583 199.206C415.313 199.673 414.925 200.061 414.458 200.33L394.258 211.99C392.541 212.982 390.591 213.503 388.608 213.5ZM383.878 210.38C385.316 211.205 386.945 211.64 388.603 211.64C390.261 211.64 391.89 211.205 393.328 210.38L413.528 198.72C413.707 198.62 413.856 198.476 413.961 198.3C414.067 198.125 414.124 197.925 414.128 197.72C414.125 197.515 414.068 197.315 413.963 197.139C413.857 196.963 413.707 196.819 413.528 196.72L393.328 185.05C391.89 184.224 390.261 183.79 388.603 183.79C386.945 183.79 385.316 184.224 383.878 185.05L363.678 196.72C363.5 196.82 363.351 196.965 363.246 197.141C363.141 197.316 363.083 197.516 363.078 197.72C363.085 197.924 363.143 198.123 363.248 198.298C363.353 198.473 363.501 198.618 363.678 198.72L383.878 210.38Z" fill="url(#paint1_linear)"/>
<path d="M27.3786 231.86C25.3958 231.858 23.4479 231.338 21.7286 230.35L1.52861 218.68C1.06364 218.41 0.677718 218.023 0.409454 217.557C0.141191 217.091 0 216.563 0 216.025C0 215.487 0.141191 214.959 0.409454 214.493C0.677718 214.027 1.06364 213.64 1.52861 213.37L21.7286 201.71C23.4479 200.717 25.3983 200.195 27.3836 200.195C29.3689 200.195 31.3193 200.717 33.0386 201.71L53.2386 213.37C53.7036 213.64 54.0895 214.027 54.3578 214.493C54.626 214.959 54.7672 215.487 54.7672 216.025C54.7672 216.563 54.626 217.091 54.3578 217.557C54.0895 218.023 53.7036 218.41 53.2386 218.68L33.0386 230.35C31.3162 231.339 29.3648 231.86 27.3786 231.86ZM27.3786 202.06C25.7221 202.059 24.0945 202.494 22.6586 203.32L2.45861 214.98C2.27245 215.084 2.11817 215.236 2.01243 215.421C1.90669 215.606 1.8535 215.817 1.85861 216.03C1.86143 216.235 1.91842 216.435 2.02381 216.611C2.1292 216.786 2.27921 216.931 2.45861 217.03L22.6586 228.69C24.0949 229.52 25.7246 229.958 27.3836 229.958C29.0426 229.958 30.6724 229.52 32.1086 228.69L52.3086 217.03C52.4867 216.93 52.6356 216.785 52.7408 216.609C52.846 216.434 52.9038 216.234 52.9086 216.03C52.9116 215.817 52.8575 215.608 52.7519 215.423C52.6464 215.238 52.4933 215.085 52.3086 214.98L32.1086 203.32C30.6696 202.493 29.0385 202.058 27.3786 202.06Z" fill="url(#paint2_linear)"/>
<path opacity="0.6" d="M231.929 282.73L87.4989 199.34C85.3889 198.13 85.6589 196.01 88.0889 194.6L180.809 141.08C183.239 139.68 186.909 139.53 189.019 140.74L333.449 224.13C335.549 225.35 335.289 227.47 332.859 228.87L240.159 282.39C237.709 283.79 234.039 283.95 231.929 282.73Z" fill="#171B2C"/>
<path d="M235.239 297.79C233.656 297.826 232.089 297.458 230.689 296.72L65.8586 201.55C65.2725 201.262 64.7738 200.823 64.4135 200.278C64.0532 199.733 63.8445 199.102 63.8086 198.45C63.8086 197 64.8086 195.59 66.5686 194.58L178.929 128.75C182.019 126.97 186.539 126.75 189.239 128.35L354.039 223.45C354.64 223.739 355.152 224.185 355.52 224.741C355.888 225.298 356.098 225.944 356.129 226.61C356.129 228.05 355.129 229.46 353.369 230.48L240.999 296.33C239.234 297.299 237.252 297.802 235.239 297.79ZM184.679 129.11C182.987 129.09 181.319 129.5 179.829 130.3L67.4686 196.14C66.3086 196.8 65.6286 197.64 65.6286 198.39C65.6749 198.725 65.8057 199.044 66.0085 199.315C66.2114 199.586 66.4798 199.801 66.7886 199.94L231.619 295.11C233.719 296.33 237.619 296.11 240.059 294.72L352.419 228.89C353.569 228.22 354.259 227.38 354.259 226.63C354.212 226.295 354.082 225.976 353.879 225.705C353.676 225.434 353.407 225.219 353.099 225.08L188.269 129.92C187.161 129.347 185.925 129.068 184.679 129.11Z" fill="url(#paint3_linear)"/>
<path d="M371.808 84.3299L227.938 1.26993C227.503 1.00177 227.018 0.826079 226.512 0.753819C226.006 0.681558 225.491 0.714277 224.998 0.849934L222.328 1.76993L223.268 1.99994C222.864 2.47964 222.565 3.03814 222.388 3.63993L189.808 109.28C189.426 110.591 189.477 111.991 189.952 113.272C190.428 114.552 191.303 115.645 192.448 116.39L336.348 199.45C336.68 199.642 337.037 199.786 337.408 199.88L337.048 200.66L339.588 199.76C340.154 199.519 340.657 199.151 341.058 198.685C341.458 198.218 341.746 197.666 341.898 197.07L374.438 91.4499C374.818 90.1379 374.768 88.7385 374.295 87.4571C373.822 86.1757 372.95 85.0798 371.808 84.3299Z" fill="url(#paint4_radial)"/>
<path d="M331.199 203.39L331.249 203.45L189.149 121.45C187.059 120.25 183.409 120.4 180.999 121.79L89.1889 174.79L86.1289 173.62L86.9789 177.91C87.0662 178.281 87.2354 178.629 87.4742 178.926C87.713 179.224 88.0152 179.464 88.3589 179.63L231.809 262.45C233.899 263.66 237.549 263.5 239.959 262.11L332.009 208.97C332.474 208.748 332.887 208.431 333.223 208.04C333.559 207.649 333.809 207.193 333.959 206.7L334.809 202.45L331.199 203.39Z" fill="url(#paint5_radial)"/>
<path d="M231.929 258.62L87.4989 175.23C85.3889 174.02 85.6589 171.89 88.0889 170.49L180.809 116.97C183.239 115.57 186.909 115.42 189.019 116.63L333.449 200.02C335.549 201.24 335.289 203.36 332.859 204.76L240.159 258.28C237.709 259.68 234.039 259.84 231.929 258.62Z" fill="url(#paint6_radial)"/>
<path d="M332.808 203.64L240.108 257.16C237.678 258.56 234.008 258.71 231.898 257.5L87.4984 174.11C86.8853 173.797 86.4162 173.26 86.1884 172.61C86.058 173.131 86.1184 173.682 86.3586 174.162C86.5989 174.643 87.0032 175.022 87.4984 175.23L231.928 258.62C234.038 259.84 237.708 259.68 240.138 258.28L332.808 204.76C334.408 203.84 335.048 202.6 334.708 201.52C334.371 202.445 333.691 203.204 332.808 203.64Z" fill="white"/>
<g opacity="0.4">
<path opacity="0.4" d="M156.389 161.7L151.519 158.89C151.119 158.66 151.169 158.26 151.619 158L157.379 154.68C157.612 154.55 157.871 154.477 158.137 154.467C158.403 154.456 158.668 154.509 158.909 154.62L163.809 157.45C164.209 157.68 164.159 158.07 163.699 158.33L157.949 161.66C157.712 161.792 157.446 161.864 157.174 161.871C156.903 161.878 156.633 161.819 156.389 161.7Z" fill="#06033E"/>
<path opacity="0.4" d="M163.92 166.05L159.05 163.23C158.65 163.01 158.7 162.61 159.16 162.35L164.91 159.03C165.142 158.9 165.402 158.827 165.667 158.817C165.933 158.806 166.198 158.859 166.44 158.97L171.31 161.78C171.71 162.01 171.66 162.4 171.2 162.66L165.45 165.99C165.217 166.117 164.957 166.189 164.692 166.2C164.426 166.21 164.162 166.159 163.92 166.05Z" fill="#06033E"/>
<path opacity="0.4" d="M171.449 170.45L166.579 167.63C166.179 167.41 166.229 167.01 166.689 166.75L172.439 163.43C172.671 163.302 172.93 163.229 173.196 163.216C173.461 163.204 173.726 163.253 173.969 163.36L178.839 166.18C179.239 166.4 179.189 166.8 178.729 167.06L172.979 170.38C172.746 170.508 172.487 170.581 172.222 170.593C171.957 170.606 171.692 170.557 171.449 170.45Z" fill="#06033E"/>
<path opacity="0.4" d="M181.869 166.81L176.989 163.99C176.599 163.76 176.649 163.37 177.099 163.11L181.929 160.32C182.162 160.19 182.421 160.117 182.687 160.107C182.953 160.096 183.218 160.149 183.459 160.26L188.339 163.07C188.729 163.3 188.679 163.69 188.229 163.95L183.389 166.74C183.159 166.868 182.901 166.941 182.638 166.953C182.374 166.966 182.111 166.916 181.869 166.81Z" fill="#06033E"/>
<path opacity="0.4" d="M189.4 171.15L184.52 168.34C184.13 168.11 184.18 167.72 184.63 167.46L189.46 164.67C189.692 164.542 189.951 164.469 190.217 164.456C190.482 164.444 190.746 164.493 190.99 164.6L195.87 167.42C196.26 167.64 196.21 168.04 195.76 168.3L190.92 171.09C190.689 171.22 190.431 171.293 190.167 171.303C189.903 171.313 189.64 171.261 189.4 171.15Z" fill="#06033E"/>
<path opacity="0.4" d="M196.929 175.5L192.049 172.69C191.659 172.46 191.709 172.06 192.159 171.8L196.989 169.01C197.222 168.882 197.481 168.811 197.747 168.8C198.012 168.79 198.277 168.841 198.519 168.95L203.399 171.77C203.789 171.99 203.739 172.39 203.289 172.65L198.449 175.45C198.218 175.578 197.959 175.649 197.695 175.658C197.431 175.667 197.168 175.613 196.929 175.5Z" fill="#06033E"/>
<path opacity="0.4" d="M204.459 179.85L199.579 177.03C199.189 176.81 199.239 176.41 199.689 176.15L204.519 173.36C204.752 173.23 205.011 173.157 205.277 173.147C205.543 173.136 205.808 173.189 206.049 173.3L210.929 176.11C211.319 176.34 211.269 176.73 210.819 177L205.979 179.79C205.748 179.917 205.49 179.989 205.226 179.999C204.963 180.01 204.7 179.959 204.459 179.85Z" fill="#06033E"/>
<path opacity="0.4" d="M211.99 184.2L207.11 181.38C206.72 181.16 206.77 180.76 207.22 180.5L212.05 177.71C212.282 177.58 212.541 177.507 212.807 177.497C213.073 177.486 213.338 177.539 213.58 177.65L218.46 180.46C218.85 180.69 218.8 181.08 218.35 181.34L213.52 184.13C213.287 184.258 213.028 184.331 212.763 184.343C212.497 184.356 212.233 184.306 211.99 184.2Z" fill="#06033E"/>
<path opacity="0.4" d="M219.519 188.54L214.639 185.73C214.249 185.5 214.299 185.11 214.749 184.85L219.579 182.06C219.811 181.932 220.07 181.859 220.336 181.846C220.601 181.834 220.866 181.883 221.109 181.99L225.989 184.81C226.379 185.04 226.329 185.43 225.879 185.69L221.049 188.45C220.819 188.584 220.561 188.663 220.295 188.678C220.029 188.694 219.763 188.647 219.519 188.54Z" fill="#06033E"/>
<path opacity="0.4" d="M227.049 192.89L222.169 190.08C221.779 189.85 221.829 189.46 222.279 189.19L227.109 186.45C227.342 186.323 227.602 186.252 227.867 186.241C228.132 186.231 228.397 186.282 228.639 186.39L233.519 189.21C233.909 189.43 233.859 189.83 233.409 190.09L228.579 192.88C228.343 193.002 228.081 193.066 227.815 193.068C227.549 193.07 227.287 193.009 227.049 192.89Z" fill="#06033E"/>
<path opacity="0.4" d="M234.579 197.24L229.699 194.45C229.309 194.23 229.359 193.83 229.809 193.57L234.639 190.78C234.872 190.65 235.131 190.577 235.397 190.567C235.663 190.556 235.928 190.609 236.169 190.72L241.049 193.53C241.439 193.76 241.389 194.16 240.939 194.42L236.109 197.21C235.875 197.335 235.614 197.403 235.348 197.408C235.082 197.413 234.819 197.356 234.579 197.24Z" fill="#06033E"/>
<path opacity="0.4" d="M242.11 201.59L237.23 198.77C236.84 198.55 236.89 198.15 237.34 197.89L242.17 195.1C242.402 194.97 242.662 194.897 242.927 194.887C243.193 194.876 243.458 194.929 243.7 195.04L248.58 197.85C248.97 198.08 248.92 198.47 248.47 198.73L243.64 201.52C243.407 201.648 243.148 201.721 242.883 201.733C242.617 201.746 242.353 201.696 242.11 201.59Z" fill="#06033E"/>
<path opacity="0.4" d="M249.64 205.93L244.81 203.12C244.42 202.89 244.47 202.5 244.92 202.24L249.75 199.45C249.982 199.322 250.241 199.249 250.507 199.236C250.772 199.224 251.036 199.273 251.28 199.38L256.16 202.2C256.55 202.43 256.5 202.82 256.05 203.08L251.22 205.87C250.981 206.008 250.713 206.086 250.437 206.096C250.162 206.107 249.888 206.05 249.64 205.93Z" fill="#06033E"/>
<path opacity="0.4" d="M192.96 164.75L188.09 161.93C187.69 161.71 187.74 161.31 188.2 161.05L193.03 158.26C193.26 158.13 193.518 158.057 193.782 158.047C194.047 158.036 194.31 158.089 194.55 158.2L199.43 161.01C199.82 161.24 199.77 161.63 199.32 161.89L194.49 164.68C194.258 164.811 193.999 164.885 193.733 164.897C193.467 164.909 193.202 164.859 192.96 164.75Z" fill="#06033E"/>
<path opacity="0.4" d="M185.32 160.34L180.44 157.52C180.05 157.29 180.1 156.9 180.55 156.64L185.38 153.85C185.612 153.72 185.872 153.647 186.137 153.637C186.403 153.626 186.668 153.679 186.91 153.79L191.79 156.6C192.18 156.83 192.13 157.22 191.68 157.48L186.81 160.27C186.582 160.392 186.33 160.462 186.073 160.474C185.815 160.486 185.557 160.44 185.32 160.34Z" fill="#06033E"/>
<path opacity="0.4" d="M177.659 155.92L167.159 149.85C166.769 149.63 166.819 149.23 167.269 148.97L172.099 146.18C172.332 146.05 172.591 145.977 172.857 145.967C173.123 145.956 173.388 146.009 173.629 146.12L184.129 152.18C184.519 152.41 184.479 152.8 184.019 153.06L179.189 155.85C178.957 155.978 178.698 156.051 178.432 156.064C178.167 156.076 177.903 156.027 177.659 155.92Z" fill="#06033E"/>
<path opacity="0.4" d="M183.019 150.54L174.489 145.62C174.099 145.39 174.149 145 174.599 144.74L179.429 141.95C179.662 141.82 179.921 141.747 180.187 141.737C180.453 141.726 180.718 141.779 180.959 141.89L189.479 146.81C189.879 147.03 189.829 147.43 189.369 147.69L184.539 150.45C184.311 150.584 184.055 150.663 183.79 150.678C183.526 150.694 183.262 150.646 183.019 150.54Z" fill="#06033E"/>
<path opacity="0.4" d="M200.489 169.1L195.619 166.28C195.219 166.05 195.269 165.66 195.729 165.4L200.559 162.61C200.789 162.48 201.047 162.407 201.312 162.397C201.576 162.386 201.839 162.439 202.079 162.55L206.959 165.36C207.349 165.59 207.299 165.98 206.849 166.24L202.019 169.03C201.786 169.158 201.527 169.231 201.262 169.243C200.997 169.256 200.732 169.206 200.489 169.1Z" fill="#06033E"/>
<path opacity="0.4" d="M208.019 173.45L203.149 170.64C202.749 170.41 202.799 170.02 203.259 169.76L208.089 166.97C208.32 166.842 208.577 166.769 208.841 166.757C209.105 166.744 209.368 166.793 209.609 166.9L214.489 169.72C214.879 169.94 214.829 170.34 214.379 170.6L209.549 173.39C209.317 173.52 209.057 173.593 208.791 173.603C208.526 173.614 208.261 173.561 208.019 173.45Z" fill="#06033E"/>
<path opacity="0.4" d="M215.549 177.79L210.679 174.98C210.289 174.75 210.329 174.35 210.789 174.09L215.619 171.3C215.852 171.17 216.111 171.097 216.377 171.087C216.643 171.076 216.908 171.129 217.149 171.24L222.019 174.06C222.409 174.28 222.359 174.68 221.909 174.94L217.079 177.73C216.847 177.86 216.587 177.933 216.321 177.943C216.056 177.954 215.791 177.901 215.549 177.79Z" fill="#06033E"/>
<path opacity="0.4" d="M223.08 182.14L218.21 179.32C217.82 179.1 217.86 178.7 218.32 178.44L223.15 175.65C223.382 175.52 223.642 175.447 223.907 175.437C224.173 175.426 224.438 175.479 224.68 175.59L229.55 178.4C229.94 178.63 229.89 179.02 229.44 179.29L224.61 182.07C224.378 182.2 224.119 182.275 223.853 182.287C223.587 182.299 223.322 182.249 223.08 182.14Z" fill="#06033E"/>
<path opacity="0.4" d="M230.609 186.45L225.739 183.63C225.349 183.4 225.389 183.01 225.849 182.75L230.679 179.96C230.911 179.83 231.171 179.757 231.437 179.747C231.703 179.736 231.967 179.789 232.209 179.9L237.079 182.71C237.469 182.94 237.419 183.33 236.969 183.59L232.139 186.45C231.901 186.567 231.639 186.628 231.374 186.628C231.109 186.628 230.847 186.567 230.609 186.45Z" fill="#06033E"/>
<path opacity="0.4" d="M238.139 190.83L233.269 188.02C232.879 187.79 232.919 187.4 233.379 187.14L238.209 184.35C238.442 184.222 238.701 184.148 238.966 184.136C239.231 184.124 239.496 184.173 239.739 184.28L244.609 187.1C244.999 187.32 244.949 187.72 244.499 187.98L239.669 190.77C239.437 190.9 239.177 190.973 238.911 190.983C238.645 190.994 238.381 190.941 238.139 190.83Z" fill="#06033E"/>
<path opacity="0.4" d="M245.67 195.18L240.81 192.37C240.42 192.14 240.47 191.74 240.92 191.48L245.75 188.69C245.982 188.56 246.242 188.487 246.508 188.477C246.773 188.466 247.038 188.519 247.28 188.63L252.15 191.45C252.54 191.67 252.49 192.07 252.04 192.33L247.21 195.12C246.976 195.251 246.715 195.325 246.447 195.336C246.179 195.346 245.913 195.293 245.67 195.18Z" fill="#06033E"/>
<path opacity="0.4" d="M253.199 199.53L248.329 196.71C247.939 196.49 247.989 196.09 248.439 195.83L253.269 193.04C253.502 192.91 253.761 192.837 254.027 192.827C254.293 192.816 254.558 192.869 254.799 192.98L259.669 195.79C260.059 196.02 260.019 196.41 259.559 196.68L254.729 199.45C254.498 199.581 254.239 199.656 253.974 199.67C253.708 199.684 253.443 199.636 253.199 199.53Z" fill="#06033E"/>
<path opacity="0.4" d="M260.73 203.88L255.86 201.06C255.47 200.83 255.52 200.44 255.97 200.18L260.8 197.39C261.032 197.26 261.291 197.187 261.557 197.177C261.823 197.166 262.088 197.219 262.33 197.33L267.2 200.14C267.59 200.37 267.55 200.76 267.09 201.02L262.26 203.81C262.027 203.938 261.768 204.011 261.503 204.023C261.237 204.036 260.973 203.986 260.73 203.88Z" fill="#06033E"/>
<path opacity="0.4" d="M274.12 211.61L263.48 205.45C263.09 205.23 263.14 204.83 263.59 204.57L268.42 201.78C268.652 201.65 268.912 201.577 269.177 201.567C269.443 201.556 269.708 201.609 269.95 201.72L280.59 207.86C280.98 208.09 280.93 208.48 280.48 208.74L275.65 211.53C275.418 211.66 275.159 211.735 274.894 211.749C274.629 211.762 274.364 211.715 274.12 211.61Z" fill="#06033E"/>
<path opacity="0.4" d="M288.81 203.14L279.81 197.96C279.42 197.73 279.47 197.34 279.92 197.07L284.75 194.28C284.983 194.153 285.242 194.082 285.508 194.071C285.773 194.061 286.037 194.112 286.28 194.22L295.28 199.41C295.67 199.63 295.62 200.03 295.17 200.29L290.34 203.08C290.107 203.21 289.848 203.283 289.582 203.293C289.316 203.304 289.051 203.251 288.81 203.14Z" fill="#06033E"/>
<path opacity="0.4" d="M213.68 168.24L208.81 165.45C208.42 165.22 208.47 164.83 208.92 164.57L213.75 161.78C213.982 161.652 214.241 161.579 214.507 161.566C214.772 161.554 215.036 161.603 215.28 161.71L220.16 164.53C220.55 164.76 220.5 165.15 220.05 165.41L215.22 168.2C214.985 168.328 214.722 168.399 214.455 168.406C214.187 168.413 213.921 168.356 213.68 168.24Z" fill="#06033E"/>
<path opacity="0.4" d="M205.96 163.79L201.09 160.97C200.69 160.75 200.74 160.35 201.2 160.09L206.03 157.3C206.26 157.17 206.518 157.097 206.782 157.087C207.047 157.076 207.31 157.129 207.55 157.24L212.43 160.05C212.82 160.28 212.77 160.68 212.32 160.94L207.49 163.73C207.257 163.857 206.997 163.929 206.732 163.94C206.466 163.95 206.202 163.899 205.96 163.79Z" fill="#06033E"/>
<path opacity="0.4" d="M198.239 159.33L193.369 156.52C192.979 156.29 193.029 155.9 193.479 155.64L198.309 152.85C198.542 152.722 198.801 152.648 199.066 152.636C199.331 152.624 199.596 152.673 199.839 152.78L204.709 155.6C205.099 155.82 205.059 156.22 204.599 156.48L199.809 159.27C199.572 159.406 199.305 159.483 199.032 159.493C198.758 159.504 198.486 159.448 198.239 159.33Z" fill="#06033E"/>
<path opacity="0.4" d="M190.53 154.88L185.65 152.06C185.26 151.84 185.31 151.44 185.76 151.18L190.59 148.39C190.822 148.26 191.082 148.187 191.347 148.177C191.613 148.166 191.878 148.219 192.12 148.33L197 151.14C197.39 151.37 197.34 151.76 196.89 152.02L192.05 154.81C191.819 154.938 191.561 155.011 191.298 155.023C191.034 155.035 190.771 154.986 190.53 154.88Z" fill="#06033E"/>
<path opacity="0.4" d="M221.209 172.59L216.329 169.78C215.939 169.55 215.989 169.16 216.439 168.9L221.269 166.11C221.501 165.979 221.76 165.905 222.026 165.893C222.292 165.881 222.557 165.931 222.799 166.04L227.679 168.86C228.069 169.08 228.019 169.48 227.569 169.74L222.739 172.53C222.507 172.66 222.247 172.733 221.981 172.743C221.716 172.754 221.451 172.701 221.209 172.59Z" fill="#06033E"/>
<path opacity="0.4" d="M228.74 176.94L223.86 174.12C223.47 173.9 223.52 173.5 223.97 173.24L228.81 170.45C229.042 170.32 229.301 170.247 229.567 170.237C229.833 170.226 230.098 170.279 230.34 170.39L235.22 173.21C235.61 173.43 235.56 173.83 235.11 174.09L230.28 176.88C230.046 177.011 229.785 177.085 229.517 177.096C229.249 177.106 228.983 177.053 228.74 176.94Z" fill="#06033E"/>
<path opacity="0.4" d="M236.269 181.29L231.389 178.45C230.999 178.23 231.049 177.83 231.499 177.57L236.339 174.78C236.569 174.65 236.827 174.577 237.092 174.567C237.356 174.556 237.619 174.609 237.859 174.72L242.739 177.53C243.129 177.76 243.079 178.15 242.629 178.41L237.809 181.22C237.576 181.352 237.315 181.427 237.047 181.44C236.78 181.452 236.513 181.4 236.269 181.29Z" fill="#06033E"/>
<path opacity="0.4" d="M243.809 185.64L238.929 182.82C238.539 182.59 238.589 182.2 239.039 181.94L243.879 179.15C244.109 179.02 244.367 178.947 244.632 178.937C244.896 178.926 245.159 178.979 245.399 179.09L250.279 181.9C250.669 182.13 250.619 182.52 250.169 182.78L245.339 185.57C245.106 185.698 244.847 185.771 244.582 185.784C244.317 185.796 244.052 185.747 243.809 185.64Z" fill="#06033E"/>
<path opacity="0.4" d="M251.329 189.98L246.449 187.17C246.059 186.94 246.109 186.55 246.559 186.29L251.399 183.5C251.629 183.369 251.887 183.294 252.151 183.282C252.415 183.27 252.679 183.32 252.919 183.43L257.809 186.25C258.199 186.47 258.149 186.87 257.699 187.13L252.869 189.92C252.636 190.051 252.374 190.125 252.107 190.136C251.839 190.146 251.572 190.093 251.329 189.98Z" fill="#06033E"/>
<path opacity="0.4" d="M258.86 194.33L253.98 191.51C253.59 191.29 253.64 190.89 254.09 190.63L258.93 187.84C259.16 187.71 259.418 187.637 259.682 187.627C259.947 187.616 260.21 187.669 260.45 187.78L265.33 190.6C265.72 190.82 265.67 191.22 265.22 191.48L260.39 194.27C260.157 194.4 259.898 194.473 259.632 194.483C259.366 194.494 259.101 194.441 258.86 194.33Z" fill="#06033E"/>
<path opacity="0.4" d="M266.389 198.68L261.509 195.86C261.119 195.64 261.169 195.24 261.619 194.98L266.459 192.19C266.689 192.06 266.947 191.987 267.212 191.977C267.476 191.966 267.739 192.019 267.979 192.13L272.859 194.94C273.249 195.17 273.199 195.56 272.749 195.83L267.919 198.61C267.687 198.74 267.428 198.815 267.162 198.827C266.897 198.839 266.632 198.789 266.389 198.68Z" fill="#06033E"/>
<path opacity="0.4" d="M273.92 203.03L269.05 200.21C268.65 199.98 268.7 199.59 269.15 199.33L273.99 196.54C274.22 196.41 274.478 196.337 274.742 196.327C275.007 196.316 275.27 196.369 275.51 196.48L280.39 199.29C280.78 199.52 280.73 199.91 280.28 200.17L275.45 202.96C275.217 203.088 274.958 203.161 274.693 203.173C274.427 203.186 274.163 203.136 273.92 203.03Z" fill="#06033E"/>
<path opacity="0.4" d="M281.449 207.37L276.579 204.56C276.179 204.33 276.229 203.94 276.689 203.68L281.519 200.89C281.75 200.762 282.007 200.689 282.271 200.677C282.534 200.664 282.797 200.714 283.039 200.82L287.919 203.64C288.309 203.86 288.259 204.26 287.809 204.52L282.979 207.31C282.747 207.44 282.487 207.513 282.221 207.523C281.955 207.534 281.691 207.481 281.449 207.37Z" fill="#06033E"/>
<path opacity="0.4" d="M209.71 157.45L204.81 154.68C204.42 154.45 204.47 154.05 204.92 153.79L209.75 151C209.983 150.872 210.242 150.801 210.508 150.79C210.773 150.78 211.037 150.831 211.28 150.94L216.15 153.76C216.54 153.98 216.5 154.38 216.04 154.64L211.24 157.45C211.003 157.57 210.741 157.633 210.475 157.633C210.209 157.633 209.947 157.57 209.71 157.45Z" fill="#06033E"/>
<path opacity="0.4" d="M202.219 153.17L197.349 150.35C196.949 150.12 196.999 149.73 197.449 149.47L202.289 146.68C202.52 146.55 202.778 146.477 203.042 146.467C203.306 146.456 203.569 146.509 203.809 146.62L208.689 149.43C209.079 149.66 209.029 150.05 208.579 150.31L203.749 153.1C203.517 153.228 203.258 153.301 202.993 153.314C202.727 153.326 202.463 153.277 202.219 153.17Z" fill="#06033E"/>
<path opacity="0.4" d="M194.73 148.84L189.81 146.02C189.42 145.8 189.47 145.4 189.92 145.14L194.81 142.35C195.042 142.22 195.302 142.147 195.568 142.137C195.833 142.126 196.098 142.179 196.34 142.29L201.22 145.1C201.61 145.33 201.56 145.73 201.11 145.99L196.28 148.78C196.045 148.913 195.782 148.988 195.512 148.998C195.242 149.009 194.974 148.954 194.73 148.84Z" fill="#06033E"/>
<path opacity="0.4" d="M187.24 144.51L182.36 141.7C181.97 141.47 182.02 141.08 182.47 140.82L187.3 138.03C187.532 137.902 187.791 137.829 188.056 137.816C188.322 137.804 188.586 137.853 188.83 137.96L193.7 140.78C194.1 141 194.05 141.4 193.59 141.66L188.81 144.45C188.573 144.588 188.306 144.666 188.032 144.676C187.758 144.687 187.486 144.629 187.24 144.51Z" fill="#06033E"/>
<path opacity="0.4" d="M194.94 140.06L190.06 137.25C189.67 137.02 189.72 136.63 190.17 136.37L191.81 135.45C192.042 135.319 192.301 135.245 192.566 135.233C192.832 135.221 193.097 135.271 193.34 135.38L198.21 138.2C198.61 138.42 198.56 138.82 198.11 139.08L196.51 140C196.272 140.136 196.006 140.213 195.732 140.223C195.459 140.234 195.187 140.178 194.94 140.06Z" fill="#06033E"/>
<path opacity="0.4" d="M204.72 145.71L199.81 142.89C199.42 142.67 199.47 142.27 199.92 142.01L201.52 141.09C201.752 140.96 202.012 140.887 202.278 140.877C202.543 140.866 202.808 140.919 203.05 141.03L207.92 143.84C208.31 144.07 208.27 144.46 207.81 144.72L206.22 145.65C205.991 145.775 205.737 145.845 205.477 145.856C205.217 145.866 204.957 145.816 204.72 145.71Z" fill="#06033E"/>
<path opacity="0.4" d="M212.179 150.02L207.299 147.2C206.909 146.98 206.959 146.58 207.409 146.32L209.009 145.4C209.241 145.27 209.501 145.197 209.767 145.187C210.033 145.176 210.297 145.229 210.539 145.34L215.409 148.15C215.809 148.38 215.759 148.77 215.309 149.03L213.709 149.95C213.477 150.08 213.218 150.155 212.952 150.167C212.687 150.179 212.422 150.129 212.179 150.02Z" fill="#06033E"/>
<path opacity="0.4" d="M219.639 154.33L214.809 151.51C214.409 151.28 214.459 150.89 214.919 150.63L216.509 149.71C216.742 149.582 217.001 149.509 217.266 149.496C217.531 149.484 217.796 149.533 218.039 149.64L222.919 152.46C223.309 152.68 223.259 153.08 222.809 153.34L221.209 154.26C220.972 154.395 220.706 154.471 220.433 154.484C220.16 154.496 219.888 154.443 219.639 154.33Z" fill="#06033E"/>
<path opacity="0.4" d="M227.099 158.63L222.229 155.82C221.839 155.59 221.879 155.2 222.339 154.94L223.929 154.01C224.162 153.883 224.422 153.812 224.687 153.801C224.952 153.791 225.217 153.842 225.459 153.95L230.339 156.77C230.729 156.99 230.679 157.39 230.229 157.65L228.629 158.57C228.397 158.7 228.137 158.773 227.871 158.783C227.605 158.794 227.341 158.741 227.099 158.63Z" fill="#06033E"/>
<path opacity="0.4" d="M268.809 182.68L263.929 179.87C263.539 179.64 263.589 179.25 264.039 178.99L265.639 178.07C265.871 177.939 266.13 177.865 266.396 177.853C266.661 177.841 266.926 177.891 267.169 178L272.039 180.82C272.439 181.04 272.389 181.44 271.929 181.7L270.339 182.62C270.107 182.75 269.847 182.823 269.581 182.833C269.315 182.844 269.051 182.791 268.809 182.68Z" fill="#06033E"/>
<path opacity="0.4" d="M276.219 186.99L271.349 184.18C270.949 183.95 270.999 183.56 271.459 183.3L273.049 182.37C273.282 182.24 273.541 182.167 273.807 182.157C274.073 182.146 274.338 182.199 274.579 182.31L279.459 185.13C279.849 185.35 279.799 185.75 279.349 186.01L277.749 186.93C277.517 187.06 277.257 187.133 276.992 187.143C276.726 187.154 276.461 187.101 276.219 186.99Z" fill="#06033E"/>
<path opacity="0.4" d="M283.679 191.3L278.809 188.45C278.419 188.22 278.459 187.82 278.919 187.56L280.509 186.64C280.742 186.51 281.001 186.437 281.267 186.427C281.533 186.416 281.797 186.469 282.039 186.58L286.919 189.39C287.309 189.62 287.259 190.01 286.809 190.27L285.209 191.2C284.98 191.336 284.722 191.416 284.456 191.433C284.19 191.451 283.924 191.405 283.679 191.3Z" fill="#06033E"/>
<path opacity="0.4" d="M291.15 195.61L286.27 192.79C285.88 192.57 285.93 192.17 286.38 191.91L287.98 190.99C288.21 190.86 288.468 190.787 288.732 190.777C288.997 190.766 289.26 190.819 289.5 190.93L294.38 193.74C294.77 193.97 294.72 194.36 294.27 194.62L292.67 195.55C292.438 195.677 292.181 195.749 291.917 195.759C291.653 195.77 291.39 195.719 291.15 195.61Z" fill="#06033E"/>
<path opacity="0.4" d="M217.239 161.84L212.369 159.02C211.979 158.8 212.029 158.4 212.479 158.14L217.309 155.35C217.542 155.22 217.801 155.147 218.067 155.137C218.333 155.126 218.598 155.179 218.839 155.29L223.709 158.1C224.099 158.33 224.059 158.72 223.599 158.99L218.809 161.78C218.571 161.914 218.305 161.989 218.032 162C217.759 162.01 217.487 161.955 217.239 161.84Z" fill="#06033E"/>
<path opacity="0.4" d="M224.81 166.19L219.94 163.37C219.55 163.14 219.6 162.75 220.05 162.49L224.88 159.7C225.112 159.57 225.372 159.497 225.637 159.487C225.903 159.476 226.168 159.529 226.41 159.64L231.28 162.45C231.67 162.68 231.63 163.07 231.17 163.33L226.34 166.12C226.107 166.248 225.848 166.321 225.583 166.333C225.317 166.346 225.053 166.296 224.81 166.19Z" fill="#06033E"/>
<path opacity="0.4" d="M232.299 170.53L227.429 167.72C227.039 167.49 227.089 167.1 227.539 166.84L232.369 164.05C232.601 163.922 232.86 163.849 233.126 163.836C233.391 163.824 233.656 163.873 233.899 163.98L238.769 166.8C239.169 167.03 239.119 167.42 238.659 167.68L233.809 170.45C233.581 170.58 233.325 170.654 233.063 170.668C232.801 170.682 232.539 170.635 232.299 170.53Z" fill="#06033E"/>
<path opacity="0.4" d="M239.809 174.88L234.929 172.07C234.539 171.84 234.589 171.45 235.039 171.18L239.869 168.39C240.102 168.262 240.361 168.191 240.627 168.18C240.892 168.17 241.157 168.221 241.399 168.33L246.269 171.15C246.669 171.37 246.619 171.77 246.159 172.03L241.329 174.82C241.098 174.95 240.84 175.023 240.576 175.033C240.312 175.043 240.049 174.991 239.809 174.88Z" fill="#06033E"/>
<path opacity="0.4" d="M247.369 179.23L242.489 176.45C242.099 176.23 242.149 175.83 242.599 175.57L247.429 172.78C247.662 172.65 247.921 172.577 248.187 172.567C248.453 172.556 248.718 172.609 248.959 172.72L253.809 175.45C254.209 175.68 254.159 176.08 253.699 176.34L248.869 179.13C248.645 179.263 248.392 179.341 248.131 179.358C247.871 179.376 247.61 179.332 247.369 179.23Z" fill="#06033E"/>
<path opacity="0.4" d="M254.9 183.58L250.02 180.76C249.63 180.54 249.68 180.14 250.13 179.88L254.96 177.09C255.192 176.96 255.452 176.887 255.717 176.877C255.983 176.866 256.248 176.919 256.49 177.03L261.36 179.84C261.76 180.07 261.71 180.46 261.25 180.72L256.42 183.51C256.189 183.638 255.932 183.711 255.668 183.723C255.404 183.735 255.141 183.686 254.9 183.58Z" fill="#06033E"/>
<path opacity="0.4" d="M262.429 187.92L257.549 185.11C257.159 184.88 257.209 184.49 257.659 184.23L262.489 181.44C262.722 181.312 262.98 181.239 263.246 181.226C263.511 181.214 263.776 181.263 264.019 181.37L268.889 184.19C269.289 184.42 269.239 184.81 268.779 185.07L263.949 187.86C263.718 187.99 263.46 188.063 263.196 188.073C262.932 188.084 262.669 188.031 262.429 187.92Z" fill="#06033E"/>
<path opacity="0.4" d="M269.959 192.27L265.079 189.45C264.689 189.22 264.739 188.83 265.189 188.56L270.019 185.78C270.251 185.649 270.51 185.575 270.776 185.563C271.042 185.551 271.307 185.601 271.549 185.71L276.419 188.53C276.819 188.75 276.769 189.15 276.319 189.41L271.479 192.2C271.25 192.331 270.992 192.406 270.728 192.418C270.463 192.43 270.2 192.379 269.959 192.27Z" fill="#06033E"/>
<path opacity="0.4" d="M277.49 196.62L272.61 193.8C272.22 193.58 272.27 193.18 272.72 192.92L277.55 190.13C277.782 190 278.041 189.927 278.307 189.917C278.573 189.906 278.838 189.959 279.08 190.07L283.96 192.88C284.35 193.11 284.3 193.51 283.85 193.77L279.01 196.56C278.779 196.69 278.521 196.763 278.257 196.773C277.993 196.783 277.73 196.731 277.49 196.62Z" fill="#06033E"/>
<path opacity="0.4" d="M174.19 162.38L159.81 154.08C159.42 153.86 159.47 153.46 159.92 153.2L164.81 150.45C165.042 150.32 165.302 150.247 165.568 150.237C165.833 150.226 166.098 150.279 166.34 150.39L180.7 158.68C181.09 158.91 181.04 159.3 180.59 159.56L175.76 162.35C175.519 162.478 175.251 162.548 174.978 162.553C174.705 162.558 174.435 162.499 174.19 162.38Z" fill="#06033E"/>
<path opacity="0.4" d="M266.699 215.79L252.339 207.5C251.949 207.27 251.999 206.87 252.449 206.61L257.279 203.82C257.511 203.69 257.771 203.617 258.037 203.607C258.303 203.596 258.567 203.649 258.809 203.76L273.169 212.05C273.559 212.28 273.509 212.67 273.059 212.93L268.229 215.72C267.996 215.848 267.738 215.921 267.472 215.934C267.207 215.946 266.942 215.897 266.699 215.79Z" fill="#06033E"/>
<path opacity="0.4" d="M236.589 208L231.709 205.19C231.319 204.96 231.369 204.57 231.819 204.31L237.579 200.98C237.811 200.85 238.071 200.777 238.337 200.767C238.603 200.756 238.867 200.809 239.109 200.92L243.979 203.74C244.369 203.96 244.319 204.36 243.869 204.62L238.119 207.94C237.887 208.07 237.627 208.143 237.361 208.153C237.095 208.164 236.831 208.111 236.589 208Z" fill="#06033E"/>
<path opacity="0.4" d="M181.899 176.45L174.109 171.95C173.709 171.72 173.759 171.33 174.219 171.07L179.969 167.74C180.201 167.61 180.461 167.537 180.727 167.527C180.993 167.516 181.257 167.569 181.499 167.68L189.299 172.18C189.689 172.41 189.639 172.8 189.189 173.06L183.429 176.39C183.197 176.52 182.937 176.593 182.671 176.603C182.405 176.614 182.141 176.561 181.899 176.45Z" fill="#06033E"/>
<path opacity="0.4" d="M229.329 203.81L221.539 199.31C221.139 199.09 221.189 198.69 221.649 198.43L227.399 195.11C227.631 194.982 227.89 194.908 228.156 194.896C228.421 194.884 228.686 194.933 228.929 195.04L236.729 199.55C237.119 199.77 237.069 200.17 236.619 200.43L230.859 203.75C230.627 203.88 230.367 203.953 230.101 203.963C229.835 203.974 229.571 203.921 229.329 203.81Z" fill="#06033E"/>
<path opacity="0.4" d="M192.809 182.7L185.009 178.2C184.619 177.98 184.669 177.58 185.119 177.32L190.879 174C191.11 173.872 191.367 173.799 191.631 173.786C191.894 173.774 192.157 173.823 192.399 173.93L200.199 178.44C200.589 178.66 200.539 179.06 200.089 179.32L194.339 182.64C194.107 182.77 193.847 182.843 193.581 182.853C193.315 182.863 193.051 182.811 192.809 182.7Z" fill="#06033E"/>
<path opacity="0.4" d="M192.42 173.96L226.32 193.54C226.414 193.569 226.496 193.627 226.555 193.706C226.614 193.785 226.645 193.881 226.645 193.98C226.645 194.079 226.614 194.174 226.555 194.254C226.496 194.333 226.414 194.391 226.32 194.42L220.45 197.81C220.214 197.929 219.953 197.99 219.69 197.99C219.426 197.99 219.165 197.929 218.93 197.81L185.02 178.23L192.42 173.96Z" fill="#06033E"/>
<path opacity="0.4" d="M257.64 215.89L263.07 219.02C263.39 219.21 263.35 219.53 262.98 219.74L260.62 221.1C260.431 221.207 260.219 221.268 260.002 221.279C259.785 221.289 259.568 221.248 259.37 221.16L253.94 218.02C253.62 217.84 253.66 217.51 254.03 217.3L256.38 215.94C256.57 215.831 256.784 215.77 257.004 215.761C257.223 215.753 257.441 215.797 257.64 215.89Z" fill="#06033E"/>
<path opacity="0.4" d="M250.039 211.5L255.469 214.64C255.789 214.82 255.749 215.15 255.379 215.36L253.029 216.72C252.839 216.826 252.627 216.886 252.41 216.895C252.193 216.903 251.976 216.861 251.779 216.77L246.349 213.64C246.029 213.45 246.069 213.13 246.439 212.91L248.809 211.55C248.997 211.45 249.205 211.393 249.418 211.385C249.631 211.376 249.843 211.415 250.039 211.5Z" fill="#06033E"/>
<path opacity="0.4" d="M242.509 207.15L247.939 210.29C248.259 210.48 248.219 210.8 247.849 211.01L245.499 212.37C245.31 212.478 245.098 212.54 244.88 212.548C244.662 212.557 244.446 212.513 244.249 212.42L238.809 209.29C238.479 209.1 238.529 208.78 238.899 208.57L241.249 207.21C241.439 207.101 241.653 207.039 241.872 207.029C242.091 207.018 242.309 207.06 242.509 207.15Z" fill="#06033E"/>
<path opacity="0.4" d="M254.199 209.1L259.629 212.24C259.949 212.42 259.909 212.75 259.539 212.96L257.189 214.32C257 214.426 256.787 214.486 256.57 214.495C256.353 214.503 256.137 214.461 255.939 214.37L250.499 211.24C250.179 211.05 250.219 210.73 250.589 210.51L252.949 209.15C253.14 209.047 253.352 208.989 253.568 208.98C253.785 208.971 254.001 209.012 254.199 209.1Z" fill="#06033E"/>
</g>
<g opacity="0.4">
<path opacity="0.4" d="M156.389 161.7L151.519 158.89C151.119 158.66 151.169 158.26 151.619 158L157.379 154.68C157.612 154.55 157.871 154.477 158.137 154.467C158.403 154.456 158.668 154.509 158.909 154.62L163.809 157.45C164.209 157.68 164.159 158.07 163.699 158.33L157.949 161.66C157.712 161.792 157.446 161.864 157.174 161.871C156.903 161.878 156.633 161.819 156.389 161.7Z" fill="#06033E"/>
<path opacity="0.4" d="M163.92 166.05L159.05 163.23C158.65 163.01 158.7 162.61 159.16 162.35L164.91 159.03C165.142 158.9 165.402 158.827 165.667 158.817C165.933 158.806 166.198 158.859 166.44 158.97L171.31 161.78C171.71 162.01 171.66 162.4 171.2 162.66L165.45 165.99C165.217 166.117 164.957 166.189 164.692 166.2C164.426 166.21 164.162 166.159 163.92 166.05Z" fill="#06033E"/>
<path opacity="0.4" d="M171.449 170.45L166.579 167.63C166.179 167.41 166.229 167.01 166.689 166.75L172.439 163.43C172.671 163.302 172.93 163.229 173.196 163.216C173.461 163.204 173.726 163.253 173.969 163.36L178.839 166.18C179.239 166.4 179.189 166.8 178.729 167.06L172.979 170.38C172.746 170.508 172.487 170.581 172.222 170.593C171.957 170.606 171.692 170.557 171.449 170.45Z" fill="#06033E"/>
<path opacity="0.4" d="M181.869 166.81L176.989 163.99C176.599 163.76 176.649 163.37 177.099 163.11L181.929 160.32C182.162 160.19 182.421 160.117 182.687 160.107C182.953 160.096 183.218 160.149 183.459 160.26L188.339 163.07C188.729 163.3 188.679 163.69 188.229 163.95L183.389 166.74C183.159 166.868 182.901 166.941 182.638 166.953C182.374 166.966 182.111 166.916 181.869 166.81Z" fill="#06033E"/>
<path opacity="0.4" d="M189.4 171.15L184.52 168.34C184.13 168.11 184.18 167.72 184.63 167.46L189.46 164.67C189.692 164.542 189.951 164.469 190.217 164.456C190.482 164.444 190.746 164.493 190.99 164.6L195.87 167.42C196.26 167.64 196.21 168.04 195.76 168.3L190.92 171.09C190.689 171.22 190.431 171.293 190.167 171.303C189.903 171.313 189.64 171.261 189.4 171.15Z" fill="#06033E"/>
<path opacity="0.4" d="M196.929 175.5L192.049 172.69C191.659 172.46 191.709 172.06 192.159 171.8L196.989 169.01C197.222 168.882 197.481 168.811 197.747 168.8C198.012 168.79 198.277 168.841 198.519 168.95L203.399 171.77C203.789 171.99 203.739 172.39 203.289 172.65L198.449 175.45C198.218 175.578 197.959 175.649 197.695 175.658C197.431 175.667 197.168 175.613 196.929 175.5Z" fill="#06033E"/>
<path opacity="0.4" d="M204.459 179.85L199.579 177.03C199.189 176.81 199.239 176.41 199.689 176.15L204.519 173.36C204.752 173.23 205.011 173.157 205.277 173.147C205.543 173.136 205.808 173.189 206.049 173.3L210.929 176.11C211.319 176.34 211.269 176.73 210.819 177L205.979 179.79C205.748 179.917 205.49 179.989 205.226 179.999C204.963 180.01 204.7 179.959 204.459 179.85Z" fill="#06033E"/>
<path opacity="0.4" d="M211.99 184.2L207.11 181.38C206.72 181.16 206.77 180.76 207.22 180.5L212.05 177.71C212.282 177.58 212.541 177.507 212.807 177.497C213.073 177.486 213.338 177.539 213.58 177.65L218.46 180.46C218.85 180.69 218.8 181.08 218.35 181.34L213.52 184.13C213.287 184.258 213.028 184.331 212.763 184.343C212.497 184.356 212.233 184.306 211.99 184.2Z" fill="#06033E"/>
<path opacity="0.4" d="M219.519 188.54L214.639 185.73C214.249 185.5 214.299 185.11 214.749 184.85L219.579 182.06C219.811 181.932 220.07 181.859 220.336 181.846C220.601 181.834 220.866 181.883 221.109 181.99L225.989 184.81C226.379 185.04 226.329 185.43 225.879 185.69L221.049 188.45C220.819 188.584 220.561 188.663 220.295 188.678C220.029 188.694 219.763 188.647 219.519 188.54Z" fill="#06033E"/>
<path opacity="0.4" d="M227.049 192.89L222.169 190.08C221.779 189.85 221.829 189.46 222.279 189.19L227.109 186.45C227.342 186.323 227.602 186.252 227.867 186.241C228.132 186.231 228.397 186.282 228.639 186.39L233.519 189.21C233.909 189.43 233.859 189.83 233.409 190.09L228.579 192.88C228.343 193.002 228.081 193.066 227.815 193.068C227.549 193.07 227.287 193.009 227.049 192.89Z" fill="#06033E"/>
<path opacity="0.4" d="M234.579 197.24L229.699 194.45C229.309 194.23 229.359 193.83 229.809 193.57L234.639 190.78C234.872 190.65 235.131 190.577 235.397 190.567C235.663 190.556 235.928 190.609 236.169 190.72L241.049 193.53C241.439 193.76 241.389 194.16 240.939 194.42L236.109 197.21C235.875 197.335 235.614 197.403 235.348 197.408C235.082 197.413 234.819 197.356 234.579 197.24Z" fill="#06033E"/>
<path opacity="0.4" d="M242.11 201.59L237.23 198.77C236.84 198.55 236.89 198.15 237.34 197.89L242.17 195.1C242.402 194.97 242.662 194.897 242.927 194.887C243.193 194.876 243.458 194.929 243.7 195.04L248.58 197.85C248.97 198.08 248.92 198.47 248.47 198.73L243.64 201.52C243.407 201.648 243.148 201.721 242.883 201.733C242.617 201.746 242.353 201.696 242.11 201.59Z" fill="#06033E"/>
<path opacity="0.4" d="M249.64 205.93L244.81 203.12C244.42 202.89 244.47 202.5 244.92 202.24L249.75 199.45C249.982 199.322 250.241 199.249 250.507 199.236C250.772 199.224 251.036 199.273 251.28 199.38L256.16 202.2C256.55 202.43 256.5 202.82 256.05 203.08L251.22 205.87C250.981 206.008 250.713 206.086 250.437 206.096C250.162 206.107 249.888 206.05 249.64 205.93Z" fill="#06033E"/>
<path opacity="0.4" d="M192.96 164.75L188.09 161.93C187.69 161.71 187.74 161.31 188.2 161.05L193.03 158.26C193.26 158.13 193.518 158.057 193.782 158.047C194.047 158.036 194.31 158.089 194.55 158.2L199.43 161.01C199.82 161.24 199.77 161.63 199.32 161.89L194.49 164.68C194.258 164.811 193.999 164.885 193.733 164.897C193.467 164.909 193.202 164.859 192.96 164.75Z" fill="#06033E"/>
<path opacity="0.4" d="M185.32 160.34L180.44 157.52C180.05 157.29 180.1 156.9 180.55 156.64L185.38 153.85C185.612 153.72 185.872 153.647 186.137 153.637C186.403 153.626 186.668 153.679 186.91 153.79L191.79 156.6C192.18 156.83 192.13 157.22 191.68 157.48L186.81 160.27C186.582 160.392 186.33 160.462 186.073 160.474C185.815 160.486 185.557 160.44 185.32 160.34Z" fill="#06033E"/>
<path opacity="0.4" d="M177.659 155.92L167.159 149.85C166.769 149.63 166.819 149.23 167.269 148.97L172.099 146.18C172.332 146.05 172.591 145.977 172.857 145.967C173.123 145.956 173.388 146.009 173.629 146.12L184.129 152.18C184.519 152.41 184.479 152.8 184.019 153.06L179.189 155.85C178.957 155.978 178.698 156.051 178.432 156.064C178.167 156.076 177.903 156.027 177.659 155.92Z" fill="#06033E"/>
<path opacity="0.4" d="M183.019 150.54L174.489 145.62C174.099 145.39 174.149 145 174.599 144.74L179.429 141.95C179.662 141.82 179.921 141.747 180.187 141.737C180.453 141.726 180.718 141.779 180.959 141.89L189.479 146.81C189.879 147.03 189.829 147.43 189.369 147.69L184.539 150.45C184.311 150.584 184.055 150.663 183.79 150.678C183.526 150.694 183.262 150.646 183.019 150.54Z" fill="#06033E"/>
<path opacity="0.4" d="M200.489 169.1L195.619 166.28C195.219 166.05 195.269 165.66 195.729 165.4L200.559 162.61C200.789 162.48 201.047 162.407 201.312 162.397C201.576 162.386 201.839 162.439 202.079 162.55L206.959 165.36C207.349 165.59 207.299 165.98 206.849 166.24L202.019 169.03C201.786 169.158 201.527 169.231 201.262 169.243C200.997 169.256 200.732 169.206 200.489 169.1Z" fill="#06033E"/>
<path opacity="0.4" d="M208.019 173.45L203.149 170.64C202.749 170.41 202.799 170.02 203.259 169.76L208.089 166.97C208.32 166.842 208.577 166.769 208.841 166.757C209.105 166.744 209.368 166.793 209.609 166.9L214.489 169.72C214.879 169.94 214.829 170.34 214.379 170.6L209.549 173.39C209.317 173.52 209.057 173.593 208.791 173.603C208.526 173.614 208.261 173.561 208.019 173.45Z" fill="#06033E"/>
<path opacity="0.4" d="M215.549 177.79L210.679 174.98C210.289 174.75 210.329 174.35 210.789 174.09L215.619 171.3C215.852 171.17 216.111 171.097 216.377 171.087C216.643 171.076 216.908 171.129 217.149 171.24L222.019 174.06C222.409 174.28 222.359 174.68 221.909 174.94L217.079 177.73C216.847 177.86 216.587 177.933 216.321 177.943C216.056 177.954 215.791 177.901 215.549 177.79Z" fill="#06033E"/>
<path opacity="0.4" d="M223.08 182.14L218.21 179.32C217.82 179.1 217.86 178.7 218.32 178.44L223.15 175.65C223.382 175.52 223.642 175.447 223.907 175.437C224.173 175.426 224.438 175.479 224.68 175.59L229.55 178.4C229.94 178.63 229.89 179.02 229.44 179.29L224.61 182.07C224.378 182.2 224.119 182.275 223.853 182.287C223.587 182.299 223.322 182.249 223.08 182.14Z" fill="#06033E"/>
<path opacity="0.4" d="M230.609 186.45L225.739 183.63C225.349 183.4 225.389 183.01 225.849 182.75L230.679 179.96C230.911 179.83 231.171 179.757 231.437 179.747C231.703 179.736 231.967 179.789 232.209 179.9L237.079 182.71C237.469 182.94 237.419 183.33 236.969 183.59L232.139 186.45C231.901 186.567 231.639 186.628 231.374 186.628C231.109 186.628 230.847 186.567 230.609 186.45Z" fill="#06033E"/>
<path opacity="0.4" d="M238.139 190.83L233.269 188.02C232.879 187.79 232.919 187.4 233.379 187.14L238.209 184.35C238.442 184.222 238.701 184.148 238.966 184.136C239.231 184.124 239.496 184.173 239.739 184.28L244.609 187.1C244.999 187.32 244.949 187.72 244.499 187.98L239.669 190.77C239.437 190.9 239.177 190.973 238.911 190.983C238.645 190.994 238.381 190.941 238.139 190.83Z" fill="#06033E"/>
<path opacity="0.4" d="M245.67 195.18L240.81 192.37C240.42 192.14 240.47 191.74 240.92 191.48L245.75 188.69C245.982 188.56 246.242 188.487 246.508 188.477C246.773 188.466 247.038 188.519 247.28 188.63L252.15 191.45C252.54 191.67 252.49 192.07 252.04 192.33L247.21 195.12C246.976 195.251 246.715 195.325 246.447 195.336C246.179 195.346 245.913 195.293 245.67 195.18Z" fill="#06033E"/>
<path opacity="0.4" d="M253.199 199.53L248.329 196.71C247.939 196.49 247.989 196.09 248.439 195.83L253.269 193.04C253.502 192.91 253.761 192.837 254.027 192.827C254.293 192.816 254.558 192.869 254.799 192.98L259.669 195.79C260.059 196.02 260.019 196.41 259.559 196.68L254.729 199.45C254.498 199.581 254.239 199.656 253.974 199.67C253.708 199.684 253.443 199.636 253.199 199.53Z" fill="#06033E"/>
<path opacity="0.4" d="M260.73 203.88L255.86 201.06C255.47 200.83 255.52 200.44 255.97 200.18L260.8 197.39C261.032 197.26 261.291 197.187 261.557 197.177C261.823 197.166 262.088 197.219 262.33 197.33L267.2 200.14C267.59 200.37 267.55 200.76 267.09 201.02L262.26 203.81C262.027 203.938 261.768 204.011 261.503 204.023C261.237 204.036 260.973 203.986 260.73 203.88Z" fill="#06033E"/>
<path opacity="0.4" d="M274.12 211.61L263.48 205.45C263.09 205.23 263.14 204.83 263.59 204.57L268.42 201.78C268.652 201.65 268.912 201.577 269.177 201.567C269.443 201.556 269.708 201.609 269.95 201.72L280.59 207.86C280.98 208.09 280.93 208.48 280.48 208.74L275.65 211.53C275.418 211.66 275.159 211.735 274.894 211.749C274.629 211.762 274.364 211.715 274.12 211.61Z" fill="#06033E"/>
<path opacity="0.4" d="M288.81 203.14L279.81 197.96C279.42 197.73 279.47 197.34 279.92 197.07L284.75 194.28C284.983 194.153 285.242 194.082 285.508 194.071C285.773 194.061 286.037 194.112 286.28 194.22L295.28 199.41C295.67 199.63 295.62 200.03 295.17 200.29L290.34 203.08C290.107 203.21 289.848 203.283 289.582 203.293C289.316 203.304 289.051 203.251 288.81 203.14Z" fill="#06033E"/>
<path opacity="0.4" d="M213.68 168.24L208.81 165.45C208.42 165.22 208.47 164.83 208.92 164.57L213.75 161.78C213.982 161.652 214.241 161.579 214.507 161.566C214.772 161.554 215.036 161.603 215.28 161.71L220.16 164.53C220.55 164.76 220.5 165.15 220.05 165.41L215.22 168.2C214.985 168.328 214.722 168.399 214.455 168.406C214.187 168.413 213.921 168.356 213.68 168.24Z" fill="#06033E"/>
<path opacity="0.4" d="M205.96 163.79L201.09 160.97C200.69 160.75 200.74 160.35 201.2 160.09L206.03 157.3C206.26 157.17 206.518 157.097 206.782 157.087C207.047 157.076 207.31 157.129 207.55 157.24L212.43 160.05C212.82 160.28 212.77 160.68 212.32 160.94L207.49 163.73C207.257 163.857 206.997 163.929 206.732 163.94C206.466 163.95 206.202 163.899 205.96 163.79Z" fill="#06033E"/>
<path opacity="0.4" d="M198.239 159.33L193.369 156.52C192.979 156.29 193.029 155.9 193.479 155.64L198.309 152.85C198.542 152.722 198.801 152.648 199.066 152.636C199.331 152.624 199.596 152.673 199.839 152.78L204.709 155.6C205.099 155.82 205.059 156.22 204.599 156.48L199.809 159.27C199.572 159.406 199.305 159.483 199.032 159.493C198.758 159.504 198.486 159.448 198.239 159.33Z" fill="#06033E"/>
<path opacity="0.4" d="M190.53 154.88L185.65 152.06C185.26 151.84 185.31 151.44 185.76 151.18L190.59 148.39C190.822 148.26 191.082 148.187 191.347 148.177C191.613 148.166 191.878 148.219 192.12 148.33L197 151.14C197.39 151.37 197.34 151.76 196.89 152.02L192.05 154.81C191.819 154.938 191.561 155.011 191.298 155.023C191.034 155.035 190.771 154.986 190.53 154.88Z" fill="#06033E"/>
<path opacity="0.4" d="M221.209 172.59L216.329 169.78C215.939 169.55 215.989 169.16 216.439 168.9L221.269 166.11C221.501 165.979 221.76 165.905 222.026 165.893C222.292 165.881 222.557 165.931 222.799 166.04L227.679 168.86C228.069 169.08 228.019 169.48 227.569 169.74L222.739 172.53C222.507 172.66 222.247 172.733 221.981 172.743C221.716 172.754 221.451 172.701 221.209 172.59Z" fill="#06033E"/>
<path opacity="0.4" d="M228.74 176.94L223.86 174.12C223.47 173.9 223.52 173.5 223.97 173.24L228.81 170.45C229.042 170.32 229.301 170.247 229.567 170.237C229.833 170.226 230.098 170.279 230.34 170.39L235.22 173.21C235.61 173.43 235.56 173.83 235.11 174.09L230.28 176.88C230.046 177.011 229.785 177.085 229.517 177.096C229.249 177.106 228.983 177.053 228.74 176.94Z" fill="#06033E"/>
<path opacity="0.4" d="M236.269 181.29L231.389 178.45C230.999 178.23 231.049 177.83 231.499 177.57L236.339 174.78C236.569 174.65 236.827 174.577 237.092 174.567C237.356 174.556 237.619 174.609 237.859 174.72L242.739 177.53C243.129 177.76 243.079 178.15 242.629 178.41L237.809 181.22C237.576 181.352 237.315 181.427 237.047 181.44C236.78 181.452 236.513 181.4 236.269 181.29Z" fill="#06033E"/>
<path opacity="0.4" d="M243.809 185.64L238.929 182.82C238.539 182.59 238.589 182.2 239.039 181.94L243.879 179.15C244.109 179.02 244.367 178.947 244.632 178.937C244.896 178.926 245.159 178.979 245.399 179.09L250.279 181.9C250.669 182.13 250.619 182.52 250.169 182.78L245.339 185.57C245.106 185.698 244.847 185.771 244.582 185.784C244.317 185.796 244.052 185.747 243.809 185.64Z" fill="#06033E"/>
<path opacity="0.4" d="M251.329 189.98L246.449 187.17C246.059 186.94 246.109 186.55 246.559 186.29L251.399 183.5C251.629 183.369 251.887 183.294 252.151 183.282C252.415 183.27 252.679 183.32 252.919 183.43L257.809 186.25C258.199 186.47 258.149 186.87 257.699 187.13L252.869 189.92C252.636 190.051 252.374 190.125 252.107 190.136C251.839 190.146 251.572 190.093 251.329 189.98Z" fill="#06033E"/>
<path opacity="0.4" d="M258.86 194.33L253.98 191.51C253.59 191.29 253.64 190.89 254.09 190.63L258.93 187.84C259.16 187.71 259.418 187.637 259.682 187.627C259.947 187.616 260.21 187.669 260.45 187.78L265.33 190.6C265.72 190.82 265.67 191.22 265.22 191.48L260.39 194.27C260.157 194.4 259.898 194.473 259.632 194.483C259.366 194.494 259.101 194.441 258.86 194.33Z" fill="#06033E"/>
<path opacity="0.4" d="M266.389 198.68L261.509 195.86C261.119 195.64 261.169 195.24 261.619 194.98L266.459 192.19C266.689 192.06 266.947 191.987 267.212 191.977C267.476 191.966 267.739 192.019 267.979 192.13L272.859 194.94C273.249 195.17 273.199 195.56 272.749 195.83L267.919 198.61C267.687 198.74 267.428 198.815 267.162 198.827C266.897 198.839 266.632 198.789 266.389 198.68Z" fill="#06033E"/>
<path opacity="0.4" d="M273.92 203.03L269.05 200.21C268.65 199.98 268.7 199.59 269.15 199.33L273.99 196.54C274.22 196.41 274.478 196.337 274.742 196.327C275.007 196.316 275.27 196.369 275.51 196.48L280.39 199.29C280.78 199.52 280.73 199.91 280.28 200.17L275.45 202.96C275.217 203.088 274.958 203.161 274.693 203.173C274.427 203.186 274.163 203.136 273.92 203.03Z" fill="#06033E"/>
<path opacity="0.4" d="M281.449 207.37L276.579 204.56C276.179 204.33 276.229 203.94 276.689 203.68L281.519 200.89C281.75 200.762 282.007 200.689 282.271 200.677C282.534 200.664 282.797 200.714 283.039 200.82L287.919 203.64C288.309 203.86 288.259 204.26 287.809 204.52L282.979 207.31C282.747 207.44 282.487 207.513 282.221 207.523C281.955 207.534 281.691 207.481 281.449 207.37Z" fill="#06033E"/>
<path opacity="0.4" d="M209.71 157.45L204.81 154.68C204.42 154.45 204.47 154.05 204.92 153.79L209.75 151C209.983 150.872 210.242 150.801 210.508 150.79C210.773 150.78 211.037 150.831 211.28 150.94L216.15 153.76C216.54 153.98 216.5 154.38 216.04 154.64L211.24 157.45C211.003 157.57 210.741 157.633 210.475 157.633C210.209 157.633 209.947 157.57 209.71 157.45Z" fill="#06033E"/>
<path opacity="0.4" d="M202.219 153.17L197.349 150.35C196.949 150.12 196.999 149.73 197.449 149.47L202.289 146.68C202.52 146.55 202.778 146.477 203.042 146.467C203.306 146.456 203.569 146.509 203.809 146.62L208.689 149.43C209.079 149.66 209.029 150.05 208.579 150.31L203.749 153.1C203.517 153.228 203.258 153.301 202.993 153.314C202.727 153.326 202.463 153.277 202.219 153.17Z" fill="#06033E"/>
<path opacity="0.4" d="M194.73 148.84L189.81 146.02C189.42 145.8 189.47 145.4 189.92 145.14L194.81 142.35C195.042 142.22 195.302 142.147 195.568 142.137C195.833 142.126 196.098 142.179 196.34 142.29L201.22 145.1C201.61 145.33 201.56 145.73 201.11 145.99L196.28 148.78C196.045 148.913 195.782 148.988 195.512 148.998C195.242 149.009 194.974 148.954 194.73 148.84Z" fill="#06033E"/>
<path opacity="0.4" d="M187.24 144.51L182.36 141.7C181.97 141.47 182.02 141.08 182.47 140.82L187.3 138.03C187.532 137.902 187.791 137.829 188.056 137.816C188.322 137.804 188.586 137.853 188.83 137.96L193.7 140.78C194.1 141 194.05 141.4 193.59 141.66L188.81 144.45C188.573 144.588 188.306 144.666 188.032 144.676C187.758 144.687 187.486 144.629 187.24 144.51Z" fill="#06033E"/>
<path opacity="0.4" d="M194.94 140.06L190.06 137.25C189.67 137.02 189.72 136.63 190.17 136.37L191.81 135.45C192.042 135.319 192.301 135.245 192.566 135.233C192.832 135.221 193.097 135.271 193.34 135.38L198.21 138.2C198.61 138.42 198.56 138.82 198.11 139.08L196.51 140C196.272 140.136 196.006 140.213 195.732 140.223C195.459 140.234 195.187 140.178 194.94 140.06Z" fill="#06033E"/>
<path opacity="0.4" d="M204.72 145.71L199.81 142.89C199.42 142.67 199.47 142.27 199.92 142.01L201.52 141.09C201.752 140.96 202.012 140.887 202.278 140.877C202.543 140.866 202.808 140.919 203.05 141.03L207.92 143.84C208.31 144.07 208.27 144.46 207.81 144.72L206.22 145.65C205.991 145.775 205.737 145.845 205.477 145.856C205.217 145.866 204.957 145.816 204.72 145.71Z" fill="#06033E"/>
<path opacity="0.4" d="M212.179 150.02L207.299 147.2C206.909 146.98 206.959 146.58 207.409 146.32L209.009 145.4C209.241 145.27 209.501 145.197 209.767 145.187C210.033 145.176 210.297 145.229 210.539 145.34L215.409 148.15C215.809 148.38 215.759 148.77 215.309 149.03L213.709 149.95C213.477 150.08 213.218 150.155 212.952 150.167C212.687 150.179 212.422 150.129 212.179 150.02Z" fill="#06033E"/>
<path opacity="0.4" d="M219.639 154.33L214.809 151.51C214.409 151.28 214.459 150.89 214.919 150.63L216.509 149.71C216.742 149.582 217.001 149.509 217.266 149.496C217.531 149.484 217.796 149.533 218.039 149.64L222.919 152.46C223.309 152.68 223.259 153.08 222.809 153.34L221.209 154.26C220.972 154.395 220.706 154.471 220.433 154.484C220.16 154.496 219.888 154.443 219.639 154.33Z" fill="#06033E"/>
<path opacity="0.4" d="M227.099 158.63L222.229 155.82C221.839 155.59 221.879 155.2 222.339 154.94L223.929 154.01C224.162 153.883 224.422 153.812 224.687 153.801C224.952 153.791 225.217 153.842 225.459 153.95L230.339 156.77C230.729 156.99 230.679 157.39 230.229 157.65L228.629 158.57C228.397 158.7 228.137 158.773 227.871 158.783C227.605 158.794 227.341 158.741 227.099 158.63Z" fill="#06033E"/>
<path opacity="0.4" d="M268.809 182.68L263.929 179.87C263.539 179.64 263.589 179.25 264.039 178.99L265.639 178.07C265.871 177.939 266.13 177.865 266.396 177.853C266.661 177.841 266.926 177.891 267.169 178L272.039 180.82C272.439 181.04 272.389 181.44 271.929 181.7L270.339 182.62C270.107 182.75 269.847 182.823 269.581 182.833C269.315 182.844 269.051 182.791 268.809 182.68Z" fill="#06033E"/>
<path opacity="0.4" d="M276.219 186.99L271.349 184.18C270.949 183.95 270.999 183.56 271.459 183.3L273.049 182.37C273.282 182.24 273.541 182.167 273.807 182.157C274.073 182.146 274.338 182.199 274.579 182.31L279.459 185.13C279.849 185.35 279.799 185.75 279.349 186.01L277.749 186.93C277.517 187.06 277.257 187.133 276.992 187.143C276.726 187.154 276.461 187.101 276.219 186.99Z" fill="#06033E"/>
<path opacity="0.4" d="M283.679 191.3L278.809 188.45C278.419 188.22 278.459 187.82 278.919 187.56L280.509 186.64C280.742 186.51 281.001 186.437 281.267 186.427C281.533 186.416 281.797 186.469 282.039 186.58L286.919 189.39C287.309 189.62 287.259 190.01 286.809 190.27L285.209 191.2C284.98 191.336 284.722 191.416 284.456 191.433C284.19 191.451 283.924 191.405 283.679 191.3Z" fill="#06033E"/>
<path opacity="0.4" d="M291.15 195.61L286.27 192.79C285.88 192.57 285.93 192.17 286.38 191.91L287.98 190.99C288.21 190.86 288.468 190.787 288.732 190.777C288.997 190.766 289.26 190.819 289.5 190.93L294.38 193.74C294.77 193.97 294.72 194.36 294.27 194.62L292.67 195.55C292.438 195.677 292.181 195.749 291.917 195.759C291.653 195.77 291.39 195.719 291.15 195.61Z" fill="#06033E"/>
<path opacity="0.4" d="M217.239 161.84L212.369 159.02C211.979 158.8 212.029 158.4 212.479 158.14L217.309 155.35C217.542 155.22 217.801 155.147 218.067 155.137C218.333 155.126 218.598 155.179 218.839 155.29L223.709 158.1C224.099 158.33 224.059 158.72 223.599 158.99L218.809 161.78C218.571 161.914 218.305 161.989 218.032 162C217.759 162.01 217.487 161.955 217.239 161.84Z" fill="#06033E"/>
<path opacity="0.4" d="M224.81 166.19L219.94 163.37C219.55 163.14 219.6 162.75 220.05 162.49L224.88 159.7C225.112 159.57 225.372 159.497 225.637 159.487C225.903 159.476 226.168 159.529 226.41 159.64L231.28 162.45C231.67 162.68 231.63 163.07 231.17 163.33L226.34 166.12C226.107 166.248 225.848 166.321 225.583 166.333C225.317 166.346 225.053 166.296 224.81 166.19Z" fill="#06033E"/>
<path opacity="0.4" d="M232.299 170.53L227.429 167.72C227.039 167.49 227.089 167.1 227.539 166.84L232.369 164.05C232.601 163.922 232.86 163.849 233.126 163.836C233.391 163.824 233.656 163.873 233.899 163.98L238.769 166.8C239.169 167.03 239.119 167.42 238.659 167.68L233.809 170.45C233.581 170.58 233.325 170.654 233.063 170.668C232.801 170.682 232.539 170.635 232.299 170.53Z" fill="#06033E"/>
<path opacity="0.4" d="M239.809 174.88L234.929 172.07C234.539 171.84 234.589 171.45 235.039 171.18L239.869 168.39C240.102 168.262 240.361 168.191 240.627 168.18C240.892 168.17 241.157 168.221 241.399 168.33L246.269 171.15C246.669 171.37 246.619 171.77 246.159 172.03L241.329 174.82C241.098 174.95 240.84 175.023 240.576 175.033C240.312 175.043 240.049 174.991 239.809 174.88Z" fill="#06033E"/>
<path opacity="0.4" d="M247.369 179.23L242.489 176.45C242.099 176.23 242.149 175.83 242.599 175.57L247.429 172.78C247.662 172.65 247.921 172.577 248.187 172.567C248.453 172.556 248.718 172.609 248.959 172.72L253.809 175.45C254.209 175.68 254.159 176.08 253.699 176.34L248.869 179.13C248.645 179.263 248.392 179.341 248.131 179.358C247.871 179.376 247.61 179.332 247.369 179.23Z" fill="#06033E"/>
<path opacity="0.4" d="M254.9 183.58L250.02 180.76C249.63 180.54 249.68 180.14 250.13 179.88L254.96 177.09C255.192 176.96 255.452 176.887 255.717 176.877C255.983 176.866 256.248 176.919 256.49 177.03L261.36 179.84C261.76 180.07 261.71 180.46 261.25 180.72L256.42 183.51C256.189 183.638 255.932 183.711 255.668 183.723C255.404 183.735 255.141 183.686 254.9 183.58Z" fill="#06033E"/>
<path opacity="0.4" d="M262.429 187.92L257.549 185.11C257.159 184.88 257.209 184.49 257.659 184.23L262.489 181.44C262.722 181.312 262.98 181.239 263.246 181.226C263.511 181.214 263.776 181.263 264.019 181.37L268.889 184.19C269.289 184.42 269.239 184.81 268.779 185.07L263.949 187.86C263.718 187.99 263.46 188.063 263.196 188.073C262.932 188.084 262.669 188.031 262.429 187.92Z" fill="#06033E"/>
<path opacity="0.4" d="M269.959 192.27L265.079 189.45C264.689 189.22 264.739 188.83 265.189 188.56L270.019 185.78C270.251 185.649 270.51 185.575 270.776 185.563C271.042 185.551 271.307 185.601 271.549 185.71L276.419 188.53C276.819 188.75 276.769 189.15 276.319 189.41L271.479 192.2C271.25 192.331 270.992 192.406 270.728 192.418C270.463 192.43 270.2 192.379 269.959 192.27Z" fill="#06033E"/>
<path opacity="0.4" d="M277.49 196.62L272.61 193.8C272.22 193.58 272.27 193.18 272.72 192.92L277.55 190.13C277.782 190 278.041 189.927 278.307 189.917C278.573 189.906 278.838 189.959 279.08 190.07L283.96 192.88C284.35 193.11 284.3 193.51 283.85 193.77L279.01 196.56C278.779 196.69 278.521 196.763 278.257 196.773C277.993 196.783 277.73 196.731 277.49 196.62Z" fill="#06033E"/>
<path opacity="0.4" d="M174.19 162.38L159.81 154.08C159.42 153.86 159.47 153.46 159.92 153.2L164.81 150.45C165.042 150.32 165.302 150.247 165.568 150.237C165.833 150.226 166.098 150.279 166.34 150.39L180.7 158.68C181.09 158.91 181.04 159.3 180.59 159.56L175.76 162.35C175.519 162.478 175.251 162.548 174.978 162.553C174.705 162.558 174.435 162.499 174.19 162.38Z" fill="#06033E"/>
<path opacity="0.4" d="M266.699 215.79L252.339 207.5C251.949 207.27 251.999 206.87 252.449 206.61L257.279 203.82C257.511 203.69 257.771 203.617 258.037 203.607C258.303 203.596 258.567 203.649 258.809 203.76L273.169 212.05C273.559 212.28 273.509 212.67 273.059 212.93L268.229 215.72C267.996 215.848 267.738 215.921 267.472 215.934C267.207 215.946 266.942 215.897 266.699 215.79Z" fill="#06033E"/>
<path opacity="0.4" d="M236.589 208L231.709 205.19C231.319 204.96 231.369 204.57 231.819 204.31L237.579 200.98C237.811 200.85 238.071 200.777 238.337 200.767C238.603 200.756 238.867 200.809 239.109 200.92L243.979 203.74C244.369 203.96 244.319 204.36 243.869 204.62L238.119 207.94C237.887 208.07 237.627 208.143 237.361 208.153C237.095 208.164 236.831 208.111 236.589 208Z" fill="#06033E"/>
<path opacity="0.4" d="M181.899 176.45L174.109 171.95C173.709 171.72 173.759 171.33 174.219 171.07L179.969 167.74C180.201 167.61 180.461 167.537 180.727 167.527C180.993 167.516 181.257 167.569 181.499 167.68L189.299 172.18C189.689 172.41 189.639 172.8 189.189 173.06L183.429 176.39C183.197 176.52 182.937 176.593 182.671 176.603C182.405 176.614 182.141 176.561 181.899 176.45Z" fill="#06033E"/>
<path opacity="0.4" d="M229.329 203.81L221.539 199.31C221.139 199.09 221.189 198.69 221.649 198.43L227.399 195.11C227.631 194.982 227.89 194.908 228.156 194.896C228.421 194.884 228.686 194.933 228.929 195.04L236.729 199.55C237.119 199.77 237.069 200.17 236.619 200.43L230.859 203.75C230.627 203.88 230.367 203.953 230.101 203.963C229.835 203.974 229.571 203.921 229.329 203.81Z" fill="#06033E"/>
<path opacity="0.4" d="M192.809 182.7L185.009 178.2C184.619 177.98 184.669 177.58 185.119 177.32L190.879 174C191.11 173.872 191.367 173.799 191.631 173.786C191.894 173.774 192.157 173.823 192.399 173.93L200.199 178.44C200.589 178.66 200.539 179.06 200.089 179.32L194.339 182.64C194.107 182.77 193.847 182.843 193.581 182.853C193.315 182.863 193.051 182.811 192.809 182.7Z" fill="#06033E"/>
<path opacity="0.4" d="M192.42 173.96L226.32 193.54C226.414 193.569 226.496 193.627 226.555 193.706C226.614 193.785 226.645 193.881 226.645 193.98C226.645 194.079 226.614 194.174 226.555 194.254C226.496 194.333 226.414 194.391 226.32 194.42L220.45 197.81C220.214 197.929 219.953 197.99 219.69 197.99C219.426 197.99 219.165 197.929 218.93 197.81L185.02 178.23L192.42 173.96Z" fill="#06033E"/>
<path opacity="0.4" d="M257.64 215.89L263.07 219.02C263.39 219.21 263.35 219.53 262.98 219.74L260.62 221.1C260.431 221.207 260.219 221.268 260.002 221.279C259.785 221.289 259.568 221.248 259.37 221.16L253.94 218.02C253.62 217.84 253.66 217.51 254.03 217.3L256.38 215.94C256.57 215.831 256.784 215.77 257.004 215.761C257.223 215.753 257.441 215.797 257.64 215.89Z" fill="#06033E"/>
<path opacity="0.4" d="M250.039 211.5L255.469 214.64C255.789 214.82 255.749 215.15 255.379 215.36L253.029 216.72C252.839 216.826 252.627 216.886 252.41 216.895C252.193 216.903 251.976 216.861 251.779 216.77L246.349 213.64C246.029 213.45 246.069 213.13 246.439 212.91L248.809 211.55C248.997 211.45 249.205 211.393 249.418 211.385C249.631 211.376 249.843 211.415 250.039 211.5Z" fill="#06033E"/>
<path opacity="0.4" d="M242.509 207.15L247.939 210.29C248.259 210.48 248.219 210.8 247.849 211.01L245.499 212.37C245.31 212.478 245.098 212.54 244.88 212.548C244.662 212.557 244.446 212.513 244.249 212.42L238.809 209.29C238.479 209.1 238.529 208.78 238.899 208.57L241.249 207.21C241.439 207.101 241.653 207.039 241.872 207.029C242.091 207.018 242.309 207.06 242.509 207.15Z" fill="#06033E"/>
<path opacity="0.4" d="M254.199 209.1L259.629 212.24C259.949 212.42 259.909 212.75 259.539 212.96L257.189 214.32C257 214.426 256.787 214.486 256.57 214.495C256.353 214.503 256.137 214.461 255.939 214.37L250.499 211.24C250.179 211.05 250.219 210.73 250.589 210.51L252.949 209.15C253.14 209.047 253.352 208.989 253.568 208.98C253.785 208.971 254.001 209.012 254.199 209.1Z" fill="#06033E"/>
</g>
<path d="M333.898 200.31L190.028 117.25C188.886 116.503 188.014 115.409 187.54 114.129C187.067 112.849 187.017 111.45 187.398 110.14L219.928 4.5099C220.738 1.8899 223.218 0.819904 225.488 2.1299L369.348 85.1899C370.491 85.9358 371.364 87.0298 371.838 88.3102C372.312 89.5906 372.361 90.9895 371.978 92.2999L339.448 197.93C338.648 200.55 336.158 201.61 333.898 200.31Z" fill="url(#paint7_radial)"/>
<path d="M332.539 196.61L192.999 115.98C191.908 115.264 191.074 114.218 190.621 112.994C190.168 111.771 190.118 110.434 190.479 109.18L221.579 8.17997C221.698 7.62578 221.948 7.10824 222.309 6.67088C222.669 6.23353 223.13 5.88915 223.651 5.6667C224.172 5.44425 224.739 5.35025 225.305 5.39258C225.87 5.43491 226.417 5.61234 226.899 5.90997L366.439 86.55C367.531 87.2646 368.366 88.3108 368.819 89.5348C369.273 90.7588 369.322 92.096 368.959 93.35L337.859 194.35C337.079 196.84 334.699 197.86 332.539 196.61Z" fill="url(#paint8_linear)"/>
<path opacity="0.4" d="M332.539 196.61L192.999 115.98C191.908 115.264 191.074 114.218 190.621 112.994C190.168 111.771 190.118 110.434 190.479 109.18L221.579 8.17997C221.698 7.62578 221.948 7.10824 222.309 6.67088C222.669 6.23353 223.13 5.88915 223.651 5.6667C224.172 5.44425 224.739 5.35025 225.305 5.39258C225.87 5.43491 226.417 5.61234 226.899 5.90997L366.439 86.55C367.531 87.2646 368.366 88.3108 368.819 89.5348C369.273 90.7588 369.322 92.096 368.959 93.35L337.859 194.35C337.079 196.84 334.699 197.86 332.539 196.61Z" fill="#06033E"/>
<path opacity="0.4" d="M332.539 196.61L192.999 115.98C191.908 115.264 191.074 114.218 190.621 112.994C190.168 111.771 190.118 110.434 190.479 109.18L221.579 8.17997C221.698 7.62578 221.948 7.10824 222.309 6.67088C222.669 6.23353 223.13 5.88915 223.651 5.6667C224.172 5.44425 224.739 5.35025 225.305 5.39258C225.87 5.43491 226.417 5.61234 226.899 5.90997L366.439 86.55C367.531 87.2646 368.366 88.3108 368.819 89.5348C369.273 90.7588 369.322 92.096 368.959 93.35L337.859 194.35C337.079 196.84 334.699 197.86 332.539 196.61Z" fill="#06033E"/>
<path opacity="0.5" d="M325.039 165.75L230.579 111.21C229.829 110.719 229.256 110 228.945 109.16C228.633 108.319 228.6 107.401 228.849 106.54L250.209 37.1899C250.291 36.81 250.463 36.4552 250.71 36.1552C250.957 35.8551 251.272 35.6184 251.629 35.4648C251.986 35.3112 252.375 35.2451 252.763 35.2721C253.151 35.2991 253.526 35.4183 253.859 35.6199L348.319 90.1599C349.07 90.6498 349.644 91.3682 349.955 92.2091C350.267 93.0501 350.299 93.9689 350.049 94.8299L328.689 164.19C328.607 164.57 328.436 164.925 328.188 165.226C327.941 165.526 327.625 165.762 327.268 165.915C326.91 166.068 326.521 166.133 326.133 166.104C325.745 166.075 325.37 165.954 325.039 165.75Z" fill="#06033E"/>
<path d="M312.278 167.45L217.808 112.88C217.058 112.392 216.484 111.675 216.173 110.836C215.861 109.997 215.828 109.08 216.078 108.22L237.438 38.86C237.517 38.4784 237.688 38.1217 237.935 37.8201C238.182 37.5186 238.498 37.2811 238.856 37.128C239.215 36.9748 239.605 36.9104 239.993 36.9404C240.382 36.9703 240.757 37.0937 241.088 37.2999L335.548 91.83C336.298 92.3209 336.871 93.0395 337.182 93.88C337.494 94.7206 337.527 95.6389 337.278 96.5L315.918 165.86C315.842 166.243 315.674 166.601 315.43 166.905C315.185 167.209 314.871 167.449 314.513 167.605C314.156 167.762 313.766 167.829 313.377 167.802C312.987 167.775 312.61 167.654 312.278 167.45Z" fill="url(#paint9_radial)"/>
<g opacity="0.5">
<path opacity="0.5" d="M312.278 167.45L217.808 112.88C217.058 112.392 216.484 111.675 216.173 110.836C215.861 109.997 215.828 109.08 216.078 108.22L237.438 38.86C237.517 38.4784 237.688 38.1217 237.935 37.8201C238.182 37.5186 238.498 37.2811 238.856 37.128C239.215 36.9748 239.605 36.9104 239.993 36.9404C240.382 36.9703 240.757 37.0937 241.088 37.2999L335.548 91.83C336.298 92.3209 336.871 93.0395 337.182 93.88C337.494 94.7206 337.527 95.6389 337.278 96.5L315.918 165.86C315.842 166.243 315.674 166.601 315.43 166.905C315.185 167.209 314.871 167.449 314.513 167.605C314.156 167.762 313.766 167.829 313.377 167.802C312.987 167.775 312.61 167.654 312.278 167.45Z" fill="#06033E"/>
</g>
<path d="M335.558 91.83L241.098 37.3C240.698 37.0456 240.229 36.9182 239.755 36.9342C239.28 36.9503 238.821 37.1091 238.438 37.39C238.916 37.3776 239.387 37.4988 239.798 37.74L334.258 92.27C335.009 92.7607 335.583 93.4787 335.896 94.319C336.209 95.1593 336.245 96.0778 335.998 96.94L314.628 166.3C314.462 166.885 314.112 167.401 313.628 167.77C314.164 167.738 314.676 167.536 315.088 167.192C315.5 166.848 315.791 166.381 315.918 165.86L337.278 96.5C337.529 95.6399 337.496 94.7224 337.187 93.8819C336.877 93.0415 336.307 92.3223 335.558 91.83Z" fill="white"/>
<path opacity="0.4" d="M193.138 224.06C191.92 224.09 190.716 223.808 189.638 223.24L151.808 201.39C151.363 201.177 150.983 200.849 150.709 200.439C150.434 200.029 150.275 199.553 150.248 199.06C150.312 198.437 150.539 197.843 150.906 197.335C151.273 196.828 151.767 196.426 152.338 196.17L171.808 184.92C173.02 184.232 174.378 183.845 175.77 183.791C177.162 183.737 178.547 184.018 179.808 184.61L217.608 206.45C218.054 206.661 218.435 206.989 218.71 207.399C218.985 207.81 219.143 208.287 219.168 208.78C219.104 209.403 218.877 209.997 218.51 210.505C218.143 211.012 217.649 211.414 217.078 211.67L197.598 222.92C196.234 223.677 194.698 224.07 193.138 224.06ZM176.288 184.9C174.915 184.899 173.564 185.242 172.358 185.9L152.878 197.15C151.878 197.72 151.338 198.43 151.338 199.1C151.369 199.398 151.477 199.682 151.653 199.924C151.828 200.167 152.065 200.358 152.338 200.48L190.178 222.33C191.268 222.808 192.454 223.03 193.643 222.978C194.832 222.926 195.994 222.601 197.038 222.03L216.528 210.78C217.528 210.21 218.068 209.5 218.068 208.78C218.036 208.483 217.926 208.199 217.751 207.957C217.576 207.715 217.34 207.523 217.068 207.4L179.218 185.55C178.313 185.086 177.304 184.862 176.288 184.9Z" fill="#06033E"/>
<path d="M264.109 73.69L258.269 70.31C257.993 70.1381 257.781 69.8814 257.664 69.5784C257.546 69.2754 257.531 68.9426 257.619 68.63C257.648 68.4936 257.71 68.3665 257.8 68.2595C257.889 68.1524 258.003 68.0687 258.132 68.0156C258.261 67.9625 258.401 67.9414 258.54 67.9544C258.678 67.9674 258.812 68.0139 258.929 68.09L264.809 71.45C265.081 71.6252 265.29 71.8823 265.407 72.1842C265.524 72.486 265.542 72.8172 265.459 73.13C265.433 73.2729 265.371 73.4071 265.28 73.5202C265.189 73.6334 265.071 73.7218 264.936 73.7775C264.802 73.8332 264.656 73.8544 264.511 73.8391C264.367 73.8238 264.228 73.7725 264.109 73.69Z" fill="white"/>
<path d="M278.019 81.7199L269.409 76.7199C269.134 76.5469 268.923 76.29 268.806 75.9874C268.689 75.6848 268.672 75.3526 268.759 75.0399C268.787 74.9027 268.848 74.7744 268.937 74.6662C269.025 74.558 269.139 74.4731 269.268 74.4189C269.398 74.3647 269.538 74.3428 269.677 74.3552C269.817 74.3676 269.951 74.4138 270.069 74.4899L278.679 79.4899C278.951 79.6651 279.16 79.9222 279.277 80.2241C279.394 80.526 279.412 80.8571 279.329 81.1699C279.301 81.3071 279.24 81.4353 279.151 81.5436C279.062 81.6518 278.948 81.7367 278.819 81.7909C278.69 81.8451 278.55 81.867 278.41 81.8546C278.271 81.8422 278.136 81.796 278.019 81.7199Z" fill="white"/>
<path d="M252.329 99.69L246.489 96.31C246.217 96.1347 246.007 95.8776 245.89 95.5758C245.773 95.2739 245.755 94.9427 245.839 94.63C245.868 94.4936 245.93 94.3665 246.019 94.2595C246.109 94.1524 246.223 94.0687 246.352 94.0156C246.481 93.9625 246.621 93.9414 246.759 93.9544C246.898 93.9674 247.032 94.0139 247.149 94.09L252.989 97.46C253.261 97.6352 253.47 97.8923 253.587 98.1942C253.704 98.496 253.722 98.8272 253.639 99.14C253.609 99.2759 253.546 99.4026 253.457 99.5094C253.368 99.6163 253.254 99.7002 253.126 99.754C252.998 99.8079 252.858 99.8302 252.72 99.8191C252.581 99.8079 252.447 99.7637 252.329 99.69Z" fill="white"/>
<path d="M264.729 106.84L256.119 101.84C255.844 101.667 255.633 101.41 255.516 101.108C255.399 100.805 255.382 100.473 255.469 100.16C255.498 100.024 255.56 99.8965 255.649 99.7895C255.739 99.6824 255.853 99.5987 255.982 99.5456C256.111 99.4925 256.251 99.4715 256.389 99.4844C256.528 99.4974 256.662 99.5439 256.779 99.62L265.389 104.62C265.661 104.795 265.87 105.052 265.987 105.354C266.104 105.656 266.122 105.987 266.039 106.3C266.009 106.436 265.947 106.563 265.858 106.67C265.769 106.778 265.655 106.861 265.526 106.914C265.397 106.967 265.257 106.988 265.118 106.976C264.979 106.963 264.846 106.916 264.729 106.84Z" fill="white"/>
<path d="M246.609 69.05L242.959 66.95C242.688 66.7736 242.479 66.5165 242.363 66.2149C242.246 65.9134 242.227 65.5828 242.309 65.27C242.338 65.1326 242.401 65.0043 242.49 64.8963C242.58 64.7882 242.695 64.7035 242.825 64.6494C242.955 64.5954 243.095 64.5736 243.235 64.5859C243.376 64.5981 243.51 64.6442 243.629 64.72L247.279 66.83C247.551 67.0044 247.761 67.2619 247.876 67.5644C247.991 67.8668 248.006 68.1983 247.919 68.51C247.889 68.6463 247.827 68.7735 247.738 68.8805C247.649 68.9875 247.535 69.0712 247.406 69.1244C247.277 69.1775 247.137 69.1985 246.998 69.1855C246.859 69.1726 246.726 69.1261 246.609 69.05Z" fill="white"/>
<path d="M257.589 80.86L246.439 74.45C246.167 74.2747 245.957 74.0177 245.84 73.7158C245.724 73.4139 245.706 73.0828 245.789 72.77C245.82 72.6335 245.883 72.5063 245.973 72.3995C246.064 72.2926 246.179 72.2091 246.308 72.1561C246.438 72.1031 246.578 72.0821 246.718 72.095C246.857 72.1079 246.991 72.1542 247.109 72.23L258.249 78.66C258.522 78.8342 258.733 79.0911 258.85 79.3934C258.966 79.6956 258.984 80.0273 258.899 80.34C258.865 80.4733 258.8 80.5967 258.709 80.7001C258.618 80.8034 258.504 80.8837 258.377 80.9345C258.249 80.9852 258.111 81.0049 257.974 80.992C257.837 80.979 257.705 80.9338 257.589 80.86Z" fill="white"/>
<path d="M247.309 85.8499L243.659 83.7499C243.388 83.5736 243.179 83.3164 243.063 83.0149C242.946 82.7133 242.927 82.3827 243.009 82.0699C243.037 81.9327 243.098 81.8044 243.187 81.6962C243.276 81.588 243.39 81.5031 243.519 81.4489C243.648 81.3947 243.788 81.3728 243.928 81.3852C244.067 81.3976 244.201 81.4438 244.319 81.5199L247.969 83.6299C248.241 83.8052 248.451 84.0622 248.567 84.3641C248.684 84.666 248.702 84.9971 248.619 85.3099C248.59 85.4462 248.528 85.5734 248.438 85.6804C248.349 85.7875 248.235 85.8711 248.106 85.9243C247.977 85.9774 247.837 85.9984 247.698 85.9855C247.559 85.9725 247.426 85.926 247.309 85.8499Z" fill="white"/>
<path d="M266.068 118.55L256.328 112.93C256.056 112.755 255.847 112.498 255.73 112.196C255.613 111.894 255.595 111.563 255.678 111.25C255.706 111.113 255.768 110.984 255.856 110.876C255.945 110.768 256.059 110.683 256.188 110.629C256.317 110.575 256.458 110.553 256.597 110.565C256.737 110.578 256.871 110.624 256.988 110.7L266.738 116.33C267.011 116.505 267.22 116.762 267.337 117.064C267.454 117.366 267.472 117.697 267.388 118.01C267.358 118.147 267.294 118.274 267.204 118.381C267.114 118.487 266.999 118.571 266.869 118.624C266.74 118.677 266.599 118.698 266.46 118.685C266.32 118.672 266.186 118.626 266.068 118.55Z" fill="white"/>
<path d="M243.219 94.45L240.879 93.09C240.607 92.9164 240.398 92.6611 240.281 92.361C240.164 92.0608 240.146 91.7313 240.229 91.42C240.257 91.2828 240.318 91.1545 240.406 91.0463C240.495 90.9381 240.609 90.8532 240.738 90.799C240.867 90.7448 241.008 90.7229 241.147 90.7353C241.287 90.7477 241.421 90.7939 241.539 90.87L243.879 92.22C244.154 92.3919 244.367 92.6486 244.484 92.9516C244.601 93.2545 244.617 93.5874 244.529 93.9C244.498 94.0359 244.436 94.1626 244.347 94.2695C244.258 94.3763 244.144 94.4602 244.016 94.5141C243.888 94.568 243.748 94.5903 243.609 94.5791C243.471 94.568 243.337 94.5237 243.219 94.45Z" fill="white"/>
<path d="M240.999 104.08L238.099 102.4C237.823 102.228 237.611 101.971 237.494 101.668C237.376 101.365 237.361 101.033 237.449 100.72C237.478 100.584 237.54 100.456 237.63 100.349C237.719 100.242 237.833 100.159 237.962 100.106C238.091 100.052 238.231 100.031 238.37 100.044C238.508 100.057 238.642 100.104 238.759 100.18L241.669 101.85C241.94 102.026 242.149 102.283 242.265 102.585C242.382 102.887 242.401 103.217 242.319 103.53C242.289 103.667 242.227 103.796 242.137 103.904C242.047 104.012 241.933 104.096 241.803 104.15C241.673 104.205 241.532 104.226 241.392 104.214C241.252 104.202 241.117 104.156 240.999 104.08Z" fill="white"/>
<path d="M252.319 110.61L244.649 106.19C244.378 106.014 244.17 105.756 244.053 105.455C243.936 105.153 243.918 104.823 243.999 104.51C244.027 104.373 244.088 104.245 244.177 104.136C244.266 104.028 244.38 103.943 244.509 103.889C244.638 103.835 244.778 103.813 244.918 103.825C245.057 103.838 245.192 103.884 245.309 103.96L252.979 108.39C253.251 108.565 253.461 108.822 253.578 109.124C253.694 109.426 253.713 109.757 253.629 110.07C253.6 110.206 253.538 110.333 253.449 110.44C253.359 110.548 253.245 110.631 253.116 110.684C252.987 110.737 252.847 110.758 252.709 110.746C252.57 110.733 252.436 110.686 252.319 110.61Z" fill="white"/>
<path d="M242.218 110.25L236.698 107.06C236.427 106.887 236.218 106.632 236.102 106.331C235.987 106.03 235.972 105.7 236.058 105.39C236.086 105.253 236.147 105.125 236.236 105.016C236.325 104.908 236.439 104.823 236.568 104.769C236.697 104.715 236.838 104.693 236.977 104.705C237.117 104.718 237.251 104.764 237.368 104.84L242.878 108.02C243.151 108.195 243.36 108.452 243.477 108.754C243.594 109.056 243.612 109.387 243.528 109.7C243.5 109.837 243.439 109.965 243.35 110.074C243.262 110.182 243.148 110.267 243.019 110.321C242.89 110.375 242.749 110.397 242.61 110.385C242.47 110.372 242.336 110.326 242.218 110.25Z" fill="white"/>
<path d="M274.429 123.45L270.889 121.45C270.617 121.275 270.407 121.018 270.291 120.716C270.174 120.414 270.156 120.083 270.239 119.77C270.271 119.634 270.334 119.507 270.424 119.4C270.515 119.294 270.629 119.21 270.758 119.156C270.887 119.102 271.027 119.08 271.166 119.091C271.305 119.102 271.44 119.146 271.559 119.22L275.099 121.22C275.371 121.395 275.581 121.652 275.697 121.954C275.814 122.256 275.832 122.587 275.749 122.9C275.72 123.037 275.657 123.166 275.567 123.274C275.477 123.382 275.363 123.466 275.233 123.521C275.103 123.575 274.962 123.596 274.822 123.584C274.682 123.572 274.547 123.526 274.429 123.45Z" fill="white"/>
<path d="M260.878 93.69L251.138 88.06C250.862 87.8881 250.65 87.6314 250.533 87.3284C250.415 87.0254 250.4 86.6926 250.488 86.38C250.517 86.2436 250.579 86.1165 250.669 86.0095C250.758 85.9024 250.872 85.8187 251.001 85.7656C251.13 85.7125 251.27 85.6914 251.409 85.7044C251.548 85.7174 251.681 85.7639 251.798 85.84L261.538 91.46C261.811 91.6341 262.022 91.8911 262.139 92.1933C262.256 92.4955 262.273 92.8272 262.188 93.14C262.16 93.2772 262.099 93.4054 262.01 93.5137C261.921 93.6219 261.807 93.7068 261.678 93.761C261.549 93.8152 261.409 93.8371 261.269 93.8247C261.13 93.8123 260.996 93.7661 260.878 93.69Z" fill="white"/>
<path d="M262.029 88.89L245.029 79.08C244.758 78.9064 244.548 78.6511 244.432 78.351C244.315 78.0508 244.296 77.7213 244.379 77.41C244.408 77.2726 244.471 77.1443 244.561 77.0363C244.65 76.9282 244.765 76.8435 244.895 76.7894C245.025 76.7354 245.166 76.7136 245.306 76.7259C245.446 76.7382 245.581 76.7842 245.699 76.86L262.699 86.66C262.97 86.8364 263.179 87.0935 263.295 87.3951C263.412 87.6966 263.431 88.0272 263.349 88.34C263.319 88.4774 263.257 88.6057 263.167 88.7137C263.077 88.8218 262.963 88.9065 262.833 88.9605C262.703 89.0146 262.562 89.0364 262.422 89.0241C262.282 89.0119 262.147 88.9658 262.029 88.89Z" fill="#3CB9FC"/>
<path d="M252.008 94.04L242.268 88.45C241.996 88.2747 241.786 88.0176 241.669 87.7158C241.553 87.4139 241.535 87.0828 241.618 86.77C241.647 86.6336 241.709 86.5065 241.799 86.3995C241.888 86.2924 242.002 86.2087 242.131 86.1556C242.26 86.1025 242.4 86.0815 242.539 86.0944C242.677 86.1074 242.811 86.1539 242.928 86.23L252.678 91.85C252.95 92.0252 253.16 92.2823 253.276 92.5842C253.393 92.886 253.411 93.2172 253.328 93.53C253.291 93.6627 253.224 93.785 253.132 93.8871C253.04 93.9891 252.925 94.0682 252.797 94.1178C252.668 94.1673 252.53 94.1861 252.393 94.1726C252.256 94.1591 252.124 94.1137 252.008 94.04Z" fill="#3CB9FC"/>
<path d="M268.269 97.96L264.729 95.96C264.457 95.7847 264.247 95.5277 264.13 95.2258C264.014 94.9239 263.996 94.5928 264.079 94.28C264.108 94.1437 264.17 94.0165 264.26 93.9095C264.349 93.8024 264.463 93.7188 264.592 93.6656C264.721 93.6125 264.861 93.5915 265 93.6044C265.138 93.6174 265.272 93.6639 265.389 93.74L268.929 95.74C269.205 95.9119 269.417 96.1686 269.534 96.4715C269.651 96.7745 269.667 97.1073 269.579 97.42C269.547 97.555 269.484 97.6806 269.395 97.7863C269.305 97.892 269.191 97.9746 269.063 98.0275C268.935 98.0803 268.796 98.1017 268.658 98.09C268.52 98.0783 268.386 98.0337 268.269 97.96Z" fill="#3CB9FC"/>
<path d="M304.279 96.8799L283.279 84.7799C283.004 84.6069 282.793 84.3501 282.676 84.0475C282.559 83.7449 282.542 83.4126 282.629 83.0999C282.657 82.9628 282.718 82.8345 282.807 82.7263C282.896 82.618 283.01 82.5331 283.139 82.4789C283.268 82.4247 283.408 82.4029 283.548 82.4152C283.687 82.4276 283.821 82.4739 283.939 82.55L304.939 94.6499C305.213 94.823 305.425 95.0798 305.542 95.3824C305.659 95.685 305.675 96.0173 305.589 96.33C305.561 96.4671 305.5 96.5954 305.411 96.7036C305.322 96.8119 305.208 96.8968 305.079 96.951C304.95 97.0052 304.81 97.027 304.67 97.0147C304.531 97.0023 304.396 96.956 304.279 96.8799Z" fill="#3CB9FC"/>
<path d="M251.198 104.5L239.488 97.7399C239.215 97.5657 239.004 97.3088 238.888 97.0066C238.771 96.7043 238.753 96.3726 238.838 96.0599C238.866 95.9227 238.927 95.7944 239.016 95.6862C239.105 95.578 239.219 95.4931 239.348 95.4389C239.477 95.3847 239.617 95.3628 239.757 95.3752C239.896 95.3876 240.031 95.4338 240.148 95.5099L251.858 102.27C252.133 102.443 252.344 102.7 252.461 103.002C252.578 103.305 252.595 103.637 252.508 103.95C252.48 104.087 252.419 104.215 252.33 104.324C252.242 104.432 252.128 104.517 251.999 104.571C251.869 104.625 251.729 104.647 251.59 104.635C251.45 104.622 251.316 104.576 251.198 104.5Z" fill="#F8359E"/>
<path d="M252.969 67.2499L244.349 62.2499C244.076 62.0754 243.867 61.818 243.751 61.5155C243.636 61.213 243.621 60.8815 243.709 60.5699C243.738 60.4336 243.8 60.3064 243.889 60.1994C243.979 60.0924 244.093 60.0087 244.222 59.9555C244.35 59.9024 244.49 59.8814 244.629 59.8943C244.768 59.9073 244.902 59.9538 245.019 60.0299L253.629 65.0299C253.901 65.2052 254.11 65.4622 254.227 65.7641C254.344 66.066 254.362 66.3971 254.279 66.7099C254.249 66.8462 254.187 66.9734 254.098 67.0804C254.008 67.1874 253.894 67.2711 253.765 67.3243C253.637 67.3774 253.497 67.3984 253.358 67.3854C253.219 67.3725 253.085 67.326 252.969 67.2499Z" fill="#F8359E"/>
<path d="M240.419 114.67L230.419 108.92C230.148 108.744 229.939 108.486 229.823 108.185C229.706 107.883 229.687 107.553 229.769 107.24C229.798 107.103 229.861 106.974 229.95 106.866C230.04 106.758 230.155 106.673 230.285 106.619C230.415 106.565 230.555 106.544 230.695 106.556C230.835 106.568 230.97 106.614 231.089 106.69L241.089 112.45C241.361 112.625 241.57 112.882 241.687 113.184C241.804 113.486 241.822 113.817 241.739 114.13C241.71 114.268 241.648 114.397 241.558 114.505C241.468 114.613 241.353 114.698 241.222 114.751C241.092 114.804 240.951 114.825 240.81 114.811C240.67 114.797 240.536 114.748 240.419 114.67Z" fill="#3CB9FC"/>
<path d="M306.629 86.1L302.369 83.63C302.168 83.505 302.013 83.319 301.927 83.0993C301.841 82.8796 301.827 82.6379 301.889 82.41C301.906 82.3032 301.951 82.2028 302.019 82.1185C302.087 82.0342 302.176 81.9688 302.276 81.9286C302.377 81.8884 302.486 81.8748 302.593 81.889C302.7 81.9033 302.802 81.9449 302.889 82.01L307.159 84.47C307.357 84.5991 307.509 84.7877 307.593 85.0086C307.678 85.2296 307.69 85.4716 307.629 85.7C307.611 85.8067 307.566 85.9071 307.498 85.9914C307.43 86.0757 307.342 86.1411 307.241 86.1813C307.141 86.2215 307.031 86.2352 306.924 86.2209C306.817 86.2067 306.715 86.165 306.629 86.1Z" fill="white"/>
<path d="M314.809 90.7999L310.539 88.3399C310.339 88.2122 310.184 88.0243 310.098 87.8032C310.012 87.5821 309.998 87.3394 310.059 87.1099C310.076 87.0032 310.121 86.9028 310.189 86.8185C310.257 86.7342 310.346 86.6688 310.446 86.6286C310.547 86.5884 310.656 86.5747 310.763 86.589C310.87 86.6032 310.972 86.6449 311.059 86.7099L315.329 89.1699C315.529 89.2977 315.683 89.4856 315.769 89.7067C315.855 89.9277 315.869 90.1705 315.809 90.3999C315.791 90.5067 315.746 90.6071 315.678 90.6914C315.61 90.7757 315.522 90.8411 315.421 90.8813C315.321 90.9215 315.212 90.9351 315.104 90.9209C314.997 90.9066 314.895 90.865 314.809 90.7999Z" fill="white"/>
<path d="M322.919 95.5L318.649 93.04C318.448 92.9131 318.294 92.7248 318.209 92.5031C318.124 92.2814 318.114 92.0383 318.179 91.81C318.198 91.7099 318.242 91.6162 318.306 91.537C318.37 91.4579 318.453 91.3958 318.547 91.3562C318.641 91.3167 318.743 91.3009 318.844 91.3102C318.946 91.3196 319.043 91.3539 319.129 91.41L323.399 93.87C323.599 93.9977 323.753 94.1857 323.839 94.4067C323.925 94.6278 323.939 94.8706 323.879 95.1C323.858 95.2003 323.813 95.294 323.747 95.373C323.682 95.4519 323.599 95.5138 323.504 95.5532C323.41 95.5926 323.307 95.6084 323.205 95.5991C323.103 95.5898 323.004 95.5558 322.919 95.5Z" fill="white"/>
<path d="M326.918 97.8099L326.788 97.7399C326.59 97.6108 326.438 97.4223 326.353 97.2013C326.269 96.9803 326.256 96.7383 326.318 96.5099C326.336 96.4032 326.381 96.3028 326.449 96.2185C326.516 96.1342 326.605 96.0688 326.705 96.0286C326.806 95.9884 326.915 95.9748 327.022 95.989C327.13 96.0033 327.231 96.0449 327.318 96.1099L327.448 96.19C327.644 96.3185 327.795 96.5054 327.879 96.7243C327.964 96.9431 327.977 97.183 327.918 97.41C327.9 97.5167 327.855 97.6171 327.787 97.7014C327.719 97.7857 327.631 97.8511 327.53 97.8913C327.43 97.9315 327.321 97.9451 327.214 97.9309C327.106 97.9166 327.004 97.875 326.918 97.8099Z" fill="#F8359E"/>
<path d="M106.608 147.77C103.863 147.77 101.167 147.05 98.7879 145.68L70.1979 129.17C69.6056 128.815 69.1154 128.312 68.7751 127.711C68.4347 127.11 68.2559 126.431 68.2559 125.74C68.2559 125.049 68.4347 124.37 68.7751 123.769C69.1154 123.168 69.6056 122.665 70.1979 122.31L98.8079 105.81C101.184 104.439 103.879 103.718 106.623 103.718C109.366 103.718 112.062 104.439 114.438 105.81L143.028 122.32C143.633 122.664 144.136 123.162 144.486 123.764C144.836 124.365 145.02 125.049 145.02 125.745C145.02 126.441 144.836 127.125 144.486 127.726C144.136 128.328 143.633 128.826 143.028 129.17L114.438 145.68C112.057 147.053 109.356 147.774 106.608 147.77ZM99.7179 144.07C101.813 145.274 104.187 145.907 106.603 145.907C109.019 145.907 111.393 145.274 113.488 144.07L142.078 127.56C142.398 127.377 142.664 127.113 142.849 126.794C143.034 126.476 143.132 126.114 143.132 125.745C143.132 125.376 143.034 125.014 142.849 124.696C142.664 124.377 142.398 124.113 142.078 123.93L113.488 107.45C111.394 106.243 109.02 105.608 106.603 105.608C104.186 105.608 101.812 106.243 99.7179 107.45L71.1279 123.96C70.8078 124.143 70.5418 124.407 70.3567 124.726C70.1717 125.044 70.0742 125.406 70.0742 125.775C70.0742 126.144 70.1717 126.506 70.3567 126.824C70.5418 127.143 70.8078 127.407 71.1279 127.59L99.7179 144.07Z" fill="url(#paint10_linear)"/>
<defs>
<linearGradient id="paint0_linear" x1="405.863" y1="237.857" x2="432.789" y2="256.486" gradientUnits="userSpaceOnUse">
<stop offset="0.197917" stop-color="#8A2BE2"/>
<stop offset="1" stop-color="#3CB9FC"/>
</linearGradient>
<linearGradient id="paint1_linear" x1="361.221" y1="190.232" x2="405.915" y2="221.704" gradientUnits="userSpaceOnUse">
<stop offset="0.197917" stop-color="#8A2BE2"/>
<stop offset="1" stop-color="#3CB9FC"/>
</linearGradient>
<linearGradient id="paint2_linear" x1="-3.61647e-08" y1="208.586" x2="44.6994" y2="240.05" gradientUnits="userSpaceOnUse">
<stop offset="0.197917" stop-color="#8A2BE2"/>
<stop offset="1" stop-color="#3CB9FC"/>
</linearGradient>
<linearGradient id="paint3_linear" x1="63.8086" y1="172.46" x2="303.791" y2="339.889" gradientUnits="userSpaceOnUse">
<stop offset="0.197917" stop-color="#8A2BE2"/>
<stop offset="1" stop-color="#3CB9FC"/>
</linearGradient>
<radialGradient id="paint4_radial" cx="0" cy="0" r="1" gradientUnits="userSpaceOnUse" gradientTransform="translate(225.258 -3.94005) scale(223.3)">
<stop stop-color="#6507FA"/>
<stop offset="0.166667" stop-color="#891CFB"/>
<stop offset="0.598958" stop-color="#A92FFB"/>
<stop offset="0.760417" stop-color="#3CB9FC"/>
</radialGradient>
<radialGradient id="paint5_radial" cx="0" cy="0" r="1" gradientUnits="userSpaceOnUse" gradientTransform="translate(88.6789 175.38) scale(244.17)">
<stop stop-color="#6507FA"/>
<stop offset="0.421875" stop-color="#891CFB"/>
<stop offset="0.551983" stop-color="#B537F2"/>
<stop offset="0.552083" stop-color="#A92FFB"/>
<stop offset="0.989583" stop-color="#3CB9FC"/>
</radialGradient>
<radialGradient id="paint6_radial" cx="0" cy="0" r="1" gradientUnits="userSpaceOnUse" gradientTransform="translate(111.139 126.37) scale(218.96)">
<stop stop-color="#3919BB"/>
<stop offset="0.640625" stop-color="#A92FFB"/>
<stop offset="1" stop-color="#3CB9FC"/>
</radialGradient>
<radialGradient id="paint7_radial" cx="0" cy="0" r="1" gradientUnits="userSpaceOnUse" gradientTransform="translate(44771.3 21362) scale(41337.7 44510.4)">
<stop stop-color="#E39A65"/>
<stop offset="0.47" stop-color="#A92FFB"/>
<stop offset="0.59" stop-color="#891CFB"/>
<stop offset="0.73" stop-color="#6507FA"/>
<stop offset="1" stop-color="#3919BB"/>
</radialGradient>
<linearGradient id="paint8_linear" x1="190.239" y1="101.26" x2="369.199" y2="101.26" gradientUnits="userSpaceOnUse">
<stop stop-color="#3919BB"/>
<stop offset="1" stop-color="#6507FA"/>
</linearGradient>
<radialGradient id="paint9_radial" cx="0" cy="0" r="1" gradientUnits="userSpaceOnUse" gradientTransform="translate(19581.9 7822.66) scale(42274.6 45524.7)">
<stop stop-color="#E39A65"/>
<stop offset="0.47" stop-color="#A92FFB"/>
<stop offset="0.59" stop-color="#891CFB"/>
<stop offset="0.73" stop-color="#6507FA"/>
<stop offset="1" stop-color="#3919BB"/>
</radialGradient>
<linearGradient id="paint10_linear" x1="68.2559" y1="115.391" x2="130.597" y2="159.603" gradientUnits="userSpaceOnUse">
<stop offset="0.197917" stop-color="#8A2BE2"/>
<stop offset="1" stop-color="#3CB9FC"/>
</linearGradient>
</defs>
</svg>
