<svg width="439" height="326" viewBox="0 0 439 326" fill="none" xmlns="http://www.w3.org/2000/svg">
<path d="M422.46 279.51C421.238 279.506 420.038 279.182 418.98 278.57L407.25 271.8C406.917 271.61 406.641 271.336 406.448 271.005C406.256 270.674 406.155 270.298 406.155 269.915C406.155 269.532 406.256 269.156 406.448 268.825C406.641 268.494 406.917 268.22 407.25 268.03L418.98 261.26C420.044 260.646 421.251 260.322 422.48 260.322C423.709 260.322 424.916 260.646 425.98 261.26L437.68 268C438.012 268.19 438.289 268.464 438.481 268.795C438.673 269.126 438.775 269.502 438.775 269.885C438.775 270.268 438.673 270.644 438.481 270.975C438.289 271.306 438.012 271.58 437.68 271.77L425.95 278.54C424.892 279.164 423.688 279.499 422.46 279.51V279.51ZM422.46 262.19C421.564 262.187 420.684 262.421 419.91 262.87L408.18 269.64C408.13 269.668 408.089 269.708 408.06 269.758C408.032 269.807 408.018 269.863 408.02 269.92C408.02 269.975 408.035 270.029 408.063 270.077C408.091 270.124 408.131 270.163 408.18 270.19L419.91 277C420.687 277.448 421.568 277.683 422.465 277.683C423.362 277.683 424.243 277.448 425.02 277L436.75 270.23C436.798 270.203 436.838 270.164 436.866 270.117C436.895 270.069 436.91 270.015 436.91 269.96C436.911 269.903 436.897 269.847 436.869 269.798C436.841 269.748 436.8 269.708 436.75 269.68L425.02 262.91C424.246 262.446 423.362 262.198 422.46 262.19V262.19Z" fill="url(#paint0_linear)"/>
<path d="M388.9 241.05C386.913 241.053 384.961 240.532 383.24 239.54L363.04 227.88C362.575 227.609 362.189 227.22 361.921 226.754C361.653 226.287 361.512 225.758 361.512 225.22C361.512 224.682 361.653 224.153 361.921 223.686C362.189 223.22 362.575 222.831 363.04 222.56L383.24 210.9C384.961 209.912 386.91 209.392 388.895 209.392C390.879 209.392 392.829 209.912 394.55 210.9L414.75 222.56C415.217 222.829 415.605 223.217 415.875 223.684C416.145 224.151 416.287 224.681 416.287 225.22C416.287 225.759 416.145 226.289 415.875 226.756C415.605 227.223 415.217 227.611 414.75 227.88L394.55 239.54C392.832 240.532 390.883 241.053 388.9 241.05V241.05ZM384.17 237.93C385.607 238.756 387.237 239.19 388.895 239.19C390.553 239.19 392.182 238.756 393.62 237.93L413.82 226.27C413.998 226.17 414.148 226.026 414.253 225.85C414.358 225.675 414.416 225.475 414.42 225.27C414.417 225.065 414.36 224.865 414.254 224.689C414.149 224.513 413.999 224.369 413.82 224.27L393.62 212.6C392.182 211.775 390.553 211.34 388.895 211.34C387.237 211.34 385.607 211.775 384.17 212.6L363.97 224.27C363.791 224.37 363.643 224.515 363.537 224.691C363.432 224.866 363.374 225.066 363.37 225.27C363.376 225.474 363.435 225.673 363.54 225.848C363.645 226.023 363.793 226.168 363.97 226.27L384.17 237.93Z" fill="url(#paint1_linear)"/>
<path d="M27.6696 259.41C25.6868 259.408 23.7389 258.888 22.0196 257.9L1.81963 246.23C1.35466 245.96 0.968733 245.573 0.70047 245.107C0.432207 244.641 0.291016 244.113 0.291016 243.575C0.291016 243.037 0.432207 242.509 0.70047 242.043C0.968733 241.577 1.35466 241.19 1.81963 240.92L22.0196 229.26C23.739 228.267 25.6893 227.745 27.6746 227.745C29.6599 227.745 31.6103 228.267 33.3296 229.26L53.5296 240.92C53.9946 241.19 54.3805 241.577 54.6488 242.043C54.917 242.509 55.0582 243.037 55.0582 243.575C55.0582 244.113 54.917 244.641 54.6488 245.107C54.3805 245.573 53.9946 245.96 53.5296 246.23L33.3296 257.9C31.6072 258.889 29.6558 259.41 27.6696 259.41V259.41ZM27.6696 229.61C26.0131 229.609 24.3855 230.044 22.9496 230.87L2.74963 242.53C2.56347 242.634 2.40919 242.786 2.30344 242.971C2.1977 243.157 2.14452 243.367 2.14963 243.58C2.15244 243.785 2.20944 243.985 2.31483 244.161C2.42021 244.337 2.57023 244.481 2.74963 244.58L22.9496 256.24C24.3859 257.07 26.0156 257.508 27.6746 257.508C29.3336 257.508 30.9634 257.07 32.3996 256.24L52.5996 244.58C52.7777 244.48 52.9266 244.335 53.0318 244.159C53.137 243.984 53.1948 243.784 53.1996 243.58C53.2026 243.367 53.1485 243.158 53.0429 242.973C52.9374 242.788 52.7843 242.635 52.5996 242.53L32.3996 230.87C30.9606 230.043 29.3295 229.608 27.6696 229.61Z" fill="url(#paint2_linear)"/>
<path opacity="0.6" d="M232.219 310.28L87.7895 226.89C85.6795 225.68 85.9494 223.56 88.3794 222.15L181.099 168.63C183.529 167.23 187.199 167.08 189.309 168.29L333.739 251.68C335.839 252.9 335.579 255.02 333.149 256.42L240.449 309.94C237.999 311.34 234.329 311.5 232.219 310.28Z" fill="#252C48"/>
<path d="M235.53 325.34C233.947 325.377 232.38 325.008 230.98 324.27V324.27L66.1496 229.1C65.5636 228.812 65.0648 228.373 64.7045 227.828C64.3442 227.283 64.1355 226.652 64.0996 226C64.0996 224.55 65.0996 223.14 66.8596 222.13L179.22 156.3C182.31 154.52 186.83 154.3 189.53 155.9L354.33 251C354.931 251.289 355.443 251.735 355.811 252.291C356.179 252.848 356.389 253.494 356.42 254.16C356.42 255.6 355.42 257.01 353.66 258.03L241.29 323.88C239.525 324.849 237.543 325.352 235.53 325.34V325.34ZM184.97 156.66C183.278 156.64 181.61 157.05 180.12 157.85L67.7596 223.69C66.5996 224.35 65.9196 225.19 65.9196 225.94C65.9659 226.275 66.0967 226.594 66.2996 226.865C66.5025 227.136 66.7708 227.351 67.0796 227.49L231.91 322.66C234.01 323.88 237.91 323.66 240.35 322.27L352.71 256.44C353.86 255.77 354.55 254.93 354.55 254.18C354.503 253.845 354.373 253.526 354.17 253.255C353.967 252.984 353.698 252.769 353.39 252.63L188.56 157.47C187.452 156.897 186.216 156.618 184.97 156.66V156.66Z" fill="url(#paint3_linear)"/>
<path d="M372.1 111.88L228.23 28.82C227.795 28.5518 227.309 28.3761 226.803 28.3039C226.298 28.2316 225.782 28.2643 225.29 28.4V28.4L222.62 29.32L223.56 29.55C223.156 30.0297 222.856 30.5882 222.68 31.19L190.1 136.83C189.718 138.141 189.768 139.541 190.244 140.822C190.719 142.102 191.595 143.195 192.74 143.94L336.64 227C336.971 227.192 337.328 227.336 337.7 227.43L337.34 228.21L339.88 227.31C340.446 227.069 340.948 226.701 341.349 226.235C341.75 225.768 342.037 225.216 342.19 224.62L374.73 119C375.11 117.688 375.06 116.289 374.586 115.007C374.113 113.726 373.242 112.63 372.1 111.88Z" fill="url(#paint4_radial)"/>
<path d="M331.489 230.94L331.539 231L189.439 149C187.349 147.8 183.699 147.95 181.289 149.34L89.4794 202.34L86.4194 201.17L87.2694 205.46C87.3567 205.831 87.526 206.179 87.7647 206.476C88.0035 206.774 88.3058 207.014 88.6494 207.18L232.099 290C234.189 291.21 237.839 291.05 240.249 289.66L332.299 236.52C332.764 236.298 333.178 235.981 333.513 235.59C333.849 235.199 334.1 234.743 334.249 234.25L335.099 230L331.489 230.94Z" fill="url(#paint5_radial)"/>
<path d="M232.219 286.17L87.7895 202.78C85.6795 201.57 85.9494 199.44 88.3794 198.04L181.099 144.52C183.529 143.12 187.199 142.97 189.309 144.18L333.739 227.57C335.839 228.79 335.579 230.91 333.149 232.31L240.449 285.83C237.999 287.23 234.329 287.39 232.219 286.17Z" fill="url(#paint6_radial)"/>
<path d="M333.099 231.19L240.399 284.71C237.969 286.11 234.299 286.26 232.189 285.05L87.7894 201.66C87.1763 201.347 86.7072 200.81 86.4794 200.16C86.349 200.681 86.4094 201.232 86.6496 201.712C86.8899 202.193 87.2942 202.572 87.7894 202.78L232.219 286.17C234.329 287.39 237.999 287.23 240.429 285.83L333.099 232.31C334.699 231.39 335.339 230.15 334.999 229.07C334.662 229.995 333.982 230.754 333.099 231.19Z" fill="white"/>
<g opacity="0.4">
<path opacity="0.4" d="M156.68 189.25L151.81 186.44C151.41 186.21 151.46 185.81 151.91 185.55L157.67 182.23C157.902 182.1 158.162 182.027 158.428 182.017C158.693 182.006 158.958 182.059 159.2 182.17L164.1 185C164.5 185.23 164.45 185.62 163.99 185.88L158.24 189.21C158.002 189.342 157.736 189.414 157.465 189.421C157.193 189.428 156.924 189.369 156.68 189.25V189.25Z" fill="#06033E"/>
<path opacity="0.4" d="M164.21 193.6L159.34 190.78C158.94 190.56 158.99 190.16 159.45 189.9L165.2 186.58C165.432 186.45 165.692 186.377 165.957 186.367C166.223 186.356 166.488 186.409 166.73 186.52L171.6 189.33C172 189.56 171.95 189.95 171.49 190.21L165.74 193.54C165.507 193.667 165.247 193.739 164.982 193.75C164.716 193.76 164.452 193.709 164.21 193.6V193.6Z" fill="#06033E"/>
<path opacity="0.4" d="M171.74 198L166.87 195.18C166.47 194.96 166.52 194.56 166.98 194.3L172.73 190.98C172.962 190.852 173.221 190.779 173.487 190.766C173.752 190.754 174.017 190.803 174.26 190.91L179.13 193.73C179.53 193.95 179.48 194.35 179.02 194.61L173.27 197.93C173.037 198.058 172.778 198.131 172.513 198.144C172.248 198.156 171.983 198.107 171.74 198V198Z" fill="#06033E"/>
<path opacity="0.4" d="M182.16 194.36L177.28 191.54C176.89 191.31 176.94 190.92 177.39 190.66L182.22 187.87C182.452 187.74 182.712 187.667 182.978 187.657C183.244 187.646 183.508 187.699 183.75 187.81L188.63 190.62C189.02 190.85 188.97 191.24 188.52 191.5L183.68 194.29C183.449 194.418 183.192 194.491 182.928 194.503C182.664 194.516 182.402 194.466 182.16 194.36V194.36Z" fill="#06033E"/>
<path opacity="0.4" d="M189.69 198.7L184.81 195.89C184.42 195.66 184.47 195.27 184.92 195.01L189.75 192.22C189.982 192.092 190.241 192.019 190.507 192.006C190.772 191.994 191.036 192.043 191.28 192.15L196.16 194.97C196.55 195.19 196.5 195.59 196.05 195.85L191.21 198.64C190.979 198.77 190.721 198.843 190.457 198.853C190.193 198.864 189.93 198.811 189.69 198.7V198.7Z" fill="#06033E"/>
<path opacity="0.4" d="M197.22 203.05L192.34 200.24C191.95 200.01 192 199.61 192.45 199.35L197.28 196.56C197.513 196.432 197.773 196.361 198.038 196.35C198.303 196.34 198.568 196.391 198.81 196.5L203.69 199.32C204.08 199.54 204.03 199.94 203.58 200.2L198.74 203C198.509 203.128 198.25 203.199 197.986 203.208C197.722 203.217 197.459 203.163 197.22 203.05V203.05Z" fill="#06033E"/>
<path opacity="0.4" d="M204.75 207.4L199.87 204.58C199.48 204.36 199.53 203.96 199.98 203.7L204.81 200.91C205.042 200.78 205.302 200.707 205.568 200.697C205.833 200.686 206.098 200.739 206.34 200.85L211.22 203.66C211.61 203.89 211.56 204.28 211.11 204.55L206.27 207.34C206.039 207.467 205.781 207.539 205.517 207.549C205.253 207.56 204.99 207.509 204.75 207.4V207.4Z" fill="#06033E"/>
<path opacity="0.4" d="M212.28 211.75L207.4 208.93C207.01 208.71 207.06 208.31 207.51 208.05L212.34 205.26C212.572 205.13 212.832 205.057 213.097 205.047C213.363 205.036 213.628 205.089 213.87 205.2L218.75 208.01C219.14 208.24 219.09 208.63 218.64 208.89L213.81 211.68C213.577 211.808 213.318 211.881 213.053 211.893C212.787 211.906 212.523 211.856 212.28 211.75V211.75Z" fill="#06033E"/>
<path opacity="0.4" d="M219.81 216.09L214.93 213.28C214.54 213.05 214.59 212.66 215.04 212.4L219.87 209.61C220.102 209.482 220.361 209.409 220.627 209.396C220.892 209.384 221.157 209.433 221.4 209.54L226.28 212.36C226.67 212.59 226.62 212.98 226.17 213.24L221.34 216C221.11 216.135 220.852 216.213 220.586 216.228C220.32 216.244 220.054 216.197 219.81 216.09V216.09Z" fill="#06033E"/>
<path opacity="0.4" d="M227.34 220.44L222.46 217.63C222.07 217.4 222.12 217.01 222.57 216.74L227.4 214C227.633 213.873 227.892 213.802 228.158 213.791C228.423 213.781 228.687 213.832 228.93 213.94L233.81 216.76C234.2 216.98 234.15 217.38 233.7 217.64L228.87 220.43C228.633 220.552 228.372 220.616 228.106 220.618C227.84 220.62 227.577 220.559 227.34 220.44Z" fill="#06033E"/>
<path opacity="0.4" d="M234.87 224.79L229.99 222C229.6 221.78 229.65 221.38 230.1 221.12L234.93 218.33C235.162 218.2 235.422 218.127 235.688 218.117C235.954 218.106 236.218 218.159 236.46 218.27L241.34 221.08C241.73 221.31 241.68 221.71 241.23 221.97L236.4 224.76C236.165 224.885 235.904 224.953 235.639 224.958C235.373 224.963 235.109 224.906 234.87 224.79Z" fill="#06033E"/>
<path opacity="0.4" d="M242.4 229.14L237.52 226.32C237.13 226.1 237.18 225.7 237.63 225.44L242.46 222.65C242.692 222.52 242.952 222.447 243.218 222.437C243.483 222.426 243.748 222.479 243.99 222.59L248.87 225.4C249.26 225.63 249.21 226.02 248.76 226.28L243.93 229.07C243.697 229.198 243.438 229.271 243.173 229.283C242.908 229.296 242.643 229.247 242.4 229.14V229.14Z" fill="#06033E"/>
<path opacity="0.4" d="M249.93 233.48L245.1 230.67C244.71 230.44 244.76 230.05 245.21 229.79L250.04 227C250.272 226.872 250.531 226.799 250.797 226.786C251.062 226.774 251.326 226.823 251.57 226.93L256.45 229.75C256.84 229.98 256.79 230.37 256.34 230.63L251.51 233.42C251.271 233.558 251.003 233.636 250.727 233.646C250.452 233.657 250.178 233.6 249.93 233.48V233.48Z" fill="#06033E"/>
<path opacity="0.4" d="M193.25 192.3L188.38 189.48C187.98 189.26 188.03 188.86 188.49 188.6L193.32 185.81C193.55 185.68 193.808 185.607 194.072 185.597C194.337 185.586 194.6 185.639 194.84 185.75L199.72 188.56C200.11 188.79 200.06 189.18 199.61 189.44L194.78 192.23C194.548 192.361 194.289 192.435 194.023 192.447C193.757 192.459 193.492 192.409 193.25 192.3Z" fill="#06033E"/>
<path opacity="0.4" d="M185.61 187.89L180.73 185.07C180.34 184.84 180.39 184.45 180.84 184.19L185.67 181.4C185.902 181.27 186.162 181.197 186.427 181.187C186.693 181.176 186.958 181.229 187.2 181.34L192.08 184.15C192.47 184.38 192.42 184.77 191.97 185.03L187.1 187.82C186.872 187.942 186.62 188.012 186.363 188.024C186.105 188.036 185.848 187.99 185.61 187.89V187.89Z" fill="#06033E"/>
<path opacity="0.4" d="M177.95 183.47L167.45 177.4C167.06 177.18 167.11 176.78 167.56 176.52L172.39 173.73C172.622 173.6 172.882 173.527 173.148 173.517C173.414 173.506 173.678 173.559 173.92 173.67L184.42 179.73C184.81 179.96 184.77 180.35 184.31 180.61L179.48 183.4C179.247 183.528 178.988 183.601 178.723 183.614C178.458 183.626 178.193 183.577 177.95 183.47V183.47Z" fill="#06033E"/>
<path opacity="0.4" d="M183.31 178.09L174.78 173.17C174.39 172.94 174.44 172.55 174.89 172.29L179.72 169.5C179.952 169.37 180.212 169.297 180.478 169.287C180.744 169.276 181.008 169.329 181.25 169.44L189.77 174.36C190.17 174.58 190.12 174.98 189.66 175.24L184.83 178C184.602 178.134 184.345 178.213 184.081 178.228C183.817 178.244 183.552 178.196 183.31 178.09Z" fill="#06033E"/>
<path opacity="0.4" d="M200.78 196.65L195.91 193.83C195.51 193.6 195.56 193.21 196.02 192.95L200.85 190.16C201.08 190.03 201.338 189.957 201.603 189.947C201.867 189.936 202.13 189.989 202.37 190.1L207.25 192.91C207.64 193.14 207.59 193.53 207.14 193.79L202.31 196.58C202.077 196.708 201.818 196.781 201.553 196.794C201.288 196.806 201.023 196.757 200.78 196.65V196.65Z" fill="#06033E"/>
<path opacity="0.4" d="M208.31 201L203.44 198.19C203.04 197.96 203.09 197.57 203.55 197.31L208.38 194.52C208.61 194.392 208.868 194.319 209.132 194.307C209.395 194.294 209.658 194.344 209.9 194.45L214.78 197.27C215.17 197.49 215.12 197.89 214.67 198.15L209.84 200.94C209.607 201.07 209.348 201.143 209.082 201.153C208.816 201.164 208.551 201.111 208.31 201V201Z" fill="#06033E"/>
<path opacity="0.4" d="M215.84 205.34L210.97 202.53C210.58 202.3 210.62 201.9 211.08 201.64L215.91 198.85C216.142 198.72 216.402 198.647 216.668 198.637C216.934 198.626 217.198 198.679 217.44 198.79L222.31 201.61C222.7 201.83 222.65 202.23 222.2 202.49L217.37 205.28C217.138 205.41 216.878 205.483 216.612 205.493C216.346 205.504 216.082 205.451 215.84 205.34V205.34Z" fill="#06033E"/>
<path opacity="0.4" d="M223.37 209.69L218.5 206.87C218.11 206.65 218.15 206.25 218.61 205.99L223.44 203.2C223.672 203.07 223.932 202.997 224.197 202.987C224.463 202.976 224.728 203.029 224.97 203.14L229.84 205.95C230.23 206.18 230.18 206.57 229.73 206.84L224.9 209.62C224.668 209.751 224.409 209.825 224.143 209.837C223.877 209.849 223.612 209.799 223.37 209.69V209.69Z" fill="#06033E"/>
<path opacity="0.4" d="M230.9 214L226.03 211.18C225.64 210.95 225.68 210.56 226.14 210.3L230.97 207.51C231.202 207.38 231.462 207.307 231.728 207.297C231.994 207.286 232.258 207.339 232.5 207.45L237.37 210.26C237.76 210.49 237.71 210.88 237.26 211.14L232.43 214C232.192 214.117 231.93 214.178 231.665 214.178C231.4 214.178 231.138 214.117 230.9 214V214Z" fill="#06033E"/>
<path opacity="0.4" d="M238.43 218.38L233.56 215.57C233.17 215.34 233.21 214.95 233.67 214.69L238.5 211.9C238.732 211.772 238.991 211.699 239.257 211.686C239.522 211.674 239.786 211.723 240.03 211.83L244.9 214.65C245.29 214.87 245.24 215.27 244.79 215.53L239.96 218.32C239.727 218.45 239.468 218.523 239.202 218.533C238.936 218.544 238.671 218.491 238.43 218.38Z" fill="#06033E"/>
<path opacity="0.4" d="M245.96 222.73L241.1 219.92C240.71 219.69 240.76 219.29 241.21 219.03L246.04 216.24C246.272 216.11 246.532 216.037 246.798 216.027C247.063 216.016 247.328 216.069 247.57 216.18L252.44 219C252.83 219.22 252.78 219.62 252.33 219.88L247.5 222.67C247.266 222.801 247.005 222.875 246.737 222.886C246.469 222.896 246.203 222.843 245.96 222.73V222.73Z" fill="#06033E"/>
<path opacity="0.4" d="M253.49 227.08L248.62 224.26C248.23 224.04 248.28 223.64 248.73 223.38L253.56 220.59C253.792 220.46 254.052 220.387 254.318 220.377C254.583 220.366 254.848 220.419 255.09 220.53L259.96 223.34C260.35 223.57 260.31 223.96 259.85 224.23L255.02 227C254.788 227.131 254.53 227.206 254.264 227.22C253.999 227.234 253.734 227.186 253.49 227.08Z" fill="#06033E"/>
<path opacity="0.4" d="M261.02 231.43L256.15 228.61C255.76 228.38 255.81 227.99 256.26 227.73L261.09 224.94C261.322 224.81 261.582 224.737 261.847 224.727C262.113 224.716 262.378 224.769 262.62 224.88L267.49 227.69C267.88 227.92 267.84 228.31 267.38 228.57L262.55 231.36C262.317 231.488 262.058 231.561 261.793 231.574C261.527 231.586 261.263 231.537 261.02 231.43V231.43Z" fill="#06033E"/>
<path opacity="0.4" d="M274.41 239.16L263.77 233C263.38 232.78 263.43 232.38 263.88 232.12L268.71 229.33C268.942 229.2 269.202 229.127 269.468 229.117C269.733 229.106 269.998 229.159 270.24 229.27L280.88 235.41C281.27 235.64 281.22 236.03 280.77 236.29L275.94 239.08C275.708 239.21 275.449 239.285 275.184 239.299C274.919 239.312 274.654 239.265 274.41 239.16V239.16Z" fill="#06033E"/>
<path opacity="0.4" d="M289.1 230.69L280.1 225.51C279.71 225.28 279.76 224.89 280.21 224.62L285.04 221.83C285.273 221.703 285.532 221.632 285.798 221.621C286.063 221.611 286.327 221.662 286.57 221.77L295.57 226.96C295.96 227.18 295.91 227.58 295.46 227.84L290.63 230.63C290.397 230.76 290.138 230.833 289.872 230.843C289.606 230.854 289.342 230.801 289.1 230.69V230.69Z" fill="#06033E"/>
<path opacity="0.4" d="M213.97 195.79L209.1 193C208.71 192.77 208.76 192.38 209.21 192.12L214.04 189.33C214.272 189.202 214.531 189.129 214.797 189.116C215.062 189.104 215.326 189.153 215.57 189.26L220.45 192.08C220.84 192.31 220.79 192.7 220.34 192.96L215.51 195.75C215.275 195.878 215.012 195.949 214.745 195.956C214.477 195.963 214.211 195.906 213.97 195.79V195.79Z" fill="#06033E"/>
<path opacity="0.4" d="M206.25 191.34L201.38 188.52C200.98 188.3 201.03 187.9 201.49 187.64L206.32 184.85C206.55 184.72 206.808 184.647 207.072 184.637C207.337 184.626 207.6 184.679 207.84 184.79L212.72 187.6C213.11 187.83 213.06 188.23 212.61 188.49L207.78 191.28C207.547 191.407 207.287 191.479 207.022 191.49C206.756 191.5 206.492 191.449 206.25 191.34V191.34Z" fill="#06033E"/>
<path opacity="0.4" d="M198.53 186.88L193.66 184.07C193.27 183.84 193.32 183.45 193.77 183.19L198.6 180.4C198.832 180.272 199.091 180.199 199.357 180.186C199.622 180.174 199.887 180.223 200.13 180.33L205 183.15C205.39 183.37 205.35 183.77 204.89 184.03L200.1 186.82C199.863 186.956 199.596 187.033 199.322 187.043C199.049 187.054 198.777 186.998 198.53 186.88V186.88Z" fill="#06033E"/>
<path opacity="0.4" d="M190.82 182.43L185.94 179.61C185.55 179.39 185.6 178.99 186.05 178.73L190.88 175.94C191.112 175.81 191.372 175.737 191.637 175.727C191.903 175.716 192.168 175.769 192.41 175.88L197.29 178.69C197.68 178.92 197.63 179.31 197.18 179.57L192.34 182.36C192.109 182.488 191.852 182.561 191.588 182.573C191.324 182.585 191.061 182.536 190.82 182.43Z" fill="#06033E"/>
<path opacity="0.4" d="M221.5 200.14L216.62 197.33C216.23 197.1 216.28 196.71 216.73 196.45L221.56 193.66C221.792 193.529 222.051 193.455 222.316 193.443C222.582 193.431 222.847 193.481 223.09 193.59L227.97 196.41C228.36 196.63 228.31 197.03 227.86 197.29L223.03 200.08C222.797 200.21 222.538 200.283 222.272 200.293C222.006 200.304 221.742 200.251 221.5 200.14Z" fill="#06033E"/>
<path opacity="0.4" d="M229.03 204.49L224.15 201.67C223.76 201.45 223.81 201.05 224.26 200.79L229.1 198C229.332 197.87 229.592 197.797 229.857 197.787C230.123 197.776 230.388 197.829 230.63 197.94L235.51 200.76C235.9 200.98 235.85 201.38 235.4 201.64L230.57 204.43C230.336 204.561 230.075 204.635 229.807 204.646C229.539 204.656 229.273 204.603 229.03 204.49V204.49Z" fill="#06033E"/>
<path opacity="0.4" d="M236.56 208.84L231.68 206C231.29 205.78 231.34 205.38 231.79 205.12L236.63 202.33C236.86 202.2 237.118 202.127 237.383 202.117C237.647 202.106 237.91 202.159 238.15 202.27L243.03 205.08C243.42 205.31 243.37 205.7 242.92 205.96L238.1 208.77C237.867 208.902 237.606 208.977 237.338 208.99C237.071 209.002 236.804 208.951 236.56 208.84V208.84Z" fill="#06033E"/>
<path opacity="0.4" d="M244.1 213.19L239.22 210.37C238.83 210.14 238.88 209.75 239.33 209.49L244.17 206.7C244.4 206.57 244.658 206.497 244.923 206.487C245.187 206.476 245.45 206.529 245.69 206.64L250.57 209.45C250.96 209.68 250.91 210.07 250.46 210.33L245.63 213.12C245.397 213.248 245.138 213.321 244.873 213.334C244.608 213.346 244.343 213.297 244.1 213.19V213.19Z" fill="#06033E"/>
<path opacity="0.4" d="M251.62 217.53L246.74 214.72C246.35 214.49 246.4 214.1 246.85 213.84L251.69 211.05C251.92 210.919 252.177 210.844 252.441 210.832C252.706 210.82 252.969 210.87 253.21 210.98L258.1 213.8C258.49 214.02 258.44 214.42 257.99 214.68L253.16 217.47C252.926 217.601 252.665 217.675 252.397 217.686C252.129 217.696 251.863 217.643 251.62 217.53V217.53Z" fill="#06033E"/>
<path opacity="0.4" d="M259.15 221.88L254.27 219.06C253.88 218.84 253.93 218.44 254.38 218.18L259.22 215.39C259.45 215.26 259.708 215.187 259.972 215.177C260.237 215.166 260.5 215.219 260.74 215.33L265.62 218.15C266.01 218.37 265.96 218.77 265.51 219.03L260.68 221.82C260.447 221.95 260.188 222.023 259.922 222.033C259.656 222.044 259.391 221.991 259.15 221.88V221.88Z" fill="#06033E"/>
<path opacity="0.4" d="M266.68 226.23L261.8 223.41C261.41 223.19 261.46 222.79 261.91 222.53L266.75 219.74C266.98 219.61 267.238 219.537 267.503 219.527C267.767 219.516 268.03 219.569 268.27 219.68L273.15 222.49C273.54 222.72 273.49 223.11 273.04 223.38L268.21 226.16C267.978 226.29 267.719 226.365 267.453 226.377C267.188 226.389 266.923 226.339 266.68 226.23Z" fill="#06033E"/>
<path opacity="0.4" d="M274.21 230.58L269.34 227.76C268.94 227.53 268.99 227.14 269.44 226.88L274.28 224.09C274.51 223.96 274.768 223.887 275.032 223.877C275.297 223.866 275.56 223.919 275.8 224.03L280.68 226.84C281.07 227.07 281.02 227.46 280.57 227.72L275.74 230.51C275.507 230.638 275.248 230.711 274.983 230.723C274.717 230.736 274.453 230.686 274.21 230.58V230.58Z" fill="#06033E"/>
<path opacity="0.4" d="M281.74 234.92L276.87 232.11C276.47 231.88 276.52 231.49 276.98 231.23L281.81 228.44C282.041 228.312 282.298 228.239 282.562 228.227C282.825 228.215 283.088 228.264 283.33 228.37L288.21 231.19C288.6 231.41 288.55 231.81 288.1 232.07L283.27 234.86C283.038 234.99 282.778 235.063 282.512 235.073C282.246 235.084 281.982 235.031 281.74 234.92V234.92Z" fill="#06033E"/>
<path opacity="0.4" d="M210 185L205.1 182.23C204.71 182 204.76 181.6 205.21 181.34L210.04 178.55C210.273 178.422 210.532 178.351 210.798 178.34C211.063 178.33 211.327 178.381 211.57 178.49L216.44 181.31C216.83 181.53 216.79 181.93 216.33 182.19L211.53 185C211.293 185.12 211.031 185.183 210.765 185.183C210.499 185.183 210.237 185.12 210 185Z" fill="#06033E"/>
<path opacity="0.4" d="M202.51 180.72L197.64 177.9C197.24 177.67 197.29 177.28 197.74 177.02L202.58 174.23C202.81 174.1 203.068 174.027 203.333 174.017C203.597 174.006 203.86 174.059 204.1 174.17L208.98 176.98C209.37 177.21 209.32 177.6 208.87 177.86L204.04 180.65C203.807 180.778 203.548 180.851 203.283 180.864C203.018 180.876 202.753 180.827 202.51 180.72Z" fill="#06033E"/>
<path opacity="0.4" d="M195.02 176.39L190.1 173.57C189.71 173.35 189.76 172.95 190.21 172.69L195.1 169.9C195.332 169.77 195.592 169.697 195.858 169.687C196.123 169.676 196.388 169.729 196.63 169.84L201.51 172.65C201.9 172.88 201.85 173.28 201.4 173.54L196.57 176.33C196.335 176.463 196.072 176.538 195.802 176.548C195.532 176.559 195.264 176.504 195.02 176.39Z" fill="#06033E"/>
<path opacity="0.4" d="M187.53 172.06L182.65 169.25C182.26 169.02 182.31 168.63 182.76 168.37L187.59 165.58C187.822 165.452 188.081 165.379 188.346 165.366C188.612 165.354 188.876 165.403 189.12 165.51L193.99 168.33C194.39 168.55 194.34 168.95 193.88 169.21L189.1 172C188.863 172.138 188.596 172.216 188.322 172.226C188.048 172.237 187.776 172.18 187.53 172.06V172.06Z" fill="#06033E"/>
<path opacity="0.4" d="M195.23 167.61L190.35 164.8C189.96 164.57 190.01 164.18 190.46 163.92L192.1 163C192.332 162.869 192.591 162.795 192.856 162.783C193.122 162.771 193.387 162.821 193.63 162.93L198.5 165.75C198.9 165.97 198.85 166.37 198.4 166.63L196.8 167.55C196.563 167.686 196.296 167.763 196.022 167.774C195.749 167.784 195.477 167.728 195.23 167.61Z" fill="#06033E"/>
<path opacity="0.4" d="M205.01 173.26L200.1 170.44C199.71 170.22 199.76 169.82 200.21 169.56L201.81 168.64C202.042 168.51 202.302 168.437 202.568 168.427C202.833 168.416 203.098 168.469 203.34 168.58L208.21 171.39C208.6 171.62 208.56 172.01 208.1 172.27L206.51 173.2C206.281 173.325 206.027 173.395 205.767 173.406C205.507 173.416 205.248 173.366 205.01 173.26Z" fill="#06033E"/>
<path opacity="0.4" d="M212.47 177.57L207.59 174.75C207.2 174.53 207.25 174.13 207.7 173.87L209.3 172.95C209.532 172.82 209.792 172.747 210.058 172.737C210.324 172.726 210.588 172.779 210.83 172.89L215.7 175.7C216.1 175.93 216.05 176.32 215.6 176.58L214 177.5C213.768 177.631 213.509 177.705 213.243 177.717C212.978 177.729 212.713 177.679 212.47 177.57Z" fill="#06033E"/>
<path opacity="0.4" d="M219.93 181.88L215.1 179.06C214.7 178.83 214.75 178.44 215.21 178.18L216.8 177.26C217.032 177.132 217.291 177.059 217.557 177.046C217.822 177.034 218.087 177.083 218.33 177.19L223.21 180.01C223.6 180.23 223.55 180.63 223.1 180.89L221.5 181.81C221.262 181.945 220.996 182.021 220.723 182.034C220.45 182.046 220.179 181.993 219.93 181.88V181.88Z" fill="#06033E"/>
<path opacity="0.4" d="M227.39 186.18L222.52 183.37C222.13 183.14 222.17 182.75 222.63 182.49L224.22 181.56C224.453 181.433 224.712 181.362 224.978 181.351C225.243 181.341 225.507 181.392 225.75 181.5L230.63 184.32C231.02 184.54 230.97 184.94 230.52 185.2L228.92 186.12C228.687 186.25 228.428 186.323 228.162 186.333C227.896 186.344 227.631 186.291 227.39 186.18V186.18Z" fill="#06033E"/>
<path opacity="0.4" d="M269.1 210.23L264.22 207.42C263.83 207.19 263.88 206.8 264.33 206.54L265.93 205.62C266.162 205.489 266.421 205.415 266.687 205.403C266.952 205.391 267.217 205.441 267.46 205.55L272.33 208.37C272.73 208.59 272.68 208.99 272.22 209.25L270.63 210.17C270.398 210.3 270.138 210.373 269.872 210.383C269.606 210.394 269.342 210.341 269.1 210.23V210.23Z" fill="#06033E"/>
<path opacity="0.4" d="M276.51 214.54L271.64 211.73C271.24 211.5 271.29 211.11 271.75 210.85L273.34 209.92C273.572 209.79 273.832 209.717 274.098 209.707C274.364 209.696 274.628 209.749 274.87 209.86L279.75 212.68C280.14 212.9 280.09 213.3 279.64 213.56L278.04 214.48C277.808 214.61 277.548 214.683 277.282 214.693C277.016 214.704 276.752 214.651 276.51 214.54Z" fill="#06033E"/>
<path opacity="0.4" d="M283.97 218.85L279.1 216C278.71 215.77 278.75 215.37 279.21 215.11L280.8 214.19C281.032 214.06 281.292 213.987 281.558 213.977C281.823 213.966 282.088 214.019 282.33 214.13L287.21 216.94C287.6 217.17 287.55 217.56 287.1 217.82L285.5 218.75C285.271 218.886 285.013 218.966 284.747 218.983C284.481 219.001 284.215 218.955 283.97 218.85V218.85Z" fill="#06033E"/>
<path opacity="0.4" d="M291.44 223.16L286.56 220.34C286.17 220.12 286.22 219.72 286.67 219.46L288.27 218.54C288.5 218.41 288.758 218.337 289.022 218.327C289.287 218.316 289.55 218.369 289.79 218.48L294.67 221.29C295.06 221.52 295.01 221.91 294.56 222.17L292.96 223.1C292.728 223.227 292.471 223.299 292.207 223.309C291.943 223.32 291.68 223.269 291.44 223.16Z" fill="#06033E"/>
<path opacity="0.4" d="M217.53 189.39L212.66 186.57C212.27 186.35 212.32 185.95 212.77 185.69L217.6 182.9C217.832 182.77 218.092 182.697 218.358 182.687C218.624 182.676 218.888 182.729 219.13 182.84L224 185.65C224.39 185.88 224.35 186.27 223.89 186.54L219.1 189.33C218.862 189.464 218.595 189.539 218.322 189.55C218.049 189.56 217.777 189.505 217.53 189.39V189.39Z" fill="#06033E"/>
<path opacity="0.4" d="M225.1 193.74L220.23 190.92C219.84 190.69 219.89 190.3 220.34 190.04L225.17 187.25C225.402 187.12 225.662 187.047 225.927 187.037C226.193 187.026 226.458 187.079 226.7 187.19L231.57 190C231.96 190.23 231.92 190.62 231.46 190.88L226.63 193.67C226.397 193.798 226.138 193.871 225.873 193.883C225.607 193.896 225.343 193.846 225.1 193.74V193.74Z" fill="#06033E"/>
<path opacity="0.4" d="M232.59 198.08L227.72 195.27C227.33 195.04 227.38 194.65 227.83 194.39L232.66 191.6C232.892 191.472 233.151 191.399 233.417 191.386C233.682 191.374 233.947 191.423 234.19 191.53L239.06 194.35C239.46 194.58 239.41 194.97 238.95 195.23L234.1 198C233.872 198.13 233.616 198.204 233.354 198.218C233.092 198.232 232.83 198.185 232.59 198.08V198.08Z" fill="#06033E"/>
<path opacity="0.4" d="M240.1 202.43L235.22 199.62C234.83 199.39 234.88 199 235.33 198.73L240.16 195.94C240.393 195.812 240.652 195.741 240.918 195.73C241.183 195.72 241.448 195.771 241.69 195.88L246.56 198.7C246.96 198.92 246.91 199.32 246.45 199.58L241.62 202.37C241.389 202.5 241.131 202.573 240.867 202.583C240.603 202.594 240.34 202.541 240.1 202.43Z" fill="#06033E"/>
<path opacity="0.4" d="M247.66 206.78L242.78 204C242.39 203.78 242.44 203.38 242.89 203.12L247.72 200.33C247.952 200.2 248.212 200.127 248.478 200.117C248.744 200.106 249.008 200.159 249.25 200.27L254.1 203C254.5 203.23 254.45 203.63 253.99 203.89L249.16 206.68C248.935 206.813 248.682 206.891 248.422 206.908C248.161 206.926 247.9 206.882 247.66 206.78V206.78Z" fill="#06033E"/>
<path opacity="0.4" d="M255.19 211.13L250.31 208.31C249.92 208.09 249.97 207.69 250.42 207.43L255.25 204.64C255.482 204.51 255.742 204.437 256.008 204.427C256.273 204.416 256.538 204.469 256.78 204.58L261.65 207.39C262.05 207.62 262 208.01 261.54 208.27L256.71 211.06C256.479 211.188 256.222 211.261 255.958 211.273C255.694 211.285 255.431 211.236 255.19 211.13V211.13Z" fill="#06033E"/>
<path opacity="0.4" d="M262.72 215.47L257.84 212.66C257.45 212.43 257.5 212.04 257.95 211.78L262.78 208.99C263.013 208.862 263.272 208.789 263.537 208.776C263.802 208.764 264.067 208.813 264.31 208.92L269.18 211.74C269.58 211.97 269.53 212.36 269.07 212.62L264.24 215.41C264.01 215.54 263.752 215.613 263.487 215.623C263.223 215.634 262.96 215.581 262.72 215.47V215.47Z" fill="#06033E"/>
<path opacity="0.4" d="M270.25 219.82L265.37 217C264.98 216.77 265.03 216.38 265.48 216.11L270.31 213.33C270.542 213.199 270.801 213.125 271.066 213.113C271.332 213.101 271.597 213.151 271.84 213.26L276.71 216.08C277.11 216.3 277.06 216.7 276.61 216.96L271.77 219.75C271.54 219.881 271.282 219.956 271.018 219.968C270.754 219.98 270.491 219.929 270.25 219.82Z" fill="#06033E"/>
<path opacity="0.4" d="M277.78 224.17L272.9 221.35C272.51 221.13 272.56 220.73 273.01 220.47L277.84 217.68C278.072 217.55 278.332 217.477 278.597 217.467C278.863 217.456 279.128 217.509 279.37 217.62L284.25 220.43C284.64 220.66 284.59 221.06 284.14 221.32L279.3 224.11C279.069 224.24 278.811 224.313 278.547 224.323C278.283 224.334 278.02 224.281 277.78 224.17Z" fill="#06033E"/>
<path opacity="0.4" d="M174.48 189.93L160.1 181.63C159.71 181.41 159.76 181.01 160.21 180.75L165.1 178C165.332 177.87 165.592 177.797 165.858 177.787C166.123 177.776 166.388 177.829 166.63 177.94L180.99 186.23C181.38 186.46 181.33 186.85 180.88 187.11L176.05 189.9C175.809 190.028 175.541 190.098 175.268 190.103C174.995 190.109 174.725 190.049 174.48 189.93Z" fill="#06033E"/>
<path opacity="0.4" d="M266.99 243.34L252.63 235.05C252.24 234.82 252.29 234.42 252.74 234.16L257.57 231.37C257.802 231.24 258.062 231.167 258.328 231.157C258.594 231.146 258.858 231.199 259.1 231.31L273.46 239.6C273.85 239.83 273.8 240.22 273.35 240.48L268.52 243.27C268.288 243.398 268.029 243.471 267.763 243.484C267.498 243.496 267.233 243.447 266.99 243.34V243.34Z" fill="#06033E"/>
<path opacity="0.4" d="M236.88 235.55L232 232.74C231.61 232.51 231.66 232.12 232.11 231.86L237.87 228.53C238.102 228.4 238.362 228.327 238.627 228.317C238.893 228.306 239.158 228.359 239.4 228.47L244.27 231.29C244.66 231.51 244.61 231.91 244.16 232.17L238.41 235.49C238.177 235.62 237.918 235.693 237.652 235.703C237.386 235.714 237.121 235.661 236.88 235.55V235.55Z" fill="#06033E"/>
<path opacity="0.4" d="M182.19 204L174.4 199.5C174 199.27 174.05 198.88 174.51 198.62L180.26 195.29C180.492 195.16 180.752 195.087 181.017 195.077C181.283 195.066 181.548 195.119 181.79 195.23L189.59 199.73C189.98 199.96 189.93 200.35 189.48 200.61L183.72 203.94C183.487 204.07 183.228 204.143 182.962 204.153C182.696 204.164 182.431 204.111 182.19 204V204Z" fill="#06033E"/>
<path opacity="0.4" d="M229.62 231.36L221.83 226.86C221.43 226.64 221.48 226.24 221.94 225.98L227.69 222.66C227.922 222.532 228.181 222.459 228.447 222.446C228.712 222.434 228.977 222.483 229.22 222.59L237.02 227.1C237.41 227.32 237.36 227.72 236.91 227.98L231.15 231.3C230.918 231.43 230.658 231.503 230.392 231.513C230.126 231.524 229.862 231.471 229.62 231.36V231.36Z" fill="#06033E"/>
<path opacity="0.4" d="M193.1 210.25L185.3 205.75C184.91 205.53 184.96 205.13 185.41 204.87L191.17 201.55C191.401 201.422 191.658 201.349 191.922 201.337C192.185 201.324 192.448 201.373 192.69 201.48L200.49 205.99C200.88 206.21 200.83 206.61 200.38 206.87L194.63 210.19C194.398 210.32 194.138 210.393 193.872 210.403C193.606 210.414 193.342 210.361 193.1 210.25V210.25Z" fill="#06033E"/>
<path opacity="0.4" d="M192.71 201.51L226.61 221.09C226.704 221.119 226.786 221.177 226.845 221.256C226.904 221.335 226.935 221.431 226.935 221.53C226.935 221.629 226.904 221.725 226.845 221.804C226.786 221.883 226.704 221.941 226.61 221.97L220.74 225.36C220.504 225.479 220.244 225.541 219.98 225.541C219.716 225.541 219.455 225.479 219.22 225.36L185.31 205.78L192.71 201.51Z" fill="#06033E"/>
<path opacity="0.4" d="M257.93 243.44L263.36 246.57C263.68 246.76 263.64 247.08 263.27 247.29L260.91 248.65C260.721 248.757 260.509 248.818 260.292 248.829C260.075 248.839 259.858 248.798 259.66 248.71L254.23 245.57C253.91 245.39 253.95 245.06 254.32 244.85L256.67 243.49C256.86 243.381 257.074 243.32 257.294 243.311C257.513 243.303 257.731 243.347 257.93 243.44V243.44Z" fill="#06033E"/>
<path opacity="0.4" d="M250.33 239.05L255.76 242.19C256.08 242.37 256.04 242.7 255.67 242.91L253.32 244.27C253.13 244.376 252.918 244.436 252.701 244.445C252.484 244.453 252.267 244.411 252.07 244.32L246.64 241.19C246.32 241 246.36 240.68 246.73 240.46L249.1 239.1C249.288 239 249.496 238.943 249.709 238.935C249.922 238.926 250.134 238.965 250.33 239.05V239.05Z" fill="#06033E"/>
<path opacity="0.4" d="M242.8 234.7L248.23 237.84C248.55 238.03 248.51 238.35 248.14 238.56L245.79 239.92C245.601 240.028 245.389 240.09 245.171 240.098C244.953 240.107 244.737 240.063 244.54 239.97L239.1 236.84C238.77 236.65 238.82 236.33 239.19 236.12L241.54 234.76C241.73 234.651 241.944 234.589 242.163 234.579C242.382 234.568 242.6 234.61 242.8 234.7V234.7Z" fill="#06033E"/>
<path opacity="0.4" d="M254.49 236.65L259.92 239.79C260.24 239.97 260.2 240.3 259.83 240.51L257.48 241.87C257.29 241.976 257.078 242.036 256.861 242.045C256.644 242.053 256.427 242.011 256.23 241.92L250.79 238.79C250.47 238.6 250.51 238.28 250.88 238.06L253.24 236.7C253.43 236.597 253.642 236.539 253.859 236.53C254.076 236.521 254.291 236.562 254.49 236.65V236.65Z" fill="#06033E"/>
</g>
<g opacity="0.4">
<path opacity="0.4" d="M156.68 189.25L151.81 186.44C151.41 186.21 151.46 185.81 151.91 185.55L157.67 182.23C157.902 182.1 158.162 182.027 158.428 182.017C158.693 182.006 158.958 182.059 159.2 182.17L164.1 185C164.5 185.23 164.45 185.62 163.99 185.88L158.24 189.21C158.002 189.342 157.736 189.414 157.465 189.421C157.193 189.428 156.924 189.369 156.68 189.25V189.25Z" fill="#06033E"/>
<path opacity="0.4" d="M164.21 193.6L159.34 190.78C158.94 190.56 158.99 190.16 159.45 189.9L165.2 186.58C165.432 186.45 165.692 186.377 165.957 186.367C166.223 186.356 166.488 186.409 166.73 186.52L171.6 189.33C172 189.56 171.95 189.95 171.49 190.21L165.74 193.54C165.507 193.667 165.247 193.739 164.982 193.75C164.716 193.76 164.452 193.709 164.21 193.6V193.6Z" fill="#06033E"/>
<path opacity="0.4" d="M171.74 198L166.87 195.18C166.47 194.96 166.52 194.56 166.98 194.3L172.73 190.98C172.962 190.852 173.221 190.779 173.487 190.766C173.752 190.754 174.017 190.803 174.26 190.91L179.13 193.73C179.53 193.95 179.48 194.35 179.02 194.61L173.27 197.93C173.037 198.058 172.778 198.131 172.513 198.144C172.248 198.156 171.983 198.107 171.74 198V198Z" fill="#06033E"/>
<path opacity="0.4" d="M182.16 194.36L177.28 191.54C176.89 191.31 176.94 190.92 177.39 190.66L182.22 187.87C182.452 187.74 182.712 187.667 182.978 187.657C183.244 187.646 183.508 187.699 183.75 187.81L188.63 190.62C189.02 190.85 188.97 191.24 188.52 191.5L183.68 194.29C183.449 194.418 183.192 194.491 182.928 194.503C182.664 194.516 182.402 194.466 182.16 194.36V194.36Z" fill="#06033E"/>
<path opacity="0.4" d="M189.69 198.7L184.81 195.89C184.42 195.66 184.47 195.27 184.92 195.01L189.75 192.22C189.982 192.092 190.241 192.019 190.507 192.006C190.772 191.994 191.036 192.043 191.28 192.15L196.16 194.97C196.55 195.19 196.5 195.59 196.05 195.85L191.21 198.64C190.979 198.77 190.721 198.843 190.457 198.853C190.193 198.864 189.93 198.811 189.69 198.7V198.7Z" fill="#06033E"/>
<path opacity="0.4" d="M197.22 203.05L192.34 200.24C191.95 200.01 192 199.61 192.45 199.35L197.28 196.56C197.513 196.432 197.773 196.361 198.038 196.35C198.303 196.34 198.568 196.391 198.81 196.5L203.69 199.32C204.08 199.54 204.03 199.94 203.58 200.2L198.74 203C198.509 203.128 198.25 203.199 197.986 203.208C197.722 203.217 197.459 203.163 197.22 203.05V203.05Z" fill="#06033E"/>
<path opacity="0.4" d="M204.75 207.4L199.87 204.58C199.48 204.36 199.53 203.96 199.98 203.7L204.81 200.91C205.042 200.78 205.302 200.707 205.568 200.697C205.833 200.686 206.098 200.739 206.34 200.85L211.22 203.66C211.61 203.89 211.56 204.28 211.11 204.55L206.27 207.34C206.039 207.467 205.781 207.539 205.517 207.549C205.253 207.56 204.99 207.509 204.75 207.4V207.4Z" fill="#06033E"/>
<path opacity="0.4" d="M212.28 211.75L207.4 208.93C207.01 208.71 207.06 208.31 207.51 208.05L212.34 205.26C212.572 205.13 212.832 205.057 213.097 205.047C213.363 205.036 213.628 205.089 213.87 205.2L218.75 208.01C219.14 208.24 219.09 208.63 218.64 208.89L213.81 211.68C213.577 211.808 213.318 211.881 213.053 211.893C212.787 211.906 212.523 211.856 212.28 211.75V211.75Z" fill="#06033E"/>
<path opacity="0.4" d="M219.81 216.09L214.93 213.28C214.54 213.05 214.59 212.66 215.04 212.4L219.87 209.61C220.102 209.482 220.361 209.409 220.627 209.396C220.892 209.384 221.157 209.433 221.4 209.54L226.28 212.36C226.67 212.59 226.62 212.98 226.17 213.24L221.34 216C221.11 216.135 220.852 216.213 220.586 216.228C220.32 216.244 220.054 216.197 219.81 216.09V216.09Z" fill="#06033E"/>
<path opacity="0.4" d="M227.34 220.44L222.46 217.63C222.07 217.4 222.12 217.01 222.57 216.74L227.4 214C227.633 213.873 227.892 213.802 228.158 213.791C228.423 213.781 228.687 213.832 228.93 213.94L233.81 216.76C234.2 216.98 234.15 217.38 233.7 217.64L228.87 220.43C228.633 220.552 228.372 220.616 228.106 220.618C227.84 220.62 227.577 220.559 227.34 220.44Z" fill="#06033E"/>
<path opacity="0.4" d="M234.87 224.79L229.99 222C229.6 221.78 229.65 221.38 230.1 221.12L234.93 218.33C235.162 218.2 235.422 218.127 235.688 218.117C235.954 218.106 236.218 218.159 236.46 218.27L241.34 221.08C241.73 221.31 241.68 221.71 241.23 221.97L236.4 224.76C236.165 224.885 235.904 224.953 235.639 224.958C235.373 224.963 235.109 224.906 234.87 224.79Z" fill="#06033E"/>
<path opacity="0.4" d="M242.4 229.14L237.52 226.32C237.13 226.1 237.18 225.7 237.63 225.44L242.46 222.65C242.692 222.52 242.952 222.447 243.218 222.437C243.483 222.426 243.748 222.479 243.99 222.59L248.87 225.4C249.26 225.63 249.21 226.02 248.76 226.28L243.93 229.07C243.697 229.198 243.438 229.271 243.173 229.283C242.908 229.296 242.643 229.247 242.4 229.14V229.14Z" fill="#06033E"/>
<path opacity="0.4" d="M249.93 233.48L245.1 230.67C244.71 230.44 244.76 230.05 245.21 229.79L250.04 227C250.272 226.872 250.531 226.799 250.797 226.786C251.062 226.774 251.326 226.823 251.57 226.93L256.45 229.75C256.84 229.98 256.79 230.37 256.34 230.63L251.51 233.42C251.271 233.558 251.003 233.636 250.727 233.646C250.452 233.657 250.178 233.6 249.93 233.48V233.48Z" fill="#06033E"/>
<path opacity="0.4" d="M193.25 192.3L188.38 189.48C187.98 189.26 188.03 188.86 188.49 188.6L193.32 185.81C193.55 185.68 193.808 185.607 194.072 185.597C194.337 185.586 194.6 185.639 194.84 185.75L199.72 188.56C200.11 188.79 200.06 189.18 199.61 189.44L194.78 192.23C194.548 192.361 194.289 192.435 194.023 192.447C193.757 192.459 193.492 192.409 193.25 192.3Z" fill="#06033E"/>
<path opacity="0.4" d="M185.61 187.89L180.73 185.07C180.34 184.84 180.39 184.45 180.84 184.19L185.67 181.4C185.902 181.27 186.162 181.197 186.427 181.187C186.693 181.176 186.958 181.229 187.2 181.34L192.08 184.15C192.47 184.38 192.42 184.77 191.97 185.03L187.1 187.82C186.872 187.942 186.62 188.012 186.363 188.024C186.105 188.036 185.848 187.99 185.61 187.89V187.89Z" fill="#06033E"/>
<path opacity="0.4" d="M177.95 183.47L167.45 177.4C167.06 177.18 167.11 176.78 167.56 176.52L172.39 173.73C172.622 173.6 172.882 173.527 173.148 173.517C173.414 173.506 173.678 173.559 173.92 173.67L184.42 179.73C184.81 179.96 184.77 180.35 184.31 180.61L179.48 183.4C179.247 183.528 178.988 183.601 178.723 183.614C178.458 183.626 178.193 183.577 177.95 183.47V183.47Z" fill="#06033E"/>
<path opacity="0.4" d="M183.31 178.09L174.78 173.17C174.39 172.94 174.44 172.55 174.89 172.29L179.72 169.5C179.952 169.37 180.212 169.297 180.478 169.287C180.744 169.276 181.008 169.329 181.25 169.44L189.77 174.36C190.17 174.58 190.12 174.98 189.66 175.24L184.83 178C184.602 178.134 184.345 178.213 184.081 178.228C183.817 178.244 183.552 178.196 183.31 178.09Z" fill="#06033E"/>
<path opacity="0.4" d="M200.78 196.65L195.91 193.83C195.51 193.6 195.56 193.21 196.02 192.95L200.85 190.16C201.08 190.03 201.338 189.957 201.603 189.947C201.867 189.936 202.13 189.989 202.37 190.1L207.25 192.91C207.64 193.14 207.59 193.53 207.14 193.79L202.31 196.58C202.077 196.708 201.818 196.781 201.553 196.794C201.288 196.806 201.023 196.757 200.78 196.65V196.65Z" fill="#06033E"/>
<path opacity="0.4" d="M208.31 201L203.44 198.19C203.04 197.96 203.09 197.57 203.55 197.31L208.38 194.52C208.61 194.392 208.868 194.319 209.132 194.307C209.395 194.294 209.658 194.344 209.9 194.45L214.78 197.27C215.17 197.49 215.12 197.89 214.67 198.15L209.84 200.94C209.607 201.07 209.348 201.143 209.082 201.153C208.816 201.164 208.551 201.111 208.31 201V201Z" fill="#06033E"/>
<path opacity="0.4" d="M215.84 205.34L210.97 202.53C210.58 202.3 210.62 201.9 211.08 201.64L215.91 198.85C216.142 198.72 216.402 198.647 216.668 198.637C216.934 198.626 217.198 198.679 217.44 198.79L222.31 201.61C222.7 201.83 222.65 202.23 222.2 202.49L217.37 205.28C217.138 205.41 216.878 205.483 216.612 205.493C216.346 205.504 216.082 205.451 215.84 205.34V205.34Z" fill="#06033E"/>
<path opacity="0.4" d="M223.37 209.69L218.5 206.87C218.11 206.65 218.15 206.25 218.61 205.99L223.44 203.2C223.672 203.07 223.932 202.997 224.197 202.987C224.463 202.976 224.728 203.029 224.97 203.14L229.84 205.95C230.23 206.18 230.18 206.57 229.73 206.84L224.9 209.62C224.668 209.751 224.409 209.825 224.143 209.837C223.877 209.849 223.612 209.799 223.37 209.69V209.69Z" fill="#06033E"/>
<path opacity="0.4" d="M230.9 214L226.03 211.18C225.64 210.95 225.68 210.56 226.14 210.3L230.97 207.51C231.202 207.38 231.462 207.307 231.728 207.297C231.994 207.286 232.258 207.339 232.5 207.45L237.37 210.26C237.76 210.49 237.71 210.88 237.26 211.14L232.43 214C232.192 214.117 231.93 214.178 231.665 214.178C231.4 214.178 231.138 214.117 230.9 214V214Z" fill="#06033E"/>
<path opacity="0.4" d="M238.43 218.38L233.56 215.57C233.17 215.34 233.21 214.95 233.67 214.69L238.5 211.9C238.732 211.772 238.991 211.699 239.257 211.686C239.522 211.674 239.786 211.723 240.03 211.83L244.9 214.65C245.29 214.87 245.24 215.27 244.79 215.53L239.96 218.32C239.727 218.45 239.468 218.523 239.202 218.533C238.936 218.544 238.671 218.491 238.43 218.38Z" fill="#06033E"/>
<path opacity="0.4" d="M245.96 222.73L241.1 219.92C240.71 219.69 240.76 219.29 241.21 219.03L246.04 216.24C246.272 216.11 246.532 216.037 246.798 216.027C247.063 216.016 247.328 216.069 247.57 216.18L252.44 219C252.83 219.22 252.78 219.62 252.33 219.88L247.5 222.67C247.266 222.801 247.005 222.875 246.737 222.886C246.469 222.896 246.203 222.843 245.96 222.73V222.73Z" fill="#06033E"/>
<path opacity="0.4" d="M253.49 227.08L248.62 224.26C248.23 224.04 248.28 223.64 248.73 223.38L253.56 220.59C253.792 220.46 254.052 220.387 254.318 220.377C254.583 220.366 254.848 220.419 255.09 220.53L259.96 223.34C260.35 223.57 260.31 223.96 259.85 224.23L255.02 227C254.788 227.131 254.53 227.206 254.264 227.22C253.999 227.234 253.734 227.186 253.49 227.08Z" fill="#06033E"/>
<path opacity="0.4" d="M261.02 231.43L256.15 228.61C255.76 228.38 255.81 227.99 256.26 227.73L261.09 224.94C261.322 224.81 261.582 224.737 261.847 224.727C262.113 224.716 262.378 224.769 262.62 224.88L267.49 227.69C267.88 227.92 267.84 228.31 267.38 228.57L262.55 231.36C262.317 231.488 262.058 231.561 261.793 231.574C261.527 231.586 261.263 231.537 261.02 231.43V231.43Z" fill="#06033E"/>
<path opacity="0.4" d="M274.41 239.16L263.77 233C263.38 232.78 263.43 232.38 263.88 232.12L268.71 229.33C268.942 229.2 269.202 229.127 269.468 229.117C269.733 229.106 269.998 229.159 270.24 229.27L280.88 235.41C281.27 235.64 281.22 236.03 280.77 236.29L275.94 239.08C275.708 239.21 275.449 239.285 275.184 239.299C274.919 239.312 274.654 239.265 274.41 239.16V239.16Z" fill="#06033E"/>
<path opacity="0.4" d="M289.1 230.69L280.1 225.51C279.71 225.28 279.76 224.89 280.21 224.62L285.04 221.83C285.273 221.703 285.532 221.632 285.798 221.621C286.063 221.611 286.327 221.662 286.57 221.77L295.57 226.96C295.96 227.18 295.91 227.58 295.46 227.84L290.63 230.63C290.397 230.76 290.138 230.833 289.872 230.843C289.606 230.854 289.342 230.801 289.1 230.69V230.69Z" fill="#06033E"/>
<path opacity="0.4" d="M213.97 195.79L209.1 193C208.71 192.77 208.76 192.38 209.21 192.12L214.04 189.33C214.272 189.202 214.531 189.129 214.797 189.116C215.062 189.104 215.326 189.153 215.57 189.26L220.45 192.08C220.84 192.31 220.79 192.7 220.34 192.96L215.51 195.75C215.275 195.878 215.012 195.949 214.745 195.956C214.477 195.963 214.211 195.906 213.97 195.79V195.79Z" fill="#06033E"/>
<path opacity="0.4" d="M206.25 191.34L201.38 188.52C200.98 188.3 201.03 187.9 201.49 187.64L206.32 184.85C206.55 184.72 206.808 184.647 207.072 184.637C207.337 184.626 207.6 184.679 207.84 184.79L212.72 187.6C213.11 187.83 213.06 188.23 212.61 188.49L207.78 191.28C207.547 191.407 207.287 191.479 207.022 191.49C206.756 191.5 206.492 191.449 206.25 191.34V191.34Z" fill="#06033E"/>
<path opacity="0.4" d="M198.53 186.88L193.66 184.07C193.27 183.84 193.32 183.45 193.77 183.19L198.6 180.4C198.832 180.272 199.091 180.199 199.357 180.186C199.622 180.174 199.887 180.223 200.13 180.33L205 183.15C205.39 183.37 205.35 183.77 204.89 184.03L200.1 186.82C199.863 186.956 199.596 187.033 199.322 187.043C199.049 187.054 198.777 186.998 198.53 186.88V186.88Z" fill="#06033E"/>
<path opacity="0.4" d="M190.82 182.43L185.94 179.61C185.55 179.39 185.6 178.99 186.05 178.73L190.88 175.94C191.112 175.81 191.372 175.737 191.637 175.727C191.903 175.716 192.168 175.769 192.41 175.88L197.29 178.69C197.68 178.92 197.63 179.31 197.18 179.57L192.34 182.36C192.109 182.488 191.852 182.561 191.588 182.573C191.324 182.585 191.061 182.536 190.82 182.43Z" fill="#06033E"/>
<path opacity="0.4" d="M221.5 200.14L216.62 197.33C216.23 197.1 216.28 196.71 216.73 196.45L221.56 193.66C221.792 193.529 222.051 193.455 222.316 193.443C222.582 193.431 222.847 193.481 223.09 193.59L227.97 196.41C228.36 196.63 228.31 197.03 227.86 197.29L223.03 200.08C222.797 200.21 222.538 200.283 222.272 200.293C222.006 200.304 221.742 200.251 221.5 200.14Z" fill="#06033E"/>
<path opacity="0.4" d="M229.03 204.49L224.15 201.67C223.76 201.45 223.81 201.05 224.26 200.79L229.1 198C229.332 197.87 229.592 197.797 229.857 197.787C230.123 197.776 230.388 197.829 230.63 197.94L235.51 200.76C235.9 200.98 235.85 201.38 235.4 201.64L230.57 204.43C230.336 204.561 230.075 204.635 229.807 204.646C229.539 204.656 229.273 204.603 229.03 204.49V204.49Z" fill="#06033E"/>
<path opacity="0.4" d="M236.56 208.84L231.68 206C231.29 205.78 231.34 205.38 231.79 205.12L236.63 202.33C236.86 202.2 237.118 202.127 237.383 202.117C237.647 202.106 237.91 202.159 238.15 202.27L243.03 205.08C243.42 205.31 243.37 205.7 242.92 205.96L238.1 208.77C237.867 208.902 237.606 208.977 237.338 208.99C237.071 209.002 236.804 208.951 236.56 208.84V208.84Z" fill="#06033E"/>
<path opacity="0.4" d="M244.1 213.19L239.22 210.37C238.83 210.14 238.88 209.75 239.33 209.49L244.17 206.7C244.4 206.57 244.658 206.497 244.923 206.487C245.187 206.476 245.45 206.529 245.69 206.64L250.57 209.45C250.96 209.68 250.91 210.07 250.46 210.33L245.63 213.12C245.397 213.248 245.138 213.321 244.873 213.334C244.608 213.346 244.343 213.297 244.1 213.19V213.19Z" fill="#06033E"/>
<path opacity="0.4" d="M251.62 217.53L246.74 214.72C246.35 214.49 246.4 214.1 246.85 213.84L251.69 211.05C251.92 210.919 252.177 210.844 252.441 210.832C252.706 210.82 252.969 210.87 253.21 210.98L258.1 213.8C258.49 214.02 258.44 214.42 257.99 214.68L253.16 217.47C252.926 217.601 252.665 217.675 252.397 217.686C252.129 217.696 251.863 217.643 251.62 217.53V217.53Z" fill="#06033E"/>
<path opacity="0.4" d="M259.15 221.88L254.27 219.06C253.88 218.84 253.93 218.44 254.38 218.18L259.22 215.39C259.45 215.26 259.708 215.187 259.972 215.177C260.237 215.166 260.5 215.219 260.74 215.33L265.62 218.15C266.01 218.37 265.96 218.77 265.51 219.03L260.68 221.82C260.447 221.95 260.188 222.023 259.922 222.033C259.656 222.044 259.391 221.991 259.15 221.88V221.88Z" fill="#06033E"/>
<path opacity="0.4" d="M266.68 226.23L261.8 223.41C261.41 223.19 261.46 222.79 261.91 222.53L266.75 219.74C266.98 219.61 267.238 219.537 267.503 219.527C267.767 219.516 268.03 219.569 268.27 219.68L273.15 222.49C273.54 222.72 273.49 223.11 273.04 223.38L268.21 226.16C267.978 226.29 267.719 226.365 267.453 226.377C267.188 226.389 266.923 226.339 266.68 226.23Z" fill="#06033E"/>
<path opacity="0.4" d="M274.21 230.58L269.34 227.76C268.94 227.53 268.99 227.14 269.44 226.88L274.28 224.09C274.51 223.96 274.768 223.887 275.032 223.877C275.297 223.866 275.56 223.919 275.8 224.03L280.68 226.84C281.07 227.07 281.02 227.46 280.57 227.72L275.74 230.51C275.507 230.638 275.248 230.711 274.983 230.723C274.717 230.736 274.453 230.686 274.21 230.58V230.58Z" fill="#06033E"/>
<path opacity="0.4" d="M281.74 234.92L276.87 232.11C276.47 231.88 276.52 231.49 276.98 231.23L281.81 228.44C282.041 228.312 282.298 228.239 282.562 228.227C282.825 228.215 283.088 228.264 283.33 228.37L288.21 231.19C288.6 231.41 288.55 231.81 288.1 232.07L283.27 234.86C283.038 234.99 282.778 235.063 282.512 235.073C282.246 235.084 281.982 235.031 281.74 234.92V234.92Z" fill="#06033E"/>
<path opacity="0.4" d="M210 185L205.1 182.23C204.71 182 204.76 181.6 205.21 181.34L210.04 178.55C210.273 178.422 210.532 178.351 210.798 178.34C211.063 178.33 211.327 178.381 211.57 178.49L216.44 181.31C216.83 181.53 216.79 181.93 216.33 182.19L211.53 185C211.293 185.12 211.031 185.183 210.765 185.183C210.499 185.183 210.237 185.12 210 185Z" fill="#06033E"/>
<path opacity="0.4" d="M202.51 180.72L197.64 177.9C197.24 177.67 197.29 177.28 197.74 177.02L202.58 174.23C202.81 174.1 203.068 174.027 203.333 174.017C203.597 174.006 203.86 174.059 204.1 174.17L208.98 176.98C209.37 177.21 209.32 177.6 208.87 177.86L204.04 180.65C203.807 180.778 203.548 180.851 203.283 180.864C203.018 180.876 202.753 180.827 202.51 180.72Z" fill="#06033E"/>
<path opacity="0.4" d="M195.02 176.39L190.1 173.57C189.71 173.35 189.76 172.95 190.21 172.69L195.1 169.9C195.332 169.77 195.592 169.697 195.858 169.687C196.123 169.676 196.388 169.729 196.63 169.84L201.51 172.65C201.9 172.88 201.85 173.28 201.4 173.54L196.57 176.33C196.335 176.463 196.072 176.538 195.802 176.548C195.532 176.559 195.264 176.504 195.02 176.39Z" fill="#06033E"/>
<path opacity="0.4" d="M187.53 172.06L182.65 169.25C182.26 169.02 182.31 168.63 182.76 168.37L187.59 165.58C187.822 165.452 188.081 165.379 188.346 165.366C188.612 165.354 188.876 165.403 189.12 165.51L193.99 168.33C194.39 168.55 194.34 168.95 193.88 169.21L189.1 172C188.863 172.138 188.596 172.216 188.322 172.226C188.048 172.237 187.776 172.18 187.53 172.06V172.06Z" fill="#06033E"/>
<path opacity="0.4" d="M195.23 167.61L190.35 164.8C189.96 164.57 190.01 164.18 190.46 163.92L192.1 163C192.332 162.869 192.591 162.795 192.856 162.783C193.122 162.771 193.387 162.821 193.63 162.93L198.5 165.75C198.9 165.97 198.85 166.37 198.4 166.63L196.8 167.55C196.563 167.686 196.296 167.763 196.022 167.774C195.749 167.784 195.477 167.728 195.23 167.61Z" fill="#06033E"/>
<path opacity="0.4" d="M205.01 173.26L200.1 170.44C199.71 170.22 199.76 169.82 200.21 169.56L201.81 168.64C202.042 168.51 202.302 168.437 202.568 168.427C202.833 168.416 203.098 168.469 203.34 168.58L208.21 171.39C208.6 171.62 208.56 172.01 208.1 172.27L206.51 173.2C206.281 173.325 206.027 173.395 205.767 173.406C205.507 173.416 205.248 173.366 205.01 173.26Z" fill="#06033E"/>
<path opacity="0.4" d="M212.47 177.57L207.59 174.75C207.2 174.53 207.25 174.13 207.7 173.87L209.3 172.95C209.532 172.82 209.792 172.747 210.058 172.737C210.324 172.726 210.588 172.779 210.83 172.89L215.7 175.7C216.1 175.93 216.05 176.32 215.6 176.58L214 177.5C213.768 177.631 213.509 177.705 213.243 177.717C212.978 177.729 212.713 177.679 212.47 177.57Z" fill="#06033E"/>
<path opacity="0.4" d="M219.93 181.88L215.1 179.06C214.7 178.83 214.75 178.44 215.21 178.18L216.8 177.26C217.032 177.132 217.291 177.059 217.557 177.046C217.822 177.034 218.087 177.083 218.33 177.19L223.21 180.01C223.6 180.23 223.55 180.63 223.1 180.89L221.5 181.81C221.262 181.945 220.996 182.021 220.723 182.034C220.45 182.046 220.179 181.993 219.93 181.88V181.88Z" fill="#06033E"/>
<path opacity="0.4" d="M227.39 186.18L222.52 183.37C222.13 183.14 222.17 182.75 222.63 182.49L224.22 181.56C224.453 181.433 224.712 181.362 224.978 181.351C225.243 181.341 225.507 181.392 225.75 181.5L230.63 184.32C231.02 184.54 230.97 184.94 230.52 185.2L228.92 186.12C228.687 186.25 228.428 186.323 228.162 186.333C227.896 186.344 227.631 186.291 227.39 186.18V186.18Z" fill="#06033E"/>
<path opacity="0.4" d="M269.1 210.23L264.22 207.42C263.83 207.19 263.88 206.8 264.33 206.54L265.93 205.62C266.162 205.489 266.421 205.415 266.687 205.403C266.952 205.391 267.217 205.441 267.46 205.55L272.33 208.37C272.73 208.59 272.68 208.99 272.22 209.25L270.63 210.17C270.398 210.3 270.138 210.373 269.872 210.383C269.606 210.394 269.342 210.341 269.1 210.23V210.23Z" fill="#06033E"/>
<path opacity="0.4" d="M276.51 214.54L271.64 211.73C271.24 211.5 271.29 211.11 271.75 210.85L273.34 209.92C273.572 209.79 273.832 209.717 274.098 209.707C274.364 209.696 274.628 209.749 274.87 209.86L279.75 212.68C280.14 212.9 280.09 213.3 279.64 213.56L278.04 214.48C277.808 214.61 277.548 214.683 277.282 214.693C277.016 214.704 276.752 214.651 276.51 214.54Z" fill="#06033E"/>
<path opacity="0.4" d="M283.97 218.85L279.1 216C278.71 215.77 278.75 215.37 279.21 215.11L280.8 214.19C281.032 214.06 281.292 213.987 281.558 213.977C281.823 213.966 282.088 214.019 282.33 214.13L287.21 216.94C287.6 217.17 287.55 217.56 287.1 217.82L285.5 218.75C285.271 218.886 285.013 218.966 284.747 218.983C284.481 219.001 284.215 218.955 283.97 218.85V218.85Z" fill="#06033E"/>
<path opacity="0.4" d="M291.44 223.16L286.56 220.34C286.17 220.12 286.22 219.72 286.67 219.46L288.27 218.54C288.5 218.41 288.758 218.337 289.022 218.327C289.287 218.316 289.55 218.369 289.79 218.48L294.67 221.29C295.06 221.52 295.01 221.91 294.56 222.17L292.96 223.1C292.728 223.227 292.471 223.299 292.207 223.309C291.943 223.32 291.68 223.269 291.44 223.16Z" fill="#06033E"/>
<path opacity="0.4" d="M217.53 189.39L212.66 186.57C212.27 186.35 212.32 185.95 212.77 185.69L217.6 182.9C217.832 182.77 218.092 182.697 218.358 182.687C218.624 182.676 218.888 182.729 219.13 182.84L224 185.65C224.39 185.88 224.35 186.27 223.89 186.54L219.1 189.33C218.862 189.464 218.595 189.539 218.322 189.55C218.049 189.56 217.777 189.505 217.53 189.39V189.39Z" fill="#06033E"/>
<path opacity="0.4" d="M225.1 193.74L220.23 190.92C219.84 190.69 219.89 190.3 220.34 190.04L225.17 187.25C225.402 187.12 225.662 187.047 225.927 187.037C226.193 187.026 226.458 187.079 226.7 187.19L231.57 190C231.96 190.23 231.92 190.62 231.46 190.88L226.63 193.67C226.397 193.798 226.138 193.871 225.873 193.883C225.607 193.896 225.343 193.846 225.1 193.74V193.74Z" fill="#06033E"/>
<path opacity="0.4" d="M232.59 198.08L227.72 195.27C227.33 195.04 227.38 194.65 227.83 194.39L232.66 191.6C232.892 191.472 233.151 191.399 233.417 191.386C233.682 191.374 233.947 191.423 234.19 191.53L239.06 194.35C239.46 194.58 239.41 194.97 238.95 195.23L234.1 198C233.872 198.13 233.616 198.204 233.354 198.218C233.092 198.232 232.83 198.185 232.59 198.08V198.08Z" fill="#06033E"/>
<path opacity="0.4" d="M240.1 202.43L235.22 199.62C234.83 199.39 234.88 199 235.33 198.73L240.16 195.94C240.393 195.812 240.652 195.741 240.918 195.73C241.183 195.72 241.448 195.771 241.69 195.88L246.56 198.7C246.96 198.92 246.91 199.32 246.45 199.58L241.62 202.37C241.389 202.5 241.131 202.573 240.867 202.583C240.603 202.594 240.34 202.541 240.1 202.43Z" fill="#06033E"/>
<path opacity="0.4" d="M247.66 206.78L242.78 204C242.39 203.78 242.44 203.38 242.89 203.12L247.72 200.33C247.952 200.2 248.212 200.127 248.478 200.117C248.744 200.106 249.008 200.159 249.25 200.27L254.1 203C254.5 203.23 254.45 203.63 253.99 203.89L249.16 206.68C248.935 206.813 248.682 206.891 248.422 206.908C248.161 206.926 247.9 206.882 247.66 206.78V206.78Z" fill="#06033E"/>
<path opacity="0.4" d="M255.19 211.13L250.31 208.31C249.92 208.09 249.97 207.69 250.42 207.43L255.25 204.64C255.482 204.51 255.742 204.437 256.008 204.427C256.273 204.416 256.538 204.469 256.78 204.58L261.65 207.39C262.05 207.62 262 208.01 261.54 208.27L256.71 211.06C256.479 211.188 256.222 211.261 255.958 211.273C255.694 211.285 255.431 211.236 255.19 211.13V211.13Z" fill="#06033E"/>
<path opacity="0.4" d="M262.72 215.47L257.84 212.66C257.45 212.43 257.5 212.04 257.95 211.78L262.78 208.99C263.013 208.862 263.272 208.789 263.537 208.776C263.802 208.764 264.067 208.813 264.31 208.92L269.18 211.74C269.58 211.97 269.53 212.36 269.07 212.62L264.24 215.41C264.01 215.54 263.752 215.613 263.487 215.623C263.223 215.634 262.96 215.581 262.72 215.47V215.47Z" fill="#06033E"/>
<path opacity="0.4" d="M270.25 219.82L265.37 217C264.98 216.77 265.03 216.38 265.48 216.11L270.31 213.33C270.542 213.199 270.801 213.125 271.066 213.113C271.332 213.101 271.597 213.151 271.84 213.26L276.71 216.08C277.11 216.3 277.06 216.7 276.61 216.96L271.77 219.75C271.54 219.881 271.282 219.956 271.018 219.968C270.754 219.98 270.491 219.929 270.25 219.82Z" fill="#06033E"/>
<path opacity="0.4" d="M277.78 224.17L272.9 221.35C272.51 221.13 272.56 220.73 273.01 220.47L277.84 217.68C278.072 217.55 278.332 217.477 278.597 217.467C278.863 217.456 279.128 217.509 279.37 217.62L284.25 220.43C284.64 220.66 284.59 221.06 284.14 221.32L279.3 224.11C279.069 224.24 278.811 224.313 278.547 224.323C278.283 224.334 278.02 224.281 277.78 224.17Z" fill="#06033E"/>
<path opacity="0.4" d="M174.48 189.93L160.1 181.63C159.71 181.41 159.76 181.01 160.21 180.75L165.1 178C165.332 177.87 165.592 177.797 165.858 177.787C166.123 177.776 166.388 177.829 166.63 177.94L180.99 186.23C181.38 186.46 181.33 186.85 180.88 187.11L176.05 189.9C175.809 190.028 175.541 190.098 175.268 190.103C174.995 190.109 174.725 190.049 174.48 189.93Z" fill="#06033E"/>
<path opacity="0.4" d="M266.99 243.34L252.63 235.05C252.24 234.82 252.29 234.42 252.74 234.16L257.57 231.37C257.802 231.24 258.062 231.167 258.328 231.157C258.594 231.146 258.858 231.199 259.1 231.31L273.46 239.6C273.85 239.83 273.8 240.22 273.35 240.48L268.52 243.27C268.288 243.398 268.029 243.471 267.763 243.484C267.498 243.496 267.233 243.447 266.99 243.34V243.34Z" fill="#06033E"/>
<path opacity="0.4" d="M236.88 235.55L232 232.74C231.61 232.51 231.66 232.12 232.11 231.86L237.87 228.53C238.102 228.4 238.362 228.327 238.627 228.317C238.893 228.306 239.158 228.359 239.4 228.47L244.27 231.29C244.66 231.51 244.61 231.91 244.16 232.17L238.41 235.49C238.177 235.62 237.918 235.693 237.652 235.703C237.386 235.714 237.121 235.661 236.88 235.55V235.55Z" fill="#06033E"/>
<path opacity="0.4" d="M182.19 204L174.4 199.5C174 199.27 174.05 198.88 174.51 198.62L180.26 195.29C180.492 195.16 180.752 195.087 181.017 195.077C181.283 195.066 181.548 195.119 181.79 195.23L189.59 199.73C189.98 199.96 189.93 200.35 189.48 200.61L183.72 203.94C183.487 204.07 183.228 204.143 182.962 204.153C182.696 204.164 182.431 204.111 182.19 204V204Z" fill="#06033E"/>
<path opacity="0.4" d="M229.62 231.36L221.83 226.86C221.43 226.64 221.48 226.24 221.94 225.98L227.69 222.66C227.922 222.532 228.181 222.459 228.447 222.446C228.712 222.434 228.977 222.483 229.22 222.59L237.02 227.1C237.41 227.32 237.36 227.72 236.91 227.98L231.15 231.3C230.918 231.43 230.658 231.503 230.392 231.513C230.126 231.524 229.862 231.471 229.62 231.36V231.36Z" fill="#06033E"/>
<path opacity="0.4" d="M193.1 210.25L185.3 205.75C184.91 205.53 184.96 205.13 185.41 204.87L191.17 201.55C191.401 201.422 191.658 201.349 191.922 201.337C192.185 201.324 192.448 201.373 192.69 201.48L200.49 205.99C200.88 206.21 200.83 206.61 200.38 206.87L194.63 210.19C194.398 210.32 194.138 210.393 193.872 210.403C193.606 210.414 193.342 210.361 193.1 210.25V210.25Z" fill="#06033E"/>
<path opacity="0.4" d="M192.71 201.51L226.61 221.09C226.704 221.119 226.786 221.177 226.845 221.256C226.904 221.335 226.935 221.431 226.935 221.53C226.935 221.629 226.904 221.725 226.845 221.804C226.786 221.883 226.704 221.941 226.61 221.97L220.74 225.36C220.504 225.479 220.244 225.541 219.98 225.541C219.716 225.541 219.455 225.479 219.22 225.36L185.31 205.78L192.71 201.51Z" fill="#06033E"/>
<path opacity="0.4" d="M257.93 243.44L263.36 246.57C263.68 246.76 263.64 247.08 263.27 247.29L260.91 248.65C260.721 248.757 260.509 248.818 260.292 248.829C260.075 248.839 259.858 248.798 259.66 248.71L254.23 245.57C253.91 245.39 253.95 245.06 254.32 244.85L256.67 243.49C256.86 243.381 257.074 243.32 257.294 243.311C257.513 243.303 257.731 243.347 257.93 243.44V243.44Z" fill="#06033E"/>
<path opacity="0.4" d="M250.33 239.05L255.76 242.19C256.08 242.37 256.04 242.7 255.67 242.91L253.32 244.27C253.13 244.376 252.918 244.436 252.701 244.445C252.484 244.453 252.267 244.411 252.07 244.32L246.64 241.19C246.32 241 246.36 240.68 246.73 240.46L249.1 239.1C249.288 239 249.496 238.943 249.709 238.935C249.922 238.926 250.134 238.965 250.33 239.05V239.05Z" fill="#06033E"/>
<path opacity="0.4" d="M242.8 234.7L248.23 237.84C248.55 238.03 248.51 238.35 248.14 238.56L245.79 239.92C245.601 240.028 245.389 240.09 245.171 240.098C244.953 240.107 244.737 240.063 244.54 239.97L239.1 236.84C238.77 236.65 238.82 236.33 239.19 236.12L241.54 234.76C241.73 234.651 241.944 234.589 242.163 234.579C242.382 234.568 242.6 234.61 242.8 234.7V234.7Z" fill="#06033E"/>
<path opacity="0.4" d="M254.49 236.65L259.92 239.79C260.24 239.97 260.2 240.3 259.83 240.51L257.48 241.87C257.29 241.976 257.078 242.036 256.861 242.045C256.644 242.053 256.427 242.011 256.23 241.92L250.79 238.79C250.47 238.6 250.51 238.28 250.88 238.06L253.24 236.7C253.43 236.597 253.642 236.539 253.859 236.53C254.076 236.521 254.291 236.562 254.49 236.65V236.65Z" fill="#06033E"/>
</g>
<path d="M334.189 227.86L190.319 144.8C189.177 144.053 188.305 142.959 187.832 141.679C187.358 140.399 187.308 139 187.689 137.69L220.219 32.06C221.029 29.44 223.509 28.37 225.779 29.68L369.639 112.74C370.783 113.486 371.656 114.58 372.13 115.86C372.603 117.141 372.652 118.54 372.269 119.85L339.739 225.48C338.939 228.1 336.449 229.16 334.189 227.86Z" fill="url(#paint7_radial)"/>
<path d="M332.829 224.16L193.289 143.53C192.198 142.814 191.365 141.768 190.912 140.544C190.458 139.321 190.408 137.984 190.769 136.73L221.869 35.73C221.988 35.1758 222.239 34.6583 222.599 34.2209C222.96 33.7836 223.42 33.4392 223.941 33.2168C224.463 32.9943 225.03 32.9003 225.595 32.9426C226.16 32.985 226.707 33.1624 227.189 33.46L366.729 114.1C367.822 114.815 368.656 115.861 369.11 117.085C369.563 118.309 369.612 119.646 369.249 120.9L338.149 221.9C337.369 224.39 334.989 225.41 332.829 224.16Z" fill="url(#paint8_linear)"/>
<path opacity="0.4" d="M332.829 224.16L193.289 143.53C192.198 142.814 191.365 141.768 190.912 140.544C190.458 139.321 190.408 137.984 190.769 136.73L221.869 35.73C221.988 35.1758 222.239 34.6583 222.599 34.2209C222.96 33.7836 223.42 33.4392 223.941 33.2168C224.463 32.9943 225.03 32.9003 225.595 32.9426C226.16 32.985 226.707 33.1624 227.189 33.46L366.729 114.1C367.822 114.815 368.656 115.861 369.11 117.085C369.563 118.309 369.612 119.646 369.249 120.9L338.149 221.9C337.369 224.39 334.989 225.41 332.829 224.16Z" fill="#06033E"/>
<path opacity="0.4" d="M332.829 224.16L193.289 143.53C192.198 142.814 191.365 141.768 190.912 140.544C190.458 139.321 190.408 137.984 190.769 136.73L221.869 35.73C221.988 35.1758 222.239 34.6583 222.599 34.2209C222.96 33.7836 223.42 33.4392 223.941 33.2168C224.463 32.9943 225.03 32.9003 225.595 32.9426C226.16 32.985 226.707 33.1624 227.189 33.46L366.729 114.1C367.822 114.815 368.656 115.861 369.11 117.085C369.563 118.309 369.612 119.646 369.249 120.9L338.149 221.9C337.369 224.39 334.989 225.41 332.829 224.16Z" fill="#06033E"/>
<path opacity="0.5" d="M325.33 193.3L230.87 138.76C230.12 138.269 229.547 137.55 229.236 136.71C228.924 135.869 228.891 134.951 229.14 134.09L250.5 64.74C250.582 64.36 250.754 64.0053 251.001 63.7052C251.248 63.4051 251.563 63.1684 251.92 63.0148C252.277 62.8612 252.666 62.7952 253.054 62.8222C253.442 62.8492 253.817 62.9684 254.15 63.17L348.61 117.71C349.361 118.2 349.935 118.918 350.246 119.759C350.558 120.6 350.59 121.519 350.34 122.38L328.98 191.74C328.898 192.12 328.727 192.475 328.479 192.776C328.232 193.076 327.916 193.312 327.559 193.465C327.201 193.618 326.812 193.683 326.424 193.654C326.036 193.625 325.661 193.504 325.33 193.3V193.3Z" fill="#06033E"/>
<path d="M312.57 195L218.1 140.43C217.349 139.942 216.776 139.225 216.464 138.386C216.153 137.547 216.12 136.63 216.37 135.77L237.73 66.41C237.809 66.0284 237.979 65.6717 238.226 65.3702C238.473 65.0686 238.789 64.8312 239.148 64.678C239.506 64.5248 239.896 64.4605 240.285 64.4904C240.673 64.5204 241.049 64.6437 241.38 64.85L335.84 119.38C336.59 119.871 337.162 120.59 337.474 121.43C337.785 122.271 337.819 123.189 337.57 124.05L316.21 193.41C316.133 193.793 315.966 194.151 315.721 194.455C315.477 194.759 315.162 194.999 314.805 195.156C314.447 195.312 314.057 195.379 313.668 195.352C313.279 195.325 312.902 195.204 312.57 195V195Z" fill="url(#paint9_radial)"/>
<g opacity="0.5">
<path opacity="0.5" d="M312.57 195L218.1 140.43C217.349 139.942 216.776 139.225 216.464 138.386C216.153 137.547 216.12 136.63 216.37 135.77L237.73 66.41C237.809 66.0284 237.979 65.6717 238.226 65.3702C238.473 65.0686 238.789 64.8312 239.148 64.678C239.506 64.5248 239.896 64.4605 240.285 64.4904C240.673 64.5204 241.049 64.6437 241.38 64.85L335.84 119.38C336.59 119.871 337.162 120.59 337.474 121.43C337.785 122.271 337.819 123.189 337.57 124.05L316.21 193.41C316.133 193.793 315.966 194.151 315.721 194.455C315.477 194.759 315.162 194.999 314.805 195.156C314.447 195.312 314.057 195.379 313.668 195.352C313.279 195.325 312.902 195.204 312.57 195V195Z" fill="#06033E"/>
</g>
<path d="M335.849 119.38L241.389 64.85C240.989 64.5957 240.52 64.4682 240.046 64.4843C239.571 64.5003 239.112 64.6592 238.729 64.94C239.207 64.9276 239.678 65.0489 240.089 65.29L334.549 119.82C335.3 120.311 335.874 121.029 336.187 121.869C336.5 122.709 336.536 123.628 336.289 124.49L314.919 193.85C314.753 194.435 314.403 194.951 313.919 195.32C314.455 195.288 314.967 195.086 315.379 194.742C315.791 194.398 316.082 193.931 316.209 193.41L337.569 124.05C337.82 123.19 337.787 122.272 337.478 121.432C337.168 120.592 336.598 119.872 335.849 119.38V119.38Z" fill="white"/>
<path opacity="0.4" d="M193.43 251.61C192.212 251.64 191.007 251.358 189.93 250.79V250.79L152.1 228.94C151.654 228.727 151.275 228.399 151 227.989C150.726 227.579 150.567 227.103 150.54 226.61C150.604 225.987 150.831 225.393 151.198 224.885C151.565 224.378 152.058 223.976 152.63 223.72L172.1 212.47C173.311 211.782 174.67 211.395 176.062 211.341C177.454 211.287 178.838 211.568 180.1 212.16L217.9 234C218.346 234.211 218.727 234.539 219.002 234.949C219.276 235.36 219.435 235.837 219.46 236.33C219.395 236.953 219.168 237.547 218.801 238.055C218.434 238.562 217.941 238.964 217.37 239.22L197.89 250.47C196.526 251.227 194.99 251.62 193.43 251.61V251.61ZM176.58 212.45C175.206 212.449 173.855 212.792 172.65 213.45L153.17 224.7C152.17 225.27 151.63 225.98 151.63 226.65C151.66 226.948 151.769 227.232 151.944 227.474C152.12 227.717 152.356 227.908 152.63 228.03L190.47 249.88C191.56 250.358 192.745 250.58 193.934 250.528C195.124 250.476 196.285 250.151 197.33 249.58L216.82 238.33C217.82 237.76 218.36 237.05 218.36 236.33C218.327 236.033 218.218 235.749 218.042 235.507C217.867 235.265 217.632 235.073 217.36 234.95L179.51 213.1C178.605 212.636 177.596 212.412 176.58 212.45V212.45Z" fill="#06033E"/>
<path d="M264.4 101.24L258.56 97.86C258.284 97.6881 258.072 97.4314 257.955 97.1284C257.837 96.8255 257.822 96.4927 257.91 96.18V96.18C257.939 96.0437 258.001 95.9165 258.091 95.8095C258.18 95.7025 258.294 95.6188 258.423 95.5656C258.552 95.5125 258.692 95.4915 258.831 95.5045C258.969 95.5174 259.103 95.5639 259.22 95.64L265.1 99C265.372 99.1753 265.581 99.4323 265.698 99.7342C265.815 100.036 265.833 100.367 265.75 100.68V100.68C265.724 100.823 265.662 100.957 265.571 101.07C265.48 101.183 265.362 101.272 265.227 101.328C265.093 101.383 264.947 101.404 264.802 101.389C264.658 101.374 264.519 101.323 264.4 101.24V101.24Z" fill="white"/>
<path d="M278.31 109.27L269.7 104.27C269.425 104.097 269.214 103.84 269.097 103.537C268.98 103.235 268.963 102.903 269.05 102.59V102.59C269.078 102.453 269.139 102.324 269.228 102.216C269.316 102.108 269.43 102.023 269.56 101.969C269.689 101.915 269.829 101.893 269.968 101.905C270.108 101.918 270.242 101.964 270.36 102.04L278.97 107.04C279.242 107.215 279.451 107.472 279.568 107.774C279.685 108.076 279.703 108.407 279.62 108.72V108.72C279.592 108.857 279.531 108.985 279.442 109.094C279.353 109.202 279.239 109.287 279.11 109.341C278.981 109.395 278.841 109.417 278.701 109.405C278.562 109.392 278.427 109.346 278.31 109.27V109.27Z" fill="white"/>
<path d="M252.62 127.24L246.78 123.86C246.508 123.685 246.298 123.428 246.181 123.126C246.064 122.824 246.046 122.493 246.13 122.18V122.18C246.159 122.044 246.221 121.917 246.31 121.81C246.4 121.702 246.514 121.619 246.643 121.566C246.772 121.512 246.912 121.491 247.05 121.504C247.189 121.517 247.323 121.564 247.44 121.64L253.28 125.01C253.552 125.185 253.761 125.442 253.878 125.744C253.995 126.046 254.013 126.377 253.93 126.69C253.9 126.826 253.837 126.953 253.748 127.059C253.659 127.166 253.545 127.25 253.417 127.304C253.289 127.358 253.149 127.38 253.011 127.369C252.872 127.358 252.738 127.314 252.62 127.24Z" fill="white"/>
<path d="M265.02 134.39L256.41 129.39C256.135 129.217 255.924 128.96 255.807 128.658C255.69 128.355 255.673 128.023 255.76 127.71V127.71C255.789 127.574 255.851 127.447 255.94 127.34C256.03 127.232 256.144 127.149 256.273 127.096C256.402 127.043 256.542 127.022 256.68 127.034C256.819 127.047 256.953 127.094 257.07 127.17L265.68 132.17C265.952 132.345 266.161 132.602 266.278 132.904C266.395 133.206 266.413 133.537 266.33 133.85V133.85C266.3 133.986 266.238 134.114 266.149 134.221C266.06 134.328 265.946 134.411 265.817 134.464C265.688 134.518 265.548 134.539 265.409 134.526C265.27 134.513 265.137 134.466 265.02 134.39V134.39Z" fill="white"/>
<path d="M246.9 96.6L243.25 94.5C242.979 94.3237 242.77 94.0665 242.654 93.765C242.537 93.4635 242.518 93.1329 242.6 92.82V92.82C242.629 92.6826 242.692 92.5544 242.782 92.4463C242.871 92.3382 242.986 92.2535 243.116 92.1995C243.246 92.1454 243.386 92.1236 243.527 92.1359C243.667 92.1482 243.801 92.1942 243.92 92.27L247.57 94.38C247.842 94.5545 248.052 94.8119 248.167 95.1144C248.282 95.4169 248.297 95.7484 248.21 96.06C248.18 96.1964 248.119 96.3235 248.029 96.4305C247.94 96.5376 247.826 96.6213 247.697 96.6744C247.568 96.7276 247.428 96.7485 247.289 96.7356C247.15 96.7226 247.017 96.6761 246.9 96.6V96.6Z" fill="white"/>
<path d="M257.88 108.41L246.73 102C246.458 101.825 246.248 101.568 246.131 101.266C246.015 100.964 245.997 100.633 246.08 100.32C246.111 100.184 246.174 100.056 246.264 99.9495C246.355 99.8426 246.47 99.7591 246.599 99.7061C246.729 99.6531 246.869 99.6322 247.009 99.645C247.148 99.6579 247.282 99.7042 247.4 99.7801L258.54 106.21C258.813 106.384 259.024 106.641 259.141 106.943C259.257 107.246 259.275 107.577 259.19 107.89C259.156 108.023 259.091 108.147 259 108.25C258.909 108.353 258.795 108.434 258.668 108.485C258.54 108.535 258.402 108.555 258.265 108.542C258.128 108.529 257.996 108.484 257.88 108.41V108.41Z" fill="white"/>
<path d="M247.6 113.4L243.95 111.3C243.679 111.124 243.47 110.866 243.353 110.565C243.237 110.263 243.218 109.933 243.3 109.62C243.328 109.483 243.389 109.354 243.477 109.246C243.566 109.138 243.68 109.053 243.809 108.999C243.938 108.945 244.079 108.923 244.218 108.935C244.358 108.948 244.492 108.994 244.61 109.07L248.26 111.18C248.532 111.355 248.741 111.612 248.858 111.914C248.975 112.216 248.993 112.547 248.91 112.86V112.86C248.88 112.996 248.818 113.123 248.729 113.23C248.639 113.338 248.525 113.421 248.396 113.474C248.268 113.527 248.128 113.548 247.989 113.536C247.85 113.523 247.716 113.476 247.6 113.4V113.4Z" fill="white"/>
<path d="M266.36 146.1L256.619 140.48C256.347 140.305 256.138 140.048 256.021 139.746C255.904 139.444 255.886 139.113 255.969 138.8C255.997 138.663 256.059 138.535 256.147 138.426C256.236 138.318 256.35 138.233 256.479 138.179C256.608 138.125 256.749 138.103 256.888 138.115C257.028 138.128 257.162 138.174 257.279 138.25L267.029 143.88C267.302 144.055 267.511 144.312 267.628 144.614C267.745 144.916 267.763 145.247 267.679 145.56V145.56C267.649 145.697 267.585 145.824 267.495 145.931C267.405 146.037 267.29 146.121 267.16 146.174C267.031 146.227 266.89 146.248 266.751 146.235C266.611 146.222 266.477 146.176 266.36 146.1V146.1Z" fill="white"/>
<path d="M243.51 122L241.17 120.64C240.898 120.466 240.689 120.211 240.572 119.911C240.455 119.611 240.437 119.281 240.52 118.97V118.97C240.548 118.833 240.609 118.705 240.697 118.596C240.786 118.488 240.9 118.403 241.029 118.349C241.158 118.295 241.299 118.273 241.438 118.285C241.578 118.298 241.712 118.344 241.83 118.42L244.17 119.77C244.445 119.942 244.658 120.199 244.775 120.502C244.892 120.805 244.908 121.137 244.82 121.45C244.789 121.586 244.727 121.713 244.638 121.82C244.549 121.926 244.435 122.01 244.307 122.064C244.179 122.118 244.039 122.14 243.9 122.129C243.762 122.118 243.628 122.074 243.51 122Z" fill="white"/>
<path d="M241.289 131.63L238.389 129.95C238.114 129.778 237.901 129.521 237.784 129.218C237.667 128.915 237.651 128.583 237.739 128.27V128.27C237.769 128.134 237.831 128.006 237.92 127.899C238.009 127.792 238.124 127.709 238.252 127.656C238.381 127.602 238.521 127.581 238.66 127.594C238.799 127.607 238.933 127.654 239.049 127.73L241.959 129.4C242.23 129.576 242.439 129.833 242.556 130.135C242.672 130.437 242.691 130.767 242.609 131.08C242.58 131.217 242.518 131.346 242.428 131.454C242.338 131.562 242.223 131.646 242.093 131.701C241.964 131.755 241.823 131.776 241.683 131.764C241.543 131.752 241.408 131.706 241.289 131.63V131.63Z" fill="white"/>
<path d="M252.61 138.16L244.94 133.74C244.669 133.564 244.46 133.307 244.343 133.005C244.227 132.703 244.208 132.373 244.29 132.06C244.318 131.923 244.379 131.795 244.468 131.686C244.556 131.578 244.67 131.493 244.799 131.439C244.929 131.385 245.069 131.363 245.208 131.375C245.348 131.388 245.482 131.434 245.6 131.51L253.27 135.94C253.542 136.115 253.751 136.372 253.868 136.674C253.985 136.976 254.003 137.307 253.92 137.62V137.62C253.89 137.756 253.828 137.884 253.739 137.991C253.65 138.098 253.536 138.181 253.407 138.234C253.278 138.288 253.138 138.309 252.999 138.296C252.86 138.283 252.727 138.236 252.61 138.16V138.16Z" fill="white"/>
<path d="M242.509 137.8L236.989 134.61C236.718 134.437 236.509 134.182 236.393 133.881C236.278 133.58 236.263 133.25 236.349 132.94C236.377 132.803 236.438 132.675 236.527 132.566C236.616 132.458 236.73 132.373 236.859 132.319C236.988 132.265 237.129 132.243 237.268 132.255C237.408 132.268 237.542 132.314 237.659 132.39L243.169 135.57C243.442 135.745 243.651 136.002 243.768 136.304C243.885 136.606 243.903 136.937 243.819 137.25V137.25C243.791 137.387 243.73 137.515 243.642 137.624C243.553 137.732 243.439 137.817 243.31 137.871C243.181 137.925 243.04 137.947 242.901 137.935C242.761 137.922 242.627 137.876 242.509 137.8V137.8Z" fill="white"/>
<path d="M274.72 151L271.18 149C270.907 148.825 270.698 148.568 270.581 148.266C270.464 147.964 270.446 147.633 270.53 147.32V147.32C270.561 147.184 270.625 147.057 270.715 146.95C270.805 146.844 270.919 146.76 271.048 146.706C271.177 146.652 271.317 146.63 271.457 146.641C271.596 146.652 271.731 146.697 271.85 146.77L275.39 148.77C275.662 148.945 275.871 149.202 275.988 149.504C276.105 149.806 276.123 150.137 276.04 150.45C276.01 150.587 275.948 150.716 275.858 150.824C275.768 150.932 275.653 151.016 275.524 151.071C275.394 151.125 275.253 151.146 275.113 151.134C274.973 151.122 274.838 151.076 274.72 151Z" fill="white"/>
<path d="M261.169 121.24L251.429 115.61C251.154 115.438 250.941 115.181 250.824 114.878C250.707 114.575 250.691 114.243 250.779 113.93V113.93C250.809 113.794 250.871 113.667 250.96 113.56C251.05 113.452 251.164 113.369 251.293 113.316C251.421 113.262 251.561 113.241 251.7 113.254C251.839 113.267 251.973 113.314 252.089 113.39L261.829 119.01C262.103 119.184 262.313 119.441 262.43 119.743C262.547 120.046 262.564 120.377 262.479 120.69V120.69C262.451 120.827 262.39 120.955 262.302 121.064C262.213 121.172 262.099 121.257 261.97 121.311C261.841 121.365 261.7 121.387 261.561 121.375C261.421 121.362 261.287 121.316 261.169 121.24V121.24Z" fill="white"/>
<path d="M262.319 116.44L245.319 106.63C245.048 106.456 244.839 106.201 244.722 105.901C244.605 105.601 244.587 105.271 244.669 104.96V104.96C244.699 104.823 244.761 104.694 244.851 104.586C244.941 104.478 245.056 104.394 245.185 104.339C245.315 104.285 245.456 104.264 245.596 104.276C245.736 104.288 245.871 104.334 245.989 104.41L262.989 114.21C263.26 114.386 263.469 114.644 263.586 114.945C263.702 115.247 263.721 115.577 263.639 115.89V115.89C263.61 116.027 263.548 116.156 263.458 116.264C263.368 116.372 263.253 116.457 263.123 116.511C262.994 116.565 262.853 116.586 262.713 116.574C262.573 116.562 262.438 116.516 262.319 116.44V116.44Z" fill="#3CB9FC"/>
<path d="M252.299 121.59L242.559 116C242.287 115.825 242.078 115.568 241.961 115.266C241.844 114.964 241.826 114.633 241.909 114.32V114.32C241.939 114.184 242.001 114.057 242.09 113.95C242.18 113.842 242.294 113.759 242.423 113.706C242.551 113.652 242.691 113.632 242.83 113.644C242.969 113.657 243.103 113.704 243.219 113.78L252.969 119.4C253.242 119.575 253.451 119.832 253.568 120.134C253.685 120.436 253.703 120.767 253.619 121.08V121.08C253.583 121.213 253.516 121.335 253.424 121.437C253.331 121.539 253.216 121.618 253.088 121.668C252.96 121.717 252.821 121.736 252.684 121.723C252.548 121.709 252.416 121.664 252.299 121.59V121.59Z" fill="#3CB9FC"/>
<path d="M268.559 125.51L265.019 123.51C264.747 123.335 264.538 123.078 264.421 122.776C264.304 122.474 264.286 122.143 264.369 121.83C264.399 121.694 264.461 121.567 264.55 121.46C264.639 121.352 264.754 121.269 264.882 121.216C265.011 121.163 265.151 121.142 265.29 121.154C265.429 121.167 265.563 121.214 265.679 121.29L269.219 123.29C269.495 123.462 269.707 123.719 269.825 124.022C269.942 124.325 269.958 124.657 269.869 124.97V124.97C269.838 125.105 269.775 125.231 269.685 125.336C269.595 125.442 269.482 125.525 269.354 125.578C269.225 125.63 269.086 125.652 268.948 125.64C268.81 125.628 268.677 125.584 268.559 125.51V125.51Z" fill="#3CB9FC"/>
<path d="M304.569 124.43L283.569 112.33C283.295 112.157 283.084 111.9 282.966 111.598C282.849 111.295 282.833 110.963 282.919 110.65V110.65C282.947 110.513 283.008 110.385 283.097 110.276C283.186 110.168 283.3 110.083 283.429 110.029C283.558 109.975 283.699 109.953 283.838 109.965C283.978 109.978 284.112 110.024 284.229 110.1L305.229 122.2C305.504 122.373 305.715 122.63 305.832 122.932C305.949 123.235 305.966 123.567 305.879 123.88C305.851 124.017 305.79 124.145 305.702 124.254C305.613 124.362 305.499 124.447 305.37 124.501C305.241 124.555 305.1 124.577 304.961 124.565C304.821 124.552 304.687 124.506 304.569 124.43Z" fill="#3CB9FC"/>
<path d="M251.49 132.05L239.78 125.29C239.506 125.116 239.296 124.859 239.179 124.557C239.062 124.254 239.045 123.923 239.13 123.61C239.158 123.473 239.219 123.344 239.308 123.236C239.396 123.128 239.51 123.043 239.639 122.989C239.769 122.935 239.909 122.913 240.048 122.925C240.188 122.938 240.322 122.984 240.44 123.06L252.15 129.82C252.424 129.993 252.636 130.25 252.753 130.552C252.87 130.855 252.886 131.187 252.8 131.5V131.5C252.772 131.637 252.711 131.765 252.622 131.874C252.533 131.982 252.419 132.067 252.29 132.121C252.161 132.175 252.021 132.197 251.881 132.185C251.742 132.172 251.607 132.126 251.49 132.05V132.05Z" fill="#F8359E"/>
<path d="M253.26 94.7999L244.64 89.7999C244.367 89.6255 244.158 89.368 244.042 89.0656C243.927 88.7631 243.912 88.4316 244 88.1199V88.1199C244.029 87.9836 244.091 87.8565 244.18 87.7494C244.27 87.6424 244.384 87.5587 244.513 87.5056C244.642 87.4524 244.781 87.4314 244.92 87.4444C245.059 87.4574 245.193 87.5039 245.31 87.5799L253.92 92.5799C254.192 92.7552 254.401 93.0123 254.518 93.3142C254.635 93.616 254.653 93.9472 254.57 94.2599C254.54 94.3963 254.478 94.5234 254.389 94.6305C254.299 94.7375 254.185 94.8212 254.056 94.8743C253.928 94.9275 253.788 94.9484 253.649 94.9355C253.51 94.9225 253.376 94.876 253.26 94.7999Z" fill="#F8359E"/>
<path d="M240.71 142.22L230.71 136.47C230.439 136.294 230.23 136.036 230.114 135.735C229.997 135.433 229.978 135.103 230.06 134.79C230.089 134.653 230.152 134.524 230.241 134.416C230.331 134.308 230.446 134.224 230.576 134.169C230.706 134.115 230.846 134.094 230.986 134.106C231.126 134.118 231.261 134.164 231.38 134.24L241.38 140C241.652 140.175 241.861 140.432 241.978 140.734C242.095 141.036 242.113 141.367 242.03 141.68V141.68C242.001 141.818 241.939 141.947 241.849 142.055C241.759 142.163 241.644 142.248 241.513 142.301C241.383 142.354 241.242 142.375 241.101 142.361C240.961 142.347 240.827 142.298 240.71 142.22Z" fill="#3CB9FC"/>
<path d="M306.92 113.65L302.66 111.18C302.459 111.055 302.304 110.869 302.218 110.649C302.132 110.43 302.118 110.188 302.18 109.96C302.197 109.853 302.242 109.753 302.31 109.669C302.378 109.584 302.467 109.519 302.567 109.479C302.668 109.438 302.777 109.425 302.884 109.439C302.991 109.453 303.093 109.495 303.18 109.56L307.45 112.02C307.648 112.149 307.8 112.338 307.884 112.559C307.969 112.78 307.981 113.022 307.92 113.25V113.25C307.902 113.357 307.857 113.457 307.789 113.541C307.721 113.626 307.633 113.691 307.532 113.731C307.432 113.772 307.322 113.785 307.215 113.771C307.108 113.757 307.006 113.715 306.92 113.65V113.65Z" fill="white"/>
<path d="M315.1 118.35L310.83 115.89C310.63 115.762 310.475 115.574 310.389 115.353C310.303 115.132 310.289 114.889 310.35 114.66C310.367 114.553 310.412 114.453 310.48 114.369C310.548 114.284 310.637 114.219 310.737 114.179C310.838 114.138 310.947 114.125 311.054 114.139C311.161 114.153 311.263 114.195 311.35 114.26L315.62 116.72C315.82 116.848 315.974 117.036 316.06 117.257C316.146 117.478 316.16 117.721 316.1 117.95V117.95C316.082 118.057 316.037 118.157 315.969 118.241C315.901 118.326 315.813 118.391 315.712 118.431C315.612 118.472 315.503 118.485 315.395 118.471C315.288 118.457 315.186 118.415 315.1 118.35V118.35Z" fill="white"/>
<path d="M323.21 123.05L318.94 120.59C318.739 120.463 318.585 120.275 318.5 120.053C318.415 119.831 318.405 119.588 318.47 119.36V119.36C318.489 119.26 318.533 119.166 318.597 119.087C318.661 119.008 318.744 118.946 318.838 118.906C318.932 118.867 319.034 118.851 319.135 118.86C319.237 118.87 319.334 118.904 319.42 118.96L323.69 121.42C323.89 121.548 324.044 121.736 324.13 121.957C324.216 122.178 324.23 122.421 324.17 122.65V122.65C324.149 122.75 324.104 122.844 324.038 122.923C323.973 123.002 323.89 123.064 323.795 123.103C323.701 123.143 323.598 123.158 323.496 123.149C323.394 123.14 323.295 123.106 323.21 123.05V123.05Z" fill="white"/>
<path d="M327.209 125.36L327.079 125.29C326.881 125.161 326.729 124.972 326.645 124.751C326.56 124.53 326.548 124.288 326.609 124.06V124.06C326.627 123.953 326.672 123.853 326.74 123.769C326.808 123.684 326.896 123.619 326.997 123.579C327.097 123.538 327.207 123.525 327.314 123.539C327.421 123.553 327.523 123.595 327.609 123.66L327.739 123.74C327.936 123.869 328.087 124.055 328.171 124.274C328.255 124.493 328.269 124.733 328.209 124.96V124.96C328.192 125.067 328.147 125.167 328.079 125.251C328.011 125.336 327.922 125.401 327.822 125.441C327.721 125.482 327.612 125.495 327.505 125.481C327.398 125.467 327.296 125.425 327.209 125.36Z" fill="#F8359E"/>
<path d="M106.899 175.32C104.155 175.32 101.458 174.6 99.0794 173.23V173.23L70.4894 156.72C69.8971 156.365 69.4069 155.862 69.0666 155.261C68.7262 154.66 68.5474 153.981 68.5474 153.29C68.5474 152.599 68.7262 151.92 69.0666 151.319C69.4069 150.718 69.8971 150.215 70.4894 149.86L99.0994 133.36C101.476 131.989 104.171 131.268 106.914 131.268C109.658 131.268 112.353 131.989 114.729 133.36L143.319 149.87C143.924 150.214 144.428 150.712 144.778 151.314C145.128 151.915 145.312 152.599 145.312 153.295C145.312 153.991 145.128 154.675 144.778 155.276C144.428 155.878 143.924 156.376 143.319 156.72L114.729 173.23C112.349 174.603 109.648 175.324 106.899 175.32V175.32ZM100.009 171.62C102.104 172.824 104.478 173.457 106.894 173.457C109.311 173.457 111.684 172.824 113.779 171.62L142.369 155.11C142.69 154.927 142.956 154.663 143.141 154.344C143.326 154.026 143.423 153.664 143.423 153.295C143.423 152.926 143.326 152.564 143.141 152.246C142.956 151.927 142.69 151.663 142.369 151.48L113.779 135C111.685 133.793 109.311 133.158 106.894 133.158C104.478 133.158 102.103 133.793 100.009 135L71.4194 151.51C71.0994 151.693 70.8333 151.957 70.6482 152.276C70.4632 152.594 70.3657 152.956 70.3657 153.325C70.3657 153.694 70.4632 154.056 70.6482 154.374C70.8333 154.693 71.0994 154.957 71.4194 155.14L100.009 171.62Z" fill="url(#paint10_linear)"/>
<path opacity="0.6" d="M106.749 165.02C117.596 165.02 126.389 159.943 126.389 153.68C126.389 147.417 117.596 142.34 106.749 142.34C95.9025 142.34 87.1094 147.417 87.1094 153.68C87.1094 159.943 95.9025 165.02 106.749 165.02Z" fill="#252C48"/>
<path d="M135.87 72.86H79.8696L85.0996 133.43C85.0996 136.8 87.3196 140.16 91.7696 142.73C100.66 147.86 115.07 147.86 123.97 142.73C128.41 140.16 130.63 136.8 130.63 133.43L135.87 72.86Z" fill="url(#paint11_radial)"/>
<path opacity="0.4" d="M135.87 72.86H79.8696L80.7296 82.86C82.1969 84.6831 83.9496 86.2568 85.9196 87.52C96.6096 94.61 114.24 95.98 126.28 90.87L124.42 135.17C124.358 137.106 123.654 138.967 122.42 140.46C120.61 142.59 117.12 145.1 110.42 146.52C115.161 146.295 119.791 145.01 123.97 142.76C128.41 140.19 130.63 136.83 130.63 133.46L134.81 84.89L135.87 72.86Z" fill="#06033E"/>
<path opacity="0.4" d="M107.9 89.01C123.347 89.01 135.87 81.7794 135.87 72.86C135.87 63.9406 123.347 56.71 107.9 56.71C92.4523 56.71 79.9297 63.9406 79.9297 72.86C79.9297 81.7794 92.4523 89.01 107.9 89.01Z" fill="#06033E"/>
<path opacity="0.4" d="M107.9 81.08C121.204 81.08 131.99 74.8523 131.99 67.17C131.99 59.4877 121.204 53.26 107.9 53.26C94.595 53.26 83.8096 59.4877 83.8096 67.17C83.8096 74.8523 94.595 81.08 107.9 81.08Z" fill="#06033E"/>
<path d="M137.52 72.1001C137.524 72.0703 137.524 72.0399 137.52 72.0101L136.99 66.5901V66.6501C136.75 62.5501 133.93 58.4801 128.5 55.3501C117.14 48.7901 98.7296 48.7901 87.3696 55.3501C81.8096 58.5601 78.9796 62.7501 78.8696 66.9601L78.3596 71.7901C78.3596 71.9101 78.3596 72.0401 78.3596 72.1601V72.2401C78.0596 76.8401 80.9396 81.5001 87.0196 85.0101C98.6096 91.7001 117.39 91.7001 129.02 85.0101C134.99 81.4301 137.87 76.7301 137.52 72.1001Z" fill="url(#paint12_linear)"/>
<path d="M107.9 81.08C121.204 81.08 131.99 74.8523 131.99 67.17C131.99 59.4877 121.204 53.26 107.9 53.26C94.595 53.26 83.8096 59.4877 83.8096 67.17C83.8096 74.8523 94.595 81.08 107.9 81.08Z" fill="url(#paint13_linear)"/>
<path d="M106.75 81.08C120.054 81.08 130.84 74.8523 130.84 67.17C130.84 59.4877 120.054 53.26 106.75 53.26C93.4451 53.26 82.6597 59.4877 82.6597 67.17C82.6597 74.8523 93.4451 81.08 106.75 81.08Z" fill="url(#paint14_linear)"/>
<path opacity="0.4" d="M93.7196 59.41C103.13 53.98 118.38 53.98 127.79 59.41L128.13 59.62C127.146 58.7499 126.073 57.9857 124.93 57.34C115.52 51.9 100.27 51.9 90.8596 57.34C81.4496 62.78 81.4696 71.34 90.5196 76.79C84.4796 71.4 85.5396 64.13 93.7196 59.41Z" fill="#06033E"/>
<path d="M90.8595 59.7501C100.27 54.3201 115.52 54.3201 124.93 59.7501C129.1 62.1601 131.42 65.23 131.93 68.38C132.53 64.43 130.21 60.38 124.93 57.38C115.52 51.94 100.27 51.94 90.8595 57.38C85.6195 60.38 83.3095 64.47 83.8595 68.38C84.3695 65.23 86.6895 62.1601 90.8595 59.7501Z" fill="url(#paint15_linear)"/>
<path d="M128.639 55.4399C117.299 48.7599 98.8195 48.5899 87.3595 55.0699C75.8995 61.5499 75.8095 72.2199 87.1495 78.8999C98.4895 85.5799 116.969 85.7499 128.429 79.2699C139.889 72.7899 139.979 62.1199 128.639 55.4399ZM124.929 76.9999C121.518 78.8745 117.788 80.0986 113.929 80.6099L113.489 79.1699C113.407 78.8829 113.234 78.6303 112.996 78.4499C112.758 78.2696 112.468 78.1714 112.169 78.1699H103.519C103.221 78.1714 102.931 78.2696 102.693 78.4499C102.455 78.6303 102.282 78.8829 102.199 79.1699L101.759 80.6099C97.9019 80.0938 94.1727 78.87 90.7595 76.9999C81.3495 71.5599 81.3495 62.7599 90.7595 57.3299C100.169 51.8999 115.419 51.8899 124.829 57.3299C134.239 62.7699 134.339 71.5699 124.929 76.9999Z" fill="url(#paint16_radial)"/>
<path d="M124.93 56.31C115.52 50.87 100.27 50.87 90.8598 56.31C85.9298 59.15 83.5898 62.93 83.8598 66.66C84.0698 63.27 86.4098 59.92 90.8598 57.34C100.27 51.9 115.52 51.9 124.93 57.34C129.41 59.92 131.75 63.27 131.93 66.66C132.2 62.93 129.86 59.15 124.93 56.31Z" fill="white"/>
<path d="M128.43 78.24C116.97 84.72 98.4898 84.56 87.1498 77.87C81.7598 74.7 78.9498 70.61 78.7298 66.51C78.5098 70.95 81.2998 75.46 87.1498 78.9C98.4898 85.59 116.97 85.75 128.43 79.27C134.43 75.87 137.31 71.27 137.06 66.8C136.85 71 133.98 75.1 128.43 78.24Z" fill="white"/>
<path d="M110.49 79.97H105.31C104.951 79.97 104.66 80.261 104.66 80.62V80.72C104.66 81.079 104.951 81.37 105.31 81.37H110.49C110.849 81.37 111.14 81.079 111.14 80.72V80.62C111.14 80.261 110.849 79.97 110.49 79.97Z" fill="#0C0A78"/>
<path d="M110.48 80H105.31C105.137 80 104.972 80.0685 104.85 80.1904C104.728 80.3123 104.66 80.4776 104.66 80.65V80.74C104.655 80.7999 104.655 80.8601 104.66 80.92C104.695 80.7826 104.775 80.6608 104.888 80.5739C105 80.487 105.138 80.4399 105.28 80.44H110.45C110.592 80.4399 110.73 80.487 110.842 80.5739C110.954 80.6608 111.034 80.7826 111.07 80.92C111.079 80.8604 111.079 80.7996 111.07 80.74V80.65C111.071 80.4875 111.01 80.3307 110.901 80.2104C110.792 80.09 110.642 80.015 110.48 80V80Z" fill="url(#paint17_linear)"/>
<path opacity="0.5" d="M109.73 80.67C109.73 80.67 125.37 75.43 119.04 57.45C112.71 39.47 100.37 34 105.34 19.63C105.34 19.63 97.5596 31.27 104.83 47.01C112.1 62.75 113.7 60.95 113.61 68.48C113.633 70.9907 112.961 73.4588 111.667 75.6106C110.373 77.7623 108.508 79.5136 106.28 80.67H109.73Z" fill="white"/>
<path opacity="0.5" d="M111.1 22.1301C111.1 22.1301 109.48 11.38 119.56 0.550049C119.56 0.550049 110.64 20.4601 113.56 30.3001C113.59 30.3001 111.23 24.0501 111.1 22.1301Z" fill="white"/>
<defs>
<linearGradient id="paint0_linear" x1="406.155" y1="265.407" x2="433.08" y2="284.036" gradientUnits="userSpaceOnUse">
<stop offset="0.197917" stop-color="#8A2BE2"/>
<stop offset="1" stop-color="#3CB9FC"/>
</linearGradient>
<linearGradient id="paint1_linear" x1="361.512" y1="217.782" x2="406.206" y2="249.254" gradientUnits="userSpaceOnUse">
<stop offset="0.197917" stop-color="#8A2BE2"/>
<stop offset="1" stop-color="#3CB9FC"/>
</linearGradient>
<linearGradient id="paint2_linear" x1="0.291016" y1="236.136" x2="44.9904" y2="267.6" gradientUnits="userSpaceOnUse">
<stop offset="0.197917" stop-color="#8A2BE2"/>
<stop offset="1" stop-color="#3CB9FC"/>
</linearGradient>
<linearGradient id="paint3_linear" x1="64.0996" y1="200.01" x2="304.082" y2="367.439" gradientUnits="userSpaceOnUse">
<stop offset="0.197917" stop-color="#8A2BE2"/>
<stop offset="1" stop-color="#3CB9FC"/>
</linearGradient>
<radialGradient id="paint4_radial" cx="0" cy="0" r="1" gradientUnits="userSpaceOnUse" gradientTransform="translate(225.55 23.61) scale(223.3)">
<stop stop-color="#3CB9FC"/>
<stop offset="0.47" stop-color="#A92FFB"/>
<stop offset="0.59" stop-color="#891CFB"/>
<stop offset="0.74" stop-color="#6507FA"/>
<stop offset="0.8" stop-color="#0D0C6F"/>
</radialGradient>
<radialGradient id="paint5_radial" cx="0" cy="0" r="1" gradientUnits="userSpaceOnUse" gradientTransform="translate(88.9694 202.93) scale(244.17)">
<stop stop-color="#B537F2"/>
<stop offset="0.47" stop-color="#A92FFB"/>
<stop offset="0.57" stop-color="#891CFB"/>
<stop offset="0.68" stop-color="#6507FA"/>
<stop offset="0.74" stop-color="#0D0C6F"/>
</radialGradient>
<radialGradient id="paint6_radial" cx="0" cy="0" r="1" gradientUnits="userSpaceOnUse" gradientTransform="translate(111.429 153.92) scale(218.96)">
<stop stop-color="#B537F2"/>
<stop offset="0.47" stop-color="#A92FFB"/>
<stop offset="0.59" stop-color="#891CFB"/>
<stop offset="0.73" stop-color="#6507FA"/>
<stop offset="1" stop-color="#3919BB"/>
</radialGradient>
<radialGradient id="paint7_radial" cx="0" cy="0" r="1" gradientUnits="userSpaceOnUse" gradientTransform="translate(44771.6 21389.5) scale(41337.7 44510.4)">
<stop stop-color="#E39A65"/>
<stop offset="0.47" stop-color="#A92FFB"/>
<stop offset="0.59" stop-color="#891CFB"/>
<stop offset="0.73" stop-color="#6507FA"/>
<stop offset="1" stop-color="#3919BB"/>
</radialGradient>
<linearGradient id="paint8_linear" x1="190.529" y1="128.81" x2="369.489" y2="128.81" gradientUnits="userSpaceOnUse">
<stop stop-color="#3919BB"/>
<stop offset="1" stop-color="#6507FA"/>
</linearGradient>
<radialGradient id="paint9_radial" cx="0" cy="0" r="1" gradientUnits="userSpaceOnUse" gradientTransform="translate(19582.2 7850.21) scale(42274.6 45524.7)">
<stop stop-color="#E39A65"/>
<stop offset="0.47" stop-color="#A92FFB"/>
<stop offset="0.59" stop-color="#891CFB"/>
<stop offset="0.73" stop-color="#6507FA"/>
<stop offset="1" stop-color="#3919BB"/>
</radialGradient>
<linearGradient id="paint10_linear" x1="68.5474" y1="142.941" x2="130.889" y2="187.153" gradientUnits="userSpaceOnUse">
<stop offset="0.197917" stop-color="#8A2BE2"/>
<stop offset="1" stop-color="#3CB9FC"/>
</linearGradient>
<radialGradient id="paint11_radial" cx="0" cy="0" r="1" gradientUnits="userSpaceOnUse" gradientTransform="translate(75.3196 90.67) scale(165.35)">
<stop stop-color="#E92EFB"/>
<stop offset="0.15" stop-color="#A92FFB"/>
<stop offset="0.41" stop-color="#3919BB"/>
<stop offset="0.93" stop-color="#3919BB"/>
</radialGradient>
<linearGradient id="paint12_linear" x1="78.2396" y1="70.1801" x2="137.55" y2="70.1801" gradientUnits="userSpaceOnUse">
<stop stop-color="#3CB9FC"/>
<stop offset="0.25" stop-color="#A92FFB"/>
<stop offset="0.56" stop-color="#3919BB"/>
</linearGradient>
<linearGradient id="paint13_linear" x1="83.7996" y1="67.17" x2="131.99" y2="67.17" gradientUnits="userSpaceOnUse">
<stop stop-color="#4F1FEC"/>
<stop offset="1" stop-color="#A92FFB"/>
</linearGradient>
<linearGradient id="paint14_linear" x1="7673.9" y1="2951.27" x2="9995.22" y2="2951.27" gradientUnits="userSpaceOnUse">
<stop stop-color="#4F1FEC"/>
<stop offset="1" stop-color="#A92FFB"/>
</linearGradient>
<linearGradient id="paint15_linear" x1="83.8095" y1="60.82" x2="144.56" y2="60.82" gradientUnits="userSpaceOnUse">
<stop stop-color="#131060"/>
<stop offset="0.19" stop-color="#141062"/>
<stop offset="0.28" stop-color="#19106A"/>
<stop offset="0.36" stop-color="#221078"/>
<stop offset="0.42" stop-color="#2E0F8B"/>
<stop offset="0.48" stop-color="#3E0FA3"/>
<stop offset="0.54" stop-color="#510EC2"/>
<stop offset="0.58" stop-color="#680DE5"/>
<stop offset="0.61" stop-color="#740DF8"/>
<stop offset="0.62" stop-color="#7A14F0"/>
<stop offset="0.68" stop-color="#9B3CC3"/>
<stop offset="0.75" stop-color="#B75D9D"/>
<stop offset="0.81" stop-color="#CC7680"/>
<stop offset="0.88" stop-color="#DC886C"/>
<stop offset="0.94" stop-color="#E5935F"/>
<stop offset="1" stop-color="#E8975B"/>
</linearGradient>
<radialGradient id="paint16_radial" cx="0" cy="0" r="1" gradientUnits="userSpaceOnUse" gradientTransform="translate(70.8395 53.3999) scale(108.16)">
<stop stop-color="#E39A65"/>
<stop offset="0.25" stop-color="#A92FFB"/>
<stop offset="0.74" stop-color="#3919BB"/>
</radialGradient>
<linearGradient id="paint17_linear" x1="1253.84" y1="188.035" x2="1307.84" y2="188.035" gradientUnits="userSpaceOnUse">
<stop stop-color="#131060"/>
<stop offset="0.19" stop-color="#141062"/>
<stop offset="0.28" stop-color="#19106A"/>
<stop offset="0.36" stop-color="#221078"/>
<stop offset="0.42" stop-color="#2E0F8B"/>
<stop offset="0.48" stop-color="#3E0FA3"/>
<stop offset="0.54" stop-color="#510EC2"/>
<stop offset="0.58" stop-color="#680DE5"/>
<stop offset="0.61" stop-color="#740DF8"/>
<stop offset="0.62" stop-color="#7A14F0"/>
<stop offset="0.68" stop-color="#9B3CC3"/>
<stop offset="0.75" stop-color="#B75D9D"/>
<stop offset="0.81" stop-color="#CC7680"/>
<stop offset="0.88" stop-color="#DC886C"/>
<stop offset="0.94" stop-color="#E5935F"/>
<stop offset="1" stop-color="#E8975B"/>
</linearGradient>
</defs>
</svg>
