<svg width="133" height="59" viewBox="0 0 133 59" fill="none" xmlns="http://www.w3.org/2000/svg">
<path d="M46.164 42.3784H55.8735C59.7405 42.3784 61.59 40.5289 61.59 36.6619V12.9555H53.6878V34.8966C53.6878 35.485 53.5197 35.6531 52.9312 35.6531H49.1062C48.5178 35.6531 48.3497 35.485 48.3497 34.8966V30.1469H40.4475V36.6619C40.4475 40.5289 42.2969 42.3784 46.164 42.3784Z" fill="white"/>
<path d="M66.604 42.3784H84.0896C87.9566 42.3784 89.8061 40.5289 89.8061 36.6619V18.6719C89.8061 14.8049 87.9566 12.9555 84.0896 12.9555H66.604V42.3784ZM74.5062 35.8213V19.5126H81.1473C81.7358 19.5126 81.9039 19.6807 81.9039 20.2692V35.0647C81.9039 35.6531 81.7358 35.8213 81.1473 35.8213H74.5062Z" fill="white"/>
<path opacity="0.8" d="M101.737 58.9991H90.6194L112.616 28.5114H132.009L114.858 52.2827C113.358 54.3592 111.386 56.0505 109.105 57.218C106.825 58.3854 104.3 58.9958 101.737 58.9991Z" fill="white"/>
<path d="M103.021 0.0626032H91.8306L122.306 41.7164L132.009 28.4634L116.07 6.68308C114.568 4.63125 112.604 2.96241 110.337 1.81208C108.07 0.661761 105.563 0.0623813 103.021 0.0626032V0.0626032Z" fill="white"/>
<path opacity="0.8" d="M30.5111 58.9991H41.6292L19.6329 28.5114H0.239258L17.3901 52.2827C18.891 54.3592 20.8626 56.0505 23.1433 57.218C25.424 58.3854 27.9489 58.9958 30.5111 58.9991V58.9991Z" fill="white"/>
<path d="M29.2278 0.0626032H40.4178L9.94207 41.7644L0.239258 28.5114L16.1788 6.73104C17.6749 4.67038 19.6367 2.99229 21.9044 1.83348C24.172 0.674662 26.6812 0.0678927 29.2278 0.0626032V0.0626032Z" fill="white"/>
</svg>
