<svg width="23" height="21" viewBox="0 0 23 21" fill="none" xmlns="http://www.w3.org/2000/svg">
<path fill-rule="evenodd" clip-rule="evenodd" d="M0.250416 10.4999C0.250416 10.127 0.398573 9.76929 0.662296 9.50556C0.926019 9.24184 1.28371 9.09368 1.65667 9.09368L17.9495 9.09368L11.911 3.05806C11.7803 2.92731 11.6766 2.77209 11.6058 2.60126C11.5351 2.43043 11.4986 2.24734 11.4986 2.06243C11.4986 1.87753 11.5351 1.69443 11.6058 1.5236C11.6766 1.35277 11.7803 1.19755 11.911 1.06681C12.0418 0.936059 12.197 0.832345 12.3678 0.761585C12.5387 0.690825 12.7218 0.654406 12.9067 0.654406C13.0916 0.654406 13.2747 0.690825 13.4455 0.761585C13.6163 0.832345 13.7715 0.936059 13.9023 1.06681L22.3398 9.50431C22.4708 9.63494 22.5747 9.79012 22.6455 9.96096C22.7164 10.1318 22.7529 10.315 22.7529 10.4999C22.7529 10.6849 22.7164 10.8681 22.6455 11.0389C22.5747 11.2097 22.4708 11.3649 22.3398 11.4956L13.9023 19.9331C13.6382 20.1971 13.2801 20.3455 12.9067 20.3455C12.5332 20.3455 12.1751 20.1971 11.911 19.9331C11.647 19.669 11.4986 19.3109 11.4986 18.9374C11.4986 18.564 11.647 18.2059 11.911 17.9418L17.9495 11.9062L1.65667 11.9062C1.28371 11.9062 0.926019 11.758 0.662296 11.4943C0.398573 11.2306 0.250416 10.8729 0.250416 10.4999Z" fill="white"/>
</svg>
