<svg width="23" height="21" viewBox="0 0 23 21" fill="none" xmlns="http://www.w3.org/2000/svg">
<path fill-rule="evenodd" clip-rule="evenodd" d="M22.7496 10.5001C22.7496 10.873 22.6014 11.2307 22.3377 11.4944C22.074 11.7582 21.7163 11.9063 21.3433 11.9063H5.05052L11.089 17.9419C11.2197 18.0727 11.3234 18.2279 11.3942 18.3987C11.4649 18.5696 11.5014 18.7527 11.5014 18.9376C11.5014 19.1225 11.4649 19.3056 11.3942 19.4764C11.3234 19.6472 11.2197 19.8024 11.089 19.9332C10.9582 20.0639 10.803 20.1677 10.6322 20.2384C10.4613 20.3092 10.2782 20.3456 10.0933 20.3456C9.90843 20.3456 9.72533 20.3092 9.55451 20.2384C9.38368 20.1677 9.22846 20.0639 9.09771 19.9332L0.660209 11.4957C0.52925 11.3651 0.425348 11.2099 0.354455 11.039C0.283561 10.8682 0.24707 10.685 0.24707 10.5001C0.24707 10.3151 0.283561 10.1319 0.354455 9.9611C0.425348 9.79025 0.52925 9.63507 0.660209 9.50444L9.09771 1.06694C9.36177 0.802887 9.7199 0.654541 10.0933 0.654541C10.4668 0.654541 10.8249 0.802887 11.089 1.06694C11.353 1.331 11.5014 1.68914 11.5014 2.06257C11.5014 2.436 11.353 2.79414 11.089 3.05819L5.05052 9.09382H21.3433C21.7163 9.09382 22.074 9.24198 22.3377 9.5057C22.6014 9.76942 22.7496 10.1271 22.7496 10.5001Z" fill="white"/>
</svg>
