<svg width="146" height="146" viewBox="0 0 146 146" fill="#8f99a1" xmlns="http://www.w3.org/2000/svg">
<path d="M0.722168 73.1947V145.445H145.227V0.940186H0.722168V73.1947ZM117.173 67.4373C120.842 68.354 123.642 69.9841 126.211 72.6438C127.544 74.0662 129.515 76.6582 129.675 77.2768C129.72 77.4575 123.437 81.6796 119.628 84.0435C119.492 84.1338 118.939 83.54 118.318 82.6211C116.46 79.9117 114.511 78.7444 111.529 78.5389C107.149 78.2409 104.304 80.5349 104.349 84.3641C104.349 85.4885 104.507 86.1523 104.968 87.0735C105.932 89.0694 107.722 90.2615 113.34 92.6954C123.685 97.1433 128.11 100.078 130.86 104.255C133.931 108.911 134.622 116.344 132.536 121.871C130.242 127.881 124.554 131.963 116.55 133.318C114.073 133.754 108.201 133.686 105.541 133.205C99.7385 132.173 94.234 129.306 90.8382 125.544C89.5061 124.077 86.9164 120.245 87.0767 119.968C87.1445 119.877 87.7428 119.509 88.4088 119.119L93.7757 116.025L97.93 113.616L98.8016 114.903C100.016 116.761 102.678 119.306 104.284 120.155C108.894 122.587 115.225 122.241 118.343 119.444C119.675 118.229 120.224 116.967 120.224 115.109C120.224 113.433 120.02 112.7 119.147 111.44C118.022 109.837 115.728 108.482 109.212 105.66C101.757 102.449 98.5464 100.453 95.6113 97.2878C93.9134 95.4522 92.3081 92.5171 91.642 90.0628C91.0911 88.0218 90.9534 82.9056 91.3892 80.8419C92.9245 73.6169 98.3613 68.6159 106.207 67.1257C108.754 66.6448 114.674 66.8277 117.171 67.4463L117.173 67.4373ZM83.2497 73.4656L83.2949 79.3811H64.4873V132.824H51.1843V79.3811H32.3767V73.5785L32.5347 67.6179C32.6025 67.5276 44.0496 67.4824 57.9261 67.505L83.1797 67.5728L83.2497 73.4656Z" fill="#8F99A1"/>
</svg>
