<svg width="32" height="32" viewBox="0 0 32 32" fill="none" xmlns="http://www.w3.org/2000/svg">
<path d="M12.4643 18.648H14.2531C14.9655 18.648 15.3062 18.3073 15.3062 17.5949V13.2275H13.8504V17.2697C13.8504 17.3781 13.8194 17.4091 13.711 17.4091H13.0063C12.8979 17.4091 12.8669 17.3781 12.8669 17.2697V16.3946H11.4111V17.5949C11.4111 18.3073 11.7519 18.648 12.4643 18.648ZM16.2299 18.648H19.4513C20.1637 18.648 20.5044 18.3073 20.5044 17.5949V14.2806C20.5044 13.5682 20.1637 13.2275 19.4513 13.2275H16.2299V18.648ZM17.6857 17.44V14.4355H18.9092C19.0176 14.4355 19.0486 14.4665 19.0486 14.5749V17.3006C19.0486 17.4091 19.0176 17.44 18.9092 17.44H17.6857Z" fill="white"/>
<path opacity="0.8" d="M23.8319 22.6773H21.4404L26.1718 16.1194H30.3435L26.6543 21.2326C26.3314 21.6793 25.9074 22.0431 25.4168 22.2942C24.9261 22.5453 24.383 22.6766 23.8319 22.6773Z" fill="white"/>
<path d="M24.1081 10H21.7012L28.2565 18.9598L30.3437 16.1091L26.915 11.4241C26.5921 10.9827 26.1696 10.6238 25.682 10.3763C25.1941 10.1289 24.6551 9.99995 24.1081 10Z" fill="white"/>
<path opacity="0.8" d="M8.51152 22.6773H10.903L6.1716 16.1194H2L5.68917 21.2326C6.01201 21.6793 6.43611 22.0431 6.92671 22.2942C7.4173 22.5453 7.96041 22.6766 8.51152 22.6773Z" fill="white"/>
<path d="M8.23548 10H10.6425L4.08709 18.9701L2 16.1194L5.42862 11.4344C5.75045 10.9911 6.17244 10.6302 6.6602 10.3809C7.14797 10.1317 7.68772 10.0011 8.23548 10Z" fill="white"/>
</svg>
